<svg width="305" height="190" viewBox="0 0 305 190" fill="none" xmlns="http://www.w3.org/2000/svg">
<rect width="305" height="190" rx="25" fill="white" fill-opacity="0.1"/>
<circle cx="64" cy="64" r="40" fill="white" fill-opacity="0.3"/>
<g clip-path="url(#clip0_2001_67671)">
<path d="M63.975 91.95C79.4252 91.95 91.95 79.4252 91.95 63.975C91.95 48.5248 79.4252 36 63.975 36C48.5248 36 36 48.5248 36 63.975C36 79.4252 48.5248 91.95 63.975 91.95Z" fill="#FFDA44"/>
<path d="M53.0283 54.2447H90.2099C86.2573 43.5918 76.0032 36.0001 63.975 36.0001C56.2498 36.0001 49.2568 39.1318 44.1946 44.1947L53.0283 54.2447Z" fill="#338AF3"/>
<path d="M53.0283 73.7054H90.2099C86.2573 84.3583 76.0032 91.95 63.975 91.95C56.2498 91.95 49.2568 88.8182 44.1946 83.7554L53.0283 73.7054Z" fill="#338AF3"/>
<path d="M44.1937 44.1937C33.2688 55.1186 33.2688 72.8314 44.1937 83.7564C48.7082 79.2419 53.0502 74.8999 63.9751 63.975L44.1937 44.1937Z" fill="black"/>
</g>
<path d="M121.84 50.144C121.192 50.144 120.616 49.996 120.112 49.7C119.616 49.396 119.228 48.988 118.948 48.476C118.668 47.956 118.528 47.376 118.528 46.736C118.528 46.08 118.668 45.5 118.948 44.996C119.236 44.492 119.62 44.096 120.1 43.808C120.58 43.512 121.124 43.364 121.732 43.364C122.22 43.364 122.656 43.448 123.04 43.616C123.424 43.784 123.748 44.016 124.012 44.312C124.276 44.6 124.476 44.932 124.612 45.308C124.756 45.684 124.828 46.084 124.828 46.508C124.828 46.612 124.824 46.72 124.816 46.832C124.808 46.944 124.792 47.048 124.768 47.144H119.596V46.064H124L123.352 46.556C123.432 46.164 123.404 45.816 123.268 45.512C123.14 45.2 122.94 44.956 122.668 44.78C122.404 44.596 122.092 44.504 121.732 44.504C121.372 44.504 121.052 44.596 120.772 44.78C120.492 44.956 120.276 45.212 120.124 45.548C119.972 45.876 119.912 46.276 119.944 46.748C119.904 47.188 119.964 47.572 120.124 47.9C120.292 48.228 120.524 48.484 120.82 48.668C121.124 48.852 121.468 48.944 121.852 48.944C122.244 48.944 122.576 48.856 122.848 48.68C123.128 48.504 123.348 48.276 123.508 47.996L124.612 48.536C124.484 48.84 124.284 49.116 124.012 49.364C123.748 49.604 123.428 49.796 123.052 49.94C122.684 50.076 122.28 50.144 121.84 50.144ZM129.175 50.144C128.615 50.144 128.095 50.04 127.615 49.832C127.135 49.616 126.727 49.324 126.391 48.956C126.055 48.588 125.807 48.164 125.647 47.684L126.847 47.18C127.063 47.732 127.379 48.156 127.795 48.452C128.211 48.748 128.691 48.896 129.235 48.896C129.555 48.896 129.835 48.848 130.075 48.752C130.315 48.648 130.499 48.504 130.627 48.32C130.763 48.136 130.831 47.924 130.831 47.684C130.831 47.356 130.739 47.096 130.555 46.904C130.371 46.712 130.099 46.56 129.739 46.448L128.059 45.92C127.387 45.712 126.875 45.396 126.523 44.972C126.171 44.54 125.995 44.036 125.995 43.46C125.995 42.956 126.119 42.516 126.367 42.14C126.615 41.756 126.955 41.456 127.387 41.24C127.827 41.024 128.327 40.916 128.887 40.916C129.423 40.916 129.911 41.012 130.351 41.204C130.791 41.388 131.167 41.644 131.479 41.972C131.799 42.3 132.031 42.68 132.175 43.112L130.999 43.628C130.823 43.156 130.547 42.792 130.171 42.536C129.803 42.28 129.375 42.152 128.887 42.152C128.591 42.152 128.331 42.204 128.107 42.308C127.883 42.404 127.707 42.548 127.579 42.74C127.459 42.924 127.399 43.14 127.399 43.388C127.399 43.676 127.491 43.932 127.675 44.156C127.859 44.38 128.139 44.548 128.515 44.66L130.075 45.152C130.787 45.368 131.323 45.68 131.683 46.088C132.043 46.488 132.223 46.988 132.223 47.588C132.223 48.084 132.091 48.524 131.827 48.908C131.571 49.292 131.215 49.596 130.759 49.82C130.303 50.036 129.775 50.144 129.175 50.144ZM133.573 50V41.06H134.989V50H133.573ZM136.602 50V41.06H137.922L141.282 45.716H140.622L143.922 41.06H145.242V50H143.838V42.728L144.366 42.872L140.994 47.48H140.85L137.55 42.872L138.018 42.728V50H136.602Z" fill="#B3FF4A"/>
<path d="M120.163 83V64.375H128.013C129.18 64.375 130.188 64.5833 131.038 65C131.888 65.4 132.538 65.9833 132.988 66.75C133.438 67.5 133.663 68.3917 133.663 69.425C133.663 70.325 133.43 71.15 132.963 71.9C132.513 72.6333 131.805 73.2167 130.838 73.65V72.4C131.688 72.7333 132.38 73.1583 132.913 73.675C133.446 74.175 133.83 74.7417 134.063 75.375C134.313 76.0083 134.438 76.675 134.438 77.375C134.438 79.125 133.863 80.5 132.713 81.5C131.58 82.5 130.021 83 128.038 83H120.163ZM123.113 80.375H128.263C129.246 80.375 130.03 80.1083 130.613 79.575C131.196 79.025 131.488 78.3 131.488 77.4C131.488 76.4833 131.196 75.7583 130.613 75.225C130.03 74.675 129.246 74.4 128.263 74.4H123.113V80.375ZM123.113 71.8H128.088C128.888 71.8 129.53 71.575 130.013 71.125C130.496 70.6583 130.738 70.05 130.738 69.3C130.738 68.55 130.496 67.9667 130.013 67.55C129.53 67.1333 128.888 66.925 128.088 66.925H123.113V71.8ZM140.747 83.3C139.831 83.3 139.022 83.1417 138.322 82.825C137.639 82.4917 137.106 82.0417 136.722 81.475C136.339 80.8917 136.147 80.2083 136.147 79.425C136.147 78.6917 136.306 78.0333 136.622 77.45C136.956 76.8667 137.464 76.375 138.147 75.975C138.831 75.575 139.689 75.2917 140.722 75.125L145.422 74.35V76.575L141.272 77.3C140.522 77.4333 139.972 77.675 139.622 78.025C139.272 78.3583 139.097 78.7917 139.097 79.325C139.097 79.8417 139.289 80.2667 139.672 80.6C140.072 80.9167 140.581 81.075 141.197 81.075C141.964 81.075 142.631 80.9083 143.197 80.575C143.781 80.2417 144.231 79.8 144.547 79.25C144.864 78.6833 145.022 78.0583 145.022 77.375V73.9C145.022 73.2333 144.772 72.6917 144.272 72.275C143.789 71.8417 143.139 71.625 142.322 71.625C141.572 71.625 140.914 71.825 140.347 72.225C139.797 72.6083 139.389 73.1083 139.122 73.725L136.772 72.55C137.022 71.8833 137.431 71.3 137.997 70.8C138.564 70.2833 139.222 69.8833 139.972 69.6C140.739 69.3167 141.547 69.175 142.397 69.175C143.464 69.175 144.406 69.375 145.222 69.775C146.056 70.175 146.697 70.7333 147.147 71.45C147.614 72.15 147.847 72.9667 147.847 73.9V83H145.147V80.55L145.722 80.625C145.406 81.175 144.997 81.65 144.497 82.05C144.014 82.45 143.456 82.7583 142.822 82.975C142.206 83.1917 141.514 83.3 140.747 83.3ZM150.651 83V64.075H153.476V72.125L153.026 71.775C153.359 70.925 153.892 70.2833 154.626 69.85C155.359 69.4 156.209 69.175 157.176 69.175C158.176 69.175 159.059 69.3917 159.826 69.825C160.592 70.2583 161.192 70.8583 161.626 71.625C162.059 72.3917 162.276 73.2667 162.276 74.25V83H159.476V75.025C159.476 74.3417 159.342 73.7667 159.076 73.3C158.826 72.8167 158.476 72.45 158.026 72.2C157.576 71.9333 157.059 71.8 156.476 71.8C155.909 71.8 155.392 71.9333 154.926 72.2C154.476 72.45 154.117 72.8167 153.851 73.3C153.601 73.7833 153.476 74.3583 153.476 75.025V83H150.651ZM168.849 83.3C167.932 83.3 167.124 83.1417 166.424 82.825C165.741 82.4917 165.207 82.0417 164.824 81.475C164.441 80.8917 164.249 80.2083 164.249 79.425C164.249 78.6917 164.407 78.0333 164.724 77.45C165.057 76.8667 165.566 76.375 166.249 75.975C166.932 75.575 167.791 75.2917 168.824 75.125L173.524 74.35V76.575L169.374 77.3C168.624 77.4333 168.074 77.675 167.724 78.025C167.374 78.3583 167.199 78.7917 167.199 79.325C167.199 79.8417 167.391 80.2667 167.774 80.6C168.174 80.9167 168.682 81.075 169.299 81.075C170.066 81.075 170.732 80.9083 171.299 80.575C171.882 80.2417 172.332 79.8 172.649 79.25C172.966 78.6833 173.124 78.0583 173.124 77.375V73.9C173.124 73.2333 172.874 72.6917 172.374 72.275C171.891 71.8417 171.241 71.625 170.424 71.625C169.674 71.625 169.016 71.825 168.449 72.225C167.899 72.6083 167.491 73.1083 167.224 73.725L164.874 72.55C165.124 71.8833 165.532 71.3 166.099 70.8C166.666 70.2833 167.324 69.8833 168.074 69.6C168.841 69.3167 169.649 69.175 170.499 69.175C171.566 69.175 172.507 69.375 173.324 69.775C174.157 70.175 174.799 70.7333 175.249 71.45C175.716 72.15 175.949 72.9667 175.949 73.9V83H173.249V80.55L173.824 80.625C173.507 81.175 173.099 81.65 172.599 82.05C172.116 82.45 171.557 82.7583 170.924 82.975C170.307 83.1917 169.616 83.3 168.849 83.3ZM178.752 83V69.475H181.452V72.4L181.102 71.95C181.385 71.0333 181.902 70.3417 182.652 69.875C183.402 69.4083 184.26 69.175 185.227 69.175C186.31 69.175 187.269 69.4667 188.102 70.05C188.952 70.6167 189.519 71.375 189.802 72.325L189.002 72.4C189.402 71.3167 190.01 70.5083 190.827 69.975C191.66 69.4417 192.61 69.175 193.677 69.175C194.61 69.175 195.452 69.3917 196.202 69.825C196.969 70.2583 197.577 70.8583 198.027 71.625C198.477 72.3917 198.702 73.2667 198.702 74.25V83H195.877V75.025C195.877 74.3417 195.752 73.7667 195.502 73.3C195.269 72.8167 194.935 72.45 194.502 72.2C194.085 71.9333 193.594 71.8 193.027 71.8C192.46 71.8 191.96 71.9333 191.527 72.2C191.094 72.45 190.752 72.8167 190.502 73.3C190.252 73.7833 190.127 74.3583 190.127 75.025V83H187.327V75.025C187.327 74.3417 187.202 73.7667 186.952 73.3C186.719 72.8167 186.385 72.45 185.952 72.2C185.535 71.9333 185.035 71.8 184.452 71.8C183.885 71.8 183.385 71.9333 182.952 72.2C182.519 72.45 182.177 72.8167 181.927 73.3C181.694 73.7833 181.577 74.3583 181.577 75.025V83H178.752ZM205.276 83.3C204.359 83.3 203.551 83.1417 202.851 82.825C202.167 82.4917 201.634 82.0417 201.251 81.475C200.867 80.8917 200.676 80.2083 200.676 79.425C200.676 78.6917 200.834 78.0333 201.151 77.45C201.484 76.8667 201.992 76.375 202.676 75.975C203.359 75.575 204.217 75.2917 205.251 75.125L209.951 74.35V76.575L205.801 77.3C205.051 77.4333 204.501 77.675 204.151 78.025C203.801 78.3583 203.626 78.7917 203.626 79.325C203.626 79.8417 203.817 80.2667 204.201 80.6C204.601 80.9167 205.109 81.075 205.726 81.075C206.492 81.075 207.159 80.9083 207.726 80.575C208.309 80.2417 208.759 79.8 209.076 79.25C209.392 78.6833 209.551 78.0583 209.551 77.375V73.9C209.551 73.2333 209.301 72.6917 208.801 72.275C208.317 71.8417 207.667 71.625 206.851 71.625C206.101 71.625 205.442 71.825 204.876 72.225C204.326 72.6083 203.917 73.1083 203.651 73.725L201.301 72.55C201.551 71.8833 201.959 71.3 202.526 70.8C203.092 70.2833 203.751 69.8833 204.501 69.6C205.267 69.3167 206.076 69.175 206.926 69.175C207.992 69.175 208.934 69.375 209.751 69.775C210.584 70.175 211.226 70.7333 211.676 71.45C212.142 72.15 212.376 72.9667 212.376 73.9V83H209.676V80.55L210.251 80.625C209.934 81.175 209.526 81.65 209.026 82.05C208.542 82.45 207.984 82.7583 207.351 82.975C206.734 83.1917 206.042 83.3 205.276 83.3ZM220.179 83.3C218.796 83.3 217.579 82.9583 216.529 82.275C215.496 81.5917 214.771 80.675 214.354 79.525L216.529 78.5C216.896 79.2667 217.396 79.875 218.029 80.325C218.679 80.775 219.396 81 220.179 81C220.846 81 221.387 80.85 221.804 80.55C222.221 80.25 222.429 79.8417 222.429 79.325C222.429 78.9917 222.337 78.725 222.154 78.525C221.971 78.3083 221.737 78.1333 221.454 78C221.187 77.8667 220.912 77.7667 220.629 77.7L218.504 77.1C217.337 76.7667 216.462 76.2667 215.879 75.6C215.312 74.9167 215.029 74.125 215.029 73.225C215.029 72.4083 215.237 71.7 215.654 71.1C216.071 70.4833 216.646 70.0083 217.379 69.675C218.112 69.3417 218.937 69.175 219.854 69.175C221.087 69.175 222.187 69.4833 223.154 70.1C224.121 70.7 224.804 71.5417 225.204 72.625L223.029 73.65C222.762 73 222.337 72.4833 221.754 72.1C221.187 71.7167 220.546 71.525 219.829 71.525C219.212 71.525 218.721 71.675 218.354 71.975C217.987 72.2583 217.804 72.6333 217.804 73.1C217.804 73.4167 217.887 73.6833 218.054 73.9C218.221 74.1 218.437 74.2667 218.704 74.4C218.971 74.5167 219.246 74.6167 219.529 74.7L221.729 75.35C222.846 75.6667 223.704 76.1667 224.304 76.85C224.904 77.5167 225.204 78.3167 225.204 79.25C225.204 80.05 224.987 80.7583 224.554 81.375C224.137 81.975 223.554 82.45 222.804 82.8C222.054 83.1333 221.179 83.3 220.179 83.3Z" fill="white"/>
<path d="M29.424 163.192C28.6667 163.192 27.9787 163.048 27.36 162.76C26.7413 162.472 26.2187 162.088 25.792 161.608C25.3653 161.117 25.0613 160.579 24.88 159.992L26.032 159.56C26.3093 160.371 26.7413 160.989 27.328 161.416C27.9147 161.832 28.6133 162.04 29.424 162.04C29.936 162.04 30.384 161.96 30.768 161.8C31.1627 161.629 31.4667 161.395 31.68 161.096C31.8933 160.797 32 160.451 32 160.056C32 159.469 31.84 159.016 31.52 158.696C31.2 158.376 30.7413 158.131 30.144 157.96L28 157.32C27.1573 157.075 26.5067 156.664 26.048 156.088C25.6 155.512 25.376 154.856 25.376 154.12C25.376 153.491 25.5307 152.936 25.84 152.456C26.1493 151.965 26.5707 151.581 27.104 151.304C27.648 151.027 28.2613 150.888 28.944 150.888C29.6587 150.888 30.2987 151.021 30.864 151.288C31.44 151.544 31.9253 151.885 32.32 152.312C32.7147 152.739 32.9973 153.213 33.168 153.736L32.048 154.184C31.792 153.48 31.392 152.947 30.848 152.584C30.3147 152.221 29.6853 152.04 28.96 152.04C28.5013 152.04 28.096 152.12 27.744 152.28C27.4027 152.44 27.136 152.669 26.944 152.968C26.752 153.267 26.656 153.619 26.656 154.024C26.656 154.515 26.8107 154.957 27.12 155.352C27.4293 155.736 27.904 156.024 28.544 156.216L30.432 156.776C31.3707 157.053 32.08 157.453 32.56 157.976C33.04 158.499 33.28 159.155 33.28 159.944C33.28 160.584 33.1147 161.149 32.784 161.64C32.464 162.12 32.0107 162.499 31.424 162.776C30.848 163.053 30.1813 163.192 29.424 163.192ZM38.5358 163.096C37.7678 163.096 37.1758 162.872 36.7598 162.424C36.3438 161.976 36.1358 161.336 36.1358 160.504V155.624H34.5518V154.424H34.9518C35.3144 154.424 35.6024 154.307 35.8158 154.072C36.0291 153.827 36.1358 153.523 36.1358 153.16V152.44H37.3358V154.424H39.2238V155.624H37.3358V160.504C37.3358 160.792 37.3784 161.048 37.4638 161.272C37.5491 161.485 37.6931 161.656 37.8958 161.784C38.1091 161.912 38.3918 161.976 38.7438 161.976C38.8291 161.976 38.9304 161.971 39.0478 161.96C39.1651 161.949 39.2664 161.939 39.3518 161.928V163C39.2238 163.032 39.0798 163.053 38.9198 163.064C38.7598 163.085 38.6318 163.096 38.5358 163.096ZM43.4626 163.192C42.9186 163.192 42.4333 163.091 42.0066 162.888C41.58 162.675 41.244 162.387 40.9986 162.024C40.7533 161.661 40.6306 161.245 40.6306 160.776C40.6306 160.328 40.7266 159.923 40.9186 159.56C41.1106 159.187 41.4093 158.872 41.8146 158.616C42.22 158.36 42.7373 158.179 43.3666 158.072L46.7266 157.512V158.6L43.6546 159.112C43.036 159.219 42.588 159.416 42.3106 159.704C42.044 159.992 41.9106 160.333 41.9106 160.728C41.9106 161.112 42.06 161.437 42.3586 161.704C42.668 161.971 43.0626 162.104 43.5426 162.104C44.1293 162.104 44.6413 161.981 45.0786 161.736C45.516 161.48 45.8573 161.139 46.1026 160.712C46.348 160.285 46.4706 159.811 46.4706 159.288V157.112C46.4706 156.6 46.284 156.184 45.9106 155.864C45.5373 155.544 45.052 155.384 44.4546 155.384C43.932 155.384 43.4733 155.517 43.0786 155.784C42.684 156.04 42.3906 156.376 42.1986 156.792L41.1106 156.2C41.2706 155.837 41.5213 155.507 41.8626 155.208C42.2146 154.909 42.6146 154.675 43.0626 154.504C43.5106 154.323 43.9746 154.232 44.4546 154.232C45.084 154.232 45.6386 154.355 46.1186 154.6C46.6093 154.845 46.988 155.187 47.2546 155.624C47.532 156.051 47.6706 156.547 47.6706 157.112V163H46.4706V161.288L46.6466 161.464C46.4973 161.784 46.2626 162.077 45.9426 162.344C45.6333 162.6 45.2653 162.808 44.8386 162.968C44.4226 163.117 43.964 163.192 43.4626 163.192ZM49.8189 163V154.424H51.0189V155.832L50.8589 155.624C51.0615 155.219 51.3655 154.899 51.7709 154.664C52.1869 154.429 52.6882 154.312 53.2749 154.312H53.8189V155.512H53.0669C52.4482 155.512 51.9522 155.704 51.5789 156.088C51.2055 156.472 51.0189 157.016 51.0189 157.72V163H49.8189ZM58.1851 163.096C57.4171 163.096 56.8251 162.872 56.4091 162.424C55.9931 161.976 55.7851 161.336 55.7851 160.504V155.624H54.2011V154.424H54.6011C54.9638 154.424 55.2518 154.307 55.4651 154.072C55.6785 153.827 55.7851 153.523 55.7851 153.16V152.44H56.9851V154.424H58.8731V155.624H56.9851V160.504C56.9851 160.792 57.0278 161.048 57.1131 161.272C57.1985 161.485 57.3425 161.656 57.5451 161.784C57.7585 161.912 58.0411 161.976 58.3931 161.976C58.4785 161.976 58.5798 161.971 58.6971 161.96C58.8145 161.949 58.9158 161.939 59.0011 161.928V163C58.8731 163.032 58.7291 163.053 58.5691 163.064C58.4091 163.085 58.2811 163.096 58.1851 163.096ZM60.7883 163V154.424H61.9883V163H60.7883ZM60.7883 152.84V151.08H61.9883V152.84H60.7883ZM64.1245 163V154.424H65.3245V156.088L65.0525 156.024C65.2658 155.469 65.6125 155.032 66.0925 154.712C66.5832 154.392 67.1485 154.232 67.7885 154.232C68.3965 154.232 68.9405 154.371 69.4205 154.648C69.9112 154.925 70.2952 155.309 70.5725 155.8C70.8605 156.28 71.0045 156.824 71.0045 157.432V163H69.8045V157.896C69.8045 157.373 69.7085 156.931 69.5165 156.568C69.3352 156.205 69.0738 155.928 68.7325 155.736C68.4018 155.533 68.0178 155.432 67.5805 155.432C67.1432 155.432 66.7538 155.533 66.4125 155.736C66.0712 155.928 65.8045 156.211 65.6125 156.584C65.4205 156.947 65.3245 157.384 65.3245 157.896V163H64.1245ZM77.0404 166.52C76.4537 166.52 75.9097 166.429 75.4084 166.248C74.9177 166.067 74.491 165.816 74.1284 165.496C73.7764 165.187 73.5044 164.824 73.3124 164.408L74.4164 163.816C74.587 164.221 74.891 164.573 75.3284 164.872C75.7657 165.171 76.3257 165.32 77.0084 165.32C77.531 165.32 78.011 165.219 78.4484 165.016C78.8857 164.813 79.2377 164.515 79.5044 164.12C79.771 163.725 79.9044 163.24 79.9044 162.664V160.76L80.0964 160.936C79.7977 161.555 79.355 162.035 78.7684 162.376C78.1817 162.707 77.5417 162.872 76.8484 162.872C76.0484 162.872 75.3284 162.68 74.6884 162.296C74.0484 161.912 73.5417 161.395 73.1684 160.744C72.8057 160.083 72.6244 159.352 72.6244 158.552C72.6244 157.741 72.8057 157.011 73.1684 156.36C73.5417 155.709 74.043 155.192 74.6724 154.808C75.3124 154.424 76.0377 154.232 76.8484 154.232C77.5417 154.232 78.171 154.392 78.7364 154.712C79.3124 155.032 79.7657 155.464 80.0964 156.008L79.9044 156.344V154.424H81.1044V162.664C81.1044 163.4 80.9284 164.056 80.5764 164.632C80.235 165.219 79.755 165.677 79.1364 166.008C78.5284 166.349 77.8297 166.52 77.0404 166.52ZM76.9124 161.672C77.467 161.672 77.9684 161.533 78.4164 161.256C78.8644 160.968 79.2217 160.589 79.4884 160.12C79.7657 159.64 79.9044 159.117 79.9044 158.552C79.9044 157.987 79.7657 157.469 79.4884 157C79.2217 156.52 78.8644 156.141 78.4164 155.864C77.9684 155.576 77.467 155.432 76.9124 155.432C76.347 155.432 75.835 155.576 75.3764 155.864C74.9177 156.141 74.555 156.515 74.2884 156.984C74.0324 157.453 73.9044 157.976 73.9044 158.552C73.9044 159.117 74.0324 159.64 74.2884 160.12C74.555 160.589 74.9124 160.968 75.3604 161.256C75.819 161.533 76.3364 161.672 76.9124 161.672ZM86.5289 163V155.624H84.8169V154.424H86.5289V153.656C86.5289 153.059 86.6622 152.557 86.9289 152.152C87.1955 151.736 87.5475 151.421 87.9849 151.208C88.4222 150.995 88.8915 150.888 89.3929 150.888C89.4995 150.888 89.6222 150.899 89.7609 150.92C89.8995 150.931 90.0115 150.947 90.0969 150.968V152.056C90.0222 152.035 89.9209 152.024 89.7929 152.024C89.6649 152.013 89.5742 152.008 89.5209 152.008C89.0089 152.008 88.5822 152.131 88.2409 152.376C87.8995 152.621 87.7289 153.048 87.7289 153.656V154.424H89.8249V155.624H87.7289V163H86.5289ZM91.4539 163V154.424H92.6539V155.832L92.4939 155.624C92.6965 155.219 93.0005 154.899 93.4059 154.664C93.8219 154.429 94.3232 154.312 94.9099 154.312H95.4539V155.512H94.7019C94.0832 155.512 93.5872 155.704 93.2139 156.088C92.8405 156.472 92.6539 157.016 92.6539 157.72V163H91.4539ZM100.556 163.192C99.7455 163.192 99.0095 163 98.3481 162.616C97.6868 162.221 97.1588 161.688 96.7641 161.016C96.3801 160.333 96.1881 159.56 96.1881 158.696C96.1881 157.843 96.3801 157.08 96.7641 156.408C97.1481 155.736 97.6655 155.208 98.3161 154.824C98.9775 154.429 99.7241 154.232 100.556 154.232C101.388 154.232 102.129 154.424 102.78 154.808C103.441 155.192 103.959 155.72 104.332 156.392C104.716 157.064 104.908 157.832 104.908 158.696C104.908 159.571 104.711 160.349 104.316 161.032C103.921 161.704 103.393 162.232 102.732 162.616C102.081 163 101.356 163.192 100.556 163.192ZM100.556 161.992C101.132 161.992 101.649 161.848 102.108 161.56C102.577 161.272 102.945 160.877 103.212 160.376C103.489 159.875 103.628 159.315 103.628 158.696C103.628 158.077 103.489 157.523 103.212 157.032C102.945 156.541 102.577 156.152 102.108 155.864C101.649 155.576 101.132 155.432 100.556 155.432C99.9801 155.432 99.4575 155.576 98.9881 155.864C98.5295 156.152 98.1615 156.541 97.8841 157.032C97.6068 157.523 97.4681 158.077 97.4681 158.696C97.4681 159.315 97.6068 159.875 97.8841 160.376C98.1615 160.877 98.5295 161.272 98.9881 161.56C99.4575 161.848 99.9801 161.992 100.556 161.992ZM106.705 163V154.424H107.905V156.056L107.713 155.816C107.947 155.315 108.294 154.925 108.753 154.648C109.222 154.371 109.734 154.232 110.289 154.232C110.95 154.232 111.547 154.419 112.081 154.792C112.614 155.165 112.993 155.651 113.217 156.248L112.881 156.264C113.094 155.603 113.462 155.101 113.985 154.76C114.518 154.408 115.105 154.232 115.745 154.232C116.321 154.232 116.849 154.371 117.329 154.648C117.819 154.925 118.209 155.309 118.497 155.8C118.795 156.28 118.945 156.824 118.945 157.432V163H117.745V157.896C117.745 157.373 117.649 156.931 117.457 156.568C117.275 156.205 117.025 155.928 116.705 155.736C116.385 155.533 116.017 155.432 115.601 155.432C115.195 155.432 114.827 155.533 114.497 155.736C114.166 155.928 113.905 156.211 113.713 156.584C113.521 156.947 113.425 157.384 113.425 157.896V163H112.225V157.896C112.225 157.373 112.129 156.931 111.937 156.568C111.755 156.205 111.505 155.928 111.185 155.736C110.865 155.533 110.497 155.432 110.081 155.432C109.665 155.432 109.291 155.533 108.961 155.736C108.641 155.928 108.385 156.211 108.193 156.584C108.001 156.947 107.905 157.384 107.905 157.896V163H106.705Z" fill="white"/>
<path d="M231.408 163.192C230.661 163.192 229.968 163.053 229.328 162.776C228.688 162.488 228.144 162.099 227.696 161.608C227.248 161.117 226.917 160.552 226.704 159.912L228.304 159.24C228.592 159.976 229.013 160.541 229.568 160.936C230.123 161.331 230.763 161.528 231.488 161.528C231.915 161.528 232.288 161.464 232.608 161.336C232.928 161.197 233.173 161.005 233.344 160.76C233.525 160.515 233.616 160.232 233.616 159.912C233.616 159.475 233.493 159.128 233.248 158.872C233.003 158.616 232.64 158.413 232.16 158.264L229.92 157.56C229.024 157.283 228.341 156.861 227.872 156.296C227.403 155.72 227.168 155.048 227.168 154.28C227.168 153.608 227.333 153.021 227.664 152.52C227.995 152.008 228.448 151.608 229.024 151.32C229.611 151.032 230.277 150.888 231.024 150.888C231.739 150.888 232.389 151.016 232.976 151.272C233.563 151.517 234.064 151.859 234.48 152.296C234.907 152.733 235.216 153.24 235.408 153.816L233.84 154.504C233.605 153.875 233.237 153.389 232.736 153.048C232.245 152.707 231.675 152.536 231.024 152.536C230.629 152.536 230.283 152.605 229.984 152.744C229.685 152.872 229.451 153.064 229.28 153.32C229.12 153.565 229.04 153.853 229.04 154.184C229.04 154.568 229.163 154.909 229.408 155.208C229.653 155.507 230.027 155.731 230.528 155.88L232.608 156.536C233.557 156.824 234.272 157.24 234.752 157.784C235.232 158.317 235.472 158.984 235.472 159.784C235.472 160.445 235.296 161.032 234.944 161.544C234.603 162.056 234.128 162.461 233.52 162.76C232.912 163.048 232.208 163.192 231.408 163.192ZM230.672 164.6V149.48H231.952V164.6H230.672Z" fill="white"/>
<path d="M246.399 163.192C245.46 163.192 244.633 162.936 243.919 162.424C243.215 161.901 242.665 161.181 242.271 160.264C241.876 159.336 241.679 158.259 241.679 157.032C241.679 155.805 241.876 154.733 242.271 153.816C242.665 152.888 243.215 152.168 243.919 151.656C244.623 151.144 245.444 150.888 246.383 150.888C247.321 150.888 248.143 151.144 248.847 151.656C249.551 152.168 250.1 152.888 250.495 153.816C250.889 154.733 251.087 155.805 251.087 157.032C251.087 158.259 250.889 159.336 250.495 160.264C250.111 161.192 249.567 161.912 248.863 162.424C248.159 162.936 247.337 163.192 246.399 163.192ZM246.399 161.992C247.081 161.992 247.679 161.784 248.191 161.368C248.703 160.952 249.103 160.376 249.391 159.64C249.679 158.893 249.823 158.024 249.823 157.032C249.823 156.04 249.679 155.176 249.391 154.44C249.103 153.693 248.703 153.117 248.191 152.712C247.679 152.296 247.076 152.088 246.383 152.088C245.7 152.088 245.103 152.296 244.591 152.712C244.079 153.117 243.679 153.693 243.391 154.44C243.103 155.176 242.959 156.04 242.959 157.032C242.959 158.013 243.103 158.877 243.391 159.624C243.679 160.371 244.079 160.952 244.591 161.368C245.113 161.784 245.716 161.992 246.399 161.992ZM253.573 163V161.24H254.853V163H253.573ZM262.056 163.192C261.117 163.192 260.29 162.936 259.576 162.424C258.872 161.901 258.322 161.181 257.928 160.264C257.533 159.336 257.336 158.259 257.336 157.032C257.336 155.805 257.533 154.733 257.928 153.816C258.322 152.888 258.872 152.168 259.576 151.656C260.28 151.144 261.101 150.888 262.04 150.888C262.978 150.888 263.8 151.144 264.504 151.656C265.208 152.168 265.757 152.888 266.152 153.816C266.546 154.733 266.744 155.805 266.744 157.032C266.744 158.259 266.546 159.336 266.152 160.264C265.768 161.192 265.224 161.912 264.52 162.424C263.816 162.936 262.994 163.192 262.056 163.192ZM262.056 161.992C262.738 161.992 263.336 161.784 263.848 161.368C264.36 160.952 264.76 160.376 265.048 159.64C265.336 158.893 265.48 158.024 265.48 157.032C265.48 156.04 265.336 155.176 265.048 154.44C264.76 153.693 264.36 153.117 263.848 152.712C263.336 152.296 262.733 152.088 262.04 152.088C261.357 152.088 260.76 152.296 260.248 152.712C259.736 153.117 259.336 153.693 259.048 154.44C258.76 155.176 258.616 156.04 258.616 157.032C258.616 158.013 258.76 158.877 259.048 159.624C259.336 160.371 259.736 160.952 260.248 161.368C260.77 161.784 261.373 161.992 262.056 161.992ZM273.454 163.192C272.516 163.192 271.689 162.936 270.974 162.424C270.27 161.901 269.721 161.181 269.326 160.264C268.932 159.336 268.734 158.259 268.734 157.032C268.734 155.805 268.932 154.733 269.326 153.816C269.721 152.888 270.27 152.168 270.974 151.656C271.678 151.144 272.5 150.888 273.438 150.888C274.377 150.888 275.198 151.144 275.902 151.656C276.606 152.168 277.156 152.888 277.55 153.816C277.945 154.733 278.142 155.805 278.142 157.032C278.142 158.259 277.945 159.336 277.55 160.264C277.166 161.192 276.622 161.912 275.918 162.424C275.214 162.936 274.393 163.192 273.454 163.192ZM273.454 161.992C274.137 161.992 274.734 161.784 275.246 161.368C275.758 160.952 276.158 160.376 276.446 159.64C276.734 158.893 276.878 158.024 276.878 157.032C276.878 156.04 276.734 155.176 276.446 154.44C276.158 153.693 275.758 153.117 275.246 152.712C274.734 152.296 274.132 152.088 273.438 152.088C272.756 152.088 272.158 152.296 271.646 152.712C271.134 153.117 270.734 153.693 270.446 154.44C270.158 155.176 270.014 156.04 270.014 157.032C270.014 158.013 270.158 158.877 270.446 159.624C270.734 160.371 271.134 160.952 271.646 161.368C272.169 161.784 272.772 161.992 273.454 161.992Z" fill="white"/>
<defs>
<clipPath id="clip0_2001_67671">
<rect width="55.95" height="55.95" fill="white" transform="translate(36 36)"/>
</clipPath>
</defs>
</svg>
