<svg width="305" height="190" viewBox="0 0 305 190" fill="none" xmlns="http://www.w3.org/2000/svg">
<rect width="305" height="190" rx="25" fill="white" fill-opacity="0.1"/>
<circle cx="64" cy="64" r="40" fill="white" fill-opacity="0.3"/>
<g clip-path="url(#clip0_2001_67690)">
<path d="M73.7055 37.74C70.6749 36.6155 67.397 35.9999 63.9751 35.9999C60.5532 35.9999 57.2753 36.6155 54.2447 37.74L51.8121 63.9749L54.2447 90.2099C57.2753 91.3345 60.5532 91.9499 63.9751 91.9499C67.397 91.9499 70.6749 91.3345 73.7055 90.2099L76.1381 63.9749L73.7055 37.74Z" fill="#FFDA44"/>
<path d="M91.95 63.9749C91.95 51.9468 84.3583 41.6926 73.7054 37.7401V90.2101C84.3583 86.2572 91.95 76.0033 91.95 63.9749Z" fill="#D80027"/>
<path d="M36.0001 63.9749C36.0001 76.0033 43.5918 86.2572 54.2447 90.21V37.7401C43.5918 41.6926 36.0001 51.9468 36.0001 63.9749Z" fill="black"/>
</g>
<path d="M121.84 50.144C121.192 50.144 120.616 49.996 120.112 49.7C119.616 49.396 119.228 48.988 118.948 48.476C118.668 47.956 118.528 47.376 118.528 46.736C118.528 46.08 118.668 45.5 118.948 44.996C119.236 44.492 119.62 44.096 120.1 43.808C120.58 43.512 121.124 43.364 121.732 43.364C122.22 43.364 122.656 43.448 123.04 43.616C123.424 43.784 123.748 44.016 124.012 44.312C124.276 44.6 124.476 44.932 124.612 45.308C124.756 45.684 124.828 46.084 124.828 46.508C124.828 46.612 124.824 46.72 124.816 46.832C124.808 46.944 124.792 47.048 124.768 47.144H119.596V46.064H124L123.352 46.556C123.432 46.164 123.404 45.816 123.268 45.512C123.14 45.2 122.94 44.956 122.668 44.78C122.404 44.596 122.092 44.504 121.732 44.504C121.372 44.504 121.052 44.596 120.772 44.78C120.492 44.956 120.276 45.212 120.124 45.548C119.972 45.876 119.912 46.276 119.944 46.748C119.904 47.188 119.964 47.572 120.124 47.9C120.292 48.228 120.524 48.484 120.82 48.668C121.124 48.852 121.468 48.944 121.852 48.944C122.244 48.944 122.576 48.856 122.848 48.68C123.128 48.504 123.348 48.276 123.508 47.996L124.612 48.536C124.484 48.84 124.284 49.116 124.012 49.364C123.748 49.604 123.428 49.796 123.052 49.94C122.684 50.076 122.28 50.144 121.84 50.144ZM129.175 50.144C128.615 50.144 128.095 50.04 127.615 49.832C127.135 49.616 126.727 49.324 126.391 48.956C126.055 48.588 125.807 48.164 125.647 47.684L126.847 47.18C127.063 47.732 127.379 48.156 127.795 48.452C128.211 48.748 128.691 48.896 129.235 48.896C129.555 48.896 129.835 48.848 130.075 48.752C130.315 48.648 130.499 48.504 130.627 48.32C130.763 48.136 130.831 47.924 130.831 47.684C130.831 47.356 130.739 47.096 130.555 46.904C130.371 46.712 130.099 46.56 129.739 46.448L128.059 45.92C127.387 45.712 126.875 45.396 126.523 44.972C126.171 44.54 125.995 44.036 125.995 43.46C125.995 42.956 126.119 42.516 126.367 42.14C126.615 41.756 126.955 41.456 127.387 41.24C127.827 41.024 128.327 40.916 128.887 40.916C129.423 40.916 129.911 41.012 130.351 41.204C130.791 41.388 131.167 41.644 131.479 41.972C131.799 42.3 132.031 42.68 132.175 43.112L130.999 43.628C130.823 43.156 130.547 42.792 130.171 42.536C129.803 42.28 129.375 42.152 128.887 42.152C128.591 42.152 128.331 42.204 128.107 42.308C127.883 42.404 127.707 42.548 127.579 42.74C127.459 42.924 127.399 43.14 127.399 43.388C127.399 43.676 127.491 43.932 127.675 44.156C127.859 44.38 128.139 44.548 128.515 44.66L130.075 45.152C130.787 45.368 131.323 45.68 131.683 46.088C132.043 46.488 132.223 46.988 132.223 47.588C132.223 48.084 132.091 48.524 131.827 48.908C131.571 49.292 131.215 49.596 130.759 49.82C130.303 50.036 129.775 50.144 129.175 50.144ZM133.573 50V41.06H134.989V50H133.573ZM136.602 50V41.06H137.922L141.282 45.716H140.622L143.922 41.06H145.242V50H143.838V42.728L144.366 42.872L140.994 47.48H140.85L137.55 42.872L138.018 42.728V50H136.602Z" fill="#B3FF4A"/>
<path d="M120.163 83V64.375H128.013C129.18 64.375 130.188 64.5833 131.038 65C131.888 65.4 132.538 65.9833 132.988 66.75C133.438 67.5 133.663 68.3917 133.663 69.425C133.663 70.325 133.43 71.15 132.963 71.9C132.513 72.6333 131.805 73.2167 130.838 73.65V72.4C131.688 72.7333 132.38 73.1583 132.913 73.675C133.446 74.175 133.83 74.7417 134.063 75.375C134.313 76.0083 134.438 76.675 134.438 77.375C134.438 79.125 133.863 80.5 132.713 81.5C131.58 82.5 130.021 83 128.038 83H120.163ZM123.113 80.375H128.263C129.246 80.375 130.03 80.1083 130.613 79.575C131.196 79.025 131.488 78.3 131.488 77.4C131.488 76.4833 131.196 75.7583 130.613 75.225C130.03 74.675 129.246 74.4 128.263 74.4H123.113V80.375ZM123.113 71.8H128.088C128.888 71.8 129.53 71.575 130.013 71.125C130.496 70.6583 130.738 70.05 130.738 69.3C130.738 68.55 130.496 67.9667 130.013 67.55C129.53 67.1333 128.888 66.925 128.088 66.925H123.113V71.8ZM143.047 83.3C141.697 83.3 140.497 82.9917 139.447 82.375C138.414 81.7417 137.606 80.8917 137.022 79.825C136.439 78.7417 136.147 77.5333 136.147 76.2C136.147 74.8333 136.439 73.625 137.022 72.575C137.622 71.525 138.422 70.7 139.422 70.1C140.422 69.4833 141.556 69.175 142.822 69.175C143.839 69.175 144.747 69.35 145.547 69.7C146.347 70.05 147.022 70.5333 147.572 71.15C148.122 71.75 148.539 72.4417 148.822 73.225C149.122 74.0083 149.272 74.8417 149.272 75.725C149.272 75.9417 149.264 76.1667 149.247 76.4C149.231 76.6333 149.197 76.85 149.147 77.05H138.372V74.8H147.547L146.197 75.825C146.364 75.0083 146.306 74.2833 146.022 73.65C145.756 73 145.339 72.4917 144.772 72.125C144.222 71.7417 143.572 71.55 142.822 71.55C142.072 71.55 141.406 71.7417 140.822 72.125C140.239 72.4917 139.789 73.025 139.472 73.725C139.156 74.4083 139.031 75.2417 139.097 76.225C139.014 77.1417 139.139 77.9417 139.472 78.625C139.822 79.3083 140.306 79.8417 140.922 80.225C141.556 80.6083 142.272 80.8 143.072 80.8C143.889 80.8 144.581 80.6167 145.147 80.25C145.731 79.8833 146.189 79.4083 146.522 78.825L148.822 79.95C148.556 80.5833 148.139 81.1583 147.572 81.675C147.022 82.175 146.356 82.575 145.572 82.875C144.806 83.1583 143.964 83.3 143.047 83.3ZM151.529 83V64.075H154.354V83H151.529ZM163.682 88.5C162.699 88.5 161.791 88.3417 160.957 88.025C160.124 87.7083 159.407 87.2667 158.807 86.7C158.207 86.15 157.757 85.5 157.457 84.75L160.057 83.675C160.291 84.3083 160.716 84.8333 161.332 85.25C161.966 85.6667 162.741 85.875 163.657 85.875C164.374 85.875 165.016 85.7333 165.582 85.45C166.149 85.1833 166.599 84.7833 166.932 84.25C167.266 83.7333 167.432 83.1083 167.432 82.375V79.325L167.932 79.9C167.466 80.7667 166.816 81.425 165.982 81.875C165.166 82.325 164.241 82.55 163.207 82.55C161.957 82.55 160.832 82.2583 159.832 81.675C158.832 81.0917 158.041 80.2917 157.457 79.275C156.891 78.2583 156.607 77.1167 156.607 75.85C156.607 74.5667 156.891 73.425 157.457 72.425C158.041 71.425 158.824 70.6333 159.807 70.05C160.791 69.4667 161.916 69.175 163.182 69.175C164.216 69.175 165.132 69.4 165.932 69.85C166.749 70.2833 167.416 70.9167 167.932 71.75L167.557 72.45V69.475H170.232V82.375C170.232 83.5417 169.949 84.5833 169.382 85.5C168.832 86.4333 168.066 87.1667 167.082 87.7C166.099 88.2333 164.966 88.5 163.682 88.5ZM163.532 79.925C164.282 79.925 164.949 79.75 165.532 79.4C166.116 79.0333 166.574 78.55 166.907 77.95C167.257 77.3333 167.432 76.6417 167.432 75.875C167.432 75.1083 167.257 74.4167 166.907 73.8C166.557 73.1833 166.091 72.7 165.507 72.35C164.924 71.9833 164.266 71.8 163.532 71.8C162.766 71.8 162.082 71.9833 161.482 72.35C160.882 72.7 160.407 73.1833 160.057 73.8C159.724 74.4 159.557 75.0917 159.557 75.875C159.557 76.625 159.724 77.3083 160.057 77.925C160.407 78.5417 160.882 79.0333 161.482 79.4C162.082 79.75 162.766 79.925 163.532 79.925ZM173.039 83V69.475H175.864V83H173.039ZM173.039 67.625V64.375H175.864V67.625H173.039ZM183.492 83.3C182.475 83.3 181.584 83.075 180.817 82.625C180.05 82.1583 179.45 81.5167 179.017 80.7C178.6 79.8667 178.392 78.9083 178.392 77.825V69.475H181.217V77.575C181.217 78.1917 181.342 78.7333 181.592 79.2C181.842 79.6667 182.192 80.0333 182.642 80.3C183.092 80.55 183.609 80.675 184.192 80.675C184.792 80.675 185.317 80.5417 185.767 80.275C186.217 80.0083 186.567 79.6333 186.817 79.15C187.084 78.6667 187.217 78.1 187.217 77.45V69.475H190.017V83H187.342V80.35L187.642 80.7C187.325 81.5333 186.8 82.175 186.067 82.625C185.334 83.075 184.475 83.3 183.492 83.3ZM192.816 83V69.475H195.516V72.4L195.166 71.95C195.449 71.0333 195.966 70.3417 196.716 69.875C197.466 69.4083 198.324 69.175 199.291 69.175C200.374 69.175 201.332 69.4667 202.166 70.05C203.016 70.6167 203.582 71.375 203.866 72.325L203.066 72.4C203.466 71.3167 204.074 70.5083 204.891 69.975C205.724 69.4417 206.674 69.175 207.741 69.175C208.674 69.175 209.516 69.3917 210.266 69.825C211.032 70.2583 211.641 70.8583 212.091 71.625C212.541 72.3917 212.766 73.2667 212.766 74.25V83H209.941V75.025C209.941 74.3417 209.816 73.7667 209.566 73.3C209.332 72.8167 208.999 72.45 208.566 72.2C208.149 71.9333 207.657 71.8 207.091 71.8C206.524 71.8 206.024 71.9333 205.591 72.2C205.157 72.45 204.816 72.8167 204.566 73.3C204.316 73.7833 204.191 74.3583 204.191 75.025V83H201.391V75.025C201.391 74.3417 201.266 73.7667 201.016 73.3C200.782 72.8167 200.449 72.45 200.016 72.2C199.599 71.9333 199.099 71.8 198.516 71.8C197.949 71.8 197.449 71.9333 197.016 72.2C196.582 72.45 196.241 72.8167 195.991 73.3C195.757 73.7833 195.641 74.3583 195.641 75.025V83H192.816Z" fill="white"/>
<path d="M29.424 163.192C28.6667 163.192 27.9787 163.048 27.36 162.76C26.7413 162.472 26.2187 162.088 25.792 161.608C25.3653 161.117 25.0613 160.579 24.88 159.992L26.032 159.56C26.3093 160.371 26.7413 160.989 27.328 161.416C27.9147 161.832 28.6133 162.04 29.424 162.04C29.936 162.04 30.384 161.96 30.768 161.8C31.1627 161.629 31.4667 161.395 31.68 161.096C31.8933 160.797 32 160.451 32 160.056C32 159.469 31.84 159.016 31.52 158.696C31.2 158.376 30.7413 158.131 30.144 157.96L28 157.32C27.1573 157.075 26.5067 156.664 26.048 156.088C25.6 155.512 25.376 154.856 25.376 154.12C25.376 153.491 25.5307 152.936 25.84 152.456C26.1493 151.965 26.5707 151.581 27.104 151.304C27.648 151.027 28.2613 150.888 28.944 150.888C29.6587 150.888 30.2987 151.021 30.864 151.288C31.44 151.544 31.9253 151.885 32.32 152.312C32.7147 152.739 32.9973 153.213 33.168 153.736L32.048 154.184C31.792 153.48 31.392 152.947 30.848 152.584C30.3147 152.221 29.6853 152.04 28.96 152.04C28.5013 152.04 28.096 152.12 27.744 152.28C27.4027 152.44 27.136 152.669 26.944 152.968C26.752 153.267 26.656 153.619 26.656 154.024C26.656 154.515 26.8107 154.957 27.12 155.352C27.4293 155.736 27.904 156.024 28.544 156.216L30.432 156.776C31.3707 157.053 32.08 157.453 32.56 157.976C33.04 158.499 33.28 159.155 33.28 159.944C33.28 160.584 33.1147 161.149 32.784 161.64C32.464 162.12 32.0107 162.499 31.424 162.776C30.848 163.053 30.1813 163.192 29.424 163.192ZM38.5358 163.096C37.7678 163.096 37.1758 162.872 36.7598 162.424C36.3438 161.976 36.1358 161.336 36.1358 160.504V155.624H34.5518V154.424H34.9518C35.3144 154.424 35.6024 154.307 35.8158 154.072C36.0291 153.827 36.1358 153.523 36.1358 153.16V152.44H37.3358V154.424H39.2238V155.624H37.3358V160.504C37.3358 160.792 37.3784 161.048 37.4638 161.272C37.5491 161.485 37.6931 161.656 37.8958 161.784C38.1091 161.912 38.3918 161.976 38.7438 161.976C38.8291 161.976 38.9304 161.971 39.0478 161.96C39.1651 161.949 39.2664 161.939 39.3518 161.928V163C39.2238 163.032 39.0798 163.053 38.9198 163.064C38.7598 163.085 38.6318 163.096 38.5358 163.096ZM43.4626 163.192C42.9186 163.192 42.4333 163.091 42.0066 162.888C41.58 162.675 41.244 162.387 40.9986 162.024C40.7533 161.661 40.6306 161.245 40.6306 160.776C40.6306 160.328 40.7266 159.923 40.9186 159.56C41.1106 159.187 41.4093 158.872 41.8146 158.616C42.22 158.36 42.7373 158.179 43.3666 158.072L46.7266 157.512V158.6L43.6546 159.112C43.036 159.219 42.588 159.416 42.3106 159.704C42.044 159.992 41.9106 160.333 41.9106 160.728C41.9106 161.112 42.06 161.437 42.3586 161.704C42.668 161.971 43.0626 162.104 43.5426 162.104C44.1293 162.104 44.6413 161.981 45.0786 161.736C45.516 161.48 45.8573 161.139 46.1026 160.712C46.348 160.285 46.4706 159.811 46.4706 159.288V157.112C46.4706 156.6 46.284 156.184 45.9106 155.864C45.5373 155.544 45.052 155.384 44.4546 155.384C43.932 155.384 43.4733 155.517 43.0786 155.784C42.684 156.04 42.3906 156.376 42.1986 156.792L41.1106 156.2C41.2706 155.837 41.5213 155.507 41.8626 155.208C42.2146 154.909 42.6146 154.675 43.0626 154.504C43.5106 154.323 43.9746 154.232 44.4546 154.232C45.084 154.232 45.6386 154.355 46.1186 154.6C46.6093 154.845 46.988 155.187 47.2546 155.624C47.532 156.051 47.6706 156.547 47.6706 157.112V163H46.4706V161.288L46.6466 161.464C46.4973 161.784 46.2626 162.077 45.9426 162.344C45.6333 162.6 45.2653 162.808 44.8386 162.968C44.4226 163.117 43.964 163.192 43.4626 163.192ZM49.8189 163V154.424H51.0189V155.832L50.8589 155.624C51.0615 155.219 51.3655 154.899 51.7709 154.664C52.1869 154.429 52.6882 154.312 53.2749 154.312H53.8189V155.512H53.0669C52.4482 155.512 51.9522 155.704 51.5789 156.088C51.2055 156.472 51.0189 157.016 51.0189 157.72V163H49.8189ZM58.1851 163.096C57.4171 163.096 56.8251 162.872 56.4091 162.424C55.9931 161.976 55.7851 161.336 55.7851 160.504V155.624H54.2011V154.424H54.6011C54.9638 154.424 55.2518 154.307 55.4651 154.072C55.6785 153.827 55.7851 153.523 55.7851 153.16V152.44H56.9851V154.424H58.8731V155.624H56.9851V160.504C56.9851 160.792 57.0278 161.048 57.1131 161.272C57.1985 161.485 57.3425 161.656 57.5451 161.784C57.7585 161.912 58.0411 161.976 58.3931 161.976C58.4785 161.976 58.5798 161.971 58.6971 161.96C58.8145 161.949 58.9158 161.939 59.0011 161.928V163C58.8731 163.032 58.7291 163.053 58.5691 163.064C58.4091 163.085 58.2811 163.096 58.1851 163.096ZM60.7883 163V154.424H61.9883V163H60.7883ZM60.7883 152.84V151.08H61.9883V152.84H60.7883ZM64.1245 163V154.424H65.3245V156.088L65.0525 156.024C65.2658 155.469 65.6125 155.032 66.0925 154.712C66.5832 154.392 67.1485 154.232 67.7885 154.232C68.3965 154.232 68.9405 154.371 69.4205 154.648C69.9112 154.925 70.2952 155.309 70.5725 155.8C70.8605 156.28 71.0045 156.824 71.0045 157.432V163H69.8045V157.896C69.8045 157.373 69.7085 156.931 69.5165 156.568C69.3352 156.205 69.0738 155.928 68.7325 155.736C68.4018 155.533 68.0178 155.432 67.5805 155.432C67.1432 155.432 66.7538 155.533 66.4125 155.736C66.0712 155.928 65.8045 156.211 65.6125 156.584C65.4205 156.947 65.3245 157.384 65.3245 157.896V163H64.1245ZM77.0404 166.52C76.4537 166.52 75.9097 166.429 75.4084 166.248C74.9177 166.067 74.491 165.816 74.1284 165.496C73.7764 165.187 73.5044 164.824 73.3124 164.408L74.4164 163.816C74.587 164.221 74.891 164.573 75.3284 164.872C75.7657 165.171 76.3257 165.32 77.0084 165.32C77.531 165.32 78.011 165.219 78.4484 165.016C78.8857 164.813 79.2377 164.515 79.5044 164.12C79.771 163.725 79.9044 163.24 79.9044 162.664V160.76L80.0964 160.936C79.7977 161.555 79.355 162.035 78.7684 162.376C78.1817 162.707 77.5417 162.872 76.8484 162.872C76.0484 162.872 75.3284 162.68 74.6884 162.296C74.0484 161.912 73.5417 161.395 73.1684 160.744C72.8057 160.083 72.6244 159.352 72.6244 158.552C72.6244 157.741 72.8057 157.011 73.1684 156.36C73.5417 155.709 74.043 155.192 74.6724 154.808C75.3124 154.424 76.0377 154.232 76.8484 154.232C77.5417 154.232 78.171 154.392 78.7364 154.712C79.3124 155.032 79.7657 155.464 80.0964 156.008L79.9044 156.344V154.424H81.1044V162.664C81.1044 163.4 80.9284 164.056 80.5764 164.632C80.235 165.219 79.755 165.677 79.1364 166.008C78.5284 166.349 77.8297 166.52 77.0404 166.52ZM76.9124 161.672C77.467 161.672 77.9684 161.533 78.4164 161.256C78.8644 160.968 79.2217 160.589 79.4884 160.12C79.7657 159.64 79.9044 159.117 79.9044 158.552C79.9044 157.987 79.7657 157.469 79.4884 157C79.2217 156.52 78.8644 156.141 78.4164 155.864C77.9684 155.576 77.467 155.432 76.9124 155.432C76.347 155.432 75.835 155.576 75.3764 155.864C74.9177 156.141 74.555 156.515 74.2884 156.984C74.0324 157.453 73.9044 157.976 73.9044 158.552C73.9044 159.117 74.0324 159.64 74.2884 160.12C74.555 160.589 74.9124 160.968 75.3604 161.256C75.819 161.533 76.3364 161.672 76.9124 161.672ZM86.5289 163V155.624H84.8169V154.424H86.5289V153.656C86.5289 153.059 86.6622 152.557 86.9289 152.152C87.1955 151.736 87.5475 151.421 87.9849 151.208C88.4222 150.995 88.8915 150.888 89.3929 150.888C89.4995 150.888 89.6222 150.899 89.7609 150.92C89.8995 150.931 90.0115 150.947 90.0969 150.968V152.056C90.0222 152.035 89.9209 152.024 89.7929 152.024C89.6649 152.013 89.5742 152.008 89.5209 152.008C89.0089 152.008 88.5822 152.131 88.2409 152.376C87.8995 152.621 87.7289 153.048 87.7289 153.656V154.424H89.8249V155.624H87.7289V163H86.5289ZM91.4539 163V154.424H92.6539V155.832L92.4939 155.624C92.6965 155.219 93.0005 154.899 93.4059 154.664C93.8219 154.429 94.3232 154.312 94.9099 154.312H95.4539V155.512H94.7019C94.0832 155.512 93.5872 155.704 93.2139 156.088C92.8405 156.472 92.6539 157.016 92.6539 157.72V163H91.4539ZM100.556 163.192C99.7455 163.192 99.0095 163 98.3481 162.616C97.6868 162.221 97.1588 161.688 96.7641 161.016C96.3801 160.333 96.1881 159.56 96.1881 158.696C96.1881 157.843 96.3801 157.08 96.7641 156.408C97.1481 155.736 97.6655 155.208 98.3161 154.824C98.9775 154.429 99.7241 154.232 100.556 154.232C101.388 154.232 102.129 154.424 102.78 154.808C103.441 155.192 103.959 155.72 104.332 156.392C104.716 157.064 104.908 157.832 104.908 158.696C104.908 159.571 104.711 160.349 104.316 161.032C103.921 161.704 103.393 162.232 102.732 162.616C102.081 163 101.356 163.192 100.556 163.192ZM100.556 161.992C101.132 161.992 101.649 161.848 102.108 161.56C102.577 161.272 102.945 160.877 103.212 160.376C103.489 159.875 103.628 159.315 103.628 158.696C103.628 158.077 103.489 157.523 103.212 157.032C102.945 156.541 102.577 156.152 102.108 155.864C101.649 155.576 101.132 155.432 100.556 155.432C99.9801 155.432 99.4575 155.576 98.9881 155.864C98.5295 156.152 98.1615 156.541 97.8841 157.032C97.6068 157.523 97.4681 158.077 97.4681 158.696C97.4681 159.315 97.6068 159.875 97.8841 160.376C98.1615 160.877 98.5295 161.272 98.9881 161.56C99.4575 161.848 99.9801 161.992 100.556 161.992ZM106.705 163V154.424H107.905V156.056L107.713 155.816C107.947 155.315 108.294 154.925 108.753 154.648C109.222 154.371 109.734 154.232 110.289 154.232C110.95 154.232 111.547 154.419 112.081 154.792C112.614 155.165 112.993 155.651 113.217 156.248L112.881 156.264C113.094 155.603 113.462 155.101 113.985 154.76C114.518 154.408 115.105 154.232 115.745 154.232C116.321 154.232 116.849 154.371 117.329 154.648C117.819 154.925 118.209 155.309 118.497 155.8C118.795 156.28 118.945 156.824 118.945 157.432V163H117.745V157.896C117.745 157.373 117.649 156.931 117.457 156.568C117.275 156.205 117.025 155.928 116.705 155.736C116.385 155.533 116.017 155.432 115.601 155.432C115.195 155.432 114.827 155.533 114.497 155.736C114.166 155.928 113.905 156.211 113.713 156.584C113.521 156.947 113.425 157.384 113.425 157.896V163H112.225V157.896C112.225 157.373 112.129 156.931 111.937 156.568C111.755 156.205 111.505 155.928 111.185 155.736C110.865 155.533 110.497 155.432 110.081 155.432C109.665 155.432 109.291 155.533 108.961 155.736C108.641 155.928 108.385 156.211 108.193 156.584C108.001 156.947 107.905 157.384 107.905 157.896V163H106.705Z" fill="white"/>
<path d="M231.408 163.192C230.661 163.192 229.968 163.053 229.328 162.776C228.688 162.488 228.144 162.099 227.696 161.608C227.248 161.117 226.917 160.552 226.704 159.912L228.304 159.24C228.592 159.976 229.013 160.541 229.568 160.936C230.123 161.331 230.763 161.528 231.488 161.528C231.915 161.528 232.288 161.464 232.608 161.336C232.928 161.197 233.173 161.005 233.344 160.76C233.525 160.515 233.616 160.232 233.616 159.912C233.616 159.475 233.493 159.128 233.248 158.872C233.003 158.616 232.64 158.413 232.16 158.264L229.92 157.56C229.024 157.283 228.341 156.861 227.872 156.296C227.403 155.72 227.168 155.048 227.168 154.28C227.168 153.608 227.333 153.021 227.664 152.52C227.995 152.008 228.448 151.608 229.024 151.32C229.611 151.032 230.277 150.888 231.024 150.888C231.739 150.888 232.389 151.016 232.976 151.272C233.563 151.517 234.064 151.859 234.48 152.296C234.907 152.733 235.216 153.24 235.408 153.816L233.84 154.504C233.605 153.875 233.237 153.389 232.736 153.048C232.245 152.707 231.675 152.536 231.024 152.536C230.629 152.536 230.283 152.605 229.984 152.744C229.685 152.872 229.451 153.064 229.28 153.32C229.12 153.565 229.04 153.853 229.04 154.184C229.04 154.568 229.163 154.909 229.408 155.208C229.653 155.507 230.027 155.731 230.528 155.88L232.608 156.536C233.557 156.824 234.272 157.24 234.752 157.784C235.232 158.317 235.472 158.984 235.472 159.784C235.472 160.445 235.296 161.032 234.944 161.544C234.603 162.056 234.128 162.461 233.52 162.76C232.912 163.048 232.208 163.192 231.408 163.192ZM230.672 164.6V149.48H231.952V164.6H230.672Z" fill="white"/>
<path d="M246.399 163.192C245.46 163.192 244.633 162.936 243.919 162.424C243.215 161.901 242.665 161.181 242.271 160.264C241.876 159.336 241.679 158.259 241.679 157.032C241.679 155.805 241.876 154.733 242.271 153.816C242.665 152.888 243.215 152.168 243.919 151.656C244.623 151.144 245.444 150.888 246.383 150.888C247.321 150.888 248.143 151.144 248.847 151.656C249.551 152.168 250.1 152.888 250.495 153.816C250.889 154.733 251.087 155.805 251.087 157.032C251.087 158.259 250.889 159.336 250.495 160.264C250.111 161.192 249.567 161.912 248.863 162.424C248.159 162.936 247.337 163.192 246.399 163.192ZM246.399 161.992C247.081 161.992 247.679 161.784 248.191 161.368C248.703 160.952 249.103 160.376 249.391 159.64C249.679 158.893 249.823 158.024 249.823 157.032C249.823 156.04 249.679 155.176 249.391 154.44C249.103 153.693 248.703 153.117 248.191 152.712C247.679 152.296 247.076 152.088 246.383 152.088C245.7 152.088 245.103 152.296 244.591 152.712C244.079 153.117 243.679 153.693 243.391 154.44C243.103 155.176 242.959 156.04 242.959 157.032C242.959 158.013 243.103 158.877 243.391 159.624C243.679 160.371 244.079 160.952 244.591 161.368C245.113 161.784 245.716 161.992 246.399 161.992ZM253.573 163V161.24H254.853V163H253.573ZM262.056 163.192C261.117 163.192 260.29 162.936 259.576 162.424C258.872 161.901 258.322 161.181 257.928 160.264C257.533 159.336 257.336 158.259 257.336 157.032C257.336 155.805 257.533 154.733 257.928 153.816C258.322 152.888 258.872 152.168 259.576 151.656C260.28 151.144 261.101 150.888 262.04 150.888C262.978 150.888 263.8 151.144 264.504 151.656C265.208 152.168 265.757 152.888 266.152 153.816C266.546 154.733 266.744 155.805 266.744 157.032C266.744 158.259 266.546 159.336 266.152 160.264C265.768 161.192 265.224 161.912 264.52 162.424C263.816 162.936 262.994 163.192 262.056 163.192ZM262.056 161.992C262.738 161.992 263.336 161.784 263.848 161.368C264.36 160.952 264.76 160.376 265.048 159.64C265.336 158.893 265.48 158.024 265.48 157.032C265.48 156.04 265.336 155.176 265.048 154.44C264.76 153.693 264.36 153.117 263.848 152.712C263.336 152.296 262.733 152.088 262.04 152.088C261.357 152.088 260.76 152.296 260.248 152.712C259.736 153.117 259.336 153.693 259.048 154.44C258.76 155.176 258.616 156.04 258.616 157.032C258.616 158.013 258.76 158.877 259.048 159.624C259.336 160.371 259.736 160.952 260.248 161.368C260.77 161.784 261.373 161.992 262.056 161.992ZM273.454 163.192C272.516 163.192 271.689 162.936 270.974 162.424C270.27 161.901 269.721 161.181 269.326 160.264C268.932 159.336 268.734 158.259 268.734 157.032C268.734 155.805 268.932 154.733 269.326 153.816C269.721 152.888 270.27 152.168 270.974 151.656C271.678 151.144 272.5 150.888 273.438 150.888C274.377 150.888 275.198 151.144 275.902 151.656C276.606 152.168 277.156 152.888 277.55 153.816C277.945 154.733 278.142 155.805 278.142 157.032C278.142 158.259 277.945 159.336 277.55 160.264C277.166 161.192 276.622 161.912 275.918 162.424C275.214 162.936 274.393 163.192 273.454 163.192ZM273.454 161.992C274.137 161.992 274.734 161.784 275.246 161.368C275.758 160.952 276.158 160.376 276.446 159.64C276.734 158.893 276.878 158.024 276.878 157.032C276.878 156.04 276.734 155.176 276.446 154.44C276.158 153.693 275.758 153.117 275.246 152.712C274.734 152.296 274.132 152.088 273.438 152.088C272.756 152.088 272.158 152.296 271.646 152.712C271.134 153.117 270.734 153.693 270.446 154.44C270.158 155.176 270.014 156.04 270.014 157.032C270.014 158.013 270.158 158.877 270.446 159.624C270.734 160.371 271.134 160.952 271.646 161.368C272.169 161.784 272.772 161.992 273.454 161.992Z" fill="white"/>
<defs>
<clipPath id="clip0_2001_67690">
<rect width="55.95" height="55.95" fill="white" transform="translate(36 36)"/>
</clipPath>
</defs>
</svg>
