<svg width="25" height="25" viewBox="0 0 25 25" fill="none" xmlns="http://www.w3.org/2000/svg">
<g clip-path="url(#clip0_2007_25464)">
<path d="M12.4395 25C19.0669 25 24.4395 19.4036 24.4395 12.5C24.4395 5.59644 19.0669 0 12.4395 0C5.8121 0 0.439514 5.59644 0.439514 12.5C0.439514 19.4036 5.8121 25 12.4395 25Z" fill="#F0F0F0"/>
<path d="M11.918 12.4999H24.4397C24.4397 11.3717 24.2953 10.2787 24.0263 9.23901H11.918V12.4999Z" fill="#D80027"/>
<path d="M11.918 5.97817H22.6784C21.9439 4.72954 21.0046 3.62588 19.9095 2.71729H11.918V5.97817Z" fill="#D80027"/>
<path d="M12.4397 24.9999C15.2638 24.9999 17.8596 23.9831 19.9095 22.2825H4.96985C7.01969 23.9831 9.61549 24.9999 12.4397 24.9999Z" fill="#D80027"/>
<path d="M2.20098 19.0216H22.6784C23.2681 18.0192 23.7255 16.9235 24.0263 15.7607H0.853088C1.15389 16.9235 1.61124 18.0192 2.20098 19.0216Z" fill="#D80027"/>
<path d="M5.99814 1.95205H7.09169L6.0745 2.72183L6.46305 3.96738L5.4459 3.19761L4.42876 3.96738L4.76439 2.89136C3.8688 3.66846 3.08383 4.57891 2.43695 5.59336H2.78734L2.13986 6.08335C2.03898 6.25864 1.94223 6.43672 1.84951 6.61743L2.1587 7.60869L1.58186 7.17212C1.43847 7.48857 1.30731 7.81216 1.18942 8.14248L1.53006 9.23467H2.78734L1.77015 10.0044L2.1587 11.25L1.14156 10.4802L0.53228 10.9414C0.471295 11.452 0.439514 11.9721 0.439514 12.5H12.4395C12.4395 5.59648 12.4395 4.78262 12.4395 0C10.069 0 7.85912 0.716309 5.99814 1.95205ZM6.46305 11.25L5.4459 10.4802L4.42876 11.25L4.81731 10.0044L3.80012 9.23467H5.0574L5.4459 7.98911L5.8344 9.23467H7.09169L6.0745 10.0044L6.46305 11.25ZM6.0745 6.36313L6.46305 7.60869L5.4459 6.83892L4.42876 7.60869L4.81731 6.36313L3.80012 5.59336H5.0574L5.4459 4.3478L5.8344 5.59336H7.09169L6.0745 6.36313ZM10.7674 11.25L9.75025 10.4802L8.73311 11.25L9.12165 10.0044L8.10447 9.23467H9.36175L9.75025 7.98911L10.1387 9.23467H11.396L10.3788 10.0044L10.7674 11.25ZM10.3788 6.36313L10.7674 7.60869L9.75025 6.83892L8.73311 7.60869L9.12165 6.36313L8.10447 5.59336H9.36175L9.75025 4.3478L10.1387 5.59336H11.396L10.3788 6.36313ZM10.3788 2.72183L10.7674 3.96738L9.75025 3.19761L8.73311 3.96738L9.12165 2.72183L8.10447 1.95205H9.36175L9.75025 0.706494L10.1387 1.95205H11.396L10.3788 2.72183Z" fill="#0052B4"/>
</g>
<defs>
<clipPath id="clip0_2007_25464">
<rect width="24" height="25" fill="white" transform="translate(0.439697)"/>
</clipPath>
</defs>
</svg>
