<svg width="81" height="80" viewBox="0 0 81 80" fill="none" xmlns="http://www.w3.org/2000/svg">
<g filter="url(#filter0_d_2007_38808)">
<ellipse cx="40.1869" cy="40" rx="20.1869" ry="20" fill="#B3FF4A" fill-opacity="0.2"/>
<ellipse cx="40.1871" cy="40.5" rx="12.1122" ry="12" fill="white"/>
<g clip-path="url(#clip0_2007_38808)">
<path d="M36.1416 36.0885C36.0656 36.1947 36.0656 36.345 36.0656 36.6457C36.0656 36.9463 36.0656 37.0967 36.1416 37.2028C36.1685 37.2402 36.2015 37.273 36.2393 37.2995C36.3464 37.3748 36.4981 37.3748 36.8016 37.3748C37.1051 37.3748 37.2568 37.3748 37.3639 37.2995C37.4017 37.273 37.4347 37.2402 37.4616 37.2028C37.5376 37.0967 37.5376 36.9463 37.5376 36.6457C37.5376 36.345 37.5376 36.1947 37.4616 36.0885C37.4347 36.0511 37.4017 36.0184 37.3639 35.9918C37.2568 35.9165 37.1051 35.9165 36.8016 35.9165C36.4981 35.9165 36.3464 35.9165 36.2393 35.9918C36.2015 36.0184 36.1685 36.0511 36.1416 36.0885Z" fill="#02160F"/>
<path fill-rule="evenodd" clip-rule="evenodd" d="M38.2466 33.7525C38.507 33.777 38.7497 33.8302 38.9724 33.9654C39.1902 34.0977 39.3734 34.2791 39.5069 34.495C39.6433 34.7156 39.6971 34.956 39.7218 35.2141C39.7455 35.4609 39.7455 35.7648 39.7455 36.129L39.7455 36.8218C39.7455 37.3459 39.7455 37.783 39.6985 38.13C39.6488 38.4962 39.5395 38.8268 39.2713 39.0925C39.0031 39.3582 38.6694 39.4665 38.2997 39.5157C37.9495 39.5624 37.5084 39.5624 36.9794 39.5623L36.2801 39.5623C35.9125 39.5623 35.6058 39.5624 35.3566 39.5389C35.0962 39.5143 34.8534 39.4611 34.6308 39.3259C34.413 39.1937 34.2298 39.0122 34.0963 38.7963C33.9598 38.5758 33.9061 38.3353 33.8813 38.0773C33.8577 37.8304 33.8577 37.5265 33.8577 37.1623V37.1195C33.8577 36.5653 33.8577 36.1184 33.8922 35.7586C33.9278 35.3875 34.0032 35.0642 34.183 34.7735C34.3651 34.4792 34.6149 34.2317 34.912 34.0514C35.2054 33.8732 35.5317 33.7985 35.9062 33.7632C36.2694 33.729 36.7205 33.729 37.2799 33.729H37.3231C37.6906 33.729 37.9974 33.729 38.2466 33.7525ZM38.163 34.6235C37.9606 34.6045 37.6961 34.604 37.3021 34.604C36.7153 34.604 36.3062 34.6045 35.9898 34.6343C35.6799 34.6635 35.5048 34.7177 35.3734 34.7974C35.1952 34.9056 35.0453 35.0541 34.9361 35.2307C34.8556 35.3608 34.8009 35.5344 34.7714 35.8414C34.7413 36.1549 34.7408 36.5602 34.7408 37.1415C34.7408 37.5319 34.7413 37.7939 34.7606 37.9944C34.7792 38.1884 34.8122 38.2792 34.8493 38.3392C34.91 38.4373 34.9932 38.5198 35.0923 38.5799C35.1528 38.6166 35.2444 38.6494 35.4402 38.6678C35.6426 38.6869 35.9071 38.6873 36.3011 38.6873H36.9488C37.5164 38.6873 37.8977 38.6864 38.1821 38.6485C38.4538 38.6123 38.57 38.5498 38.6468 38.4738C38.7235 38.3978 38.7866 38.2825 38.8232 38.0134C38.8614 37.7316 38.8623 37.3538 38.8623 36.7915V36.1498C38.8623 35.7595 38.8619 35.4974 38.8426 35.2969C38.824 35.1029 38.791 35.0122 38.7539 34.9522C38.6932 34.8541 38.6099 34.7716 38.5109 34.7115C38.4504 34.6747 38.3588 34.642 38.163 34.6235Z" fill="#02160F"/>
<path d="M42.9127 36.0885C42.8366 36.1947 42.8366 36.345 42.8366 36.6457C42.8366 36.9463 42.8366 37.0967 42.9127 37.2028C42.9395 37.2402 42.9725 37.273 43.0103 37.2995C43.1174 37.3748 43.2692 37.3748 43.5726 37.3748C43.8761 37.3748 44.0278 37.3748 44.135 37.2995C44.1728 37.273 44.2058 37.2402 44.2326 37.2028C44.3086 37.0967 44.3086 36.9463 44.3086 36.6457C44.3086 36.345 44.3086 36.1947 44.2326 36.0885C44.2058 36.0511 44.1728 36.0184 44.135 35.9918C44.0278 35.9165 43.8761 35.9165 43.5726 35.9165C43.2692 35.9165 43.1174 35.9165 43.0103 35.9918C42.9725 36.0184 42.9395 36.0511 42.9127 36.0885Z" fill="#02160F"/>
<path fill-rule="evenodd" clip-rule="evenodd" d="M43.0511 33.729H43.0943C43.6537 33.729 44.1048 33.729 44.468 33.7632C44.8425 33.7985 45.1688 33.8732 45.4622 34.0514C45.7593 34.2317 46.0091 34.4792 46.1912 34.7735C46.371 35.0642 46.4464 35.3875 46.482 35.7586C46.5166 36.1184 46.5166 36.5653 46.5165 37.1195V37.1623C46.5166 37.5265 46.5166 37.8304 46.4929 38.0773C46.4681 38.3353 46.4144 38.5758 46.2779 38.7963C46.1444 39.0122 45.9613 39.1937 45.7434 39.3259C45.5208 39.4611 45.278 39.5143 45.0176 39.5389C44.7685 39.5624 44.4617 39.5623 44.0942 39.5623L43.3948 39.5623C42.8658 39.5624 42.4247 39.5624 42.0745 39.5157C41.7048 39.4665 41.3711 39.3582 41.1029 39.0925C40.8348 38.8268 40.7254 38.4962 40.6757 38.13C40.6287 37.783 40.6287 37.346 40.6287 36.8218V36.129C40.6287 35.7648 40.6287 35.4609 40.6524 35.2141C40.6771 34.956 40.7309 34.7156 40.8673 34.495C41.0008 34.2791 41.184 34.0977 41.4018 33.9654C41.6245 33.8302 41.8672 33.777 42.1277 33.7525C42.3768 33.729 42.6836 33.729 43.0511 33.729ZM42.2112 34.6235C42.0154 34.642 41.9238 34.6747 41.8633 34.7115C41.7643 34.7716 41.681 34.8541 41.6203 34.9522C41.5832 35.0122 41.5502 35.1029 41.5316 35.2969C41.5123 35.4974 41.5119 35.7595 41.5119 36.1498V36.7915C41.5119 37.3538 41.5128 37.7316 41.551 38.0134C41.5876 38.2825 41.6507 38.3978 41.7274 38.4738C41.8042 38.5498 41.9204 38.6123 42.1922 38.6485C42.4766 38.6864 42.8578 38.6873 43.4254 38.6873H44.0731C44.4671 38.6873 44.7316 38.6869 44.934 38.6678C45.1298 38.6494 45.2214 38.6166 45.2819 38.5799C45.381 38.5198 45.4642 38.4373 45.5249 38.3392C45.562 38.2792 45.595 38.1884 45.6137 37.9944C45.6329 37.7939 45.6334 37.5319 45.6334 37.1415C45.6334 36.5602 45.6329 36.1549 45.6028 35.8414C45.5734 35.5344 45.5186 35.3608 45.4382 35.2307C45.3289 35.0541 45.179 34.9056 45.0008 34.7974C44.8695 34.7177 44.6943 34.6635 44.3844 34.6343C44.068 34.6045 43.6589 34.604 43.0722 34.604C42.6781 34.604 42.4136 34.6045 42.2112 34.6235Z" fill="#02160F"/>
<path d="M36.0656 43.354C36.0656 43.0534 36.0656 42.903 36.1416 42.7969C36.1685 42.7594 36.2015 42.7267 36.2393 42.7002C36.3464 42.6248 36.4981 42.6248 36.8016 42.6248C37.1051 42.6248 37.2568 42.6248 37.3639 42.7002C37.4017 42.7267 37.4347 42.7594 37.4616 42.7969C37.5376 42.903 37.5376 43.0534 37.5376 43.354C37.5376 43.6547 37.5376 43.805 37.4616 43.9111C37.4347 43.9486 37.4017 43.9813 37.3639 44.0079C37.2568 44.0832 37.1051 44.0832 36.8016 44.0832C36.4981 44.0832 36.3464 44.0832 36.2393 44.0079C36.2015 43.9813 36.1685 43.9486 36.1416 43.9111C36.0656 43.805 36.0656 43.6547 36.0656 43.354Z" fill="#02160F"/>
<path fill-rule="evenodd" clip-rule="evenodd" d="M38.2997 40.484C38.6694 40.5332 39.0031 40.6415 39.2713 40.9072C39.5395 41.1729 39.6488 41.5035 39.6985 41.8697C39.7455 42.2167 39.7455 42.6537 39.7455 43.1778L39.7455 43.8707C39.7455 44.2348 39.7455 44.5388 39.7218 44.7856C39.6971 45.0436 39.6433 45.2841 39.5069 45.5047C39.3734 45.7205 39.1902 45.902 38.9724 46.0343C38.7497 46.1694 38.507 46.2227 38.2466 46.2472C37.9974 46.2707 37.6907 46.2707 37.3231 46.2707H37.2799C36.7205 46.2707 36.2694 46.2707 35.9062 46.2365C35.5317 46.2012 35.2054 46.1265 34.912 45.9483C34.6149 45.7679 34.3651 45.5205 34.183 45.2261C34.0032 44.9354 33.9278 44.6122 33.8922 44.2411C33.8577 43.8813 33.8577 43.4344 33.8577 42.8801V42.8374C33.8577 42.4732 33.8577 42.1693 33.8813 41.9224C33.9061 41.6644 33.9598 41.4239 34.0963 41.2033C34.2298 40.9875 34.413 40.806 34.6308 40.6737C34.8534 40.5386 35.0962 40.4853 35.3566 40.4608C35.6058 40.4373 35.9125 40.4373 36.2801 40.4373H36.9794C37.5084 40.4373 37.9495 40.4373 38.2997 40.484ZM38.1821 41.3512C37.8977 41.3133 37.5164 41.3123 36.9488 41.3123H36.3011C35.9071 41.3123 35.6426 41.3128 35.4402 41.3319C35.2444 41.3503 35.1528 41.383 35.0923 41.4198C34.9932 41.4799 34.91 41.5624 34.8493 41.6605C34.8122 41.7205 34.7792 41.8112 34.7606 42.0052C34.7413 42.2057 34.7408 42.4678 34.7408 42.8582C34.7408 43.4395 34.7413 43.8448 34.7714 44.1583C34.8009 44.4653 34.8556 44.6388 34.9361 44.769C35.0453 44.9456 35.1952 45.094 35.3734 45.2023C35.5048 45.282 35.6799 45.3362 35.9898 45.3654C36.3062 45.3952 36.7153 45.3957 37.3021 45.3957C37.6961 45.3957 37.9606 45.3952 38.163 45.3761C38.3588 45.3577 38.4504 45.325 38.5109 45.2882C38.6099 45.2281 38.6932 45.1456 38.7539 45.0475C38.791 44.9875 38.824 44.8968 38.8426 44.7028C38.8619 44.5023 38.8623 44.2402 38.8623 43.8498V43.2082C38.8623 42.6458 38.8614 42.2681 38.8232 41.9863C38.7866 41.7171 38.7235 41.6019 38.6468 41.5259C38.57 41.4499 38.4538 41.3873 38.1821 41.3512Z" fill="#02160F"/>
<path d="M43.1085 40.4373L44.3086 40.4373V41.3123H43.131C42.7084 41.3123 42.4246 41.3129 42.2083 41.3347C41.9994 41.3557 41.9028 41.393 41.839 41.4352C41.7586 41.4884 41.6896 41.5568 41.6359 41.6364C41.5932 41.6997 41.5557 41.7953 41.5344 42.0023C41.5124 42.2166 41.5119 42.4978 41.5119 42.9165H40.6287L40.6287 42.8941C40.6287 42.5036 40.6287 42.1776 40.6558 41.9138C40.6841 41.6376 40.7458 41.3813 40.9016 41.1503C41.0197 40.9751 41.1715 40.8247 41.3483 40.7077C41.5815 40.5533 41.8401 40.4923 42.1189 40.4642C42.3852 40.4373 42.7142 40.4373 43.1085 40.4373Z" fill="#02160F"/>
<path d="M40.6287 45.8332V44.0832H41.5119V45.8332C41.5119 46.0748 41.3142 46.2707 41.0703 46.2707C40.8264 46.2707 40.6287 46.0748 40.6287 45.8332Z" fill="#02160F"/>
<path d="M46.5165 40.8748C46.5165 40.6332 46.3188 40.4373 46.075 40.4373C45.8311 40.4373 45.6334 40.6332 45.6334 40.8748V42.9165H46.5165V40.8748Z" fill="#02160F"/>
<path d="M45.6334 44.0832C45.6334 44.361 45.6331 44.5474 45.6232 44.6917C45.6135 44.8322 45.5962 44.9005 45.5773 44.9455C45.5026 45.1242 45.3594 45.2662 45.179 45.3402C45.1336 45.3588 45.0646 45.376 44.9229 45.3856C44.7772 45.3954 44.589 45.3957 44.3086 45.3957H43.131V46.2707H44.3235C44.5851 46.2707 44.8036 46.2707 44.983 46.2586C45.1697 46.2459 45.346 46.2187 45.517 46.1486C45.9138 45.9857 46.229 45.6735 46.3933 45.2804C46.4641 45.111 46.4916 44.9363 46.5043 44.7513C46.5166 44.5736 46.5165 44.3572 46.5165 44.098V44.0832H45.6334Z" fill="#02160F"/>
<path d="M42.6415 42.5924C42.5422 42.7396 42.5422 42.9444 42.5422 43.354C42.5422 43.7636 42.5422 43.9685 42.6415 44.1156C42.6844 44.1793 42.7396 44.234 42.8039 44.2765C42.9524 44.3748 43.1592 44.3748 43.5726 44.3748C43.9861 44.3748 44.1928 44.3748 44.3413 44.2765C44.4056 44.234 44.4608 44.1793 44.5038 44.1156C44.603 43.9685 44.603 43.7636 44.603 43.354C44.603 42.9444 44.603 42.7396 44.5038 42.5924C44.4608 42.5287 44.4056 42.474 44.3413 42.4315C44.1928 42.3332 43.9861 42.3332 43.5726 42.3332C43.1592 42.3332 42.9524 42.3332 42.8039 42.4315C42.7396 42.474 42.6844 42.5287 42.6415 42.5924Z" fill="#02160F"/>
</g>
</g>
<defs>
<filter id="filter0_d_2007_38808" x="0" y="0" width="80.3738" height="80" filterUnits="userSpaceOnUse" color-interpolation-filters="sRGB">
<feFlood flood-opacity="0" result="BackgroundImageFix"/>
<feColorMatrix in="SourceAlpha" type="matrix" values="0 0 0 0 0 0 0 0 0 0 0 0 0 0 0 0 0 0 127 0" result="hardAlpha"/>
<feOffset/>
<feGaussianBlur stdDeviation="10"/>
<feComposite in2="hardAlpha" operator="out"/>
<feColorMatrix type="matrix" values="0 0 0 0 0.701961 0 0 0 0 1 0 0 0 0 0.290196 0 0 0 0.5 0"/>
<feBlend mode="normal" in2="BackgroundImageFix" result="effect1_dropShadow_2007_38808"/>
<feBlend mode="normal" in="SourceGraphic" in2="effect1_dropShadow_2007_38808" result="shape"/>
</filter>
<clipPath id="clip0_2007_38808">
<rect x="33.1216" y="33" width="14.1308" height="14" rx="5" fill="white"/>
</clipPath>
</defs>
</svg>
