<svg width="37" height="37" viewBox="0 0 37 37" fill="none" xmlns="http://www.w3.org/2000/svg">
<circle cx="18.5" cy="18.5" r="18.5" fill="white" fill-opacity="0.2"/>
<path d="M9 10L9.26491 10.0883C10.5849 10.5283 11.245 10.7483 11.6225 11.2721C12 11.7959 12 12.4916 12 13.883V16.5C12 19.3284 12 20.7426 12.8787 21.6213C13.7574 22.5 15.1716 22.5 18 22.5H20M26 22.5H24" stroke="#B3FF4A" stroke-width="1.5" stroke-linecap="round"/>
<path d="M14.5 25C15.3284 25 16 25.6716 16 26.5C16 27.3284 15.3284 28 14.5 28C13.6716 28 13 27.3284 13 26.5C13 25.6716 13.6716 25 14.5 25Z" stroke="#B3FF4A" stroke-width="1.5"/>
<path d="M23.5 25.0001C24.3284 25.0001 25 25.6716 25 26.5001C25 27.3285 24.3284 28.0001 23.5 28.0001C22.6716 28.0001 22 27.3285 22 26.5001C22 25.6716 22.6716 25.0001 23.5 25.0001Z" stroke="#B3FF4A" stroke-width="1.5"/>
<path d="M12 13H15M12.5 20H23.0218C23.9812 20 24.4609 20 24.8366 19.7523C25.2123 19.5045 25.4013 19.0636 25.7792 18.1818L26.2078 17.1818C27.0173 15.2929 27.4221 14.3485 26.9775 13.6743C26.5328 13 25.5054 13 23.4504 13H19" stroke="#B3FF4A" stroke-width="1.5" stroke-linecap="round"/>
</svg>
