<svg width="1008" height="362" viewBox="0 0 1008 362" fill="none" xmlns="http://www.w3.org/2000/svg">
<path d="M102.238 59.3756C103.505 59.6502 104.758 59.9485 105.998 60.2697C109.824 61.2609 113.523 62.4708 117.077 63.8776C120.509 65.2358 123.806 66.7776 126.952 68.4832C130.48 70.3962 133.82 72.5153 136.947 74.8125C140.249 77.2388 143.316 79.8638 146.119 82.6548C148.884 85.4067 151.393 88.32 153.621 91.3633C156.341 95.0774 158.643 98.9851 160.482 103.029C162.224 106.861 163.551 110.816 164.422 114.845C164.57 115.531 164.705 116.219 164.827 116.909C165.995 123.529 165.931 130.324 164.466 137.082C157.122 170.954 117.354 191.082 75.6428 182.038C33.9313 172.994 6.07108 138.203 13.4153 104.331C14.567 99.0192 16.5162 94.0452 19.1452 89.4688C20.2976 87.4628 21.5806 85.5332 22.9844 83.6849C25.1129 80.8825 27.519 78.2671 30.1681 75.8564C34.3283 72.0706 39.0879 68.7894 44.3132 66.0805C48.569 63.8742 53.1338 62.0474 57.9353 60.6368C61.785 59.5058 65.7869 58.6424 69.9037 58.0653C73.8256 57.5155 77.8518 57.2256 81.9502 57.2119C85.7983 57.199 89.71 57.4296 93.6586 57.9172C96.5027 58.2684 99.366 58.7528 102.238 59.3756Z" fill="#B3FF4A"/>
<path d="M30.1681 75.8564L17.3817 134.828M30.1681 75.8564C34.3283 72.0706 39.0879 68.7894 44.3132 66.0805M30.1681 75.8564C27.519 78.2671 25.1129 80.8825 22.9844 83.6849C21.5806 85.5332 20.2976 87.4628 19.1452 89.4688M44.3132 66.0805L27.2306 144.867M44.3132 66.0805C48.569 63.8741 53.1338 62.0474 57.9353 60.6368M57.9353 60.6368L39.1137 147.444M57.9353 60.6368C61.785 59.5058 65.7869 58.6424 69.9037 58.0653M69.9037 58.0653L50.0123 149.807M69.9037 58.0653C73.8256 57.5155 77.8518 57.2256 81.9502 57.2119M81.9502 57.2119L61.3411 152.263M81.9502 57.2119C85.7983 57.199 89.71 57.4296 93.6586 57.9172M93.6586 57.9172C96.5027 58.2684 99.366 58.7528 102.238 59.3756C103.505 59.6502 104.758 59.9485 105.998 60.2697M93.6586 57.9172L72.6699 154.719M105.998 60.2697L84.9427 157.38M105.998 60.2697C109.824 61.2609 113.523 62.4708 117.077 63.8776M117.077 63.8776L96.783 157.478M117.077 63.8776C120.509 65.2358 123.806 66.7776 126.952 68.4832M126.952 68.4832L107.679 157.371M126.952 68.4832C130.48 70.3962 133.82 72.5152 136.947 74.8125M136.947 74.8125L121.196 147.458M136.947 74.8125C140.249 77.2388 143.316 79.8638 146.119 82.6548M146.119 82.6548L135.058 133.67M146.119 82.6548C148.884 85.4067 151.393 88.32 153.621 91.3633M153.621 91.3633L144.027 135.614M153.621 91.3633C156.341 95.0774 158.643 98.9851 160.482 103.029M160.482 103.029L150.131 150.769M160.482 103.029C162.224 106.861 163.551 110.816 164.422 114.845C164.57 115.531 164.705 116.219 164.827 116.909M164.827 116.909C165.995 123.529 165.931 130.324 164.466 137.082C157.122 170.954 117.354 191.082 75.6428 182.038C33.9313 172.994 6.07108 138.203 13.4153 104.331C14.567 99.0192 16.5162 94.0452 19.1452 89.4688M164.827 116.909L158.28 147.103M18.4977 94.5671L19.1452 89.4688" stroke="#02160F"/>
<ellipse cx="87.9177" cy="125.424" rx="57.9286" ry="77.2802" transform="rotate(-77.7664 87.9177 125.424)" fill="#B3FF4A" stroke="#02160F"/>
<path d="M12.1887 109.991L164.056 138.974" stroke="#02160F"/>
<path d="M103.969 69.6291L77.5299 182.452" stroke="#02160F"/>
<path d="M115.092 73.0307L63.9425 179.012" stroke="#02160F"/>
<path d="M144.264 91.21L34.8364 162.816" stroke="#02160F"/>
<path d="M151.903 99.2878L24.3017 152.136" stroke="#02160F"/>
<path d="M158.457 110.094L16.4356 140.551" stroke="#02160F"/>
<path d="M163.081 122.951L11.6436 126.175" stroke="#02160F"/>
<path d="M123.886 180.641L56.2386 68.6655" stroke="#02160F"/>
<path d="M107.167 159.735L68.0149 66.7789" stroke="#02160F"/>
<path d="M150.1 164.592L28.9154 82.9934" stroke="#02160F"/>
<path d="M137.998 174.816L42.7996 73.6606" stroke="#02160F"/>
<path d="M158.424 153.554L18.6005 94.0938" stroke="#02160F"/>
<path d="M107.346 183.975L79.5869 65.827" stroke="#02160F"/>
<path d="M90.479 184.269L91.5924 67.4424" stroke="#02160F"/>
<path d="M51.2153 173.006L125.094 77.9461" stroke="#02160F"/>
<ellipse cx="87.9168" cy="125.424" rx="49.2394" ry="65.6882" transform="rotate(-77.7664 87.9168 125.424)" fill="#B3FF4A" stroke="#02160F"/>
<ellipse cx="87.7112" cy="126.373" rx="39.5846" ry="54.0961" transform="rotate(-77.7664 87.7112 126.373)" fill="#B3FF4A" stroke="#02160F"/>
<mask id="path-21-outside-1_2001_158608" maskUnits="userSpaceOnUse" x="44.278" y="105.75" width="81.2003" height="48.2501" fill="black">
<rect fill="white" x="44.278" y="105.75" width="81.2003" height="48.2501"/>
<path fill-rule="evenodd" clip-rule="evenodd" d="M61.1866 116.192L70.067 112.273L74.3399 115.398C75.0503 115.258 75.7677 115.143 76.4922 115.053C79.4135 114.683 82.267 114.649 85.0527 114.951C87.8385 115.253 90.3418 115.85 92.5625 116.741L88.6761 121.826C86.4843 120.955 84.0913 120.497 81.497 120.451C78.9067 120.369 76.4932 120.821 74.2566 121.808C72.0859 122.766 70.628 123.937 69.8829 125.321C69.1379 126.705 69.1028 128.183 69.7777 129.757C70.4565 131.295 71.855 132.839 73.9731 134.389C76.0912 135.938 78.4251 137.086 80.9748 137.833C83.5244 138.579 86.0712 138.919 88.6152 138.851C91.1921 138.769 93.5659 138.249 95.7367 137.291C97.4141 136.55 98.7007 135.659 99.5966 134.617C100.496 133.54 100.853 132.412 100.668 131.235C100.515 130.043 99.6846 128.895 98.1758 127.792L98.0888 127.728L88.271 132.061L82.613 127.921L100.078 120.214L103.516 122.729C106.156 124.661 107.97 126.566 108.956 128.445C109.913 130.303 110.206 132.079 109.835 133.775C109.467 135.434 108.566 136.955 107.132 138.336C106.923 138.533 106.708 138.725 106.484 138.912L110.98 142.201L102.1 146.12L97.9968 143.119C96.4719 143.546 94.8785 143.863 93.2167 144.069C90.1059 144.455 86.9409 144.473 83.7218 144.124C80.5027 143.775 77.4007 143.068 74.4158 142.003C71.4309 140.939 68.7344 139.525 66.3261 137.763C63.9178 136.002 62.1586 134.175 61.0485 132.282C59.9093 130.369 59.4386 128.501 59.6362 126.678C59.8048 124.834 60.6012 123.121 62.0253 121.54C62.8323 120.626 63.8368 119.782 65.0386 119.01L61.1866 116.192Z"/>
</mask>
<path fill-rule="evenodd" clip-rule="evenodd" d="M61.1866 116.192L70.067 112.273L74.3399 115.398C75.0503 115.258 75.7677 115.143 76.4922 115.053C79.4135 114.683 82.267 114.649 85.0527 114.951C87.8385 115.253 90.3418 115.85 92.5625 116.741L88.6761 121.826C86.4843 120.955 84.0913 120.497 81.497 120.451C78.9067 120.369 76.4932 120.821 74.2566 121.808C72.0859 122.766 70.628 123.937 69.8829 125.321C69.1379 126.705 69.1028 128.183 69.7777 129.757C70.4565 131.295 71.855 132.839 73.9731 134.389C76.0912 135.938 78.4251 137.086 80.9748 137.833C83.5244 138.579 86.0712 138.919 88.6152 138.851C91.1921 138.769 93.5659 138.249 95.7367 137.291C97.4141 136.55 98.7007 135.659 99.5966 134.617C100.496 133.54 100.853 132.412 100.668 131.235C100.515 130.043 99.6846 128.895 98.1758 127.792L98.0888 127.728L88.271 132.061L82.613 127.921L100.078 120.214L103.516 122.729C106.156 124.661 107.97 126.566 108.956 128.445C109.913 130.303 110.206 132.079 109.835 133.775C109.467 135.434 108.566 136.955 107.132 138.336C106.923 138.533 106.708 138.725 106.484 138.912L110.98 142.201L102.1 146.12L97.9968 143.119C96.4719 143.546 94.8785 143.863 93.2167 144.069C90.1059 144.455 86.9409 144.473 83.7218 144.124C80.5027 143.775 77.4007 143.068 74.4158 142.003C71.4309 140.939 68.7344 139.525 66.3261 137.763C63.9178 136.002 62.1586 134.175 61.0485 132.282C59.9093 130.369 59.4386 128.501 59.6362 126.678C59.8048 124.834 60.6012 123.121 62.0253 121.54C62.8323 120.626 63.8368 119.782 65.0386 119.01L61.1866 116.192Z" fill="white"/>
<path d="M70.067 112.273L70.7989 111.95L70.1532 111.477L69.4213 111.8L70.067 112.273ZM61.1866 116.192L60.541 115.719L59.8091 116.042L60.4547 116.515L61.1866 116.192ZM74.3399 115.398L73.608 115.721L74.0901 116.074L74.751 115.943L74.3399 115.398ZM76.4922 115.053L76.8026 115.614L76.8077 115.613L76.4922 115.053ZM85.0527 114.951L85.1137 114.388L85.1137 114.388L85.0527 114.951ZM92.5625 116.741L93.4618 117.027L93.7993 116.585L93.0435 116.282L92.5625 116.741ZM88.6761 121.826L88.2 122.287L89.1518 122.665L89.5754 122.111L88.6761 121.826ZM81.497 120.451L81.5646 121.022L81.5761 121.022L81.5875 121.023L81.497 120.451ZM69.8829 125.321L70.8174 125.552L69.8829 125.321ZM69.7777 129.757L68.8326 129.831L68.8344 129.835L69.7777 129.757ZM80.9748 137.833L80.6285 138.339L80.9748 137.833ZM88.6152 138.851L88.7783 139.423L88.7868 139.422L88.6152 138.851ZM99.5966 134.617L100.48 134.923L100.484 134.918L99.5966 134.617ZM100.668 131.235L99.6946 131.207L99.6961 131.217L100.668 131.235ZM98.1758 127.792L98.9077 127.469L98.1758 127.792ZM98.0888 127.728L98.8207 127.405L98.175 126.933L97.4431 127.256L98.0888 127.728ZM88.271 132.061L87.5391 132.384L88.1848 132.856L88.9167 132.533L88.271 132.061ZM82.613 127.921L81.9674 127.449L81.2355 127.772L81.8811 128.244L82.613 127.921ZM100.078 120.214L100.81 119.891L100.164 119.419L99.4321 119.742L100.078 120.214ZM108.956 128.445L109.888 128.343L109.886 128.34L108.956 128.445ZM109.835 133.775L110.803 133.916L110.803 133.915L109.835 133.775ZM107.132 138.336L107.979 138.68L107.983 138.676L107.132 138.336ZM106.484 138.912L105.661 138.548L105.267 138.88L105.753 139.235L106.484 138.912ZM110.98 142.201L111.626 142.674L112.358 142.351L111.712 141.878L110.98 142.201ZM102.1 146.12L101.368 146.443L102.014 146.916L102.746 146.593L102.1 146.12ZM97.9968 143.119L98.7287 142.796L98.1891 142.401L97.4913 142.596L97.9968 143.119ZM93.2167 144.069L92.9051 143.508L92.9051 143.508L93.2167 144.069ZM74.4158 142.003L73.9868 142.483L74.4158 142.003ZM61.0485 132.282L61.9678 132.158L61.9662 132.155L61.0485 132.282ZM59.6362 126.678L60.6103 126.783L60.6108 126.778L59.6362 126.678ZM62.0253 121.54L62.901 121.854L62.9041 121.85L62.0253 121.54ZM65.0386 119.01L65.7957 119.422L66.3176 119.087L65.7705 118.687L65.0386 119.01ZM69.4213 111.8L60.541 115.719L61.8323 116.664L70.7127 112.745L69.4213 111.8ZM75.0718 115.075L70.7989 111.95L69.3351 112.596L73.608 115.721L75.0718 115.075ZM74.751 115.943C75.4294 115.809 76.1132 115.699 76.8026 115.614L76.1818 114.493C75.4222 114.586 74.6711 114.707 73.9287 114.854L74.751 115.943ZM76.8077 115.613C79.6209 115.257 82.3465 115.226 84.9918 115.513L85.1137 114.388C82.1875 114.071 79.2061 114.109 76.1767 114.493L76.8077 115.613ZM84.9918 115.513C87.6439 115.801 90.0012 116.366 92.0815 117.201L93.0435 116.282C90.6823 115.334 88.0331 114.705 85.1137 114.388L84.9918 115.513ZM91.6632 116.456L87.7767 121.54L89.5754 122.111L93.4618 117.027L91.6632 116.456ZM89.1522 121.364C86.7813 120.423 84.1896 119.928 81.4066 119.879L81.5875 121.023C83.9931 121.065 86.1874 121.488 88.2 122.287L89.1522 121.364ZM81.4295 119.879C78.5941 119.79 75.9834 120.289 73.611 121.336L74.9023 122.281C77.0029 121.354 79.2192 120.948 81.5646 121.022L81.4295 119.879ZM73.611 121.336C71.321 122.346 69.7522 123.597 68.9485 125.09L70.8174 125.552C71.5037 124.277 72.8508 123.186 74.9023 122.281L73.611 121.336ZM68.9485 125.09C68.1494 126.574 68.1155 128.158 68.8326 129.831L70.7229 129.684C70.0902 128.208 70.1264 126.835 70.8174 125.552L68.9485 125.09ZM68.8344 129.835C69.5593 131.478 71.0435 133.104 73.2412 134.712L74.705 134.066C72.6664 132.574 71.3538 131.113 70.7211 129.68L68.8344 129.835ZM73.2412 134.712C75.446 136.325 77.9067 137.542 80.6285 138.339L81.321 137.327C78.9435 136.631 76.7364 135.552 74.705 134.066L73.2412 134.712ZM80.6285 138.339C83.3309 139.13 86.0533 139.495 88.7783 139.423L88.4521 138.279C86.0892 138.342 83.7179 138.029 81.321 137.327L80.6285 138.339ZM88.7868 139.422C91.5579 139.334 94.0921 138.774 96.3823 137.763L95.091 136.818C93.0397 137.724 90.8263 138.204 88.4436 138.28L88.7868 139.422ZM96.3823 137.763C98.1531 136.982 99.5233 136.035 100.48 134.923L98.7137 134.312C97.8781 135.284 96.6751 136.119 95.091 136.818L96.3823 137.763ZM100.484 134.918C101.449 133.762 101.842 132.537 101.64 131.252L99.6961 131.217C99.8647 132.287 99.5434 133.318 98.7093 134.317L100.484 134.918ZM101.641 131.262C101.471 129.931 100.539 128.662 98.9077 127.469L97.4439 128.115C98.8299 129.129 99.5599 130.155 99.6947 131.207L101.641 131.262ZM98.9077 127.469L98.8207 127.405L97.3569 128.051L97.4439 128.115L98.9077 127.469ZM97.4431 127.256L87.6253 131.588L88.9167 132.533L98.7344 128.2L97.4431 127.256ZM89.0029 131.738L83.3449 127.598L81.8811 128.244L87.5391 132.384L89.0029 131.738ZM83.2587 128.394L100.723 120.686L99.4321 119.742L81.9674 127.449L83.2587 128.394ZM99.3459 120.537L102.784 123.052L104.248 122.406L100.81 119.891L99.3459 120.537ZM102.784 123.052C105.354 124.933 107.089 126.765 108.026 128.55L109.886 128.34C108.851 126.368 106.958 124.389 104.248 122.406L102.784 123.052ZM108.024 128.547C108.944 130.331 109.219 132.024 108.866 133.634L110.803 133.915C111.193 132.134 110.883 130.275 109.888 128.343L108.024 128.547ZM108.866 133.633C108.514 135.222 107.654 136.675 106.281 137.997L107.983 138.676C109.478 137.235 110.419 135.647 110.803 133.916L108.866 133.633ZM106.286 137.993C106.085 138.182 105.876 138.367 105.661 138.548L107.307 139.277C107.539 139.082 107.762 138.884 107.979 138.68L106.286 137.993ZM111.712 141.878L107.216 138.589L105.753 139.235L110.249 142.524L111.712 141.878ZM102.746 146.593L111.626 142.674L110.335 141.729L101.454 145.648L102.746 146.593ZM97.2649 143.442L101.368 146.443L102.832 145.797L98.7287 142.796L97.2649 143.442ZM97.4913 142.596C96.0265 143.007 94.498 143.311 92.9051 143.508L93.5284 144.63C95.259 144.415 96.9172 144.085 98.5022 143.641L97.4913 142.596ZM92.9051 143.508C89.9119 143.88 86.8734 143.897 83.7828 143.562L83.6608 144.687C87.0084 145.05 90.2998 145.03 93.5284 144.63L92.9051 143.508ZM83.7828 143.562C80.6955 143.227 77.7182 142.549 74.8449 141.524L73.9868 142.483C77.0832 143.587 80.3099 144.323 83.6608 144.687L83.7828 143.562ZM74.8449 141.524C71.9857 140.504 69.3896 139.146 67.058 137.44L65.5942 138.086C68.0791 139.904 70.8762 141.373 73.9868 142.483L74.8449 141.524ZM67.058 137.44C64.7236 135.733 63.0323 133.972 61.9678 132.158L60.1291 132.407C61.285 134.377 63.1121 136.271 65.5942 138.086L67.058 137.44ZM61.9662 132.155C60.8699 130.314 60.4215 128.525 60.6103 126.783L58.6621 126.572C58.4556 128.477 58.9488 130.424 60.1308 132.409L61.9662 132.155ZM60.6108 126.778C60.7724 125.011 61.5346 123.371 62.901 121.854L61.1496 121.226C59.6677 122.871 58.8372 124.657 58.6616 126.578L60.6108 126.778ZM62.9041 121.85C63.6773 120.975 64.6404 120.165 65.7957 119.422L64.2816 118.597C63.0331 119.4 61.9874 120.277 61.1465 121.229L62.9041 121.85ZM60.4547 116.515L64.3067 119.333L65.7705 118.687L61.9185 115.869L60.4547 116.515Z" fill="#02160F" mask="url(#path-21-outside-1_2001_158608)"/>
<ellipse cx="30.9825" cy="107.65" rx="2.41369" ry="2.41501" transform="rotate(-77.7664 30.9825 107.65)" fill="#B3FF4A" stroke="#02160F"/>
<ellipse cx="37.2151" cy="97.146" rx="2.41369" ry="2.41501" transform="rotate(-77.7664 37.2151 97.146)" fill="#B3FF4A" stroke="#02160F"/>
<ellipse cx="46.6082" cy="90.2915" rx="2.41369" ry="2.41501" transform="rotate(-77.7664 46.6082 90.2915)" fill="#B3FF4A" stroke="#02160F"/>
<ellipse cx="56.5369" cy="85.5298" rx="2.41369" ry="2.41501" transform="rotate(-77.7664 56.5369 85.5298)" fill="#B3FF4A" stroke="#02160F"/>
<ellipse cx="66.0569" cy="82.6538" rx="2.41369" ry="2.41501" transform="rotate(-77.7664 66.0569 82.6538)" fill="#B3FF4A" stroke="#02160F"/>
<ellipse cx="76.3135" cy="80.9263" rx="2.41369" ry="2.41501" transform="rotate(-77.7664 76.3135 80.9263)" fill="#B3FF4A" stroke="#02160F"/>
<ellipse cx="86.1639" cy="81.0855" rx="2.41369" ry="2.41501" transform="rotate(-77.7664 86.1639 81.0855)" fill="#B3FF4A" stroke="#02160F"/>
<ellipse cx="95.8106" cy="82.19" rx="2.41369" ry="2.41501" transform="rotate(-77.7664 95.8106 82.19)" fill="#B3FF4A" stroke="#02160F"/>
<ellipse cx="105.251" cy="84.2368" rx="2.41369" ry="2.41501" transform="rotate(-77.7664 105.251 84.2368)" fill="#B3FF4A" stroke="#02160F"/>
<ellipse cx="114.283" cy="88.1704" rx="2.41369" ry="2.41501" transform="rotate(-77.7664 114.283 88.1704)" fill="#B3FF4A" stroke="#02160F"/>
<ellipse cx="124.053" cy="93.2525" rx="2.41369" ry="2.41501" transform="rotate(-77.7664 124.053 93.2525)" fill="#B3FF4A" stroke="#02160F"/>
<ellipse cx="134.154" cy="101.371" rx="2.41369" ry="2.41501" transform="rotate(-77.7664 134.154 101.371)" fill="#B3FF4A" stroke="#02160F"/>
<ellipse cx="140.275" cy="109.612" rx="2.41369" ry="2.41501" transform="rotate(-77.7664 140.275 109.612)" fill="#B3FF4A" stroke="#02160F"/>
<ellipse cx="145.041" cy="119.537" rx="2.41369" ry="2.41501" transform="rotate(-77.7664 145.041 119.537)" fill="#B3FF4A" stroke="#02160F"/>
<ellipse cx="147.512" cy="130.94" rx="2.41369" ry="2.41501" transform="rotate(-77.7664 147.512 130.94)" fill="#B3FF4A" stroke="#02160F"/>
<ellipse cx="145.261" cy="141.32" rx="2.41369" ry="2.41501" transform="rotate(-77.7664 145.261 141.32)" fill="#B3FF4A" stroke="#02160F"/>
<ellipse cx="139.77" cy="152.971" rx="2.41369" ry="2.41501" transform="rotate(-77.7664 139.77 152.971)" fill="#B3FF4A" stroke="#02160F"/>
<ellipse cx="132.265" cy="160.234" rx="2.41369" ry="2.41501" transform="rotate(-77.7664 132.265 160.234)" fill="#B3FF4A" stroke="#02160F"/>
<ellipse cx="122.131" cy="165.942" rx="2.41369" ry="2.41501" transform="rotate(-77.7664 122.131 165.942)" fill="#B3FF4A" stroke="#02160F"/>
<ellipse cx="111.463" cy="169.556" rx="2.41369" ry="2.41501" transform="rotate(-77.7664 111.463 169.556)" fill="#B3FF4A" stroke="#02160F"/>
<ellipse cx="98.1668" cy="171.613" rx="2.41369" ry="2.41501" transform="rotate(-77.7664 98.1668 171.613)" fill="#B3FF4A" stroke="#02160F"/>
<ellipse cx="86.429" cy="171.043" rx="2.41369" ry="2.41501" transform="rotate(-77.7664 86.429 171.043)" fill="#B3FF4A" stroke="#02160F"/>
<ellipse cx="75.1006" cy="168.587" rx="2.41369" ry="2.41501" transform="rotate(-77.7664 75.1006 168.587)" fill="#B3FF4A" stroke="#02160F"/>
<ellipse cx="63.9754" cy="165.187" rx="2.41369" ry="2.41501" transform="rotate(-77.7664 63.9754 165.187)" fill="#B3FF4A" stroke="#02160F"/>
<ellipse cx="52.5205" cy="158.752" rx="2.41369" ry="2.41501" transform="rotate(-77.7664 52.5205 158.752)" fill="#B3FF4A" stroke="#02160F"/>
<ellipse cx="41.6809" cy="149.486" rx="2.41369" ry="2.41501" transform="rotate(-77.7664 41.6809 149.486)" fill="#B3FF4A" stroke="#02160F"/>
<ellipse cx="33.8772" cy="139.89" rx="2.41369" ry="2.41501" transform="rotate(-77.7664 33.8772 139.89)" fill="#B3FF4A" stroke="#02160F"/>
<ellipse cx="29.1097" cy="129.966" rx="2.41369" ry="2.41501" transform="rotate(-77.7664 29.1097 129.966)" fill="#B3FF4A" stroke="#02160F"/>
<ellipse cx="28.5279" cy="118.973" rx="2.41369" ry="2.41501" transform="rotate(-77.7664 28.5279 118.973)" fill="#B3FF4A" stroke="#02160F"/>
<path d="M951.383 145.05C952.262 144.097 953.118 143.132 953.949 142.156C956.515 139.146 958.85 136.029 960.953 132.833C962.984 129.748 964.799 126.591 966.396 123.385C968.187 119.789 969.705 116.134 970.946 112.454C972.257 108.568 973.26 104.655 973.953 100.756C974.635 96.912 975.016 93.0824 975.092 89.3074C975.185 84.7003 974.825 80.1745 974.006 75.803C973.23 71.6609 972.043 67.6574 970.44 63.8548C970.167 63.2071 969.882 62.5652 969.585 61.9295C966.736 55.8324 962.776 50.2994 957.689 45.6016C932.194 22.0568 888.034 28.4075 859.056 59.7863C830.078 91.165 827.254 135.689 852.75 159.234C856.748 162.927 861.205 165.884 865.991 168.124C868.089 169.107 870.25 169.951 872.463 170.66C875.818 171.734 879.294 172.495 882.851 172.949C888.437 173.662 894.223 173.617 900.063 172.835C904.819 172.198 909.61 171.073 914.355 169.47C918.16 168.186 921.936 166.594 925.641 164.702C929.17 162.899 932.636 160.823 936.002 158.48C939.163 156.279 942.236 153.843 945.191 151.175C947.319 149.253 949.387 147.21 951.383 145.05Z" fill="white"/>
<path d="M882.851 172.949L838.463 131.957M882.851 172.949C888.437 173.662 894.223 173.617 900.063 172.835M882.851 172.949C879.294 172.495 875.818 171.734 872.463 170.66C870.25 169.951 868.089 169.107 865.991 168.124M900.063 172.835L840.761 118.07M900.063 172.835C904.819 172.198 909.61 171.073 914.355 169.47M914.355 169.47L849.016 109.13M914.355 169.47C918.16 168.186 921.936 166.594 925.641 164.702M925.641 164.702L856.588 100.932M925.641 164.702C929.17 162.899 932.636 160.823 936.002 158.48M936.002 158.48L864.458 92.4091M936.002 158.48C939.163 156.279 942.236 153.843 945.191 151.175M945.191 151.175C947.319 149.253 949.387 147.21 951.383 145.05C952.262 144.097 953.118 143.132 953.949 142.156M945.191 151.175L872.329 83.8866M953.949 142.156L880.855 74.654M953.949 142.156C956.515 139.146 958.85 136.029 960.953 132.833M960.953 132.833L890.501 67.7712M960.953 132.833C962.984 129.748 964.799 126.591 966.396 123.385M966.396 123.385L899.491 61.5987M966.396 123.385C968.187 119.789 969.705 116.134 970.946 112.454M970.946 112.454L916.266 61.9576M970.946 112.454C972.257 108.568 973.26 104.655 973.953 100.756M973.953 100.756L935.554 65.2952M973.953 100.756C974.635 96.912 975.016 93.0824 975.092 89.3074M975.092 89.3074L941.785 58.5483M975.092 89.3074C975.185 84.7003 974.825 80.1745 974.006 75.803M974.006 75.803L938.073 42.6192M974.006 75.803C973.23 71.6609 972.043 67.6574 970.44 63.8548C970.167 63.2071 969.882 62.5652 969.585 61.9295M969.585 61.9295C966.736 55.8324 962.776 50.2994 957.689 45.6016C932.194 22.0568 888.034 28.4075 859.056 59.7863C830.078 91.165 827.254 135.689 852.75 159.234C856.748 162.927 861.205 165.884 865.991 168.124M969.585 61.9295L946.858 40.9416M862.529 164.317L865.991 168.124" stroke="#02160F"/>
<ellipse cx="58.0034" cy="77.3379" rx="58.0034" ry="77.3379" transform="matrix(0.734649 0.678447 0.678447 -0.734649 806.586 116.603)" fill="white" stroke="#02160F"/>
<path d="M848.489 155.3L956.265 44.2866" stroke="#02160F"/>
<path d="M946.905 135.651L860.364 58.3626" stroke="#02160F"/>
<path d="M954.063 126.471L851.209 68.988" stroke="#02160F"/>
<path d="M967.514 94.8086L836.672 98.9867" stroke="#02160F"/>
<path d="M969.128 83.799L834.181 113.794" stroke="#02160F"/>
<path d="M968.284 71.1768L834.397 127.811" stroke="#02160F"/>
<path d="M964.68 57.9795L838.737 142.346" stroke="#02160F"/>
<path d="M899.39 33.2129L908.348 163.864" stroke="#02160F"/>
<path d="M897.712 59.9555L919.083 158.645" stroke="#02160F"/>
<path d="M930.099 31.3066L877.72 167.819" stroke="#02160F"/>
<path d="M914.303 29.8779L894.464 167.491" stroke="#02160F"/>
<path d="M943.266 35.5713L862.885 164.646" stroke="#02160F"/>
<path d="M883.921 39.983L929.113 152.776" stroke="#02160F"/>
<path d="M869.931 49.4326L938.021 144.553" stroke="#02160F"/>
<path d="M844.233 81.2246L959.431 116.696" stroke="#02160F"/>
<ellipse cx="49.3029" cy="65.7372" rx="49.3029" ry="65.7372" transform="matrix(0.734649 0.678447 0.678447 -0.734649 820.849 113.983)" fill="white" stroke="#02160F"/>
<ellipse cx="39.6357" cy="54.1365" rx="39.6357" ry="54.1365" transform="matrix(0.734649 0.678447 0.678447 -0.734649 835.107 111.359)" fill="white" stroke="#02160F"/>
<circle cx="2.41681" cy="2.41681" r="2.41681" transform="matrix(0.734649 0.678447 0.678447 -0.734649 861.821 146.557)" fill="#B3FF4A" stroke="#02160F"/>
<circle cx="2.41681" cy="2.41681" r="2.41681" transform="matrix(0.734649 0.678447 0.678447 -0.734649 872.967 151.586)" fill="#B3FF4A" stroke="#02160F"/>
<circle cx="2.41681" cy="2.41681" r="2.41681" transform="matrix(0.734649 0.678447 0.678447 -0.734649 884.606 151.808)" fill="#B3FF4A" stroke="#02160F"/>
<circle cx="2.41681" cy="2.41681" r="2.41681" transform="matrix(0.734649 0.678447 0.678447 -0.734649 895.479 150.006)" fill="#B3FF4A" stroke="#02160F"/>
<circle cx="2.41681" cy="2.41681" r="2.41681" transform="matrix(0.734649 0.678447 0.678447 -0.734649 904.934 146.894)" fill="#B3FF4A" stroke="#02160F"/>
<circle cx="2.41681" cy="2.41681" r="2.41681" transform="matrix(0.734649 0.678447 0.678447 -0.734649 914.333 142.415)" fill="#B3FF4A" stroke="#02160F"/>
<circle cx="2.41681" cy="2.41681" r="2.41681" transform="matrix(0.734649 0.678447 0.678447 -0.734649 922.312 136.626)" fill="#B3FF4A" stroke="#02160F"/>
<circle cx="2.41681" cy="2.41681" r="2.41681" transform="matrix(0.734649 0.678447 0.678447 -0.734649 929.582 130.18)" fill="#B3FF4A" stroke="#02160F"/>
<circle cx="2.41681" cy="2.41681" r="2.41681" transform="matrix(0.734649 0.678447 0.678447 -0.734649 936.14 123.076)" fill="#B3FF4A" stroke="#02160F"/>
<circle cx="2.41681" cy="2.41681" r="2.41681" transform="matrix(0.734649 0.678447 0.678447 -0.734649 941.279 114.663)" fill="#B3FF4A" stroke="#02160F"/>
<circle cx="2.41681" cy="2.41681" r="2.41681" transform="matrix(0.734649 0.678447 0.678447 -0.734649 946.362 104.884)" fill="#B3FF4A" stroke="#02160F"/>
<circle cx="2.41681" cy="2.41681" r="2.41681" transform="matrix(0.734649 0.678447 0.678447 -0.734649 949.972 92.4258)" fill="#B3FF4A" stroke="#02160F"/>
<circle cx="2.41681" cy="2.41681" r="2.41681" transform="matrix(0.734649 0.678447 0.678447 -0.734649 950.248 82.1533)" fill="#B3FF4A" stroke="#02160F"/>
<circle cx="2.41681" cy="2.41681" r="2.41681" transform="matrix(0.734649 0.678447 0.678447 -0.734649 948.446 71.2793)" fill="#B3FF4A" stroke="#02160F"/>
<circle cx="2.41681" cy="2.41681" r="2.41681" transform="matrix(0.734649 0.678447 0.678447 -0.734649 943.914 60.5137)" fill="#B3FF4A" stroke="#02160F"/>
<circle cx="2.41681" cy="2.41681" r="2.41681" transform="matrix(0.734649 0.678447 0.678447 -0.734649 936.102 53.2988)" fill="#B3FF4A" stroke="#02160F"/>
<circle cx="2.41681" cy="2.41681" r="2.41681" transform="matrix(0.734649 0.678447 0.678447 -0.734649 924.901 46.9033)" fill="#B3FF4A" stroke="#02160F"/>
<circle cx="2.41681" cy="2.41681" r="2.41681" transform="matrix(0.734649 0.678447 0.678447 -0.734649 914.574 45.2617)" fill="#B3FF4A" stroke="#02160F"/>
<circle cx="2.41681" cy="2.41681" r="2.41681" transform="matrix(0.734649 0.678447 0.678447 -0.734649 902.989 46.4062)" fill="#B3FF4A" stroke="#02160F"/>
<circle cx="2.41681" cy="2.41681" r="2.41681" transform="matrix(0.734649 0.678447 0.678447 -0.734649 892.17 49.5732)" fill="#B3FF4A" stroke="#02160F"/>
<circle cx="2.41681" cy="2.41681" r="2.41681" transform="matrix(0.734649 0.678447 0.678447 -0.734649 880.092 55.5264)" fill="#B3FF4A" stroke="#02160F"/>
<circle cx="2.41681" cy="2.41681" r="2.41681" transform="matrix(0.734649 0.678447 0.678447 -0.734649 870.801 62.7373)" fill="#B3FF4A" stroke="#02160F"/>
<circle cx="2.41681" cy="2.41681" r="2.41681" transform="matrix(0.734649 0.678447 0.678447 -0.734649 862.931 71.2598)" fill="#B3FF4A" stroke="#02160F"/>
<circle cx="2.41681" cy="2.41681" r="2.41681" transform="matrix(0.734649 0.678447 0.678447 -0.734649 855.77 80.4375)" fill="#B3FF4A" stroke="#02160F"/>
<circle cx="2.41681" cy="2.41681" r="2.41681" transform="matrix(0.734649 0.678447 0.678447 -0.734649 850.085 92.2939)" fill="#B3FF4A" stroke="#02160F"/>
<circle cx="2.41681" cy="2.41681" r="2.41681" transform="matrix(0.734649 0.678447 0.678447 -0.734649 846.53 106.118)" fill="#B3FF4A" stroke="#02160F"/>
<circle cx="2.41681" cy="2.41681" r="2.41681" transform="matrix(0.734649 0.678447 0.678447 -0.734649 845.653 118.468)" fill="#B3FF4A" stroke="#02160F"/>
<circle cx="2.41681" cy="2.41681" r="2.41681" transform="matrix(0.734649 0.678447 0.678447 -0.734649 847.454 129.341)" fill="#B3FF4A" stroke="#02160F"/>
<circle cx="2.41681" cy="2.41681" r="2.41681" transform="matrix(0.734649 0.678447 0.678447 -0.734649 853.298 138.686)" fill="#B3FF4A" stroke="#02160F"/>
<mask id="path-101-outside-2_2001_158608" maskUnits="userSpaceOnUse" x="872.703" y="69.9264" width="54.6953" height="53.305" fill="black">
<rect fill="white" x="872.703" y="69.9264" width="54.6953" height="53.305"/>
<path fill-rule="evenodd" clip-rule="evenodd" d="M904.837 74.9924L913.686 73.3509L912.048 77.9781C912.552 78.0335 913.029 78.1187 913.48 78.2338C915.31 78.6871 916.712 79.4839 917.687 80.6244C918.661 81.7649 919.154 83.1415 919.165 84.7542L911.328 89.1145C911.306 87.5331 910.703 86.3385 909.519 85.5305C908.379 84.685 906.695 84.4689 904.466 84.8823C902.303 85.2836 900.23 86.1233 898.246 87.4014C896.263 88.6794 894.507 90.2677 892.977 92.1662C891.492 94.0272 890.343 96.1047 889.531 98.3986C888.719 100.692 888.483 102.615 888.821 104.167C889.16 105.719 889.976 106.83 891.27 107.5C892.597 108.165 894.342 108.296 896.505 107.895C898.176 107.585 899.839 106.997 901.492 106.133C903.19 105.231 904.686 104.116 905.983 102.79C907.312 101.457 908.266 99.9732 908.844 98.3392L908.877 98.2449L899.094 100.06L901.263 93.9322L918.666 90.704L917.348 94.4276C916.336 97.2871 914.96 99.8764 913.221 102.196C911.492 104.483 909.542 106.489 907.37 108.213C905.242 109.9 903.023 111.28 900.714 112.355C900.383 112.506 900.054 112.651 899.727 112.788L898.003 117.657L889.154 119.299L890.727 114.855C889.497 114.871 888.364 114.748 887.328 114.485C885.389 113.994 883.857 113.089 882.731 111.771C881.605 110.453 880.956 108.782 880.784 106.759C880.612 104.736 880.988 102.42 881.911 99.812C882.834 97.2039 884.144 94.7149 885.84 92.3451C887.547 89.9438 889.52 87.7869 891.759 85.8743C894.009 83.9302 896.404 82.3115 898.944 81.0183C900.405 80.266 901.877 79.6476 903.36 79.1632L904.837 74.9924Z"/>
</mask>
<path fill-rule="evenodd" clip-rule="evenodd" d="M904.837 74.9924L913.686 73.3509L912.048 77.9781C912.552 78.0335 913.029 78.1187 913.48 78.2338C915.31 78.6871 916.712 79.4839 917.687 80.6244C918.661 81.7649 919.154 83.1415 919.165 84.7542L911.328 89.1145C911.306 87.5331 910.703 86.3385 909.519 85.5305C908.379 84.685 906.695 84.4689 904.466 84.8823C902.303 85.2836 900.23 86.1233 898.246 87.4014C896.263 88.6794 894.507 90.2677 892.977 92.1662C891.492 94.0272 890.343 96.1047 889.531 98.3986C888.719 100.692 888.483 102.615 888.821 104.167C889.16 105.719 889.976 106.83 891.27 107.5C892.597 108.165 894.342 108.296 896.505 107.895C898.176 107.585 899.839 106.997 901.492 106.133C903.19 105.231 904.686 104.116 905.983 102.79C907.312 101.457 908.266 99.9732 908.844 98.3392L908.877 98.2449L899.094 100.06L901.263 93.9322L918.666 90.704L917.348 94.4276C916.336 97.2871 914.96 99.8764 913.221 102.196C911.492 104.483 909.542 106.489 907.37 108.213C905.242 109.9 903.023 111.28 900.714 112.355C900.383 112.506 900.054 112.651 899.727 112.788L898.003 117.657L889.154 119.299L890.727 114.855C889.497 114.871 888.364 114.748 887.328 114.485C885.389 113.994 883.857 113.089 882.731 111.771C881.605 110.453 880.956 108.782 880.784 106.759C880.612 104.736 880.988 102.42 881.911 99.812C882.834 97.2039 884.144 94.7149 885.84 92.3451C887.547 89.9438 889.52 87.7869 891.759 85.8743C894.009 83.9302 896.404 82.3115 898.944 81.0183C900.405 80.266 901.877 79.6476 903.36 79.1632L904.837 74.9924Z" fill="#B3FF4A"/>
<path d="M913.686 73.3509L914.472 73.205L914.739 72.4509L913.953 72.5968L913.686 73.3509ZM904.837 74.9924L905.103 74.2383L904.317 74.3842L904.05 75.1383L904.837 74.9924ZM912.048 77.9781L911.261 78.124L911.062 78.6871L911.568 78.7427L912.048 77.9781ZM913.48 78.2338L912.928 78.9854L912.932 78.9863L913.48 78.2338ZM917.687 80.6244L916.942 81.2608L917.687 80.6244ZM919.165 84.7542L919.265 85.3703L919.999 84.962L919.995 84.3701L919.165 84.7542ZM911.328 89.1145L910.498 89.5024L910.508 90.2431L911.429 89.7306L911.328 89.1145ZM909.519 85.5305L908.829 86.2179L908.835 86.2219L908.84 86.2258L909.519 85.5305ZM898.246 87.4014L898.434 87.9654L898.246 87.4014ZM892.977 92.1662L892.397 91.9541L892.393 91.9595L892.977 92.1662ZM891.27 107.5L890.629 108.218L890.634 108.221L891.27 107.5ZM901.492 106.133L901.559 106.767L901.568 106.763L901.492 106.133ZM905.983 102.79L905.517 102.451L905.505 102.463L905.983 102.79ZM908.877 98.2449L909.664 98.099L909.931 97.3449L909.144 97.4908L908.877 98.2449ZM899.094 100.06L898.308 100.206L898.041 100.96L898.827 100.814L899.094 100.06ZM901.263 93.9322L901.53 93.178L900.744 93.3239L900.477 94.0781L901.263 93.9322ZM918.666 90.704L919.453 90.558L919.72 89.8039L918.933 89.9498L918.666 90.704ZM913.221 102.196L913.83 102.371L913.833 102.366L913.221 102.196ZM907.37 108.213L907.69 108.683L907.691 108.682L907.37 108.213ZM900.714 112.355L900.714 113.022L900.721 113.019L900.714 112.355ZM899.727 112.788L899.766 112.104L899.141 112.366L898.94 112.934L899.727 112.788ZM898.003 117.657L897.737 118.412L898.523 118.266L898.79 117.512L898.003 117.657ZM889.154 119.299L888.368 119.445L888.101 120.199L888.887 120.053L889.154 119.299ZM890.727 114.855L891.514 114.709L891.737 114.079L891.13 114.087L890.727 114.855ZM887.328 114.485L886.777 115.237L886.777 115.237L887.328 114.485ZM882.731 111.771L883.476 111.135L882.731 111.771ZM880.784 106.759L881.613 106.336L880.784 106.759ZM885.84 92.3451L886.471 92.4897L886.474 92.486L885.84 92.3451ZM891.759 85.8743L892.127 86.3044L892.134 86.2982L891.759 85.8743ZM898.944 81.0183L898.997 81.6601L899.003 81.657L898.944 81.0183ZM903.36 79.1632L903.226 79.8832L903.921 79.6564L904.147 79.0173L903.36 79.1632ZM913.953 72.5968L905.103 74.2383L904.57 75.7466L913.419 74.1051L913.953 72.5968ZM912.834 77.8322L914.472 73.205L912.899 73.4968L911.261 78.124L912.834 77.8322ZM911.568 78.7427C912.048 78.7953 912.501 78.8763 912.928 78.9854L914.032 77.4823C913.558 77.3611 913.056 77.2716 912.527 77.2136L911.568 78.7427ZM912.932 78.9863C914.689 79.4214 916.02 80.1824 916.942 81.2608L918.431 79.988C917.404 78.7855 915.931 77.9527 914.028 77.4814L912.932 78.9863ZM916.942 81.2608C917.866 82.3423 918.324 83.6356 918.334 85.1384L919.995 84.3701C919.983 82.6473 919.456 81.1874 918.431 79.988L916.942 81.2608ZM919.064 84.1381L911.227 88.4984L911.429 89.7306L919.265 85.3703L919.064 84.1381ZM912.159 88.7265C912.135 87.0057 911.475 85.7065 910.198 84.8351L908.84 86.2258C909.931 86.9704 910.478 88.0605 910.498 89.5024L912.159 88.7265ZM910.21 84.843C908.953 83.9113 907.108 83.6877 904.733 84.1282L904.199 85.6365C906.282 85.2502 907.805 85.4587 908.829 86.2179L910.21 84.843ZM904.733 84.1282C902.442 84.5532 900.211 85.4506 898.059 86.8373L898.434 87.9654C900.249 86.7959 902.164 86.014 904.199 85.6365L904.733 84.1282ZM898.059 86.8373C895.92 88.2154 894.03 89.9276 892.397 91.9541L893.557 92.3784C894.983 90.6079 896.606 89.1434 898.434 87.9654L898.059 86.8373ZM892.393 91.9595C890.799 93.9569 889.589 96.1577 888.744 98.5445L890.318 98.2526C891.097 96.0517 892.185 94.0976 893.561 92.373L892.393 91.9595ZM888.744 98.5445C887.897 100.94 887.638 102.983 888.001 104.648L889.642 103.687C889.327 102.248 889.542 100.445 890.318 98.2526L888.744 98.5445ZM888.001 104.648C888.362 106.3 889.236 107.497 890.629 108.218L891.912 106.783C890.717 106.164 889.958 105.138 889.642 103.687L888.001 104.648ZM890.634 108.221C892.068 108.939 893.947 109.074 896.238 108.649L896.772 107.141C894.737 107.518 893.126 107.39 891.907 106.78L890.634 108.221ZM896.238 108.649C898.01 108.32 899.786 107.695 901.559 106.767L901.425 105.498C899.892 106.3 898.343 106.849 896.772 107.141L896.238 108.649ZM901.568 106.763C903.399 105.79 905.037 104.574 906.461 103.116L905.505 102.463C904.336 103.659 902.98 104.672 901.417 105.503L901.568 106.763ZM906.449 103.128C907.946 101.627 909.002 99.9708 909.631 98.1933L908.058 98.4851C907.53 99.9757 906.678 101.286 905.517 102.451L906.449 103.128ZM909.631 98.1933L909.664 98.099L908.091 98.3909L908.058 98.4851L909.631 98.1933ZM909.144 97.4908L899.361 99.3055L898.827 100.814L908.611 98.9991L909.144 97.4908ZM899.881 99.9138L902.05 93.7863L900.477 94.0781L898.308 100.206L899.881 99.9138ZM900.996 94.6863L918.399 91.4581L918.933 89.9498L901.53 93.178L900.996 94.6863ZM917.88 90.8499L916.562 94.5735L918.135 94.2817L919.453 90.558L917.88 90.8499ZM916.562 94.5735C915.579 97.3511 914.255 99.8302 912.609 102.025L913.833 102.366C915.666 99.9226 917.094 97.2231 918.135 94.2817L916.562 94.5735ZM912.612 102.021C910.958 104.21 909.104 106.114 907.05 107.744L907.691 108.682C909.98 106.865 912.027 104.757 913.83 102.371L912.612 102.021ZM907.051 107.744C905.022 109.352 902.909 110.666 900.707 111.691L900.721 113.019C903.138 111.895 905.462 110.448 907.69 108.683L907.051 107.744ZM900.714 111.687C900.396 111.833 900.08 111.972 899.766 112.104L899.688 113.472C900.028 113.329 900.37 113.179 900.714 113.022L900.714 111.687ZM898.79 117.512L900.514 112.642L898.94 112.934L897.217 117.803L898.79 117.512ZM888.887 120.053L897.737 118.412L898.27 116.903L889.421 118.545L888.887 120.053ZM889.941 115.001L888.368 119.445L889.941 119.153L891.514 114.709L889.941 115.001ZM891.13 114.087C889.951 114.102 888.868 113.985 887.879 113.734L886.777 115.237C887.859 115.512 889.042 115.64 890.325 115.623L891.13 114.087ZM887.879 113.734C886.019 113.262 884.553 112.396 883.476 111.135L881.986 112.407C883.16 113.782 884.759 114.725 886.777 115.237L887.879 113.734ZM883.476 111.135C882.4 109.875 881.778 108.278 881.613 106.336L879.955 107.183C880.134 109.287 880.81 111.031 881.986 112.407L883.476 111.135ZM881.613 106.336C881.449 104.404 881.806 102.185 882.698 99.6661L881.124 99.958C880.17 102.656 879.776 105.067 879.955 107.183L881.613 106.336ZM882.698 99.6661C883.59 97.1443 884.85 94.7543 886.471 92.4897L885.209 92.2005C883.437 94.6756 882.078 97.2636 881.124 99.958L882.698 99.6661ZM886.474 92.486C888.112 90.1822 889.996 88.1247 892.127 86.3044L891.392 85.4442C889.045 87.4491 886.983 89.7055 885.206 92.2042L886.474 92.486ZM892.134 86.2982C894.282 84.4416 896.568 82.8968 898.997 81.6601L898.891 80.3765C896.24 81.7263 893.736 83.4188 891.384 85.4504L892.134 86.2982ZM899.003 81.657C900.397 80.9387 901.805 80.3473 903.226 79.8832L903.495 78.4432C901.949 78.9479 900.412 79.5932 898.885 80.3796L899.003 81.657ZM904.05 75.1383L902.574 79.3091L904.147 79.0173L905.623 74.8465L904.05 75.1383Z" fill="#02160F" mask="url(#path-101-outside-2_2001_158608)"/>
<path d="M191.483 275.017C190.973 274.425 190.453 273.846 189.926 273.281C188.298 271.538 186.59 269.926 184.82 268.447C183.111 267.019 181.343 265.716 179.532 264.539C177.501 263.22 175.414 262.06 173.295 261.065C171.056 260.013 168.78 259.144 166.492 258.462C164.236 257.79 161.968 257.3 159.711 256.996C156.958 256.625 154.221 256.531 151.546 256.722C149.012 256.903 146.532 257.34 144.144 258.04C143.737 258.159 143.333 258.286 142.932 258.421C139.084 259.71 135.498 261.704 132.335 264.43C116.484 278.092 117.265 304.983 134.08 324.492C150.895 344.002 177.377 348.742 193.228 335.08C195.714 332.937 197.791 330.469 199.461 327.756C200.193 326.566 200.847 325.329 201.423 324.052C202.296 322.115 202.99 320.085 203.506 317.985C204.315 314.687 204.684 311.217 204.616 307.666C204.56 304.773 204.214 301.825 203.579 298.873C203.069 296.505 202.374 294.134 201.494 291.785C200.656 289.547 199.65 287.328 198.476 285.151C197.375 283.107 196.125 281.099 194.729 279.146C193.723 277.739 192.641 276.361 191.483 275.017Z" fill="white"/>
<path d="M203.506 317.985L175.908 341.771M203.506 317.985C204.315 314.687 204.684 311.217 204.616 307.666M203.506 317.985C202.99 320.085 202.296 322.115 201.423 324.052C200.847 325.329 200.193 326.566 199.461 327.756M204.616 307.666L167.745 339.444M204.616 307.666C204.56 304.773 204.214 301.825 203.579 298.873M203.579 298.873L162.955 333.886M203.579 298.873C203.069 296.505 202.374 294.134 201.494 291.785M201.494 291.785L158.561 328.788M201.494 291.785C200.656 289.547 199.65 287.328 198.476 285.151M198.476 285.151L153.994 323.49M198.476 285.151C197.375 283.107 196.125 281.099 194.729 279.146M194.729 279.146C193.723 277.739 192.641 276.361 191.483 275.017C190.973 274.425 190.453 273.846 189.926 273.281M194.729 279.146L149.427 318.191M189.926 273.281L144.48 312.45M189.926 273.281C188.298 271.538 186.59 269.926 184.82 268.447M184.82 268.447L141.017 306.2M184.82 268.447C183.111 267.019 181.343 265.716 179.532 264.539M179.532 264.539L137.934 300.392M179.532 264.539C177.501 263.22 175.414 262.06 173.295 261.065M173.295 261.065L139.298 290.366M173.295 261.065C171.056 260.013 168.78 259.144 166.492 258.462M166.492 258.462L142.618 279.039M166.492 258.462C164.236 257.79 161.968 257.3 159.711 256.996M159.711 256.996L139.003 274.844M159.711 256.996C156.958 256.625 154.221 256.531 151.546 256.722M151.546 256.722L129.205 275.977M151.546 256.722C149.012 256.903 146.532 257.34 144.144 258.04C143.737 258.159 143.333 258.286 142.932 258.421M142.932 258.421C139.084 259.71 135.498 261.704 132.335 264.43C116.484 278.092 117.265 304.983 134.08 324.492C150.895 344.002 177.377 348.742 193.228 335.08C195.714 332.937 197.791 330.469 199.461 327.756M142.932 258.421L128.802 270.599M196.943 329.569L199.461 327.756" stroke="#02160F" stroke-width="0.5"/>
<ellipse cx="34.9764" cy="46.6352" rx="34.9764" ry="46.6352" transform="matrix(0.757477 -0.652861 -0.652861 -0.757477 164.526 359.817)" fill="white" stroke="#02160F" stroke-width="0.5"/>
<path d="M190.579 337.362L131.45 265.192" stroke="#02160F" stroke-width="0.5"/>
<path d="M185.546 277.056L133.317 323.611" stroke="#02160F" stroke-width="0.5"/>
<path d="M180.536 272.139L139.056 329.823" stroke="#02160F" stroke-width="0.5"/>
<path d="M162.488 261.912L156.033 340.586" stroke="#02160F" stroke-width="0.5"/>
<path d="M156.003 260.191L164.734 343.092" stroke="#02160F" stroke-width="0.5"/>
<path d="M148.383 259.833L173.145 343.923" stroke="#02160F" stroke-width="0.5"/>
<path d="M140.23 261.088L182.151 342.317" stroke="#02160F" stroke-width="0.5"/>
<path d="M120.922 298.509L199.809 302.088" stroke="#02160F" stroke-width="0.5"/>
<path d="M136.828 301.344L197.417 295.299" stroke="#02160F" stroke-width="0.5"/>
<path d="M121.882 279.979L200.081 320.707" stroke="#02160F" stroke-width="0.5"/>
<path d="M119.945 289.346L201.031 310.654" stroke="#02160F" stroke-width="0.5"/>
<path d="M125.339 272.384L197.164 329.378" stroke="#02160F" stroke-width="0.5"/>
<path d="M123.919 308.24L194.588 288.888" stroke="#02160F" stroke-width="0.5"/>
<path d="M128.622 317.268L190.271 282.987" stroke="#02160F" stroke-width="0.5"/>
<path d="M145.909 334.841L175.048 268.254" stroke="#02160F" stroke-width="0.5"/>
<ellipse cx="29.7299" cy="39.6399" rx="29.7299" ry="39.6399" transform="matrix(0.757477 -0.652861 -0.652861 -0.757477 163.934 351.093)" fill="white" stroke="#02160F" stroke-width="0.5"/>
<ellipse cx="23.9005" cy="32.6446" rx="23.9005" ry="32.6446" transform="matrix(0.757477 -0.652861 -0.652861 -0.757477 163.338 342.371)" fill="white" stroke="#02160F" stroke-width="0.5"/>
<circle cx="1.45735" cy="1.45735" r="1.45735" transform="matrix(0.757477 -0.652861 -0.652861 -0.757477 186.254 328.776)" fill="#B3FF4A" stroke="#02160F" stroke-width="0.5"/>
<circle cx="1.45735" cy="1.45735" r="1.45735" transform="matrix(0.757477 -0.652861 -0.652861 -0.757477 190.03 322.442)" fill="#B3FF4A" stroke="#02160F" stroke-width="0.5"/>
<circle cx="1.45735" cy="1.45735" r="1.45735" transform="matrix(0.757477 -0.652861 -0.652861 -0.757477 190.96 315.484)" fill="#B3FF4A" stroke="#02160F" stroke-width="0.5"/>
<circle cx="1.45735" cy="1.45735" r="1.45735" transform="matrix(0.757477 -0.652861 -0.652861 -0.757477 190.625 308.848)" fill="#B3FF4A" stroke="#02160F" stroke-width="0.5"/>
<circle cx="1.45735" cy="1.45735" r="1.45735" transform="matrix(0.757477 -0.652861 -0.652861 -0.757477 189.408 302.97)" fill="#B3FF4A" stroke="#02160F" stroke-width="0.5"/>
<circle cx="1.45735" cy="1.45735" r="1.45735" transform="matrix(0.757477 -0.652861 -0.652861 -0.757477 187.368 297.032)" fill="#B3FF4A" stroke="#02160F" stroke-width="0.5"/>
<circle cx="1.45735" cy="1.45735" r="1.45735" transform="matrix(0.757477 -0.652861 -0.652861 -0.757477 184.447 291.855)" fill="#B3FF4A" stroke="#02160F" stroke-width="0.5"/>
<circle cx="1.45735" cy="1.45735" r="1.45735" transform="matrix(0.757477 -0.652861 -0.652861 -0.757477 181.082 287.059)" fill="#B3FF4A" stroke="#02160F" stroke-width="0.5"/>
<circle cx="1.45735" cy="1.45735" r="1.45735" transform="matrix(0.757477 -0.652861 -0.652861 -0.757477 177.275 282.644)" fill="#B3FF4A" stroke="#02160F" stroke-width="0.5"/>
<circle cx="1.45735" cy="1.45735" r="1.45735" transform="matrix(0.757477 -0.652861 -0.652861 -0.757477 172.587 278.988)" fill="#B3FF4A" stroke="#02160F" stroke-width="0.5"/>
<circle cx="1.45735" cy="1.45735" r="1.45735" transform="matrix(0.757477 -0.652861 -0.652861 -0.757477 167.076 275.273)" fill="#B3FF4A" stroke="#02160F" stroke-width="0.5"/>
<circle cx="1.45735" cy="1.45735" r="1.45735" transform="matrix(0.757477 -0.652861 -0.652861 -0.757477 159.86 272.258)" fill="#B3FF4A" stroke="#02160F" stroke-width="0.5"/>
<circle cx="1.45735" cy="1.45735" r="1.45735" transform="matrix(0.757477 -0.652861 -0.652861 -0.757477 153.724 271.39)" fill="#B3FF4A" stroke="#02160F" stroke-width="0.5"/>
<circle cx="1.45735" cy="1.45735" r="1.45735" transform="matrix(0.757477 -0.652861 -0.652861 -0.757477 147.086 271.725)" fill="#B3FF4A" stroke="#02160F" stroke-width="0.5"/>
<circle cx="1.45735" cy="1.45735" r="1.45735" transform="matrix(0.757477 -0.652861 -0.652861 -0.757477 140.326 273.702)" fill="#B3FF4A" stroke="#02160F" stroke-width="0.5"/>
<circle cx="1.45735" cy="1.45735" r="1.45735" transform="matrix(0.757477 -0.652861 -0.652861 -0.757477 135.469 277.889)" fill="#B3FF4A" stroke="#02160F" stroke-width="0.5"/>
<circle cx="1.45735" cy="1.45735" r="1.45735" transform="matrix(0.757477 -0.652861 -0.652861 -0.757477 130.87 284.161)" fill="#B3FF4A" stroke="#02160F" stroke-width="0.5"/>
<circle cx="1.45735" cy="1.45735" r="1.45735" transform="matrix(0.757477 -0.652861 -0.652861 -0.757477 129.18 290.235)" fill="#B3FF4A" stroke="#02160F" stroke-width="0.5"/>
<circle cx="1.45735" cy="1.45735" r="1.45735" transform="matrix(0.757477 -0.652861 -0.652861 -0.757477 129.072 297.255)" fill="#B3FF4A" stroke="#02160F" stroke-width="0.5"/>
<circle cx="1.45735" cy="1.45735" r="1.45735" transform="matrix(0.757477 -0.652861 -0.652861 -0.757477 130.229 303.953)" fill="#B3FF4A" stroke="#02160F" stroke-width="0.5"/>
<circle cx="1.45735" cy="1.45735" r="1.45735" transform="matrix(0.757477 -0.652861 -0.652861 -0.757477 132.969 311.597)" fill="#B3FF4A" stroke="#02160F" stroke-width="0.5"/>
<circle cx="1.45735" cy="1.45735" r="1.45735" transform="matrix(0.757477 -0.652861 -0.652861 -0.757477 136.652 317.657)" fill="#B3FF4A" stroke="#02160F" stroke-width="0.5"/>
<circle cx="1.45735" cy="1.45735" r="1.45735" transform="matrix(0.757477 -0.652861 -0.652861 -0.757477 141.219 322.956)" fill="#B3FF4A" stroke="#02160F" stroke-width="0.5"/>
<circle cx="1.45735" cy="1.45735" r="1.45735" transform="matrix(0.757477 -0.652861 -0.652861 -0.757477 146.228 327.874)" fill="#B3FF4A" stroke="#02160F" stroke-width="0.5"/>
<circle cx="1.45735" cy="1.45735" r="1.45735" transform="matrix(0.757477 -0.652861 -0.652861 -0.757477 152.941 332.092)" fill="#B3FF4A" stroke="#02160F" stroke-width="0.5"/>
<circle cx="1.45735" cy="1.45735" r="1.45735" transform="matrix(0.757477 -0.652861 -0.652861 -0.757477 160.98 335.168)" fill="#B3FF4A" stroke="#02160F" stroke-width="0.5"/>
<circle cx="1.45735" cy="1.45735" r="1.45735" transform="matrix(0.757477 -0.652861 -0.652861 -0.757477 168.319 336.539)" fill="#B3FF4A" stroke="#02160F" stroke-width="0.5"/>
<circle cx="1.45735" cy="1.45735" r="1.45735" transform="matrix(0.757477 -0.652861 -0.652861 -0.757477 174.956 336.204)" fill="#B3FF4A" stroke="#02160F" stroke-width="0.5"/>
<circle cx="1.45735" cy="1.45735" r="1.45735" transform="matrix(0.757477 -0.652861 -0.652861 -0.757477 180.955 333.343)" fill="#B3FF4A" stroke="#02160F" stroke-width="0.5"/>
<mask id="path-152-outside-3_2001_158608" maskUnits="userSpaceOnUse" x="144.471" y="283.981" width="28.6308" height="37.0982" fill="black">
<rect fill="white" x="144.471" y="283.981" width="28.6308" height="37.0982"/>
<path fill-rule="evenodd" clip-rule="evenodd" d="M146.324 298.105L145.947 292.691L148.606 293.989C148.674 293.691 148.758 293.411 148.858 293.149C149.255 292.083 149.828 291.298 150.578 290.792C151.328 290.286 152.186 290.085 153.153 290.189L155.229 295.183C154.28 295.088 153.523 295.367 152.958 296.021C152.373 296.646 152.129 297.64 152.224 299.004C152.316 300.327 152.677 301.627 153.307 302.903C153.937 304.179 154.768 305.34 155.801 306.386C156.814 307.403 157.98 308.234 159.299 308.877C160.617 309.521 161.753 309.794 162.706 309.697C163.659 309.601 164.381 309.188 164.871 308.458C165.359 307.709 165.558 306.673 165.465 305.349C165.394 304.327 165.156 303.29 164.751 302.241C164.327 301.162 163.762 300.189 163.056 299.321C162.348 298.434 161.525 297.761 160.586 297.302L160.531 297.276L160.949 303.261L157.426 301.543L156.684 290.895L158.824 291.94C160.468 292.742 161.925 293.743 163.196 294.944C164.448 296.137 165.516 297.442 166.4 298.862C167.265 300.252 167.94 301.676 168.426 303.133C168.494 303.342 168.558 303.549 168.618 303.754L171.417 305.12L171.795 310.534L169.24 309.287C169.165 310.026 169.014 310.696 168.786 311.298C168.358 312.426 167.711 313.282 166.845 313.867C165.978 314.451 164.933 314.725 163.709 314.69C162.485 314.654 161.123 314.271 159.624 313.539C158.124 312.807 156.723 311.852 155.419 310.674C154.098 309.487 152.94 308.157 151.948 306.685C150.937 305.204 150.131 303.658 149.531 302.048C149.18 301.121 148.91 300.197 148.722 299.275L146.324 298.105Z"/>
</mask>
<path fill-rule="evenodd" clip-rule="evenodd" d="M146.324 298.105L145.947 292.691L148.606 293.989C148.674 293.691 148.758 293.411 148.858 293.149C149.255 292.083 149.828 291.298 150.578 290.792C151.328 290.286 152.186 290.085 153.153 290.189L155.229 295.183C154.28 295.088 153.523 295.367 152.958 296.021C152.373 296.646 152.129 297.64 152.224 299.004C152.316 300.327 152.677 301.627 153.307 302.903C153.937 304.179 154.768 305.34 155.801 306.386C156.814 307.403 157.98 308.234 159.299 308.877C160.617 309.521 161.753 309.794 162.706 309.697C163.659 309.601 164.381 309.188 164.871 308.458C165.359 307.709 165.558 306.673 165.465 305.349C165.394 304.327 165.156 303.29 164.751 302.241C164.327 301.162 163.762 300.189 163.056 299.321C162.348 298.434 161.525 297.761 160.586 297.302L160.531 297.276L160.949 303.261L157.426 301.543L156.684 290.895L158.824 291.94C160.468 292.742 161.925 293.743 163.196 294.944C164.448 296.137 165.516 297.442 166.4 298.862C167.265 300.252 167.94 301.676 168.426 303.133C168.494 303.342 168.558 303.549 168.618 303.754L171.417 305.12L171.795 310.534L169.24 309.287C169.165 310.026 169.014 310.696 168.786 311.298C168.358 312.426 167.711 313.282 166.845 313.867C165.978 314.451 164.933 314.725 163.709 314.69C162.485 314.654 161.123 314.271 159.624 313.539C158.124 312.807 156.723 311.852 155.419 310.674C154.098 309.487 152.94 308.157 151.948 306.685C150.937 305.204 150.131 303.658 149.531 302.048C149.18 301.121 148.91 300.197 148.722 299.275L146.324 298.105Z" fill="#B3FF4A"/>
<path d="M145.947 292.691L145.912 292.192L145.462 291.973L145.497 292.472L145.947 292.691ZM146.324 298.105L145.875 297.886L145.909 298.385L146.359 298.604L146.324 298.105ZM148.606 293.989L148.641 294.488L148.977 294.652L149.047 294.341L148.606 293.989ZM148.858 293.149L149.285 293.544L149.286 293.542L148.858 293.149ZM150.578 290.792L150.236 290.284L150.578 290.792ZM153.153 290.189L153.543 290.17L153.342 289.686L152.974 289.646L153.153 290.189ZM155.229 295.183L155.411 295.726L155.872 295.772L155.619 295.164L155.229 295.183ZM152.958 296.021L153.336 296.498L153.342 296.492L152.958 296.021ZM153.307 302.903L152.943 302.979L153.307 302.903ZM155.801 306.386L155.628 306.731L155.631 306.734L155.801 306.386ZM162.706 309.697L162.947 310.241L162.706 309.697ZM164.871 308.458L165.271 308.908L165.273 308.905L164.871 308.458ZM164.751 302.241L165.15 302.244L165.148 302.238L164.751 302.241ZM163.056 299.321L162.812 299.587L162.819 299.595L163.056 299.321ZM160.531 297.276L160.497 296.777L160.047 296.558L160.082 297.057L160.531 297.276ZM160.949 303.261L160.983 303.76L161.433 303.979L161.398 303.481L160.949 303.261ZM157.426 301.543L156.977 301.323L157.012 301.822L157.461 302.041L157.426 301.543ZM156.684 290.895L156.649 290.396L156.2 290.177L156.234 290.676L156.684 290.895ZM163.196 294.944L163.347 294.579L163.345 294.577L163.196 294.944ZM166.4 298.862L166.715 298.697L166.714 298.696L166.4 298.862ZM168.426 303.133L168.84 303.181L168.838 303.176L168.426 303.133ZM168.618 303.754L168.196 303.681L168.314 304.088L168.653 304.253L168.618 303.754ZM171.417 305.12L171.866 305.339L171.832 304.841L171.382 304.621L171.417 305.12ZM171.795 310.534L171.829 311.033L172.279 311.252L172.244 310.753L171.795 310.534ZM169.24 309.287L169.205 308.788L168.829 308.605L168.791 308.983L169.24 309.287ZM168.786 311.298L168.358 310.903L168.358 310.903L168.786 311.298ZM166.845 313.867L166.502 313.359L166.845 313.867ZM163.709 314.69L163.913 315.235L163.913 315.235L163.709 314.69ZM155.419 310.674L155.554 310.292L155.552 310.29L155.419 310.674ZM151.948 306.685L152.241 306.487L152.238 306.482L151.948 306.685ZM149.531 302.048L149.933 302.061L149.931 302.057L149.531 302.048ZM148.722 299.275L149.159 299.409L149.068 298.962L148.687 298.776L148.722 299.275ZM145.497 292.472L145.875 297.886L146.773 298.324L146.396 292.91L145.497 292.472ZM148.572 293.49L145.912 292.192L145.981 293.19L148.641 294.488L148.572 293.49ZM149.047 294.341C149.111 294.058 149.191 293.792 149.285 293.544L148.43 292.753C148.325 293.029 148.237 293.324 148.166 293.637L149.047 294.341ZM149.286 293.542C149.666 292.521 150.213 291.777 150.92 291.3L150.236 290.284C149.443 290.818 148.843 291.645 148.429 292.755L149.286 293.542ZM150.92 291.3C151.63 290.821 152.434 290.636 153.333 290.732L152.974 289.646C151.938 289.535 151.026 289.752 150.236 290.284L150.92 291.3ZM152.764 290.208L154.839 295.202L155.619 295.164L153.543 290.17L152.764 290.208ZM155.047 294.639C154.011 294.536 153.186 294.843 152.574 295.55L153.342 296.492C153.861 295.891 154.549 295.64 155.411 295.726L155.047 294.639ZM152.58 295.544C151.934 296.235 151.673 297.328 151.774 298.785L152.673 299.223C152.584 297.952 152.813 297.057 153.336 296.498L152.58 295.544ZM151.774 298.785C151.872 300.189 152.258 301.591 152.943 302.979L153.671 302.826C153.096 301.663 152.76 300.465 152.673 299.223L151.774 298.785ZM152.943 302.979C153.624 304.359 154.523 305.611 155.628 306.731L155.974 306.041C155.013 305.068 154.249 303.999 153.671 302.826L152.943 302.979ZM155.631 306.734C156.721 307.829 157.959 308.705 159.333 309.376L159.264 308.378C158.001 307.762 156.907 306.978 155.971 306.038L155.631 306.734ZM159.333 309.376C160.713 310.049 161.922 310.345 162.947 310.241L162.466 309.154C161.585 309.243 160.522 308.992 159.264 308.378L159.333 309.376ZM162.947 310.241C163.963 310.138 164.742 309.695 165.271 308.908L164.471 308.009C164.019 308.68 163.355 309.064 162.466 309.154L162.947 310.241ZM165.273 308.905C165.803 308.092 166.013 306.973 165.915 305.568L165.016 305.13C165.103 306.372 164.916 307.326 164.469 308.012L165.273 308.905ZM165.915 305.568C165.839 304.482 165.585 303.373 165.15 302.244L164.353 302.237C164.727 303.208 164.949 304.171 165.016 305.13L165.915 305.568ZM165.148 302.238C164.689 301.072 164.071 300.004 163.293 299.048L162.819 299.595C163.453 300.374 163.965 301.252 164.355 302.243L165.148 302.238ZM163.299 299.056C162.499 298.052 161.576 297.304 160.551 296.804L160.62 297.801C161.474 298.218 162.197 298.815 162.812 299.587L163.299 299.056ZM160.551 296.804L160.497 296.777L160.566 297.775L160.62 297.801L160.551 296.804ZM160.082 297.057L160.499 303.042L161.398 303.481L160.981 297.495L160.082 297.057ZM160.914 302.763L157.391 301.044L157.461 302.041L160.983 303.76L160.914 302.763ZM157.876 301.762L157.133 291.114L156.234 290.676L156.977 301.323L157.876 301.762ZM156.719 291.394L158.859 292.439L158.79 291.441L156.649 290.396L156.719 291.394ZM158.859 292.439C160.454 293.217 161.847 294.178 163.046 295.312L163.345 294.577C162.004 293.309 160.482 292.267 158.79 291.441L158.859 292.439ZM163.044 295.31C164.24 296.449 165.252 297.688 166.086 299.027L166.714 298.696C165.78 297.197 164.655 295.824 163.347 294.579L163.044 295.31ZM166.086 299.026C166.909 300.35 167.551 301.703 168.013 303.09L168.838 303.176C168.33 301.648 167.621 300.154 166.715 298.697L166.086 299.026ZM168.011 303.085C168.077 303.286 168.138 303.484 168.196 303.681L169.04 303.827C168.977 303.613 168.911 303.397 168.84 303.181L168.011 303.085ZM171.382 304.621L168.583 303.255L168.653 304.253L171.452 305.619L171.382 304.621ZM172.244 310.753L171.866 305.339L170.968 304.901L171.345 310.315L172.244 310.753ZM169.274 309.786L171.829 311.033L171.76 310.035L169.205 308.788L169.274 309.786ZM168.791 308.983C168.72 309.689 168.576 310.328 168.358 310.903L169.213 311.694C169.452 311.063 169.61 310.362 169.688 309.592L168.791 308.983ZM168.358 310.903C167.949 311.983 167.33 312.801 166.502 313.359L167.187 314.374C168.092 313.764 168.768 312.869 169.213 311.694L168.358 310.903ZM166.502 313.359C165.675 313.917 164.677 314.179 163.505 314.145L163.913 315.235C165.188 315.272 166.281 314.986 167.187 314.374L166.502 313.359ZM163.505 314.145C162.338 314.111 161.035 313.746 159.589 313.04L159.659 314.038C161.211 314.796 162.631 315.197 163.913 315.235L163.505 314.145ZM159.589 313.04C158.141 312.334 156.798 311.417 155.554 310.292L155.285 311.056C156.648 312.288 158.108 313.281 159.659 314.038L159.589 313.04ZM155.552 310.29C154.286 309.153 153.184 307.886 152.241 306.487L151.655 306.882C152.697 308.428 153.91 309.82 155.287 311.058L155.552 310.29ZM152.238 306.482C151.274 305.07 150.507 303.598 149.933 302.061L149.128 302.035C149.756 303.718 150.6 305.337 151.658 306.887L152.238 306.482ZM149.931 302.057C149.597 301.173 149.34 300.291 149.159 299.409L148.284 299.141C148.481 300.102 148.763 301.069 149.13 302.039L149.931 302.057ZM146.359 298.604L148.756 299.774L148.687 298.776L146.289 297.606L146.359 298.604Z" fill="#02160F" mask="url(#path-152-outside-3_2001_158608)"/>
<path d="M857.846 294.34C857.629 294.73 857.405 295.113 857.176 295.489C856.467 296.651 855.699 297.748 854.881 298.778C854.091 299.773 853.254 300.705 852.378 301.57C851.396 302.542 850.365 303.43 849.296 304.23C848.167 305.076 846.996 305.824 845.797 306.468C844.615 307.104 843.404 307.64 842.18 308.07C840.685 308.595 839.168 308.963 837.652 309.164C836.216 309.356 834.781 309.398 833.367 309.282C833.127 309.263 832.886 309.238 832.647 309.21C830.35 308.933 828.118 308.234 826.039 307.076C815.616 301.275 812.958 286.168 820.101 273.333C827.245 260.498 841.485 254.795 851.908 260.597C853.543 261.506 854.986 262.645 856.231 263.968C856.777 264.548 857.284 265.163 857.753 265.81C858.463 266.791 859.084 267.844 859.614 268.958C860.445 270.706 861.051 272.601 861.421 274.592C861.723 276.214 861.869 277.9 861.854 279.623C861.842 281.003 861.727 282.408 861.506 283.821C861.295 285.168 860.989 286.523 860.584 287.874C860.204 289.143 859.738 290.408 859.183 291.66C858.783 292.562 858.338 293.456 857.846 294.34Z" fill="#B3FF4A"/>
<path d="M859.614 268.958L841.468 258.858M859.614 268.958C860.445 270.706 861.051 272.601 861.421 274.592M859.614 268.958C859.084 267.844 858.463 266.791 857.753 265.81C857.284 265.163 856.777 264.548 856.231 263.968M861.421 274.592L837.178 261.099M861.421 274.592C861.723 276.214 861.869 277.9 861.854 279.623M861.854 279.623L835.143 264.756M861.854 279.623C861.842 281.003 861.727 282.408 861.506 283.821M861.506 283.821L833.276 268.109M861.506 283.821C861.295 285.168 860.989 286.523 860.584 287.874M860.584 287.874L831.336 271.595M860.584 287.874C860.204 289.143 859.738 290.408 859.183 291.66M859.183 291.66C858.783 292.562 858.338 293.456 857.846 294.34C857.629 294.73 857.405 295.113 857.176 295.489M859.183 291.66L829.396 275.081M857.176 295.489L827.294 278.858M857.176 295.489C856.467 296.651 855.699 297.748 854.881 298.778M854.881 298.778L826.079 282.748M854.881 298.778C854.091 299.773 853.254 300.705 852.378 301.57M852.378 301.57L825.027 286.347M852.378 301.57C851.396 302.542 850.365 303.43 849.296 304.23M849.296 304.23L826.942 291.789M849.296 304.23C848.167 305.076 846.996 305.824 845.797 306.468M845.797 306.468L830.099 297.731M845.797 306.468C844.615 307.104 843.404 307.64 842.18 308.07M842.18 308.07L828.563 300.491M842.18 308.07C840.685 308.595 839.168 308.963 837.652 309.164M837.652 309.164L822.962 300.988M837.652 309.164C836.216 309.356 834.781 309.398 833.367 309.282C833.127 309.263 832.886 309.238 832.647 309.21M832.647 309.21C830.35 308.933 828.118 308.234 826.039 307.076C815.616 301.275 812.958 286.168 820.101 273.333C827.245 260.498 841.485 254.795 851.908 260.597C853.543 261.506 854.986 262.645 856.231 263.968M832.647 309.21L823.356 304.039M854.617 263.245L856.231 263.968" stroke="#02160F" stroke-width="0.3"/>
<ellipse cx="837.522" cy="283.028" rx="19.9369" ry="26.597" transform="rotate(29.0992 837.522 283.028)" fill="#B3FF4A" stroke="#02160F" stroke-width="0.3"/>
<path d="M850.167 259.627L825.457 306.752" stroke="#02160F" stroke-width="0.3"/>
<path d="M854.296 293.887L819.776 273.913" stroke="#02160F" stroke-width="0.3"/>
<path d="M852.065 297.21L822.266 269.781" stroke="#02160F" stroke-width="0.3"/>
<path d="M843.165 305.003L830.507 261.812" stroke="#02160F" stroke-width="0.3"/>
<path d="M839.741 306.712L835.076 259.408" stroke="#02160F" stroke-width="0.3"/>
<path d="M835.527 307.792L839.677 257.975" stroke="#02160F" stroke-width="0.3"/>
<path d="M830.831 308.031L844.89 257.832" stroke="#02160F" stroke-width="0.3"/>
<path d="M815.744 289.361L859.379 278.262" stroke="#02160F" stroke-width="0.3"/>
<path d="M824.299 285.942L858.825 282.329" stroke="#02160F" stroke-width="0.3"/>
<path d="M818.413 299.598L857.388 267.832" stroke="#02160F" stroke-width="0.3"/>
<path d="M816.253 294.591L859.076 273.337" stroke="#02160F" stroke-width="0.3"/>
<path d="M821.217 303.441L854.762 263.326" stroke="#02160F" stroke-width="0.3"/>
<path d="M816.298 283.581L857.983 286.235" stroke="#02160F" stroke-width="0.3"/>
<path d="M817.885 277.996L856.252 290.028" stroke="#02160F" stroke-width="0.3"/>
<path d="M825.515 266.188L849.447 300.013" stroke="#02160F" stroke-width="0.3"/>
<ellipse cx="837.522" cy="283.029" rx="16.9464" ry="22.6075" transform="rotate(29.0992 837.522 283.029)" fill="#B3FF4A" stroke="#02160F" stroke-width="0.3"/>
<ellipse cx="837.23" cy="282.866" rx="13.6236" ry="18.6179" transform="rotate(29.0992 837.23 282.866)" fill="#B3FF4A" stroke="#02160F" stroke-width="0.3"/>
<ellipse cx="849.061" cy="266.051" rx="0.830705" ry="0.831156" transform="rotate(29.0992 849.061 266.051)" fill="white" stroke="#02160F" stroke-width="0.3"/>
<ellipse cx="851.898" cy="269.153" rx="0.830705" ry="0.831156" transform="rotate(29.0992 851.898 269.153)" fill="white" stroke="#02160F" stroke-width="0.3"/>
<ellipse cx="853.218" cy="272.931" rx="0.830705" ry="0.831156" transform="rotate(29.0992 853.218 272.931)" fill="white" stroke="#02160F" stroke-width="0.3"/>
<ellipse cx="853.795" cy="276.676" rx="0.830705" ry="0.831156" transform="rotate(29.0992 853.795 276.676)" fill="white" stroke="#02160F" stroke-width="0.3"/>
<ellipse cx="853.792" cy="280.099" rx="0.830705" ry="0.831156" transform="rotate(29.0992 853.792 280.099)" fill="white" stroke="#02160F" stroke-width="0.3"/>
<ellipse cx="853.337" cy="283.65" rx="0.830705" ry="0.831156" transform="rotate(29.0992 853.337 283.65)" fill="white" stroke="#02160F" stroke-width="0.3"/>
<ellipse cx="852.301" cy="286.877" rx="0.830705" ry="0.831156" transform="rotate(29.0992 852.301 286.877)" fill="white" stroke="#02160F" stroke-width="0.3"/>
<ellipse cx="850.974" cy="289.945" rx="0.830705" ry="0.831156" transform="rotate(29.0992 850.974 289.945)" fill="white" stroke="#02160F" stroke-width="0.3"/>
<ellipse cx="849.357" cy="292.85" rx="0.830705" ry="0.831156" transform="rotate(29.0992 849.357 292.85)" fill="white" stroke="#02160F" stroke-width="0.3"/>
<ellipse cx="847.16" cy="295.431" rx="0.830705" ry="0.831156" transform="rotate(29.0992 847.16 295.431)" fill="white" stroke="#02160F" stroke-width="0.3"/>
<ellipse cx="844.51" cy="298.142" rx="0.830705" ry="0.831156" transform="rotate(29.0992 844.51 298.142)" fill="white" stroke="#02160F" stroke-width="0.3"/>
<ellipse cx="840.828" cy="300.659" rx="0.830705" ry="0.831156" transform="rotate(29.0992 840.828 300.659)" fill="white" stroke="#02160F" stroke-width="0.3"/>
<ellipse cx="837.502" cy="301.851" rx="0.830705" ry="0.831156" transform="rotate(29.0992 837.502 301.851)" fill="white" stroke="#02160F" stroke-width="0.3"/>
<ellipse cx="833.757" cy="302.43" rx="0.830705" ry="0.831156" transform="rotate(29.0992 833.757 302.43)" fill="white" stroke="#02160F" stroke-width="0.3"/>
<ellipse cx="829.755" cy="302.105" rx="0.830705" ry="0.831156" transform="rotate(29.0992 829.755 302.105)" fill="white" stroke="#02160F" stroke-width="0.3"/>
<ellipse cx="826.561" cy="300.328" rx="0.830705" ry="0.831156" transform="rotate(29.0992 826.561 300.328)" fill="white" stroke="#02160F" stroke-width="0.3"/>
<ellipse cx="823.271" cy="297.356" rx="0.830705" ry="0.831156" transform="rotate(29.0992 823.271 297.356)" fill="white" stroke="#02160F" stroke-width="0.3"/>
<ellipse cx="821.629" cy="294.159" rx="0.830705" ry="0.831156" transform="rotate(29.0992 821.629 294.159)" fill="white" stroke="#02160F" stroke-width="0.3"/>
<ellipse cx="820.761" cy="290.251" rx="0.830705" ry="0.831156" transform="rotate(29.0992 820.761 290.251)" fill="white" stroke="#02160F" stroke-width="0.3"/>
<ellipse cx="820.636" cy="286.376" rx="0.830705" ry="0.831156" transform="rotate(29.0992 820.636 286.376)" fill="white" stroke="#02160F" stroke-width="0.3"/>
<ellipse cx="821.286" cy="281.791" rx="0.830705" ry="0.831156" transform="rotate(29.0992 821.286 281.791)" fill="white" stroke="#02160F" stroke-width="0.3"/>
<ellipse cx="822.646" cy="277.983" rx="0.830705" ry="0.831156" transform="rotate(29.0992 822.646 277.983)" fill="white" stroke="#02160F" stroke-width="0.3"/>
<ellipse cx="824.586" cy="274.496" rx="0.830705" ry="0.831156" transform="rotate(29.0992 824.586 274.496)" fill="white" stroke="#02160F" stroke-width="0.3"/>
<ellipse cx="826.816" cy="271.172" rx="0.830705" ry="0.831156" transform="rotate(29.0992 826.816 271.172)" fill="white" stroke="#02160F" stroke-width="0.3"/>
<ellipse cx="830.08" cy="268.042" rx="0.830705" ry="0.831156" transform="rotate(29.0992 830.08 268.042)" fill="white" stroke="#02160F" stroke-width="0.3"/>
<ellipse cx="834.214" cy="265.397" rx="0.830705" ry="0.831156" transform="rotate(29.0992 834.214 265.397)" fill="white" stroke="#02160F" stroke-width="0.3"/>
<ellipse cx="838.154" cy="263.786" rx="0.830705" ry="0.831156" transform="rotate(29.0992 838.154 263.786)" fill="white" stroke="#02160F" stroke-width="0.3"/>
<ellipse cx="841.898" cy="263.205" rx="0.830705" ry="0.831156" transform="rotate(29.0992 841.898 263.205)" fill="white" stroke="#02160F" stroke-width="0.3"/>
<ellipse cx="845.577" cy="264.112" rx="0.830705" ry="0.831156" transform="rotate(29.0992 845.577 264.112)" fill="white" stroke="#02160F" stroke-width="0.3"/>
<mask id="path-203-outside-4_2001_158608" maskUnits="userSpaceOnUse" x="829.553" y="270.397" width="14.4046" height="22.6784" fill="black">
<rect fill="white" x="829.553" y="270.397" width="14.4046" height="22.6784"/>
<path fill-rule="evenodd" clip-rule="evenodd" d="M842.193 276.739L842.571 279.51L841.365 280.445C841.347 280.652 841.322 280.86 841.289 281.068C841.158 281.906 840.941 282.699 840.635 283.446C840.329 284.194 839.965 284.839 839.541 285.383L838.443 283.902C838.858 283.364 839.176 282.738 839.395 282.024C839.625 281.313 839.692 280.609 839.596 279.911C839.504 279.233 839.296 278.736 838.972 278.42C838.649 278.103 838.242 277.976 837.752 278.037C837.272 278.102 836.733 278.367 836.136 278.83C835.538 279.293 835.034 279.847 834.624 280.494C834.214 281.14 833.917 281.819 833.733 282.528C833.551 283.249 833.506 283.947 833.598 284.625C833.669 285.148 833.813 285.575 834.031 285.906C834.257 286.241 834.541 286.43 834.882 286.473C835.224 286.525 835.608 286.387 836.034 286.057L836.058 286.038L835.641 282.974L837.238 281.737L837.98 287.187L837.01 287.939C836.265 288.516 835.593 288.867 834.994 288.99C834.403 289.107 833.888 289.046 833.448 288.808C833.018 288.574 832.669 288.204 832.4 287.697C832.363 287.623 832.327 287.548 832.293 287.471L831.023 288.454L830.646 285.683L831.804 284.786C831.807 284.33 831.847 283.863 831.922 283.387C832.063 282.495 832.31 281.617 832.663 280.753C833.016 279.89 833.459 279.087 833.992 278.346C834.524 277.604 835.131 276.97 835.81 276.443C836.49 275.917 837.136 275.575 837.749 275.419C838.369 275.256 838.924 275.274 839.413 275.474C839.91 275.668 840.321 276.025 840.645 276.545C840.834 276.842 840.988 277.187 841.106 277.581L842.193 276.739Z"/>
</mask>
<path fill-rule="evenodd" clip-rule="evenodd" d="M842.193 276.739L842.571 279.51L841.365 280.445C841.347 280.652 841.322 280.86 841.289 281.068C841.158 281.906 840.941 282.699 840.635 283.446C840.329 284.194 839.965 284.839 839.541 285.383L838.443 283.902C838.858 283.364 839.176 282.738 839.395 282.024C839.625 281.313 839.692 280.609 839.596 279.911C839.504 279.233 839.296 278.736 838.972 278.42C838.649 278.103 838.242 277.976 837.752 278.037C837.272 278.102 836.733 278.367 836.136 278.83C835.538 279.293 835.034 279.847 834.624 280.494C834.214 281.14 833.917 281.819 833.733 282.528C833.551 283.249 833.506 283.947 833.598 284.625C833.669 285.148 833.813 285.575 834.031 285.906C834.257 286.241 834.541 286.43 834.882 286.473C835.224 286.525 835.608 286.387 836.034 286.057L836.058 286.038L835.641 282.974L837.238 281.737L837.98 287.187L837.01 287.939C836.265 288.516 835.593 288.867 834.994 288.99C834.403 289.107 833.888 289.046 833.448 288.808C833.018 288.574 832.669 288.204 832.4 287.697C832.363 287.623 832.327 287.548 832.293 287.471L831.023 288.454L830.646 285.683L831.804 284.786C831.807 284.33 831.847 283.863 831.922 283.387C832.063 282.495 832.31 281.617 832.663 280.753C833.016 279.89 833.459 279.087 833.992 278.346C834.524 277.604 835.131 276.97 835.81 276.443C836.49 275.917 837.136 275.575 837.749 275.419C838.369 275.256 838.924 275.274 839.413 275.474C839.91 275.668 840.321 276.025 840.645 276.545C840.834 276.842 840.988 277.187 841.106 277.581L842.193 276.739Z" fill="white"/>
<path d="M842.571 279.51L842.611 279.808L842.848 279.624L842.808 279.327L842.571 279.51ZM842.193 276.739L842.43 276.556L842.39 276.258L842.153 276.442L842.193 276.739ZM841.365 280.445L841.324 280.147L841.147 280.285L841.126 280.536L841.365 280.445ZM841.289 281.068L841.054 281.122L841.054 281.123L841.289 281.068ZM840.635 283.446L840.831 283.527L840.831 283.527L840.635 283.446ZM839.541 285.383L839.345 285.678L839.469 285.845L839.657 285.604L839.541 285.383ZM838.443 283.902L838.326 283.682L838.091 283.986L838.247 284.196L838.443 283.902ZM839.395 282.024L839.182 281.989L839.18 281.997L839.395 282.024ZM838.972 278.42L838.792 278.732L838.972 278.42ZM837.752 278.037L837.824 277.689L837.822 277.689L837.752 278.037ZM834.624 280.494L834.77 280.671L834.624 280.494ZM833.733 282.528L833.51 282.528L833.51 282.531L833.733 282.528ZM834.031 285.906L833.829 286.193L833.83 286.195L834.031 285.906ZM834.882 286.473L834.993 286.125L834.989 286.124L834.882 286.473ZM836.058 286.038L836.099 286.335L836.336 286.151L836.296 285.854L836.058 286.038ZM835.641 282.974L835.6 282.677L835.363 282.861L835.404 283.158L835.641 282.974ZM837.238 281.737L837.475 281.554L837.435 281.256L837.197 281.44L837.238 281.737ZM837.98 287.187L838.021 287.485L838.258 287.301L838.218 287.004L837.98 287.187ZM837.01 287.939L836.969 287.642L837.01 287.939ZM834.994 288.99L834.934 289.336L834.935 289.336L834.994 288.99ZM833.448 288.808L833.297 289.143L833.297 289.143L833.448 288.808ZM832.4 287.697L832.189 287.966L832.19 287.968L832.4 287.697ZM832.293 287.471L832.509 287.213L832.431 287.036L832.252 287.174L832.293 287.471ZM831.023 288.454L830.786 288.638L830.827 288.935L831.064 288.752L831.023 288.454ZM830.646 285.683L830.605 285.386L830.368 285.57L830.409 285.867L830.646 285.683ZM831.804 284.786L831.845 285.083L832.043 284.93L832.045 284.658L831.804 284.786ZM831.922 283.387L831.687 283.441L831.687 283.441L831.922 283.387ZM833.992 278.346L834.12 278.55L833.992 278.346ZM837.749 275.419L837.698 275.763L837.699 275.763L837.749 275.419ZM839.413 275.474L839.274 275.814L839.276 275.815L839.413 275.474ZM840.645 276.545L840.441 276.828L840.442 276.83L840.645 276.545ZM841.106 277.581L840.879 277.811L840.945 278.034L841.146 277.879L841.106 277.581ZM842.808 279.327L842.43 276.556L841.956 276.923L842.333 279.694L842.808 279.327ZM841.405 280.742L842.611 279.808L842.53 279.213L841.324 280.147L841.405 280.742ZM841.126 280.536C841.109 280.732 841.085 280.927 841.054 281.122L841.523 281.014C841.558 280.793 841.585 280.573 841.604 280.353L841.126 280.536ZM841.054 281.123C840.93 281.921 840.724 282.668 840.439 283.366L840.831 283.527C841.157 282.73 841.387 281.891 841.523 281.012L841.054 281.123ZM840.439 283.366C840.152 284.067 839.814 284.663 839.425 285.162L839.657 285.604C840.115 285.015 840.507 284.321 840.831 283.527L840.439 283.366ZM839.737 285.089L838.639 283.607L838.247 284.196L839.345 285.678L839.737 285.089ZM838.56 284.121C839.019 283.527 839.371 282.833 839.611 282.05L839.18 281.997C838.981 282.644 838.697 283.202 838.326 283.682L838.56 284.121ZM839.608 282.059C839.866 281.26 839.936 280.48 839.834 279.727L839.359 280.094C839.447 280.737 839.383 281.365 839.183 281.989L839.608 282.059ZM839.834 279.727C839.735 279.001 839.51 278.456 839.153 278.107L838.792 278.732C839.083 279.017 839.274 279.465 839.359 280.094L839.834 279.727ZM839.153 278.107C838.798 277.76 838.353 277.622 837.824 277.689L837.681 278.385C838.13 278.329 838.499 278.446 838.792 278.732L839.153 278.107ZM837.822 277.689C837.3 277.76 836.722 278.047 836.095 278.532L836.176 279.127C836.745 278.687 837.245 278.445 837.682 278.385L837.822 277.689ZM836.095 278.532C835.465 279.02 834.923 279.613 834.478 280.317L834.77 280.671C835.144 280.082 835.61 279.565 836.176 279.127L836.095 278.532ZM834.478 280.317C834.036 281.014 833.711 281.752 833.51 282.528L833.956 282.529C834.123 281.885 834.393 281.267 834.77 280.671L834.478 280.317ZM833.51 282.531C833.309 283.322 833.262 284.082 833.361 284.808L833.835 284.441C833.749 283.812 833.792 283.175 833.957 282.526L833.51 282.531ZM833.361 284.808C833.437 285.37 833.593 285.833 833.829 286.193L834.232 285.62C834.034 285.318 833.901 284.927 833.835 284.441L833.361 284.808ZM833.83 286.195C834.079 286.562 834.393 286.774 834.775 286.821L834.989 286.124C834.689 286.087 834.436 285.921 834.231 285.618L833.83 286.195ZM834.771 286.821C835.165 286.881 835.603 286.719 836.074 286.354L835.993 285.76C835.613 286.055 835.283 286.169 834.993 286.125L834.771 286.821ZM836.074 286.354L836.099 286.335L836.018 285.741L835.993 285.76L836.074 286.354ZM836.296 285.854L835.878 282.791L835.404 283.158L835.821 286.222L836.296 285.854ZM835.681 283.271L837.278 282.035L837.197 281.44L835.6 282.677L835.681 283.271ZM837.001 281.921L837.743 287.371L838.218 287.004L837.475 281.554L837.001 281.921ZM837.94 286.89L836.969 287.642L837.05 288.236L838.021 287.485L837.94 286.89ZM836.969 287.642C836.25 288.199 835.613 288.528 835.053 288.644L834.935 289.336C835.573 289.205 836.28 288.833 837.05 288.236L836.969 287.642ZM835.054 288.644C834.494 288.755 834.01 288.696 833.599 288.474L833.297 289.143C833.766 289.397 834.313 289.459 834.934 289.336L835.054 288.644ZM833.599 288.474C833.193 288.253 832.864 287.904 832.611 287.425L832.19 287.968C832.473 288.504 832.842 288.896 833.297 289.143L833.599 288.474ZM832.612 287.427C832.576 287.357 832.542 287.286 832.509 287.213L832.076 287.73C832.112 287.811 832.149 287.889 832.189 287.966L832.612 287.427ZM831.064 288.752L832.333 287.769L832.252 287.174L830.983 288.157L831.064 288.752ZM830.409 285.867L830.786 288.638L831.26 288.271L830.883 285.5L830.409 285.867ZM831.764 284.489L830.605 285.386L830.686 285.981L831.845 285.083L831.764 284.489ZM832.045 284.658C832.048 284.225 832.085 283.784 832.156 283.333L831.687 283.441C831.608 283.943 831.567 284.434 831.563 284.914L832.045 284.658ZM832.156 283.333C832.29 282.484 832.525 281.652 832.859 280.834L832.467 280.673C832.095 281.581 831.835 282.505 831.687 283.441L832.156 283.333ZM832.859 280.834C833.194 280.016 833.613 279.255 834.12 278.55L833.864 278.141C833.305 278.919 832.839 279.763 832.467 280.673L832.859 280.834ZM834.12 278.55C834.623 277.849 835.199 277.245 835.851 276.741L835.77 276.146C835.062 276.694 834.425 277.359 833.864 278.141L834.12 278.55ZM835.851 276.741C836.504 276.235 837.119 275.911 837.698 275.763L837.799 275.075C837.154 275.24 836.477 275.599 835.77 276.146L835.851 276.741ZM837.699 275.763C838.29 275.608 838.813 275.626 839.274 275.814L839.552 275.134C839.035 274.923 838.449 274.904 837.798 275.075L837.699 275.763ZM839.276 275.815C839.746 275.998 840.134 276.335 840.441 276.828L840.849 276.262C840.508 275.714 840.074 275.338 839.55 275.133L839.276 275.815ZM840.442 276.83C840.621 277.11 840.766 277.437 840.879 277.811L841.333 277.351C841.209 276.937 841.047 276.573 840.848 276.261L840.442 276.83ZM842.153 276.442L841.065 277.284L841.146 277.879L842.234 277.037L842.153 276.442Z" fill="#02160F" mask="url(#path-203-outside-4_2001_158608)"/>
</svg>
