<svg width="138" height="138" viewBox="0 0 138 138" fill="none" xmlns="http://www.w3.org/2000/svg">
<path d="M64.0012 59C61.9119 57.4302 59.3146 56.5 56.5 56.5C49.5964 56.5 44 62.0964 44 69C44 73.089 45.9634 76.7194 48.9988 79M74 79C76.0892 80.5694 78.6858 81.5 81.5 81.5C88.4036 81.5 94 75.9036 94 69C94 64.911 92.0366 61.2806 89.0012 59" stroke="#02160F" stroke-width="3" stroke-linecap="round"/>
<path d="M56.5 81.5C63.4036 81.5 65.25 76.5 69 69C72.75 61.5 74.5964 56.5 81.5 56.5" stroke="#02160F" stroke-width="3" stroke-linecap="round"/>
<circle cx="68.5" cy="69.5" r="42.5" fill="#B3FF4A"/>
<circle cx="69" cy="69" r="69" fill="#B3FF4A" fill-opacity="0.2"/>
<path d="M50.2625 66.7448C50.2625 60.0699 50.2625 56.7324 51.0506 55.6096C51.8386 54.4868 54.9768 53.4126 61.253 51.2642L62.4487 50.8549C65.7204 49.735 67.3562 49.175 69.05 49.175C70.7438 49.175 72.3796 49.735 75.6513 50.8549L76.847 51.2642C83.1232 53.4126 86.2614 54.4868 87.0494 55.6096C87.8375 56.7324 87.8375 60.0699 87.8375 66.7448C87.8375 67.7531 87.8375 68.8464 87.8375 70.032C87.8375 75.2611 86.0908 79.2944 83.6625 82.375M50.6651 74.225C52.4549 83.1979 59.8158 87.8207 64.6632 89.9382C66.1693 90.5961 66.9223 90.9251 69.05 90.9251C71.1777 90.9251 71.9307 90.5961 73.4368 89.9382C74.6436 89.411 76.0063 88.7286 77.4 87.8623" stroke="#02160F" stroke-width="3" stroke-linecap="round"/>
<path d="M71.75 60L62 69.5H75L65.25 79" stroke="#02160F" stroke-width="3" stroke-linecap="round" stroke-linejoin="round"/>
</svg>
