<svg width="138" height="138" viewBox="0 0 138 138" fill="none" xmlns="http://www.w3.org/2000/svg">
<path d="M64.0012 59C61.9119 57.4302 59.3146 56.5 56.5 56.5C49.5964 56.5 44 62.0964 44 69C44 73.089 45.9634 76.7194 48.9988 79M74 79C76.0892 80.5694 78.6858 81.5 81.5 81.5C88.4036 81.5 94 75.9036 94 69C94 64.911 92.0366 61.2806 89.0012 59" stroke="#02160F" stroke-width="3" stroke-linecap="round"/>
<path d="M56.5 81.5C63.4036 81.5 65.25 76.5 69 69C72.75 61.5 74.5964 56.5 81.5 56.5" stroke="#02160F" stroke-width="3" stroke-linecap="round"/>
<circle cx="68.5" cy="69.5" r="42.5" fill="#B3FF4A"/>
<circle cx="69" cy="69" r="69" fill="#B3FF4A" fill-opacity="0.2"/>
<mask id="path-5-inside-1_217_83523" fill="white">
<path d="M90.5918 62.9985C89.0096 58.3527 86.0974 54.3316 82.2527 51.4843C78.408 48.637 73.8181 47.1021 69.1097 47.0892C64.4013 47.0763 59.8039 48.5861 55.945 51.4123C52.0861 54.2386 49.1539 58.2437 47.5486 62.8808L50.3757 63.9549C51.7699 59.9275 54.3166 56.449 57.6681 53.9944C61.0196 51.5397 65.0125 50.2284 69.1019 50.2396C73.1912 50.2508 77.1775 51.5839 80.5168 54.0569C83.856 56.5298 86.3853 60.0222 87.7594 64.0571L90.5918 62.9985Z"/>
</mask>
<path d="M90.5918 62.9985C89.0096 58.3527 86.0974 54.3316 82.2527 51.4843C78.408 48.637 73.8181 47.1021 69.1097 47.0892C64.4013 47.0763 59.8039 48.5861 55.945 51.4123C52.0861 54.2386 49.1539 58.2437 47.5486 62.8808L50.3757 63.9549C51.7699 59.9275 54.3166 56.449 57.6681 53.9944C61.0196 51.5397 65.0125 50.2284 69.1019 50.2396C73.1912 50.2508 77.1775 51.5839 80.5168 54.0569C83.856 56.5298 86.3853 60.0222 87.7594 64.0571L90.5918 62.9985Z" stroke="#02160F" stroke-width="6" mask="url(#path-5-inside-1_217_83523)"/>
<mask id="path-6-inside-2_217_83523" fill="white">
<path d="M81.7146 89.1054C84.4792 86.9257 86.7356 84.1172 88.3141 80.8915C89.8925 77.6658 90.7518 74.1069 90.8272 70.4829L88.0377 70.4192C87.9715 73.6011 87.2171 76.7258 85.8312 79.558C84.4453 82.3902 82.4641 84.8561 80.0368 86.77L81.7146 89.1054Z"/>
</mask>
<path d="M81.7146 89.1054C84.4792 86.9257 86.7356 84.1172 88.3141 80.8915C89.8925 77.6658 90.7518 74.1069 90.8272 70.4829L88.0377 70.4192C87.9715 73.6011 87.2171 76.7258 85.8312 79.558C84.4453 82.3902 82.4641 84.8561 80.0368 86.77L81.7146 89.1054Z" stroke="#02160F" stroke-width="6" mask="url(#path-6-inside-2_217_83523)"/>
<mask id="path-7-inside-3_217_83523" fill="white">
<rect x="44" y="62.3369" width="8.71304" height="10.8913" rx="2"/>
</mask>
<rect x="44" y="62.3369" width="8.71304" height="10.8913" rx="2" stroke="#02160F" stroke-width="6" mask="url(#path-7-inside-3_217_83523)"/>
<mask id="path-8-inside-4_217_83523" fill="white">
<rect x="85.387" y="62.3369" width="8.71304" height="10.8913" rx="2"/>
</mask>
<rect x="85.387" y="62.3369" width="8.71304" height="10.8913" rx="2" stroke="#02160F" stroke-width="6" mask="url(#path-8-inside-4_217_83523)"/>
<circle cx="77.763" cy="89.5653" r="4.35652" fill="#02160F"/>
<circle cx="69.05" cy="68.8718" r="13.7478" stroke="#02160F" stroke-width="3"/>
<circle cx="62.7652" cy="69.0327" r="1.25" fill="#02160F"/>
<circle cx="69.0152" cy="69.0327" r="1.25" fill="#02160F"/>
<circle cx="75.2651" cy="69.0327" r="1.25" fill="#02160F"/>
</svg>
