<svg width="10" height="11" viewBox="0 0 10 11" fill="none" xmlns="http://www.w3.org/2000/svg">
<g clip-path="url(#clip0_217_83760)">
<path d="M9.16016 4.66402C9.14473 4.11774 9.09277 3.76946 8.91775 3.47225C8.66884 3.04954 8.22058 2.8143 7.32405 2.34382L6.49072 1.90651C5.75921 1.52263 5.39345 1.33069 5 1.33069C4.60656 1.33069 4.2408 1.52263 3.50929 1.90651L2.67596 2.34382C1.77943 2.8143 1.33117 3.04954 1.08225 3.47225C0.833336 3.89496 0.833336 4.42097 0.833336 5.47299V5.52173C0.833336 6.57374 0.833336 7.09975 1.08225 7.52246C1.33117 7.94518 1.77943 8.18041 2.67596 8.65089L3.50929 9.0882C4.2408 9.47208 4.60656 9.66402 5 9.66402C5.39345 9.66402 5.75921 9.47208 6.49072 9.0882L7.32405 8.65089C8.22058 8.18041 8.66884 7.94518 8.91775 7.52246C9.09277 7.22525 9.14473 6.87697 9.16016 6.33069" stroke="white" stroke-opacity="0.7" stroke-linecap="round"/>
<path d="M8.75 3.62231L5 5.49731M5 5.49731L1.25 3.62231M5 5.49731V9.45565" stroke="white" stroke-opacity="0.7" stroke-linecap="round"/>
</g>
<defs>
<clipPath id="clip0_217_83760">
<rect width="10" height="10" fill="white" transform="translate(0 0.497314)"/>
</clipPath>
</defs>
</svg>
