<svg width="138" height="138" viewBox="0 0 138 138" fill="none" xmlns="http://www.w3.org/2000/svg">
<path d="M64.0012 59C61.9119 57.4302 59.3146 56.5 56.5 56.5C49.5964 56.5 44 62.0964 44 69C44 73.089 45.9634 76.7194 48.9988 79M74 79C76.0892 80.5694 78.6858 81.5 81.5 81.5C88.4036 81.5 94 75.9036 94 69C94 64.911 92.0366 61.2806 89.0012 59" stroke="#02160F" stroke-width="3" stroke-linecap="round"/>
<path d="M56.5 81.5C63.4036 81.5 65.25 76.5 69 69C72.75 61.5 74.5964 56.5 81.5 56.5" stroke="#02160F" stroke-width="3" stroke-linecap="round"/>
<circle cx="68.5" cy="69.5" r="42.5" fill="#B3FF4A"/>
<circle cx="69" cy="69" r="69" fill="#B3FF4A" fill-opacity="0.2"/>
<path fill-rule="evenodd" clip-rule="evenodd" d="M73.1072 46.6094L73.225 46.6094C75.7851 46.6094 78.2297 47.6343 80.0338 49.4384L88.6616 58.0662C90.4657 59.8703 91.4906 62.3149 91.4906 64.875V64.9928C91.4907 68.8291 91.4907 71.8677 91.171 74.2458C90.8419 76.6933 90.1486 78.6742 88.5864 80.2364C87.0664 81.7564 85.15 82.4539 82.7934 82.7935C82.4538 85.1502 81.7563 87.0665 80.2364 88.5864C78.6742 90.1486 76.6933 90.8419 74.2458 91.171C71.8677 91.4907 68.8291 91.4907 64.9928 91.4906H64.7572C60.9209 91.4907 57.8823 91.4907 55.5042 91.171C53.0567 90.8419 51.0758 90.1486 49.5136 88.5864C47.9514 87.0242 47.2581 85.0433 46.929 82.5958C46.6093 80.2177 46.6093 77.1791 46.6094 73.3428V73.1072C46.6093 69.2709 46.6093 66.2323 46.929 63.8542C47.2581 61.4067 47.9514 59.4258 49.5136 57.8636C51.0335 56.3437 52.9498 55.6462 55.3065 55.3066C55.6461 52.95 56.3436 51.0336 57.8636 49.5136C59.4258 47.9514 61.4067 47.2581 63.8542 46.929C66.2323 46.6093 69.2709 46.6093 73.1072 46.6094ZM58.5265 55.0348C60.3204 54.9593 62.3865 54.9594 64.7572 54.9594L64.875 54.9594C67.4351 54.9594 69.8797 55.9843 71.6838 57.7884L80.3116 66.4162C82.1157 68.2203 83.1406 70.6649 83.1406 73.225V73.3428C83.1406 75.7135 83.1407 77.7796 83.0652 79.5735C84.6348 79.2683 85.6215 78.773 86.3723 78.0223C87.2557 77.1388 87.7853 75.9288 88.0676 73.8286C88.356 71.6834 88.3594 68.8555 88.3594 64.875C88.3594 63.154 87.6705 61.5034 86.4475 60.2803L77.8197 51.6525C76.5967 50.4295 74.946 49.7406 73.225 49.7406C69.2445 49.7406 66.4166 49.744 64.2714 50.0324C62.1712 50.3147 60.9612 50.8443 60.0777 51.7277C59.327 52.4785 58.8317 53.4652 58.5265 55.0348ZM55.9214 58.3824C53.8212 58.6647 52.6112 59.1943 51.7277 60.0777C50.8443 60.9612 50.3147 62.1712 50.0324 64.2714C49.744 66.4166 49.7406 69.2445 49.7406 73.225C49.7406 77.2055 49.744 80.0334 50.0324 82.1786C50.3147 84.2788 50.8443 85.4888 51.7277 86.3723C52.6112 87.2557 53.8212 87.7853 55.9214 88.0676C58.0666 88.356 60.8945 88.3594 64.875 88.3594C68.8555 88.3594 71.6834 88.356 73.8286 88.0676C75.9288 87.7853 77.1388 87.2557 78.0223 86.3723C78.9057 85.4888 79.4353 84.2788 79.7176 82.1786C80.0061 80.0334 80.0094 77.2055 80.0094 73.225C80.0094 71.504 79.3205 69.8534 78.0975 68.6303L69.4697 60.0025C68.2467 58.7795 66.596 58.0906 64.875 58.0906C60.8945 58.0906 58.0666 58.094 55.9214 58.3824ZM62.6941 71.6594H67.0559C67.9594 71.6593 68.7878 71.6592 69.4617 71.7498C70.2037 71.8495 70.9881 72.0843 71.6332 72.7294C72.2782 73.3744 72.513 74.1588 72.6127 74.9008C72.7033 75.5747 72.7032 76.4031 72.7031 77.3066V79.5809C72.7032 80.4844 72.7033 81.3128 72.6127 81.9867C72.513 82.7287 72.2782 83.5131 71.6331 84.1581C70.9881 84.8032 70.2037 85.038 69.4617 85.1377C68.7878 85.2283 67.9594 85.2282 67.0559 85.2281H62.6941C61.7906 85.2282 60.9622 85.2283 60.2883 85.1377C59.5463 85.038 58.7619 84.8032 58.1169 84.1581C57.4718 83.5131 57.237 82.7287 57.1373 81.9867C57.0467 81.3128 57.0468 80.4844 57.0469 79.5809V77.3066C57.0468 76.4031 57.0467 75.5747 57.1373 74.9008C57.237 74.1588 57.4718 73.3744 58.1169 72.7294C58.7619 72.0843 59.5463 71.8495 60.2883 71.7498C60.9622 71.6592 61.7906 71.6593 62.6941 71.6594ZM60.3311 74.9434C60.3301 74.9443 60.3305 74.9441 60.3311 74.9434V74.9434ZM60.3311 74.9434C60.3318 74.9428 60.3319 74.9425 60.3311 74.9434V74.9434ZM60.3361 74.9406L60.3311 74.9434L60.3281 74.9486C60.326 74.9526 60.3227 74.9595 60.3183 74.9701C60.2996 75.0155 60.2677 75.1165 60.2406 75.3181C60.1814 75.7579 60.1781 76.3717 60.1781 77.4V79.4875C60.1781 80.5158 60.1814 81.1296 60.2406 81.5694C60.2677 81.771 60.2996 81.872 60.3183 81.9174C60.3227 81.928 60.326 81.9349 60.3281 81.9389L60.331 81.944L60.3361 81.9469C60.3401 81.949 60.347 81.9524 60.3576 81.9567C60.403 81.9754 60.504 82.0073 60.7056 82.0344C61.1454 82.0935 61.7592 82.0969 62.7875 82.0969H63.3094V74.7906H62.7875C61.7592 74.7906 61.1454 74.7939 60.7056 74.8531C60.504 74.8802 60.403 74.9121 60.3576 74.9308C60.347 74.9352 60.3401 74.9385 60.3361 74.9406ZM66.4406 74.7906V76.8781H69.5712C69.5688 76.154 69.5578 75.6779 69.5094 75.3181C69.4823 75.1165 69.4504 75.0155 69.4317 74.9701C69.4273 74.9595 69.424 74.9526 69.4219 74.9486L69.419 74.9435L69.4139 74.9406C69.4099 74.9385 69.403 74.9352 69.3924 74.9308C69.347 74.9121 69.246 74.8802 69.0444 74.8531C68.6046 74.7939 67.9908 74.7906 66.9625 74.7906H66.4406ZM69.5712 80.0094H66.4406V82.0969H66.9625C67.9908 82.0969 68.6046 82.0935 69.0444 82.0344C69.246 82.0073 69.347 81.9754 69.3924 81.9567C69.403 81.9524 69.4099 81.949 69.4139 81.9469L69.419 81.944L69.4219 81.9389C69.424 81.9349 69.4273 81.928 69.4317 81.9174C69.4504 81.872 69.4823 81.771 69.5094 81.5694C69.5578 81.2096 69.5688 80.7335 69.5712 80.0094Z" fill="#02160F"/>
</svg>
