<svg width="1110" height="405" viewBox="0 0 1110 405" fill="none" xmlns="http://www.w3.org/2000/svg">
<path d="M147.889 323.674C130.338 327.043 114.371 326.134 99.988 320.948C85.5665 315.559 73.5668 306.987 63.9889 295.231C54.4111 283.475 48.0926 269.629 45.0335 253.693C41.8583 237.153 42.6629 221.73 47.4472 207.426C52.4334 193.083 60.464 180.98 71.5391 171.115C82.6142 161.251 96.0196 154.808 111.755 151.787C124.868 149.27 136.875 149.161 147.775 151.461C158.637 153.559 168.213 157.681 176.505 163.828C184.999 169.936 192.01 177.584 197.539 186.771C203.029 195.756 206.877 205.998 209.084 217.495C209.704 220.723 210.122 223.989 210.338 227.294C210.717 230.358 210.338 234.887 210.338 234.887L197.539 241.473L182.202 250.253L148.451 247.331L86.5678 259.21L80.1785 225.927L178.224 207.106L159.759 226.964C160.111 217.903 158.539 210.257 155.042 204.027C151.506 197.594 146.546 193.004 140.162 190.256C133.94 187.267 126.795 186.547 118.725 188.096C110.858 189.607 104.467 192.82 99.5541 197.737C94.6412 202.654 91.4889 209.115 90.0973 217.121C88.7056 225.127 89.3386 234.417 91.9961 244.992C92.9704 254.426 95.6482 262.382 100.03 268.861C104.411 275.341 110.116 279.997 117.144 282.831C124.134 285.463 132.067 285.927 140.944 284.223L144.335 274.949C149.566 270.599 171.653 259.504 171.653 259.504L211.277 269.78C209.598 278.468 205.809 286.516 199.91 293.923C194.213 301.291 186.952 307.6 178.129 312.849C169.266 317.897 159.187 321.505 147.889 323.674Z" fill="#B3FF4A" fill-opacity="0.2"/>
<path d="M393.987 381.748C371.284 382.959 349.661 380.038 329.12 372.986C308.885 365.592 291.064 354.647 275.655 340.152C260.57 325.639 248.905 308.174 240.661 287.757L300.964 256.678C311.102 276.017 324.421 290.949 340.919 301.476C357.742 311.985 375.883 316.721 395.343 315.683C405.721 315.13 414.554 313.029 421.84 309.382C429.126 305.735 434.73 301.036 438.652 295.287C442.556 289.213 444.3 282.276 443.885 274.477C443.434 266.028 440.458 259.017 434.957 253.444C429.439 247.547 421.071 243.104 409.853 240.118L337.578 220.507C308.21 212.622 285.77 200.457 270.257 184.012C254.726 167.242 246.311 146.671 245.012 122.299C243.868 100.851 248.052 81.7263 257.564 64.9246C267.401 48.1057 281.482 34.6452 299.808 24.5431C318.458 14.4238 340.108 8.70699 364.756 7.39273C386.486 6.2341 406.794 8.89904 425.679 15.3876C444.564 21.8761 461.02 31.5901 475.045 44.5297C489.394 57.4519 500.485 73.318 508.319 92.1278L448.502 123.181C440.79 106.646 429.872 94.0293 415.748 85.3316C401.606 76.3089 385.779 72.2645 368.265 73.1983C358.211 73.7344 349.379 75.8348 341.768 79.4995C334.158 83.1642 328.409 88.1961 324.522 94.5953C320.617 100.669 318.873 107.606 319.289 115.405C319.739 123.854 322.895 131.182 328.755 137.387C334.598 143.267 343.128 147.701 354.346 150.688L425.109 169.401C454.801 177.268 477.233 189.271 492.404 205.408C507.9 221.528 516.298 241.775 517.597 266.147C518.724 287.27 514.215 306.412 504.071 323.573C493.911 340.409 479.352 354.058 460.395 364.52C441.744 374.639 419.608 380.382 393.987 381.748Z" fill="#25451B"/>
<path d="M566.546 341.254L576.175 256.127L580.99 213.563L557.583 187.141L582.828 170.128L632.702 176.303L613.444 346.559L585.572 361.66L566.546 341.254ZM587.532 155.719L565.815 124.578L589.962 108.663L639.721 114.251L634.43 161.024L606.426 176.303L587.532 155.719Z" fill="#B3FF4A" fill-opacity="0.2"/>
<path d="M688.198 345.746V264.659L660.209 198.667L686.551 183.572H729.669V223.076L725.225 216.541C727.595 204.066 733.322 194.858 742.406 188.918C751.49 182.978 762.352 180.007 774.991 180.007C788.419 180.007 800.169 183.473 810.241 190.403C820.51 197.136 826.928 206.244 829.495 217.729L816.758 218.917C822.09 205.65 829.693 195.849 839.567 189.512C849.441 183.176 860.993 180.007 874.225 180.007C885.876 180.007 896.145 182.582 905.031 187.73C914.116 192.878 921.225 200.106 926.359 209.413C931.494 218.521 934.061 229.214 934.061 241.491L934.61 344.648L906.072 361.112L889.628 345.746V250.996C889.628 244.659 888.443 239.214 886.073 234.659C883.901 230.105 880.741 226.541 876.594 223.967C872.447 221.392 867.411 220.105 861.487 220.105C855.76 220.105 850.724 221.392 846.38 223.967C842.233 226.541 838.974 230.105 836.604 234.659C834.432 239.214 833.346 244.659 833.346 250.996V345.746L805.093 361.112L788.913 345.746V250.996C788.913 244.659 787.728 239.214 785.358 234.659C783.186 230.105 780.026 226.541 775.879 223.967C771.732 221.392 766.696 220.105 760.772 220.105C755.045 220.105 750.009 221.392 745.665 223.967C741.518 226.541 738.259 230.105 735.889 234.659C733.717 239.214 732.631 244.659 732.631 250.996V345.746L704.662 361.112L688.198 345.746Z" fill="#B3FF4A" fill-opacity="0.2"/>
<path d="M1041.96 335.548C1022.72 338.561 1005.24 336.688 989.506 329.929C973.956 322.922 960.816 309.183 953.269 294.554L983.453 273.377C989.419 282.105 1000.72 290.401 1009.26 294.554C1017.79 298.707 1026.76 300.047 1036.16 298.574C1043 297.503 1048.02 295.289 1051.22 291.934C1054.42 288.578 1055.63 284.436 1054.86 279.506C1054.45 276.934 1053.48 274.891 1051.93 273.377C1050.34 271.649 1048.15 270.235 1045.35 269.137C1042.55 268.038 1039.14 267.254 1035.13 266.785L1004 263.096C989.043 261.267 977.012 256.454 967.907 248.657C958.769 240.646 953.226 230.424 951.279 217.992C949.567 207.061 950.851 197.088 955.132 188.072C959.413 179.057 966.224 171.512 975.565 165.437C984.871 159.148 996.044 154.983 1009.08 152.94C1026.18 150.262 1041.78 151.991 1055.88 158.127C1066.87 162.911 1084.51 177.263 1087.18 184.946L1054.86 206.898C1051.15 200.013 1046.46 197.923 1038.95 194.708C1031.61 191.244 1023.67 190.182 1015.12 191.521C1008.93 192.492 1004.21 194.548 1000.98 197.69C997.965 200.797 996.809 204.602 997.514 209.103C997.883 211.461 998.86 213.504 1000.44 215.232C1002.03 216.96 1004.33 218.357 1007.34 219.422C1010.57 220.454 1014.42 221.278 1018.9 221.894L1048.1 225.884C1063.3 227.894 1075.44 232.691 1084.51 240.273C1093.55 247.642 1099.06 257.649 1101.04 270.295C1102.75 281.226 1101.36 291.216 1096.87 300.265C1092.59 309.281 1085.79 316.933 1076.48 323.222C1067.14 329.296 1055.63 333.405 1041.96 335.548Z" fill="#B3FF4A" fill-opacity="0.2"/>
<path d="M134.718 330.26C117.167 333.629 101.2 332.72 86.8167 327.534C72.3952 322.145 60.3955 313.573 50.8177 301.817C41.2398 290.061 34.9214 276.215 31.8623 260.279C28.687 243.739 29.4916 228.316 34.276 214.012C39.2621 199.669 47.2927 187.566 58.3678 177.701C69.443 167.837 82.8484 161.394 98.5841 158.373C111.697 155.856 123.704 155.747 134.604 158.047C145.465 160.145 155.042 164.267 163.334 170.414C171.828 176.522 178.839 184.17 184.367 193.357C189.857 202.342 193.706 212.583 195.913 224.081C196.533 227.309 196.951 230.575 197.167 233.88C197.546 236.944 197.545 239.663 197.164 242.037L182.202 250.48L135.28 253.917L73.3965 265.796L67.0073 232.513L165.053 213.692L146.588 233.55C146.94 224.489 145.368 216.843 141.871 210.612C138.335 204.18 133.375 199.59 126.991 196.842C120.769 193.853 113.624 193.133 105.554 194.682C97.6863 196.192 91.2959 199.406 86.3829 204.323C81.4699 209.24 78.3176 215.701 76.926 223.707C75.5344 231.713 76.1673 241.003 78.8248 251.578C79.7991 261.012 82.4769 268.968 86.8583 275.447C91.2397 281.927 96.9446 286.583 103.973 289.417C110.963 292.049 118.896 292.513 127.772 290.809C135.842 289.26 139.945 282.084 142.968 275.269L158.482 266.09L198.106 276.366C196.427 285.054 192.638 293.102 186.739 300.509C181.041 307.877 173.781 314.186 164.957 319.435C156.095 324.483 146.015 328.091 134.718 330.26Z" fill="#B3FF4A" fill-opacity="0.5"/>
<path d="M380.815 388.334C358.112 389.544 336.49 386.624 315.949 379.572C295.714 372.178 277.892 361.233 262.483 346.738C247.399 332.225 235.734 314.76 227.49 294.343L287.793 263.264C297.931 282.603 311.249 297.535 327.748 308.062C344.571 318.571 362.712 323.307 382.171 322.269C392.55 321.716 401.382 319.615 408.669 315.968C415.955 312.32 421.559 307.622 425.481 301.873C429.385 295.799 431.129 288.862 430.713 281.063C430.263 272.614 427.287 265.603 421.786 260.03C416.267 254.132 407.899 249.69 396.682 246.704L324.406 227.093C295.039 219.208 272.598 207.043 257.085 190.598C241.555 173.828 233.14 153.257 231.84 128.885C230.697 107.437 234.881 88.3122 244.393 71.5105C254.23 54.6916 268.311 41.2311 286.637 31.129C305.287 21.0097 326.936 15.2929 351.585 13.9787C373.315 12.82 393.623 15.485 412.508 21.9735C431.393 28.462 447.848 38.176 461.873 51.1156C476.223 64.0379 487.314 79.9039 495.147 98.7138L435.331 129.767C427.619 113.232 416.701 100.615 402.577 91.9175C388.435 82.8949 372.608 78.8504 355.094 79.7842C345.04 80.3203 336.207 82.4207 328.597 86.0854C320.986 89.7501 315.237 94.782 311.35 101.181C307.446 107.255 305.702 114.192 306.118 121.991C306.568 130.44 309.723 137.768 315.584 143.973C321.426 149.853 329.957 154.287 341.174 157.273L411.938 175.987C441.63 183.854 464.062 195.857 479.233 211.994C494.729 228.114 503.127 248.361 504.426 272.733C505.552 293.856 501.044 312.998 490.9 330.159C480.739 346.995 466.18 360.644 447.223 371.106C428.573 381.225 406.437 386.968 380.815 388.334Z" fill="#6CA233"/>
<path d="M538.924 347.94L547.704 268.913L557.583 187.142L572.633 177.585L619.531 182.889L600.273 353.145L585.023 361.661L569.598 350.543L538.924 347.94ZM574.361 162.305L577.006 138.919L564.717 125.127L579.651 115.532L626.549 120.837L621.259 167.61L606.426 176.166L597.81 164.958L574.361 162.305Z" fill="#B3FF4A" fill-opacity="0.5"/>
<path d="M675.027 352.331V271.244L659.66 198.666L675.027 190.157H716.497V229.661L712.054 223.126C714.424 210.652 720.151 201.444 729.235 195.503C738.319 189.563 749.18 186.593 761.819 186.593C775.248 186.593 786.998 190.058 797.07 196.989C807.339 203.721 813.757 212.83 816.324 224.315L803.586 225.503C808.918 212.236 816.521 202.434 826.395 196.097C836.269 189.761 847.822 186.593 861.053 186.593C872.705 186.593 882.974 189.167 891.86 194.315C900.944 199.464 908.054 206.691 913.188 215.998C918.323 225.107 920.89 235.799 920.89 248.076V352.331L906.072 361.112L876.457 352.331V257.581C876.457 251.245 875.272 245.799 872.902 241.245C870.73 236.69 867.57 233.126 863.423 230.552C859.276 227.978 854.24 226.691 848.316 226.691C842.589 226.691 837.553 227.978 833.208 230.552C829.061 233.126 825.803 236.69 823.433 241.245C821.261 245.799 820.175 251.245 820.175 257.581V353.017L805.641 361.112L775.742 352.331V257.581C775.742 251.245 774.557 245.799 772.187 241.245C770.015 236.69 766.855 233.126 762.708 230.552C758.561 227.978 753.525 226.691 747.601 226.691C741.874 226.691 736.838 227.978 732.493 230.552C728.346 233.126 725.088 236.69 722.718 241.245C720.546 245.799 719.46 251.245 719.46 257.581V352.331L705.211 361.112L675.027 352.331Z" fill="#B3FF4A" fill-opacity="0.5"/>
<path d="M1028.78 342.134C1009.55 345.148 992.065 343.275 976.335 336.515C960.785 329.509 948.743 317.568 941.196 302.939L973.575 279.963C979.541 288.691 987.552 296.987 996.086 301.141C1004.62 305.294 1013.59 306.634 1022.99 305.161C1029.83 304.089 1034.85 301.876 1038.05 298.52C1041.24 295.165 1042.46 291.022 1041.68 286.092C1041.28 283.52 1040.3 281.477 1038.75 279.963C1037.17 278.235 1034.98 276.822 1032.18 275.723C1029.38 274.625 1025.97 273.841 1021.95 273.372L990.83 269.683C975.872 267.854 963.84 263.04 954.736 255.243C945.598 247.232 940.055 237.011 938.108 224.579C936.395 213.648 937.68 203.674 941.961 194.659C946.242 185.643 953.053 178.098 962.393 172.024C971.7 165.735 982.872 161.569 995.91 159.527C1013.01 156.848 1028.61 158.577 1042.71 164.713C1056.99 170.602 1067.48 178.892 1075.1 192.63L1041.68 215.689C1037.98 208.804 1033.28 204.509 1025.77 201.294C1018.44 197.831 1010.5 196.769 1001.95 198.108C995.755 199.079 991.041 201.135 987.81 204.276C984.794 207.384 983.638 211.188 984.343 215.689C984.712 218.047 985.689 220.09 987.274 221.818C988.858 223.547 991.157 224.943 994.171 226.008C997.398 227.04 1001.25 227.864 1005.73 228.48L1034.93 232.471C1050.13 234.481 1062.27 239.277 1071.34 246.86C1080.38 254.228 1085.89 264.235 1087.87 276.881C1089.58 287.813 1088.19 297.803 1083.7 306.852C1079.41 315.867 1072.62 323.519 1063.31 329.808C1053.97 335.883 1042.46 339.992 1028.78 342.134Z" fill="#B3FF4A" fill-opacity="0.5"/>
<path d="M71.2753 336.783L71.2807 336.785C85.7613 342.007 101.821 342.915 119.446 339.531C130.79 337.354 140.923 333.728 149.838 328.65L149.847 328.646C158.717 323.368 166.026 317.02 171.766 309.598C177.71 302.134 181.535 294.013 183.231 285.241L183.32 284.78L182.865 284.663L143.241 274.387L142.793 274.27L142.643 274.709C140.53 280.887 136.897 286.12 131.734 290.414L131.728 290.419C126.779 294.662 120.316 297.562 112.312 299.098C103.509 300.788 95.6736 300.323 88.7881 297.731C81.8576 294.936 76.2325 290.346 71.9061 283.948C69.7748 280.796 68.0488 277.286 66.7303 273.416L181.892 251.309L182.236 251.243L182.291 250.897C182.681 248.469 182.68 245.706 182.298 242.614C182.081 239.293 181.66 236.011 181.038 232.768C178.821 221.218 174.953 210.92 169.429 201.878C163.867 192.636 156.811 184.939 148.262 178.791C139.908 172.598 130.263 168.448 119.336 166.337C108.361 164.022 96.2873 164.136 83.1234 166.663C67.3064 169.699 53.8167 176.179 42.6688 186.108C31.5285 196.031 23.4507 208.207 18.4372 222.628L18.4372 222.628L18.4353 222.634C13.6206 237.029 12.8153 252.539 16.0048 269.154C19.0783 285.165 25.4298 299.088 35.0636 310.913C44.6984 322.739 56.7719 331.364 71.2753 336.783ZM128.798 225.973L61.3882 238.913C61.4782 236.715 61.6996 234.601 62.0522 232.573C63.4292 224.651 66.5416 218.289 71.3701 213.457C76.202 208.621 82.497 205.448 90.2819 203.954C98.2669 202.421 105.3 203.139 111.408 206.073L111.417 206.077L111.427 206.081C117.703 208.783 122.581 213.293 126.066 219.634L126.068 219.638C127.172 221.603 128.082 223.715 128.798 225.973Z" fill="#F3F3F3" stroke="#02160F"/>
<path d="M300.42 388.825L300.411 388.822C280.114 381.405 262.234 370.425 246.774 355.882L246.77 355.878C231.632 341.315 219.929 323.79 211.66 303.31L211.489 302.888L211.894 302.679L272.197 271.6L272.639 271.372L272.869 271.812C282.971 291.081 296.232 305.944 312.647 316.418C329.384 326.874 347.423 331.582 366.778 330.55C377.106 329.999 385.868 327.911 393.078 324.301C400.299 320.687 405.831 316.042 409.697 310.377C413.537 304.4 415.258 297.571 414.848 289.87C414.403 281.532 411.472 274.64 406.064 269.162L406.054 269.152L406.054 269.152C400.622 263.347 392.351 258.94 381.186 255.967L381.184 255.967L308.91 236.357C279.483 228.456 256.95 216.254 241.355 199.722L241.352 199.719C225.737 182.857 217.28 162.172 215.975 137.692C214.827 116.16 219.027 96.9385 228.592 80.0447L228.595 80.0386L228.595 80.0386C238.48 63.136 252.63 49.6139 271.029 39.4716L271.032 39.47C289.757 29.31 311.481 23.5774 336.192 22.2598C357.98 21.0981 378.353 23.7699 397.304 30.2811C416.25 36.7907 432.766 46.5388 446.844 59.5264C461.25 72.5006 472.383 88.4285 480.243 107.302L480.419 107.726L480.011 107.938L420.195 138.991L419.732 139.231L419.511 138.759C411.836 122.303 400.981 109.765 386.948 101.124L386.941 101.12C372.892 92.1556 357.169 88.1355 339.754 89.064C329.754 89.5972 320.988 91.6853 313.447 95.3164C305.912 98.9447 300.242 103.915 296.411 110.221L296.405 110.232L296.405 110.232C292.562 116.211 290.84 123.042 291.25 130.745C291.694 139.073 294.799 146.287 300.576 152.406C306.336 158.2 314.774 162.599 325.936 165.571L300.42 388.825ZM300.42 388.825C321.025 395.899 342.711 398.827 365.475 397.614C391.156 396.244 413.368 390.487 432.095 380.326L432.098 380.324C451.124 369.824 465.751 356.117 475.962 339.198L475.964 339.194C486.161 321.943 490.69 302.702 489.559 281.487C488.254 257.008 479.815 236.646 464.23 220.431C448.974 204.205 426.448 192.166 396.7 184.284L396.699 184.284L325.936 165.571L300.42 388.825ZM431.857 379.886C450.814 369.425 465.373 355.776 475.534 338.939C485.677 321.778 490.186 302.636 489.06 281.513L431.857 379.886ZM431.857 379.886C413.207 390.006 391.071 395.748 365.449 397.114C342.746 398.325 321.124 395.404 300.582 388.352L431.857 379.886Z" fill="#F3F3F3" stroke="#02160F"/>
<path d="M537.512 356.565L537.456 357.062L537.953 357.118L584.851 362.423L585.347 362.479L585.404 361.982L604.661 191.726L604.717 191.23L604.22 191.173L557.322 185.869L556.826 185.813L556.769 186.309L537.512 356.565ZM558.498 171.03L558.441 171.527L558.938 171.583L605.836 176.888L606.333 176.944L606.389 176.447L611.68 129.674L611.736 129.177L611.239 129.121L564.341 123.816L563.844 123.76L563.788 124.257L558.498 171.03Z" fill="#F3F3F3" stroke="#02160F"/>
<path d="M659.16 361.111V361.611H659.66H704.093H704.593V361.111V266.361C704.593 260.085 705.669 254.719 707.799 250.248C710.129 245.775 713.324 242.283 717.386 239.76C721.643 237.239 726.587 235.971 732.234 235.971C738.085 235.971 743.025 237.242 747.078 239.757C751.141 242.279 754.237 245.769 756.369 250.241L756.373 250.248L756.377 250.256C758.702 254.724 759.875 260.087 759.875 266.361V361.111V361.611H760.375H804.808H805.308V361.111V266.361C805.308 260.085 806.384 254.719 808.514 250.248C810.844 245.775 814.039 242.283 818.101 239.76C822.358 237.239 827.302 235.971 832.949 235.971C838.801 235.971 843.74 237.242 847.793 239.757C851.856 242.279 854.952 245.769 857.084 250.241L857.088 250.248L857.092 250.256C859.417 254.724 860.59 260.087 860.59 266.361V361.111V361.611H861.09H905.523H906.023V361.111V256.857C906.023 244.51 903.441 233.73 898.258 224.535C893.08 215.15 885.906 207.856 876.742 202.662C867.77 197.464 857.413 194.873 845.687 194.873C832.372 194.873 820.723 198.063 810.759 204.457C804.987 208.161 799.99 213.033 795.765 219.064C792.391 213.737 787.795 209.166 781.982 205.354C771.82 198.363 759.97 194.873 746.453 194.873C733.733 194.873 722.773 197.863 713.595 203.865C708.603 207.129 704.617 211.364 701.631 216.559V198.937V198.437H701.131H659.66H659.16V198.937V361.111Z" fill="#F3F3F3" stroke="#02160F"/>
<path d="M960.763 345.751L960.771 345.755C976.599 352.556 994.18 354.434 1013.5 351.408C1027.23 349.257 1038.81 345.129 1048.22 339.007L1048.23 339.002C1057.6 332.671 1064.45 324.954 1068.78 315.85C1073.32 306.701 1074.72 296.606 1073 285.584C1071 272.83 1065.44 262.708 1056.29 255.255C1047.13 247.596 1034.9 242.774 1019.63 240.755L990.428 236.765C985.975 236.152 982.155 235.334 978.964 234.314C976.004 233.267 973.787 231.909 972.276 230.26C970.759 228.606 969.825 226.654 969.47 224.392C968.788 220.039 969.901 216.397 972.798 213.41C975.93 210.367 980.533 208.342 986.665 207.382C995.122 206.057 1002.96 207.109 1010.19 210.526L1010.2 210.53L1010.21 210.534C1017.62 213.707 1023.14 218.681 1026.79 225.463L1027.06 225.95L1027.51 225.64L1060.48 203.347L1060.86 203.091L1060.64 202.69C1052.96 188.856 1041.92 178.965 1027.54 173.033C1013.34 166.856 997.645 165.122 980.466 167.813C967.37 169.864 956.127 174.052 946.751 180.387C937.344 186.506 930.468 194.117 926.143 203.224C921.814 212.34 920.521 222.417 922.247 233.436C924.212 245.979 929.81 256.308 939.04 264.399L939.044 264.403C948.241 272.279 960.372 277.121 975.403 278.959L975.404 278.959L1006.53 282.648L1006.53 282.648C1010.52 283.114 1013.88 283.89 1016.63 284.969C1019.38 286.047 1021.5 287.423 1023.02 289.081L1023.03 289.091L1023.04 289.101C1024.5 290.525 1025.43 292.462 1025.82 294.95C1026.57 299.739 1025.4 303.722 1022.32 306.955C1019.23 310.201 1014.33 312.384 1007.55 313.447C998.245 314.904 989.38 313.579 980.938 309.471C972.491 305.36 965.305 298.981 959.383 290.317L959.101 289.905L958.689 290.186L926.042 312.428L925.676 312.678L925.879 313.071C933.479 327.804 945.114 338.7 960.763 345.751Z" fill="#F3F3F3" stroke="#02160F"/>
</svg>
