<svg width="40" height="41" viewBox="0 0 40 41" fill="none" xmlns="http://www.w3.org/2000/svg">
<circle cx="20" cy="20.5" r="20" fill="#B3FF4A" fill-opacity="0.2"/>
<circle cx="20" cy="21" r="12" fill="white"/>
<path d="M13 19.8125C13 17.4143 13 16.2152 13.2831 15.8118C13.5663 15.4084 14.6937 15.0225 16.9487 14.2506L17.3783 14.1035C18.5537 13.7012 19.1415 13.5 19.75 13.5C20.3585 13.5 20.9463 13.7012 22.1217 14.1035L22.5513 14.2506C24.8063 15.0225 25.9337 15.4084 26.2169 15.8118C26.5 16.2152 26.5 17.4143 26.5 19.8125C26.5 20.1747 26.5 20.5676 26.5 20.9935C26.5 22.8722 25.8724 24.3213 25 25.4281M13.1446 22.5C13.7877 25.7238 16.4323 27.3847 18.1739 28.1455C18.715 28.3818 18.9856 28.5 19.75 28.5C20.5144 28.5 20.785 28.3818 21.3261 28.1455C21.7597 27.956 22.2493 27.7108 22.75 27.3996" stroke="#02160F" stroke-width="1.5" stroke-linecap="round"/>
<path d="M20.7203 17.3893L17.2173 20.8025H21.8879L18.3849 24.2156" stroke="#02160F" stroke-width="1.5" stroke-linecap="round" stroke-linejoin="round"/>
</svg>
