<svg width="202" height="76" viewBox="0 0 202 76" fill="none" xmlns="http://www.w3.org/2000/svg">
<path d="M80.7565 53.3794V35.4994H88.3165C89.5485 35.4994 90.6045 35.7074 91.4845 36.1234C92.3645 36.5394 93.0365 37.1394 93.5005 37.9234C93.9645 38.6914 94.1965 39.6274 94.1965 40.7314C94.1965 41.5154 93.9805 42.2674 93.5485 42.9874C93.1165 43.6914 92.4045 44.2834 91.4125 44.7634V42.9394C92.3565 43.3074 93.0845 43.7474 93.5965 44.2594C94.1085 44.7714 94.4605 45.3314 94.6525 45.9394C94.8445 46.5314 94.9405 47.1554 94.9405 47.8114C94.9405 49.5714 94.3565 50.9394 93.1885 51.9154C92.0205 52.8914 90.3965 53.3794 88.3165 53.3794H80.7565ZM84.4765 50.1394H88.7485C89.5005 50.1394 90.1005 49.9234 90.5485 49.4914C90.9965 49.0594 91.2205 48.4994 91.2205 47.8114C91.2205 47.1074 90.9965 46.5394 90.5485 46.1074C90.1005 45.6754 89.5005 45.4594 88.7485 45.4594H84.4765V50.1394ZM84.4765 42.2194H88.5805C89.1565 42.2194 89.6125 42.0594 89.9485 41.7394C90.3005 41.4034 90.4765 40.9634 90.4765 40.4194C90.4765 39.8754 90.3005 39.4434 89.9485 39.1234C89.6125 38.7874 89.1565 38.6194 88.5805 38.6194H84.4765V42.2194Z" fill="#02160F"/>
<path d="M103.567 53.6674C102.271 53.6674 101.087 53.3714 100.015 52.7794C98.9588 52.1874 98.1108 51.3794 97.4708 50.3554C96.8468 49.3154 96.5348 48.1394 96.5348 46.8274C96.5348 45.4994 96.8468 44.3234 97.4708 43.2994C98.1108 42.2754 98.9588 41.4674 100.015 40.8754C101.087 40.2834 102.271 39.9874 103.567 39.9874C104.863 39.9874 106.039 40.2834 107.095 40.8754C108.151 41.4674 108.991 42.2754 109.615 43.2994C110.255 44.3234 110.575 45.4994 110.575 46.8274C110.575 48.1394 110.255 49.3154 109.615 50.3554C108.991 51.3794 108.151 52.1874 107.095 52.7794C106.039 53.3714 104.863 53.6674 103.567 53.6674ZM103.567 50.4274C104.223 50.4274 104.791 50.2754 105.271 49.9714C105.767 49.6674 106.151 49.2434 106.423 48.6994C106.711 48.1554 106.855 47.5314 106.855 46.8274C106.855 46.1234 106.711 45.5074 106.423 44.9794C106.151 44.4354 105.767 44.0114 105.271 43.7074C104.791 43.3874 104.223 43.2274 103.567 43.2274C102.911 43.2274 102.335 43.3874 101.839 43.7074C101.343 44.0114 100.951 44.4354 100.663 44.9794C100.391 45.5074 100.255 46.1234 100.255 46.8274C100.255 47.5314 100.391 48.1554 100.663 48.6994C100.951 49.2434 101.343 49.6674 101.839 49.9714C102.335 50.2754 102.911 50.4274 103.567 50.4274Z" fill="#02160F"/>
<path d="M117.4 53.6674C116.344 53.6674 115.44 53.4434 114.688 52.9954C113.952 52.5314 113.392 51.8914 113.008 51.0754C112.624 50.2594 112.432 49.3074 112.432 48.2194V40.2754H116.032V47.9314C116.032 48.4274 116.128 48.8674 116.32 49.2514C116.528 49.6194 116.816 49.9074 117.184 50.1154C117.552 50.3234 117.968 50.4274 118.432 50.4274C118.912 50.4274 119.328 50.3234 119.68 50.1154C120.048 49.9074 120.328 49.6194 120.52 49.2514C120.728 48.8674 120.832 48.4274 120.832 47.9314V40.2754H124.432V53.3794H121.072V50.7874L121.264 51.3634C120.96 52.1474 120.464 52.7314 119.776 53.1154C119.104 53.4834 118.312 53.6674 117.4 53.6674Z" fill="#02160F"/>
<path d="M127.063 53.3794V40.2754H130.423V42.8674L130.231 42.2914C130.535 41.5074 131.023 40.9314 131.695 40.5634C132.383 40.1794 133.183 39.9874 134.095 39.9874C135.087 39.9874 135.951 40.1954 136.687 40.6114C137.439 41.0274 138.023 41.6114 138.439 42.3634C138.855 43.0994 139.063 43.9634 139.063 44.9554V53.3794H135.463V45.7234C135.463 45.2114 135.359 44.7714 135.151 44.4034C134.959 44.0354 134.679 43.7474 134.311 43.5394C133.959 43.3314 133.543 43.2274 133.063 43.2274C132.599 43.2274 132.183 43.3314 131.815 43.5394C131.447 43.7474 131.159 44.0354 130.951 44.4034C130.759 44.7714 130.663 45.2114 130.663 45.7234V53.3794H127.063Z" fill="#02160F"/>
<path d="M147.598 53.6674C146.318 53.6674 145.174 53.3634 144.166 52.7554C143.158 52.1474 142.358 51.3234 141.766 50.2834C141.19 49.2434 140.902 48.0914 140.902 46.8274C140.902 45.5474 141.198 44.3954 141.79 43.3714C142.382 42.3314 143.182 41.5074 144.19 40.8994C145.198 40.2914 146.326 39.9874 147.574 39.9874C148.534 39.9874 149.382 40.1714 150.118 40.5394C150.87 40.8914 151.462 41.3954 151.894 42.0514L151.342 42.7714V35.2114H154.942V53.3794H151.582V50.9794L151.918 51.7234C151.47 52.3634 150.862 52.8514 150.094 53.1874C149.326 53.5074 148.494 53.6674 147.598 53.6674ZM148.03 50.4274C148.686 50.4274 149.262 50.2754 149.758 49.9714C150.254 49.6674 150.638 49.2434 150.91 48.6994C151.198 48.1554 151.342 47.5314 151.342 46.8274C151.342 46.1234 151.198 45.4994 150.91 44.9554C150.638 44.4114 150.254 43.9874 149.758 43.6834C149.262 43.3794 148.686 43.2274 148.03 43.2274C147.374 43.2274 146.782 43.3874 146.254 43.7074C145.742 44.0114 145.342 44.4354 145.054 44.9794C144.766 45.5074 144.622 46.1234 144.622 46.8274C144.622 47.5314 144.766 48.1554 145.054 48.6994C145.342 49.2434 145.742 49.6674 146.254 49.9714C146.782 50.2754 147.374 50.4274 148.03 50.4274Z" fill="#02160F"/>
<path d="M157.578 53.3794V35.2114H161.178V53.3794H157.578Z" fill="#02160F"/>
<path d="M170.125 53.6674C168.733 53.6674 167.525 53.3634 166.501 52.7554C165.477 52.1314 164.685 51.2994 164.125 50.2594C163.565 49.2194 163.285 48.0674 163.285 46.8034C163.285 45.4914 163.573 44.3234 164.149 43.2994C164.741 42.2754 165.533 41.4674 166.525 40.8754C167.517 40.2834 168.637 39.9874 169.885 39.9874C170.925 39.9874 171.845 40.1554 172.645 40.4914C173.445 40.8114 174.117 41.2674 174.661 41.8594C175.221 42.4514 175.645 43.1394 175.933 43.9234C176.221 44.6914 176.365 45.5314 176.365 46.4434C176.365 46.6994 176.349 46.9554 176.317 47.2114C176.301 47.4514 176.261 47.6594 176.197 47.8354H166.381V45.1954H174.157L172.453 46.4434C172.613 45.7554 172.605 45.1474 172.429 44.6194C172.253 44.0754 171.941 43.6514 171.493 43.3474C171.061 43.0274 170.525 42.8674 169.885 42.8674C169.261 42.8674 168.725 43.0194 168.277 43.3234C167.829 43.6274 167.493 44.0754 167.269 44.6674C167.045 45.2594 166.957 45.9794 167.005 46.8274C166.941 47.5634 167.029 48.2114 167.269 48.7714C167.509 49.3314 167.877 49.7714 168.373 50.0914C168.869 50.3954 169.469 50.5474 170.173 50.5474C170.813 50.5474 171.357 50.4194 171.805 50.1634C172.269 49.9074 172.629 49.5554 172.885 49.1074L175.765 50.4754C175.509 51.1154 175.101 51.6754 174.541 52.1554C173.997 52.6354 173.349 53.0114 172.597 53.2834C171.845 53.5394 171.021 53.6674 170.125 53.6674Z" fill="#02160F"/>
<path d="M183.621 53.6674C182.181 53.6674 180.925 53.3314 179.853 52.6594C178.797 51.9714 178.077 51.0514 177.693 49.8994L180.333 48.6514C180.669 49.3554 181.125 49.9074 181.701 50.3074C182.277 50.7074 182.917 50.9074 183.621 50.9074C184.133 50.9074 184.525 50.8034 184.797 50.5954C185.069 50.3874 185.205 50.0994 185.205 49.7314C185.205 49.5394 185.157 49.3794 185.061 49.2514C184.965 49.1074 184.821 48.9794 184.629 48.8674C184.437 48.7554 184.197 48.6594 183.909 48.5794L181.677 47.9554C180.605 47.6514 179.781 47.1634 179.205 46.4914C178.629 45.8034 178.341 44.9954 178.341 44.0674C178.341 43.2514 178.549 42.5394 178.965 41.9314C179.381 41.3234 179.965 40.8514 180.717 40.5154C181.469 40.1634 182.333 39.9874 183.309 39.9874C184.589 39.9874 185.709 40.2914 186.669 40.8994C187.645 41.4914 188.333 42.3314 188.733 43.4194L186.069 44.6674C185.877 44.1234 185.525 43.6914 185.013 43.3714C184.517 43.0354 183.949 42.8674 183.309 42.8674C182.845 42.8674 182.477 42.9634 182.205 43.1554C181.949 43.3474 181.821 43.6114 181.821 43.9474C181.821 44.1234 181.869 44.2834 181.965 44.4274C182.061 44.5714 182.213 44.6994 182.421 44.8114C182.645 44.9234 182.917 45.0274 183.237 45.1234L185.325 45.7474C186.413 46.0674 187.245 46.5554 187.821 47.2114C188.397 47.8514 188.685 48.6434 188.685 49.5874C188.685 50.4034 188.469 51.1154 188.037 51.7234C187.621 52.3314 187.037 52.8114 186.285 53.1634C185.533 53.4994 184.645 53.6674 183.621 53.6674Z" fill="#02160F"/>
<path d="M195.972 53.6674C194.532 53.6674 193.276 53.3314 192.204 52.6594C191.148 51.9714 190.428 51.0514 190.044 49.8994L192.684 48.6514C193.02 49.3554 193.476 49.9074 194.052 50.3074C194.628 50.7074 195.268 50.9074 195.972 50.9074C196.484 50.9074 196.876 50.8034 197.148 50.5954C197.42 50.3874 197.556 50.0994 197.556 49.7314C197.556 49.5394 197.508 49.3794 197.412 49.2514C197.316 49.1074 197.172 48.9794 196.98 48.8674C196.788 48.7554 196.548 48.6594 196.26 48.5794L194.028 47.9554C192.956 47.6514 192.132 47.1634 191.556 46.4914C190.98 45.8034 190.692 44.9954 190.692 44.0674C190.692 43.2514 190.9 42.5394 191.316 41.9314C191.732 41.3234 192.316 40.8514 193.068 40.5154C193.82 40.1634 194.684 39.9874 195.66 39.9874C196.94 39.9874 198.06 40.2914 199.02 40.8994C199.996 41.4914 200.684 42.3314 201.084 43.4194L198.42 44.6674C198.228 44.1234 197.876 43.6914 197.364 43.3714C196.868 43.0354 196.3 42.8674 195.66 42.8674C195.196 42.8674 194.828 42.9634 194.556 43.1554C194.3 43.3474 194.172 43.6114 194.172 43.9474C194.172 44.1234 194.22 44.2834 194.316 44.4274C194.412 44.5714 194.564 44.6994 194.772 44.8114C194.996 44.9234 195.268 45.0274 195.588 45.1234L197.676 45.7474C198.764 46.0674 199.596 46.5554 200.172 47.2114C200.748 47.8514 201.036 48.6434 201.036 49.5874C201.036 50.4034 200.82 51.1154 200.388 51.7234C199.972 52.3314 199.388 52.8114 198.636 53.1634C197.884 53.4994 196.996 53.6674 195.972 53.6674Z" fill="#02160F"/>
<path d="M38.6753 36.5599C38.7324 37.2485 38.7609 37.765 38.7609 38.1094C38.7609 39.6876 38.547 41.2227 38.1191 42.7148C37.6058 44.4365 36.8357 46.029 35.8089 47.4925C34.3828 49.5011 32.6002 51.0793 30.461 52.227C28.2363 53.4035 25.8832 53.9918 23.4018 53.9918C20.6067 53.9918 18.0255 53.2887 15.6581 51.8827C13.2908 50.448 11.4226 48.5111 10.0536 46.0721C8.68453 43.6331 8 40.9788 8 38.1094C8 35.986 8.39931 33.9487 9.19792 31.9974C10.0251 30.0175 11.1232 28.3246 12.4922 26.9185C13.8613 25.4838 15.5013 24.3504 17.4122 23.5182C19.3232 22.6861 21.3197 22.27 23.4018 22.27C25.8832 22.27 28.2363 22.8583 30.461 24.0347C32.3149 25.039 33.9122 26.3733 35.2527 28.0376C35.4809 28.3246 35.4523 28.5685 35.1671 28.7693L30.2471 32.4709C30.0474 32.6144 29.8763 32.6 29.7337 32.4279C28.9351 31.4809 27.9796 30.7492 26.8672 30.2327C25.7549 29.7162 24.5998 29.458 23.4018 29.458C21.063 29.458 19.0665 30.3045 17.4122 31.9974C15.7865 33.6904 14.9736 35.7277 14.9736 38.1094C14.9736 40.491 15.7865 42.5283 17.4122 44.2213C19.0665 45.9143 21.063 46.7608 23.4018 46.7608C24.7138 46.7608 25.9545 46.4738 27.1239 45.8999C28.2933 45.2973 29.2916 44.4508 30.1187 43.3605C30.2043 43.217 30.2043 43.0879 30.1187 42.9731C30.0617 42.8296 29.9619 42.7579 29.8193 42.7579H22.6317C22.375 42.7579 22.2467 42.6287 22.2467 42.3705V36.6029C22.2467 36.3447 22.375 36.2155 22.6317 36.2155H38.2903C38.5185 36.2155 38.6468 36.3303 38.6753 36.5599Z" fill="#02160F"/>
<path d="M52.1091 29.9745C53.7634 29.9745 55.3321 30.2901 56.8153 30.9214C58.2984 31.5527 59.5676 32.3992 60.6229 33.4609C61.7068 34.5226 62.5624 35.7995 63.1899 37.2916C63.8459 38.755 64.1739 40.2901 64.1739 41.897C64.1739 45.1969 62.9903 48.0233 60.6229 50.3763C58.2841 52.7005 55.4462 53.8626 52.1091 53.8626C48.8006 53.8626 45.9627 52.7005 43.5954 50.3763C41.2566 48.0233 40.0872 45.1969 40.0872 41.897C40.0872 38.5972 41.2566 35.7851 43.5954 33.4609C45.9627 31.1366 48.8006 29.9745 52.1091 29.9745ZM52.1091 47.1051C53.5638 47.1051 54.8045 46.6029 55.8313 45.5986C56.858 44.5656 57.3714 43.3318 57.3714 41.897C57.3714 40.4623 56.858 39.2428 55.8313 38.2385C54.8045 37.2055 53.5638 36.689 52.1091 36.689C50.6831 36.689 49.4566 37.2055 48.4298 38.2385C47.403 39.2428 46.8896 40.4623 46.8896 41.897C46.8896 42.844 47.1178 43.7191 47.5742 44.5226C48.059 45.326 48.7008 45.9573 49.4994 46.4164C50.298 46.8755 51.1679 47.1051 52.1091 47.1051Z" fill="#02160F"/>
<path d="M65.4789 36.1406C65.8404 35.9775 66.0028 35.5513 65.8228 35.1978C64.4112 32.4261 62.1826 30.1537 59.439 28.6885C59.0891 28.5016 58.6598 28.6557 58.4897 29.014C58.3196 29.3723 58.4732 29.799 58.8221 29.9875C61.2592 31.3046 63.2426 33.327 64.5119 35.7892C64.6937 36.1418 65.1173 36.3037 65.4789 36.1406Z" fill="#02160F"/>
<path d="M66.8054 32.8776C67.149 32.6795 67.2683 32.2392 67.0541 31.9054C65.9634 30.2053 64.5446 28.7396 62.8809 27.5941C62.5542 27.3691 62.1103 27.4741 61.9011 27.811C61.6918 28.1479 61.7966 28.5892 62.1221 28.8157C63.586 29.8343 64.838 31.1278 65.8085 32.624C66.0243 32.9568 66.4619 33.0758 66.8054 32.8776Z" fill="#02160F"/>
<path d="M67.7804 29.3774C68.0964 29.1377 68.1595 28.686 67.9051 28.3817C67.4284 27.8115 66.9106 27.2771 66.3558 26.7827C66.0597 26.5188 65.6062 26.5677 65.3566 26.8759C65.107 27.1842 65.156 27.635 65.4508 27.9003C65.9173 28.3202 66.3546 28.7714 66.7595 29.251C67.0154 29.554 67.4644 29.6172 67.7804 29.3774Z" fill="#02160F"/>
<path d="M64.1043 43.3127C59.3325 43.1588 59.1478 45.6261 61.4609 49.2606" stroke="url(#paint0_linear_217_83880)" stroke-width="0.5" stroke-linecap="round"/>
<path d="M40.313 44.3041C44.5542 43.6932 46.0325 43.9451 45.6 48.2696C45.2696 51.5737 48.0271 53.2566 52.5391 51.9041C54.1913 51.4088 54.3561 51.9367 54.1913 53.5562" stroke="url(#paint1_linear_217_83880)" stroke-width="0.5" stroke-linecap="round"/>
<path d="M46.591 30.7566C46.2226 33.446 48.2435 35.3827 51.8779 33.7305C53.6322 32.933 55.7697 32.2796 57.1652 34.7218C58.487 37.0349 58.8174 39.6783 62.7826 36.0435" stroke="url(#paint2_linear_217_83880)" stroke-width="0.5" stroke-linecap="round"/>
<defs>
<linearGradient id="paint0_linear_217_83880" x1="60.2782" y1="43.6291" x2="64.1008" y2="46.8521" gradientUnits="userSpaceOnUse">
<stop stop-color="#0E261C"/>
<stop offset="0.834738" stop-color="#0F271D"/>
</linearGradient>
<linearGradient id="paint1_linear_217_83880" x1="41.1997" y1="44.647" x2="54.9833" y2="53.8769" gradientUnits="userSpaceOnUse">
<stop stop-color="#264536"/>
<stop offset="1" stop-color="#163025"/>
</linearGradient>
<linearGradient id="paint2_linear_217_83880" x1="46.9217" y1="30.7566" x2="59.1209" y2="42.98" gradientUnits="userSpaceOnUse">
<stop stop-color="#234132"/>
<stop offset="1" stop-color="#0E261C"/>
</linearGradient>
</defs>
</svg>
