<svg width="100" height="64" viewBox="0 0 100 64" fill="none" xmlns="http://www.w3.org/2000/svg">
<path d="M37 30.844V21.156H40.9582C41.6032 21.156 42.1561 21.2687 42.6169 21.4941C43.0776 21.7195 43.4294 22.0446 43.6724 22.4694C43.9153 22.8856 44.0368 23.3927 44.0368 23.9909C44.0368 24.4157 43.9237 24.8231 43.6975 25.2133C43.4713 25.5947 43.0985 25.9155 42.5792 26.1756V25.1873C43.0734 25.3866 43.4546 25.6251 43.7226 25.9025C43.9907 26.1799 44.175 26.4833 44.2755 26.8127C44.3761 27.1335 44.4263 27.4716 44.4263 27.827C44.4263 28.7807 44.1206 29.5219 43.509 30.0507C42.8975 30.5795 42.0472 30.844 40.9582 30.844H37ZM38.9477 29.0884H41.1844C41.5781 29.0884 41.8922 28.9714 42.1268 28.7373C42.3614 28.5033 42.4786 28.1998 42.4786 27.827C42.4786 27.4456 42.3614 27.1378 42.1268 26.9038C41.8922 26.6697 41.5781 26.5527 41.1844 26.5527H38.9477V29.0884ZM38.9477 24.7971H41.0964C41.398 24.7971 41.6367 24.7104 41.8127 24.5371C41.997 24.355 42.0891 24.1166 42.0891 23.8218C42.0891 23.5271 41.997 23.293 41.8127 23.1196C41.6367 22.9376 41.398 22.8466 41.0964 22.8466H38.9477V24.7971Z" fill="#02160F"/>
<path d="M48.9428 31C48.2642 31 47.6443 30.8396 47.0831 30.5189C46.5302 30.1981 46.0862 29.7603 45.7511 29.2055C45.4244 28.642 45.2611 28.0048 45.2611 27.2939C45.2611 26.5743 45.4244 25.9371 45.7511 25.3823C46.0862 24.8275 46.5302 24.3897 47.0831 24.0689C47.6443 23.7482 48.2642 23.5878 48.9428 23.5878C49.6213 23.5878 50.2371 23.7482 50.79 24.0689C51.3428 24.3897 51.7826 24.8275 52.1093 25.3823C52.4444 25.9371 52.612 26.5743 52.612 27.2939C52.612 28.0048 52.4444 28.642 52.1093 29.2055C51.7826 29.7603 51.3428 30.1981 50.79 30.5189C50.2371 30.8396 49.6213 31 48.9428 31ZM48.9428 29.2445C49.2863 29.2445 49.5836 29.1621 49.835 28.9974C50.0947 28.8327 50.2957 28.6029 50.4381 28.3082C50.5889 28.0134 50.6643 27.6753 50.6643 27.2939C50.6643 26.9124 50.5889 26.5787 50.4381 26.2926C50.2957 25.9978 50.0947 25.7681 49.835 25.6034C49.5836 25.43 49.2863 25.3433 48.9428 25.3433C48.5993 25.3433 48.2978 25.43 48.0381 25.6034C47.7784 25.7681 47.5731 25.9978 47.4223 26.2926C47.2799 26.5787 47.2087 26.9124 47.2087 27.2939C47.2087 27.6753 47.2799 28.0134 47.4223 28.3082C47.5731 28.6029 47.7784 28.8327 48.0381 28.9974C48.2978 29.1621 48.5993 29.2445 48.9428 29.2445Z" fill="#02160F"/>
<path d="M56.1852 31C55.6324 31 55.159 30.8786 54.7653 30.6359C54.38 30.3845 54.0868 30.0377 53.8857 29.5956C53.6847 29.1534 53.5841 28.6376 53.5841 28.0481V23.7438H55.469V27.8921C55.469 28.1608 55.5193 28.3992 55.6198 28.6073C55.7287 28.8067 55.8795 28.9627 56.0722 29.0754C56.2648 29.1881 56.4826 29.2445 56.7256 29.2445C56.9769 29.2445 57.1947 29.1881 57.379 29.0754C57.5717 28.9627 57.7183 28.8067 57.8188 28.6073C57.9277 28.3992 57.9821 28.1608 57.9821 27.8921V23.7438H59.867V30.844H58.1078V29.4395L58.2083 29.7516C58.0492 30.1764 57.7895 30.4928 57.4292 30.7009C57.0774 30.9003 56.6627 31 56.1852 31Z" fill="#02160F"/>
<path d="M61.2446 30.844V23.7438H63.0038V25.1482L62.9033 24.8362C63.0624 24.4114 63.3179 24.0993 63.6698 23.8999C64.03 23.6918 64.4488 23.5878 64.9263 23.5878C65.4457 23.5878 65.8981 23.7005 66.2834 23.9259C66.6772 24.1513 66.9829 24.4677 67.2007 24.8752C67.4185 25.2739 67.5274 25.7421 67.5274 26.2796V30.844H65.6426V26.6957C65.6426 26.4183 65.5881 26.1799 65.4792 25.9805C65.3787 25.7811 65.2321 25.6251 65.0394 25.5124C64.8551 25.3997 64.6373 25.3433 64.386 25.3433C64.1431 25.3433 63.9253 25.3997 63.7326 25.5124C63.5399 25.6251 63.3891 25.7811 63.2802 25.9805C63.1797 26.1799 63.1294 26.4183 63.1294 26.6957V30.844H61.2446Z" fill="#02160F"/>
<path d="M71.9962 31C71.326 31 70.7271 30.8353 70.1993 30.5059C69.6716 30.1764 69.2527 29.73 68.9427 29.1664C68.6412 28.6029 68.4904 27.9788 68.4904 27.2939C68.4904 26.6003 68.6454 25.9762 68.9553 25.4213C69.2653 24.8578 69.6841 24.4114 70.2119 24.0819C70.7396 23.7525 71.3302 23.5878 71.9836 23.5878C72.4863 23.5878 72.9303 23.6875 73.3156 23.8869C73.7093 24.0776 74.0193 24.3507 74.2455 24.7061L73.9565 25.0962V21H75.8413V30.844H74.0821V29.5436L74.258 29.9467C74.0235 30.2935 73.7051 30.5579 73.303 30.7399C72.9009 30.9133 72.4653 31 71.9962 31ZM72.2224 29.2445C72.5658 29.2445 72.8674 29.1621 73.1271 28.9974C73.3868 28.8327 73.5879 28.6029 73.7303 28.3082C73.8811 28.0134 73.9565 27.6753 73.9565 27.2939C73.9565 26.9124 73.8811 26.5743 73.7303 26.2796C73.5879 25.9848 73.3868 25.7551 73.1271 25.5904C72.8674 25.4257 72.5658 25.3433 72.2224 25.3433C71.8789 25.3433 71.569 25.43 71.2925 25.6034C71.0245 25.7681 70.815 25.9978 70.6642 26.2926C70.5135 26.5787 70.4381 26.9124 70.4381 27.2939C70.4381 27.6753 70.5135 28.0134 70.6642 28.3082C70.815 28.6029 71.0245 28.8327 71.2925 28.9974C71.569 29.1621 71.8789 29.2445 72.2224 29.2445Z" fill="#02160F"/>
<path d="M77.2217 30.844V21H79.1065V30.844H77.2217Z" fill="#02160F"/>
<path d="M83.7906 31C83.0618 31 82.4293 30.8353 81.8932 30.5059C81.357 30.1677 80.9423 29.7169 80.6491 29.1534C80.3559 28.5899 80.2094 27.9658 80.2094 27.2809C80.2094 26.57 80.3601 25.9371 80.6617 25.3823C80.9717 24.8275 81.3863 24.3897 81.9057 24.0689C82.4251 23.7482 83.0115 23.5878 83.6649 23.5878C84.2094 23.5878 84.6911 23.6788 85.11 23.8609C85.5288 24.0342 85.8807 24.2813 86.1655 24.6021C86.4587 24.9228 86.6807 25.2956 86.8315 25.7204C86.9823 26.1365 87.0576 26.5917 87.0576 27.0858C87.0576 27.2245 87.0493 27.3632 87.0325 27.502C87.0241 27.632 87.0032 27.7447 86.9697 27.8401H81.8303V26.4096H85.9016L85.0094 27.0858C85.0932 26.713 85.089 26.3836 84.9969 26.0975C84.9047 25.8028 84.7414 25.573 84.5068 25.4083C84.2806 25.2349 84 25.1482 83.6649 25.1482C83.3382 25.1482 83.0576 25.2306 82.823 25.3953C82.5885 25.56 82.4125 25.8028 82.2953 26.1235C82.178 26.4443 82.1319 26.8344 82.157 27.2939C82.1235 27.6927 82.1696 28.0438 82.2953 28.3472C82.4209 28.6506 82.6136 28.889 82.8733 29.0624C83.133 29.2271 83.4471 29.3095 83.8157 29.3095C84.1508 29.3095 84.4356 29.2401 84.6702 29.1014C84.9131 28.9627 85.1016 28.772 85.2356 28.5293L86.7435 29.2705C86.6095 29.6173 86.3959 29.9207 86.1027 30.1808C85.8178 30.4408 85.4786 30.6446 85.0848 30.7919C84.6911 30.9306 84.2597 31 83.7906 31Z" fill="#02160F"/>
<path d="M90.8566 31C90.1027 31 89.4451 30.8179 88.8838 30.4538C88.3309 30.0811 87.9539 29.5826 87.7529 28.9584L89.1351 28.2822C89.311 28.6636 89.5498 28.9627 89.8514 29.1795C90.1529 29.3962 90.488 29.5046 90.8566 29.5046C91.1247 29.5046 91.3299 29.4482 91.4723 29.3355C91.6147 29.2228 91.6859 29.0668 91.6859 28.8674C91.6859 28.7633 91.6608 28.6766 91.6105 28.6073C91.5603 28.5293 91.4849 28.4599 91.3844 28.3992C91.2838 28.3385 91.1582 28.2865 91.0074 28.2432L89.8388 27.9051C89.2775 27.7404 88.8461 27.4759 88.5445 27.1118C88.2429 26.7391 88.0922 26.3013 88.0922 25.7984C88.0922 25.3563 88.2011 24.9705 88.4189 24.6411C88.6367 24.3117 88.9424 24.0559 89.3362 23.8739C89.7299 23.6831 90.1822 23.5878 90.6933 23.5878C91.3634 23.5878 91.9498 23.7525 92.4524 24.0819C92.9634 24.4027 93.3237 24.8578 93.5331 25.4473L92.1383 26.1235C92.0378 25.8288 91.8535 25.5947 91.5854 25.4213C91.3257 25.2393 91.0283 25.1482 90.6933 25.1482C90.4503 25.1482 90.2576 25.2003 90.1152 25.3043C89.9812 25.4083 89.9142 25.5514 89.9142 25.7334C89.9142 25.8288 89.9393 25.9155 89.9896 25.9935C90.0398 26.0715 90.1194 26.1409 90.2283 26.2016C90.3456 26.2622 90.488 26.3186 90.6556 26.3706L91.7488 26.7087C92.3184 26.8821 92.754 27.1465 93.0556 27.502C93.3572 27.8487 93.508 28.2778 93.508 28.7893C93.508 29.2315 93.3949 29.6173 93.1687 29.9467C92.9509 30.2761 92.6451 30.5362 92.2514 30.7269C91.8577 30.909 91.3927 31 90.8566 31Z" fill="#02160F"/>
<path d="M97.3235 31C96.5696 31 95.912 30.8179 95.3507 30.4538C94.7978 30.0811 94.4208 29.5826 94.2198 28.9584L95.602 28.2822C95.7779 28.6636 96.0167 28.9627 96.3183 29.1795C96.6198 29.3962 96.9549 29.5046 97.3235 29.5046C97.5916 29.5046 97.7968 29.4482 97.9392 29.3355C98.0816 29.2228 98.1529 29.0668 98.1529 28.8674C98.1529 28.7633 98.1277 28.6766 98.0775 28.6073C98.0272 28.5293 97.9518 28.4599 97.8513 28.3992C97.7507 28.3385 97.6251 28.2865 97.4743 28.2432L96.3057 27.9051C95.7444 27.7404 95.313 27.4759 95.0114 27.1118C94.7099 26.7391 94.5591 26.3013 94.5591 25.7984C94.5591 25.3563 94.668 24.9705 94.8858 24.6411C95.1036 24.3117 95.4093 24.0559 95.8031 23.8739C96.1968 23.6831 96.6492 23.5878 97.1602 23.5878C97.8303 23.5878 98.4167 23.7525 98.9194 24.0819C99.4304 24.4027 99.7906 24.8578 100 25.4473L98.6052 26.1235C98.5047 25.8288 98.3204 25.5947 98.0523 25.4213C97.7926 25.2393 97.4952 25.1482 97.1602 25.1482C96.9172 25.1482 96.7246 25.2003 96.5821 25.3043C96.4481 25.4083 96.3811 25.5514 96.3811 25.7334C96.3811 25.8288 96.4062 25.9155 96.4565 25.9935C96.5067 26.0715 96.5863 26.1409 96.6952 26.2016C96.8125 26.2622 96.9549 26.3186 97.1225 26.3706L98.2157 26.7087C98.7853 26.8821 99.2209 27.1465 99.5225 27.502C99.8241 27.8487 99.9749 28.2778 99.9749 28.7893C99.9749 29.2315 99.8618 29.6173 99.6356 29.9467C99.4178 30.2761 99.112 30.5362 98.7183 30.7269C98.3246 30.909 97.8596 31 97.3235 31Z" fill="#02160F"/>
<g filter="url(#filter0_i_257_162725)">
<circle cx="24.6208" cy="25.484" r="10.6208" fill="#02160F"/>
</g>
<g filter="url(#filter1_f_257_162725)">
<circle cx="24.5479" cy="26.0746" r="7.01898" fill="#B3FFCC" fill-opacity="0.2"/>
</g>
<path d="M24.8096 25.0815C24.8255 25.2739 24.8335 25.4183 24.8335 25.5145C24.8335 25.9556 24.7737 26.3847 24.6541 26.8018C24.5106 27.283 24.2954 27.7281 24.0084 28.1371C23.6098 28.6985 23.1116 29.1396 22.5137 29.4604C21.8919 29.7892 21.2342 29.9536 20.5407 29.9536C19.7595 29.9536 19.038 29.7571 18.3764 29.3641C17.7147 28.9631 17.1926 28.4218 16.8099 27.7401C16.4273 27.0584 16.236 26.3165 16.236 25.5145C16.236 24.9211 16.3476 24.3517 16.5708 23.8063C16.802 23.2529 17.1089 22.7797 17.4915 22.3868C17.8742 21.9858 18.3325 21.669 18.8666 21.4364C19.4007 21.2038 19.9588 21.0875 20.5407 21.0875C21.2342 21.0875 21.8919 21.2519 22.5137 21.5808C23.0319 21.8615 23.4783 22.2344 23.853 22.6995C23.9167 22.7797 23.9088 22.8479 23.829 22.904L22.4539 23.9386C22.3981 23.9787 22.3503 23.9747 22.3104 23.9266C22.0872 23.6619 21.8202 23.4574 21.5093 23.3131C21.1984 23.1687 20.8755 23.0965 20.5407 23.0965C19.887 23.0965 19.329 23.3331 18.8666 23.8063C18.4122 24.2795 18.1851 24.8489 18.1851 25.5145C18.1851 26.1802 18.4122 26.7496 18.8666 27.2228C19.329 27.696 19.887 27.9326 20.5407 27.9326C20.9074 27.9326 21.2542 27.8524 21.581 27.692C21.9079 27.5235 22.1869 27.287 22.418 26.9822C22.442 26.9421 22.442 26.906 22.418 26.8739C22.4021 26.8338 22.3742 26.8138 22.3343 26.8138H20.3255C20.2537 26.8138 20.2178 26.7777 20.2178 26.7055V25.0935C20.2178 25.0213 20.2537 24.9852 20.3255 24.9852H24.702C24.7657 24.9852 24.8016 25.0173 24.8096 25.0815Z" fill="#B3FF4A"/>
<path d="M28.5643 23.2409C29.0266 23.2409 29.4651 23.3291 29.8796 23.5055C30.2941 23.682 30.6489 23.9186 30.9438 24.2153C31.2467 24.5121 31.4859 24.8689 31.6613 25.286C31.8446 25.695 31.9363 26.1241 31.9363 26.5732C31.9363 27.4955 31.6055 28.2854 30.9438 28.9431C30.2901 29.5927 29.497 29.9175 28.5643 29.9175C27.6395 29.9175 26.8463 29.5927 26.1847 28.9431C25.531 28.2854 25.2042 27.4955 25.2042 26.5732C25.2042 25.6509 25.531 24.8649 26.1847 24.2153C26.8463 23.5657 27.6395 23.2409 28.5643 23.2409ZM28.5643 28.0288C28.9708 28.0288 29.3176 27.8885 29.6046 27.6078C29.8916 27.319 30.035 26.9742 30.035 26.5732C30.035 26.1722 29.8916 25.8313 29.6046 25.5506C29.3176 25.2619 28.9708 25.1176 28.5643 25.1176C28.1657 25.1176 27.8229 25.2619 27.5359 25.5506C27.2489 25.8313 27.1054 26.1722 27.1054 26.5732C27.1054 26.8378 27.1692 27.0825 27.2968 27.307C27.4323 27.5316 27.6116 27.708 27.8348 27.8363C28.0581 27.9646 28.3012 28.0288 28.5643 28.0288Z" fill="#B3FF4A"/>
<path d="M32.301 24.9643C32.4021 24.9187 32.4475 24.7996 32.3972 24.7008C32.0026 23.9261 31.3798 23.291 30.6129 22.8815C30.5151 22.8292 30.3951 22.8723 30.3476 22.9724C30.3 23.0726 30.343 23.1918 30.4405 23.2445C31.1217 23.6126 31.676 24.1779 32.0308 24.8661C32.0816 24.9646 32.2 25.0099 32.301 24.9643Z" fill="#B3FF4A"/>
<path d="M32.6718 24.0523C32.7678 23.9969 32.8012 23.8739 32.7413 23.7806C32.4364 23.3054 32.0399 22.8957 31.5749 22.5756C31.4836 22.5127 31.3595 22.542 31.3011 22.6362C31.2426 22.7304 31.2718 22.8537 31.3628 22.917C31.772 23.2017 32.1219 23.5632 32.3931 23.9814C32.4535 24.0744 32.5758 24.1077 32.6718 24.0523Z" fill="#B3FF4A"/>
<path d="M32.9443 23.074C33.0326 23.007 33.0503 22.8808 32.9792 22.7957C32.8459 22.6364 32.7012 22.487 32.5461 22.3488C32.4634 22.275 32.3366 22.2887 32.2669 22.3748C32.1971 22.461 32.2108 22.587 32.2932 22.6612C32.4236 22.7785 32.5458 22.9046 32.659 23.0387C32.7305 23.1234 32.856 23.141 32.9443 23.074Z" fill="#B3FF4A"/>
<path d="M31.9169 26.9689C30.5831 26.9259 30.5315 27.6155 31.178 28.6313" stroke="url(#paint0_linear_257_162725)" stroke-width="0.5" stroke-linecap="round"/>
<path d="M25.2673 27.246C26.4527 27.0753 26.8659 27.1457 26.745 28.3543C26.6526 29.2778 27.4234 29.7482 28.6844 29.3702C29.1462 29.2317 29.1923 29.3793 29.1462 29.8319" stroke="url(#paint1_linear_257_162725)" stroke-width="0.5" stroke-linecap="round"/>
<path d="M27.022 23.4595C26.919 24.2111 27.4838 24.7524 28.4996 24.2907C28.9899 24.0678 29.5874 23.8851 29.9774 24.5677C30.3468 25.2142 30.4392 25.9531 31.5474 24.9372" stroke="url(#paint2_linear_257_162725)" stroke-width="0.5" stroke-linecap="round"/>
<defs>
<filter id="filter0_i_257_162725" x="14" y="14.8632" width="22.2416" height="22.2416" filterUnits="userSpaceOnUse" color-interpolation-filters="sRGB">
<feFlood flood-opacity="0" result="BackgroundImageFix"/>
<feBlend mode="normal" in="SourceGraphic" in2="BackgroundImageFix" result="shape"/>
<feColorMatrix in="SourceAlpha" type="matrix" values="0 0 0 0 0 0 0 0 0 0 0 0 0 0 0 0 0 0 127 0" result="hardAlpha"/>
<feOffset dx="1" dy="1"/>
<feGaussianBlur stdDeviation="5"/>
<feComposite in2="hardAlpha" operator="arithmetic" k2="-1" k3="1"/>
<feColorMatrix type="matrix" values="0 0 0 0 0 0 0 0 0 0 0 0 0 0 0 0 0 0 0.25 0"/>
<feBlend mode="normal" in2="shape" result="effect1_innerShadow_257_162725"/>
</filter>
<filter id="filter1_f_257_162725" x="-12.4711" y="-10.9443" width="74.038" height="74.038" filterUnits="userSpaceOnUse" color-interpolation-filters="sRGB">
<feFlood flood-opacity="0" result="BackgroundImageFix"/>
<feBlend mode="normal" in="SourceGraphic" in2="BackgroundImageFix" result="shape"/>
<feGaussianBlur stdDeviation="15" result="effect1_foregroundBlur_257_162725"/>
</filter>
<linearGradient id="paint0_linear_257_162725" x1="30.8475" y1="27.0574" x2="31.9159" y2="27.9582" gradientUnits="userSpaceOnUse">
<stop stop-color="#0E261C"/>
<stop offset="0.834738" stop-color="#0F271D"/>
</linearGradient>
<linearGradient id="paint1_linear_257_162725" x1="25.5151" y1="27.3419" x2="29.3676" y2="29.9216" gradientUnits="userSpaceOnUse">
<stop stop-color="#264536"/>
<stop offset="1" stop-color="#163025"/>
</linearGradient>
<linearGradient id="paint2_linear_257_162725" x1="27.1144" y1="23.4595" x2="30.524" y2="26.8759" gradientUnits="userSpaceOnUse">
<stop stop-color="#234132"/>
<stop offset="1" stop-color="#0E261C"/>
</linearGradient>
</defs>
</svg>
