<svg width="41" height="40" viewBox="0 0 41 40" fill="none" xmlns="http://www.w3.org/2000/svg">
<ellipse cx="20.1869" cy="20" rx="20.1869" ry="20" fill="#B3FF4A" fill-opacity="0.2"/>
<ellipse cx="20.1871" cy="20.5" rx="12.1122" ry="12" fill="white"/>
<path d="M21.25 23.6875V24.0313V24.375" stroke="#02160F" stroke-linecap="round"/>
<path d="M21.25 16.125V16.4688V16.8125" stroke="#02160F" stroke-linecap="round"/>
<path d="M23.3125 18.5312C23.3125 17.582 22.3891 16.8125 21.25 16.8125C20.1109 16.8125 19.1875 17.582 19.1875 18.5312C19.1875 19.4805 20.1109 20.25 21.25 20.25C22.3891 20.25 23.3125 21.0195 23.3125 21.9688C23.3125 22.918 22.3891 23.6875 21.25 23.6875C20.1109 23.6875 19.1875 22.918 19.1875 21.9688" stroke="#02160F" stroke-linecap="round"/>
<path d="M17.8125 14.2948C18.8237 13.7098 19.9978 13.375 21.25 13.375C25.047 13.375 28.125 16.453 28.125 20.25C28.125 24.047 25.047 27.125 21.25 27.125C17.453 27.125 14.375 24.047 14.375 20.25C14.375 18.9978 14.7098 17.8237 15.2948 16.8125" stroke="#02160F" stroke-linecap="round"/>
</svg>
