<svg width="93" height="94" viewBox="0 0 93 94" fill="none" xmlns="http://www.w3.org/2000/svg">
<g filter="url(#filter0_i_224_22317)">
<circle cx="46.5" cy="45.5" r="24.5" fill="#02160F"/>
</g>
<g filter="url(#filter1_f_224_22317)">
<circle cx="46.3319" cy="46.8624" r="16.1913" fill="#B3FFCC" fill-opacity="0.2"/>
</g>
<path d="M46.9355 44.5715C46.9722 45.0155 46.9906 45.3485 46.9906 45.5705C46.9906 46.588 46.8527 47.5778 46.5769 48.5398C46.2459 49.6498 45.7494 50.6766 45.0874 51.6201C44.1679 52.9151 43.0186 53.9327 41.6394 54.6727C40.205 55.4312 38.6879 55.8104 37.0881 55.8104C35.286 55.8104 33.6217 55.3572 32.0954 54.4507C30.5691 53.5257 29.3647 52.2769 28.482 50.7043C27.5993 49.1318 27.158 47.4205 27.158 45.5705C27.158 44.2015 27.4154 42.8879 27.9303 41.6299C28.4636 40.3534 29.1716 39.2619 30.0542 38.3553C30.9369 37.4303 31.9943 36.6996 33.2264 36.163C34.4584 35.6265 35.7457 35.3583 37.0881 35.3583C38.6879 35.3583 40.205 35.7375 41.6394 36.496C42.8347 37.1436 43.8645 38.0038 44.7288 39.0769C44.8759 39.2619 44.8575 39.4191 44.6736 39.5486L41.5015 41.9352C41.3728 42.0277 41.2624 42.0184 41.1705 41.9074C40.6556 41.2969 40.0395 40.8251 39.3224 40.4921C38.6052 40.1591 37.8604 39.9926 37.0881 39.9926C35.5802 39.9926 34.2929 40.5384 33.2264 41.6299C32.1782 42.7214 31.6541 44.035 31.6541 45.5705C31.6541 47.106 32.1782 48.4195 33.2264 49.5111C34.2929 50.6026 35.5802 51.1484 37.0881 51.1484C37.934 51.1484 38.7339 50.9633 39.4879 50.5933C40.2418 50.2048 40.8854 49.6591 41.4187 48.9561C41.4739 48.8636 41.4739 48.7803 41.4187 48.7063C41.382 48.6138 41.3176 48.5675 41.2256 48.5675H36.5916C36.4261 48.5675 36.3433 48.4843 36.3433 48.3178V44.5992C36.3433 44.4327 36.4261 44.3495 36.5916 44.3495H46.6872C46.8343 44.3495 46.9171 44.4235 46.9355 44.5715Z" fill="#B3FF4A"/>
<path d="M55.5968 40.3256C56.6633 40.3256 57.6747 40.5291 58.631 40.9361C59.5872 41.3432 60.4055 41.8889 61.0859 42.5734C61.7847 43.2579 62.3364 44.0812 62.7409 45.0432C63.1639 45.9867 63.3754 46.9765 63.3754 48.0125C63.3754 50.1401 62.6122 51.9624 61.0859 53.4794C59.578 54.9779 57.7483 55.7272 55.5968 55.7272C53.4636 55.7272 51.6339 54.9779 50.1076 53.4794C48.5997 51.9624 47.8457 50.1401 47.8457 48.0125C47.8457 45.885 48.5997 44.072 50.1076 42.5734C51.6339 41.0749 53.4636 40.3256 55.5968 40.3256ZM55.5968 51.3704C56.5346 51.3704 57.3345 51.0466 57.9965 50.3991C58.6585 49.7331 58.9895 48.9376 58.9895 48.0125C58.9895 47.0875 58.6585 46.3013 57.9965 45.6537C57.3345 44.9877 56.5346 44.6547 55.5968 44.6547C54.6773 44.6547 53.8866 44.9877 53.2246 45.6537C52.5625 46.3013 52.2315 47.0875 52.2315 48.0125C52.2315 48.6231 52.3787 49.1873 52.6729 49.7053C52.9855 50.2233 53.3992 50.6303 53.9141 50.9263C54.429 51.2224 54.9899 51.3704 55.5968 51.3704Z" fill="#B3FF4A"/>
<path d="M64.2167 44.3011C64.4498 44.196 64.5545 43.9212 64.4384 43.6933C63.5284 41.9063 62.0915 40.4412 60.3226 39.4965C60.097 39.376 59.8202 39.4753 59.7105 39.7064C59.6008 39.9374 59.6999 40.2125 59.9249 40.334C61.4961 41.1832 62.7749 42.4871 63.5933 44.0746C63.7105 44.3019 63.9836 44.4063 64.2167 44.3011Z" fill="#B3FF4A"/>
<path d="M65.072 42.1974C65.2935 42.0696 65.3704 41.7858 65.2323 41.5706C64.5291 40.4745 63.6143 39.5294 62.5417 38.7909C62.331 38.6459 62.0449 38.7135 61.91 38.9308C61.7751 39.148 61.8426 39.4325 62.0525 39.5785C62.9963 40.2352 63.8035 41.0692 64.4292 42.0339C64.5683 42.2484 64.8505 42.3252 65.072 42.1974Z" fill="#B3FF4A"/>
<path d="M65.7006 39.9407C65.9043 39.7861 65.945 39.4949 65.781 39.2987C65.4737 38.9311 65.1398 38.5865 64.7821 38.2678C64.5912 38.0976 64.2988 38.1291 64.1379 38.3279C63.977 38.5266 64.0085 38.8173 64.1986 38.9883C64.4994 39.259 64.7813 39.55 65.0424 39.8592C65.2074 40.0545 65.4969 40.0953 65.7006 39.9407Z" fill="#B3FF4A"/>
<path d="M63.3303 48.9252C60.2537 48.8259 60.1347 50.4167 61.626 52.76" stroke="url(#paint0_linear_224_22317)" stroke-width="0.5" stroke-linecap="round"/>
<path d="M47.9912 49.5644C50.7256 49.1705 51.6787 49.3329 51.3999 52.1211C51.1869 54.2514 52.9648 55.3365 55.8738 54.4644C56.939 54.1451 57.0453 54.4854 56.939 55.5296" stroke="url(#paint1_linear_224_22317)" stroke-width="0.5" stroke-linecap="round"/>
<path d="M52.0389 40.8298C51.8014 42.5638 53.1044 43.8124 55.4476 42.7472C56.5787 42.233 57.9568 41.8118 58.8565 43.3864C59.7087 44.8777 59.9217 46.582 62.4783 44.2385" stroke="url(#paint2_linear_224_22317)" stroke-width="0.5" stroke-linecap="round"/>
<defs>
<filter id="filter0_i_224_22317" x="22" y="21" width="50" height="50" filterUnits="userSpaceOnUse" color-interpolation-filters="sRGB">
<feFlood flood-opacity="0" result="BackgroundImageFix"/>
<feBlend mode="normal" in="SourceGraphic" in2="BackgroundImageFix" result="shape"/>
<feColorMatrix in="SourceAlpha" type="matrix" values="0 0 0 0 0 0 0 0 0 0 0 0 0 0 0 0 0 0 127 0" result="hardAlpha"/>
<feOffset dx="1" dy="1"/>
<feGaussianBlur stdDeviation="5"/>
<feComposite in2="hardAlpha" operator="arithmetic" k2="-1" k3="1"/>
<feColorMatrix type="matrix" values="0 0 0 0 0 0 0 0 0 0 0 0 0 0 0 0 0 0 0.25 0"/>
<feBlend mode="normal" in2="shape" result="effect1_innerShadow_224_22317"/>
</filter>
<filter id="filter1_f_224_22317" x="0.140625" y="0.671143" width="92.3826" height="92.3826" filterUnits="userSpaceOnUse" color-interpolation-filters="sRGB">
<feFlood flood-opacity="0" result="BackgroundImageFix"/>
<feBlend mode="normal" in="SourceGraphic" in2="BackgroundImageFix" result="shape"/>
<feGaussianBlur stdDeviation="15" result="effect1_foregroundBlur_224_22317"/>
</filter>
<linearGradient id="paint0_linear_224_22317" x1="60.8635" y1="49.1291" x2="63.328" y2="51.2071" gradientUnits="userSpaceOnUse">
<stop stop-color="#0E261C"/>
<stop offset="0.834738" stop-color="#0F271D"/>
</linearGradient>
<linearGradient id="paint1_linear_224_22317" x1="48.5629" y1="49.7855" x2="57.4497" y2="55.7364" gradientUnits="userSpaceOnUse">
<stop stop-color="#264536"/>
<stop offset="1" stop-color="#163025"/>
</linearGradient>
<linearGradient id="paint2_linear_224_22317" x1="52.2522" y1="40.8298" x2="60.1174" y2="48.7107" gradientUnits="userSpaceOnUse">
<stop stop-color="#234132"/>
<stop offset="1" stop-color="#0E261C"/>
</linearGradient>
</defs>
</svg>
