<svg width="1440" height="100" viewBox="0 0 1440 100" fill="none" xmlns="http://www.w3.org/2000/svg">
<g clip-path="url(#clip0_217_83885)">
<rect width="1440" height="100" fill="#02160F"/>
<g clip-path="url(#clip1_217_83885)">
<path d="M1139.44 65C1146.07 65 1151.44 59.4036 1151.44 52.5C1151.44 45.5964 1146.07 40 1139.44 40C1132.81 40 1127.44 45.5964 1127.44 52.5C1127.44 59.4036 1132.81 65 1139.44 65Z" fill="#F0F0F0"/>
<path d="M1138.92 52.4999H1151.44C1151.44 51.3717 1151.3 50.2787 1151.03 49.239H1138.92V52.4999Z" fill="#D80027"/>
<path d="M1138.92 45.9782H1149.68C1148.94 44.7295 1148 43.6259 1146.91 42.7173H1138.92V45.9782Z" fill="#D80027"/>
<path d="M1139.44 64.9999C1142.26 64.9999 1144.86 63.9831 1146.91 62.2825H1131.97C1134.02 63.9831 1136.62 64.9999 1139.44 64.9999Z" fill="#D80027"/>
<path d="M1129.2 59.0216H1149.68C1150.27 58.0192 1150.73 56.9235 1151.03 55.7607H1127.85C1128.15 56.9235 1128.61 58.0192 1129.2 59.0216Z" fill="#D80027"/>
<path d="M1133 41.9521H1134.09L1133.07 42.7218L1133.46 43.9674L1132.45 43.1976L1131.43 43.9674L1131.76 42.8914C1130.87 43.6685 1130.08 44.5789 1129.44 45.5934H1129.79L1129.14 46.0833C1129.04 46.2586 1128.94 46.4367 1128.85 46.6174L1129.16 47.6087L1128.58 47.1721C1128.44 47.4886 1128.31 47.8122 1128.19 48.1425L1128.53 49.2347H1129.79L1128.77 50.0044L1129.16 51.25L1128.14 50.4802L1127.53 50.9414C1127.47 51.452 1127.44 51.9721 1127.44 52.5H1139.44C1139.44 45.5965 1139.44 44.7826 1139.44 40C1137.07 40 1134.86 40.7163 1133 41.9521ZM1133.46 51.25L1132.45 50.4802L1131.43 51.25L1131.82 50.0044L1130.8 49.2347H1132.06L1132.45 47.9891L1132.83 49.2347H1134.09L1133.07 50.0044L1133.46 51.25ZM1133.07 46.3631L1133.46 47.6087L1132.45 46.8389L1131.43 47.6087L1131.82 46.3631L1130.8 45.5934H1132.06L1132.45 44.3478L1132.83 45.5934H1134.09L1133.07 46.3631ZM1137.77 51.25L1136.75 50.4802L1135.73 51.25L1136.12 50.0044L1135.1 49.2347H1136.36L1136.75 47.9891L1137.14 49.2347H1138.4L1137.38 50.0044L1137.77 51.25ZM1137.38 46.3631L1137.77 47.6087L1136.75 46.8389L1135.73 47.6087L1136.12 46.3631L1135.1 45.5934H1136.36L1136.75 44.3478L1137.14 45.5934H1138.4L1137.38 46.3631ZM1137.38 42.7218L1137.77 43.9674L1136.75 43.1976L1135.73 43.9674L1136.12 42.7218L1135.1 41.9521H1136.36L1136.75 40.7065L1137.14 41.9521H1138.4L1137.38 42.7218Z" fill="#0052B4"/>
</g>
<path d="M1168.38 57.2095C1167.63 57.2095 1166.95 57.0508 1166.37 56.7335C1165.79 56.4162 1165.33 55.9822 1165.01 55.4315C1164.69 54.8715 1164.53 54.2368 1164.53 53.5275V46.6115H1165.92V53.4995C1165.92 53.9755 1166.02 54.4002 1166.23 54.7735C1166.44 55.1375 1166.73 55.4222 1167.09 55.6275C1167.47 55.8328 1167.9 55.9355 1168.38 55.9355C1168.87 55.9355 1169.29 55.8328 1169.66 55.6275C1170.03 55.4222 1170.32 55.1375 1170.52 54.7735C1170.74 54.4002 1170.85 53.9755 1170.85 53.4995V46.6115H1172.23V53.5275C1172.23 54.2368 1172.07 54.8715 1171.74 55.4315C1171.42 55.9822 1170.98 56.4162 1170.4 56.7335C1169.82 57.0508 1169.15 57.2095 1168.38 57.2095ZM1177.65 57.2095C1176.99 57.2095 1176.38 57.0882 1175.83 56.8455C1175.28 56.5935 1174.81 56.2528 1174.43 55.8235C1174.05 55.3942 1173.77 54.9135 1173.6 54.3815L1174.79 53.8915C1175.05 54.5635 1175.42 55.0815 1175.91 55.4455C1176.42 55.8002 1177.01 55.9775 1177.68 55.9775C1178.09 55.9775 1178.45 55.9122 1178.76 55.7815C1179.06 55.6508 1179.3 55.4688 1179.47 55.2355C1179.65 54.9928 1179.74 54.7128 1179.74 54.3955C1179.74 53.9568 1179.61 53.6115 1179.36 53.3595C1179.12 53.0982 1178.76 52.9022 1178.28 52.7715L1176.36 52.1835C1175.61 51.9502 1175.03 51.5815 1174.63 51.0775C1174.23 50.5735 1174.02 49.9948 1174.02 49.3415C1174.02 48.7722 1174.16 48.2728 1174.43 47.8435C1174.71 47.4048 1175.09 47.0642 1175.58 46.8215C1176.07 46.5695 1176.63 46.4435 1177.26 46.4435C1177.88 46.4435 1178.45 46.5555 1178.95 46.7795C1179.47 47.0035 1179.9 47.3068 1180.25 47.6895C1180.61 48.0628 1180.87 48.4922 1181.04 48.9775L1179.86 49.4675C1179.64 48.8795 1179.3 48.4362 1178.85 48.1375C1178.41 47.8295 1177.88 47.6755 1177.27 47.6755C1176.9 47.6755 1176.57 47.7408 1176.28 47.8715C1176 47.9928 1175.78 48.1748 1175.62 48.4175C1175.47 48.6508 1175.4 48.9308 1175.4 49.2575C1175.4 49.6402 1175.52 49.9808 1175.76 50.2795C1176 50.5782 1176.37 50.8068 1176.87 50.9655L1178.62 51.4835C1179.44 51.7355 1180.06 52.0948 1180.48 52.5615C1180.9 53.0282 1181.11 53.6068 1181.11 54.2975C1181.11 54.8668 1180.96 55.3708 1180.66 55.8095C1180.37 56.2482 1179.97 56.5935 1179.44 56.8455C1178.93 57.0882 1178.33 57.2095 1177.65 57.2095ZM1182.7 57.0415V46.6115H1186.11C1187.17 46.6115 1188.09 46.8262 1188.87 47.2555C1189.66 47.6848 1190.26 48.2915 1190.69 49.0755C1191.12 49.8502 1191.34 50.7648 1191.34 51.8195C1191.34 52.8648 1191.12 53.7795 1190.69 54.5635C1190.26 55.3475 1189.66 55.9588 1188.87 56.3975C1188.09 56.8268 1187.17 57.0415 1186.11 57.0415H1182.7ZM1184.07 55.7815H1186.13C1186.9 55.7815 1187.57 55.6182 1188.13 55.2915C1188.7 54.9648 1189.14 54.5075 1189.45 53.9195C1189.75 53.3222 1189.91 52.6222 1189.91 51.8195C1189.91 51.0075 1189.75 50.3075 1189.43 49.7195C1189.12 49.1315 1188.68 48.6788 1188.12 48.3615C1187.56 48.0348 1186.89 47.8715 1186.13 47.8715H1184.07V55.7815Z" fill="white"/>
<path d="M1199.44 49.375L1203.44 53.5417L1207.44 49.375" stroke="white" stroke-width="1.2" stroke-linecap="round" stroke-linejoin="round"/>
<rect x="1235" y="31" width="82" height="42" rx="21" fill="#B3FF4A"/>
<path d="M1255.33 59V47.08H1256.9V57.56H1262.13V59H1255.33ZM1267.33 59.192C1266.5 59.192 1265.75 59 1265.07 58.616C1264.4 58.2213 1263.87 57.6827 1263.47 57C1263.08 56.3173 1262.88 55.544 1262.88 54.68C1262.88 53.816 1263.07 53.048 1263.46 52.376C1263.85 51.704 1264.39 51.1707 1265.06 50.776C1265.73 50.3813 1266.49 50.184 1267.33 50.184C1268.16 50.184 1268.91 50.3813 1269.59 50.776C1270.26 51.16 1270.79 51.688 1271.17 52.36C1271.57 53.032 1271.76 53.8053 1271.76 54.68C1271.76 55.5547 1271.56 56.3333 1271.15 57.016C1270.75 57.688 1270.21 58.2213 1269.54 58.616C1268.88 59 1268.14 59.192 1267.33 59.192ZM1267.33 57.752C1267.86 57.752 1268.34 57.6187 1268.77 57.352C1269.21 57.0853 1269.55 56.7173 1269.79 56.248C1270.05 55.7787 1270.18 55.256 1270.18 54.68C1270.18 54.0933 1270.05 53.576 1269.79 53.128C1269.55 52.6693 1269.21 52.3067 1268.77 52.04C1268.34 51.7627 1267.86 51.624 1267.33 51.624C1266.79 51.624 1266.3 51.7627 1265.86 52.04C1265.43 52.3067 1265.09 52.6693 1264.83 53.128C1264.58 53.576 1264.45 54.0933 1264.45 54.68C1264.45 55.256 1264.58 55.7787 1264.83 56.248C1265.09 56.7173 1265.43 57.0853 1265.86 57.352C1266.3 57.6187 1266.79 57.752 1267.33 57.752ZM1277.34 62.52C1276.73 62.52 1276.16 62.424 1275.64 62.232C1275.13 62.04 1274.68 61.7733 1274.31 61.432C1273.95 61.1013 1273.67 60.712 1273.48 60.264L1274.87 59.624C1275.02 60.0293 1275.3 60.3707 1275.72 60.648C1276.15 60.936 1276.68 61.08 1277.32 61.08C1277.81 61.08 1278.25 60.984 1278.65 60.792C1279.05 60.6107 1279.37 60.3333 1279.61 59.96C1279.84 59.5973 1279.96 59.1547 1279.96 58.632V56.696L1280.23 56.984C1279.93 57.5707 1279.5 58.0187 1278.94 58.328C1278.38 58.6373 1277.77 58.792 1277.1 58.792C1276.28 58.792 1275.56 58.6053 1274.92 58.232C1274.28 57.848 1273.78 57.3307 1273.42 56.68C1273.05 56.0187 1272.87 55.288 1272.87 54.488C1272.87 53.6773 1273.05 52.9467 1273.42 52.296C1273.78 51.6453 1274.27 51.1333 1274.9 50.76C1275.54 50.376 1276.27 50.184 1277.08 50.184C1277.75 50.184 1278.36 50.3387 1278.9 50.648C1279.46 50.9467 1279.9 51.3627 1280.23 51.896L1280.01 52.296V50.376H1281.46V58.632C1281.46 59.3787 1281.29 60.0453 1280.94 60.632C1280.58 61.2187 1280.09 61.6773 1279.46 62.008C1278.84 62.3493 1278.14 62.52 1277.34 62.52ZM1277.22 57.352C1277.74 57.352 1278.19 57.224 1278.6 56.968C1279.02 56.712 1279.35 56.3707 1279.59 55.944C1279.84 55.5067 1279.96 55.0213 1279.96 54.488C1279.96 53.9653 1279.84 53.4853 1279.59 53.048C1279.35 52.6107 1279.02 52.264 1278.6 52.008C1278.19 51.752 1277.74 51.624 1277.22 51.624C1276.7 51.624 1276.23 51.752 1275.8 52.008C1275.37 52.264 1275.04 52.6107 1274.79 53.048C1274.56 53.4747 1274.44 53.9547 1274.44 54.488C1274.44 55.0213 1274.56 55.5067 1274.79 55.944C1275.04 56.3707 1275.37 56.712 1275.78 56.968C1276.21 57.224 1276.69 57.352 1277.22 57.352ZM1285.75 59V47.08H1287.32V59H1285.75ZM1289.31 59V50.376H1290.77V52.056L1290.53 51.912C1290.74 51.368 1291.09 50.9467 1291.55 50.648C1292.03 50.3387 1292.59 50.184 1293.23 50.184C1293.85 50.184 1294.4 50.3227 1294.88 50.6C1295.37 50.8773 1295.76 51.2613 1296.03 51.752C1296.32 52.2427 1296.47 52.7973 1296.47 53.416V59H1294.96V53.896C1294.96 53.416 1294.88 53.0107 1294.71 52.68C1294.54 52.3493 1294.29 52.0933 1293.97 51.912C1293.66 51.72 1293.3 51.624 1292.9 51.624C1292.49 51.624 1292.13 51.72 1291.81 51.912C1291.5 52.0933 1291.26 52.3547 1291.07 52.696C1290.89 53.0267 1290.8 53.4267 1290.8 53.896V59H1289.31Z" fill="black"/>
<path d="M490.232 56V44.08H492.12V49.328H497.64V44.08H499.512V56H497.64V51.008H492.12V56H490.232ZM505.502 56.192C504.67 56.192 503.907 55.9947 503.214 55.6C502.531 55.2053 501.987 54.6667 501.582 53.984C501.177 53.3013 500.974 52.528 500.974 51.664C500.974 50.7893 501.177 50.016 501.582 49.344C501.987 48.6613 502.531 48.128 503.214 47.744C503.897 47.3493 504.659 47.152 505.502 47.152C506.355 47.152 507.118 47.3493 507.79 47.744C508.473 48.128 509.011 48.6613 509.406 49.344C509.811 50.016 510.014 50.7893 510.014 51.664C510.014 52.5387 509.811 53.3173 509.406 54C509.001 54.6827 508.457 55.2213 507.774 55.616C507.091 56 506.334 56.192 505.502 56.192ZM505.502 54.512C506.014 54.512 506.467 54.3893 506.862 54.144C507.257 53.8987 507.566 53.5627 507.79 53.136C508.025 52.6987 508.142 52.208 508.142 51.664C508.142 51.12 508.025 50.6347 507.79 50.208C507.566 49.7813 507.257 49.4453 506.862 49.2C506.467 48.9547 506.014 48.832 505.502 48.832C505.001 48.832 504.547 48.9547 504.142 49.2C503.747 49.4453 503.433 49.7813 503.198 50.208C502.974 50.6347 502.862 51.12 502.862 51.664C502.862 52.208 502.974 52.6987 503.198 53.136C503.433 53.5627 503.747 53.8987 504.142 54.144C504.547 54.3893 505.001 54.512 505.502 54.512ZM511.299 56V47.344H513.027V49.216L512.803 48.928C512.984 48.3413 513.315 47.8987 513.795 47.6C514.275 47.3013 514.824 47.152 515.443 47.152C516.136 47.152 516.75 47.3387 517.283 47.712C517.827 48.0747 518.19 48.56 518.371 49.168L517.859 49.216C518.115 48.5227 518.504 48.0053 519.027 47.664C519.56 47.3227 520.168 47.152 520.851 47.152C521.448 47.152 521.987 47.2907 522.467 47.568C522.958 47.8453 523.347 48.2293 523.635 48.72C523.923 49.2107 524.067 49.7707 524.067 50.4V56H522.259V50.896C522.259 50.4587 522.179 50.0907 522.019 49.792C521.87 49.4827 521.656 49.248 521.379 49.088C521.112 48.9173 520.798 48.832 520.435 48.832C520.072 48.832 519.752 48.9173 519.475 49.088C519.198 49.248 518.979 49.4827 518.819 49.792C518.659 50.1013 518.579 50.4693 518.579 50.896V56H516.787V50.896C516.787 50.4587 516.707 50.0907 516.547 49.792C516.398 49.4827 516.184 49.248 515.907 49.088C515.64 48.9173 515.32 48.832 514.947 48.832C514.584 48.832 514.264 48.9173 513.987 49.088C513.71 49.248 513.491 49.4827 513.331 49.792C513.182 50.1013 513.107 50.4693 513.107 50.896V56H511.299ZM529.586 56.192C528.722 56.192 527.954 55.9947 527.282 55.6C526.621 55.1947 526.104 54.6507 525.73 53.968C525.357 53.2747 525.17 52.5013 525.17 51.648C525.17 50.7733 525.357 50 525.73 49.328C526.114 48.656 526.626 48.128 527.266 47.744C527.906 47.3493 528.632 47.152 529.442 47.152C530.093 47.152 530.674 47.264 531.186 47.488C531.698 47.712 532.13 48.0213 532.482 48.416C532.834 48.8 533.101 49.2427 533.282 49.744C533.474 50.2453 533.57 50.7787 533.57 51.344C533.57 51.4827 533.565 51.6267 533.554 51.776C533.544 51.9253 533.522 52.064 533.49 52.192H526.594V50.752H532.466L531.602 51.408C531.709 50.8853 531.672 50.4213 531.49 50.016C531.32 49.6 531.053 49.2747 530.69 49.04C530.338 48.7947 529.922 48.672 529.442 48.672C528.962 48.672 528.536 48.7947 528.162 49.04C527.789 49.2747 527.501 49.616 527.298 50.064C527.096 50.5013 527.016 51.0347 527.058 51.664C527.005 52.2507 527.085 52.7627 527.298 53.2C527.522 53.6373 527.832 53.9787 528.226 54.224C528.632 54.4693 529.09 54.592 529.602 54.592C530.125 54.592 530.568 54.4747 530.93 54.24C531.304 54.0053 531.597 53.7013 531.81 53.328L533.282 54.048C533.112 54.4533 532.845 54.8213 532.482 55.152C532.13 55.472 531.704 55.728 531.202 55.92C530.712 56.1013 530.173 56.192 529.586 56.192Z" fill="#B3FF4A"/>
<path d="M582.326 56V44.08H586.23C587.435 44.08 588.486 44.3253 589.382 44.816C590.278 45.3067 590.971 46 591.462 46.896C591.953 47.7813 592.198 48.8267 592.198 50.032C592.198 51.2267 591.953 52.272 591.462 53.168C590.971 54.064 590.278 54.7627 589.382 55.264C588.486 55.7547 587.435 56 586.23 56H582.326ZM583.894 54.56H586.246C587.131 54.56 587.894 54.3733 588.534 54C589.185 53.6267 589.686 53.104 590.038 52.432C590.39 51.7493 590.566 50.9493 590.566 50.032C590.566 49.104 590.385 48.304 590.022 47.632C589.67 46.96 589.169 46.4427 588.518 46.08C587.878 45.7067 587.121 45.52 586.246 45.52H583.894V54.56ZM595.948 56.192C595.383 56.192 594.881 56.0907 594.444 55.888C594.017 55.6747 593.681 55.3867 593.436 55.024C593.191 54.6507 593.068 54.224 593.068 53.744C593.068 53.2853 593.164 52.8747 593.356 52.512C593.559 52.1387 593.868 51.824 594.284 51.568C594.711 51.312 595.244 51.1307 595.884 51.024L599.084 50.496V51.744L596.22 52.224C595.665 52.32 595.26 52.496 595.004 52.752C594.759 53.008 594.636 53.3227 594.636 53.696C594.636 54.048 594.775 54.3413 595.052 54.576C595.34 54.8107 595.697 54.928 596.124 54.928C596.668 54.928 597.137 54.816 597.532 54.592C597.937 54.3573 598.252 54.0427 598.476 53.648C598.711 53.2533 598.828 52.816 598.828 52.336V50.144C598.828 49.6747 598.652 49.296 598.3 49.008C597.959 48.7093 597.505 48.56 596.94 48.56C596.449 48.56 596.012 48.688 595.628 48.944C595.255 49.1893 594.977 49.52 594.796 49.936L593.5 49.264C593.66 48.8693 593.916 48.5173 594.268 48.208C594.62 47.888 595.031 47.6373 595.5 47.456C595.969 47.2747 596.46 47.184 596.972 47.184C597.633 47.184 598.215 47.312 598.716 47.568C599.217 47.8133 599.607 48.16 599.884 48.608C600.172 49.0453 600.316 49.5573 600.316 50.144V56H598.86V54.368L599.132 54.464C598.951 54.8053 598.705 55.104 598.396 55.36C598.087 55.616 597.724 55.8187 597.308 55.968C596.892 56.1173 596.439 56.192 595.948 56.192ZM605.491 56.096C604.648 56.096 603.998 55.856 603.539 55.376C603.091 54.896 602.867 54.2187 602.867 53.344V48.8H601.299V47.376H601.619C602.003 47.376 602.307 47.2587 602.531 47.024C602.755 46.7893 602.867 46.48 602.867 46.096V45.392H604.355V47.376H606.291V48.8H604.355V53.296C604.355 53.584 604.398 53.8347 604.483 54.048C604.579 54.2613 604.734 54.432 604.947 54.56C605.16 54.6773 605.443 54.736 605.795 54.736C605.87 54.736 605.96 54.7307 606.067 54.72C606.184 54.7093 606.291 54.6987 606.387 54.688V56C606.248 56.032 606.094 56.0533 605.923 56.064C605.752 56.0853 605.608 56.096 605.491 56.096ZM610.269 56.192C609.704 56.192 609.203 56.0907 608.765 55.888C608.339 55.6747 608.003 55.3867 607.757 55.024C607.512 54.6507 607.389 54.224 607.389 53.744C607.389 53.2853 607.485 52.8747 607.677 52.512C607.88 52.1387 608.189 51.824 608.605 51.568C609.032 51.312 609.565 51.1307 610.205 51.024L613.405 50.496V51.744L610.541 52.224C609.987 52.32 609.581 52.496 609.325 52.752C609.08 53.008 608.957 53.3227 608.957 53.696C608.957 54.048 609.096 54.3413 609.373 54.576C609.661 54.8107 610.019 54.928 610.445 54.928C610.989 54.928 611.459 54.816 611.853 54.592C612.259 54.3573 612.573 54.0427 612.797 53.648C613.032 53.2533 613.149 52.816 613.149 52.336V50.144C613.149 49.6747 612.973 49.296 612.621 49.008C612.28 48.7093 611.827 48.56 611.261 48.56C610.771 48.56 610.333 48.688 609.949 48.944C609.576 49.1893 609.299 49.52 609.117 49.936L607.821 49.264C607.981 48.8693 608.237 48.5173 608.589 48.208C608.941 47.888 609.352 47.6373 609.821 47.456C610.291 47.2747 610.781 47.184 611.293 47.184C611.955 47.184 612.536 47.312 613.037 47.568C613.539 47.8133 613.928 48.16 614.205 48.608C614.493 49.0453 614.637 49.5573 614.637 50.144V56H613.181V54.368L613.453 54.464C613.272 54.8053 613.027 55.104 612.717 55.36C612.408 55.616 612.045 55.8187 611.629 55.968C611.213 56.1173 610.76 56.192 610.269 56.192Z" fill="white"/>
<path d="M664.326 56V44.08H665.766L670.23 50.432H669.494L673.926 44.08H675.366V56H673.782V46.064L674.342 46.24L669.91 52.48H669.782L665.398 46.24L665.894 46.064V56H664.326ZM679.886 56.192C679.32 56.192 678.819 56.0907 678.382 55.888C677.955 55.6747 677.619 55.3867 677.374 55.024C677.128 54.6507 677.006 54.224 677.006 53.744C677.006 53.2853 677.102 52.8747 677.294 52.512C677.496 52.1387 677.806 51.824 678.222 51.568C678.648 51.312 679.182 51.1307 679.822 51.024L683.022 50.496V51.744L680.158 52.224C679.603 52.32 679.198 52.496 678.942 52.752C678.696 53.008 678.574 53.3227 678.574 53.696C678.574 54.048 678.712 54.3413 678.99 54.576C679.278 54.8107 679.635 54.928 680.062 54.928C680.606 54.928 681.075 54.816 681.47 54.592C681.875 54.3573 682.19 54.0427 682.414 53.648C682.648 53.2533 682.766 52.816 682.766 52.336V50.144C682.766 49.6747 682.59 49.296 682.238 49.008C681.896 48.7093 681.443 48.56 680.878 48.56C680.387 48.56 679.95 48.688 679.566 48.944C679.192 49.1893 678.915 49.52 678.734 49.936L677.438 49.264C677.598 48.8693 677.854 48.5173 678.206 48.208C678.558 47.888 678.968 47.6373 679.438 47.456C679.907 47.2747 680.398 47.184 680.91 47.184C681.571 47.184 682.152 47.312 682.654 47.568C683.155 47.8133 683.544 48.16 683.822 48.608C684.11 49.0453 684.254 49.5573 684.254 50.144V56H682.798V54.368L683.07 54.464C682.888 54.8053 682.643 55.104 682.334 55.36C682.024 55.616 681.662 55.8187 681.246 55.968C680.83 56.1173 680.376 56.192 679.886 56.192ZM686.081 56V47.376H687.537V49.056L687.297 48.912C687.51 48.368 687.851 47.9467 688.321 47.648C688.801 47.3387 689.361 47.184 690.001 47.184C690.619 47.184 691.169 47.3227 691.649 47.6C692.139 47.8773 692.523 48.2613 692.801 48.752C693.089 49.2427 693.233 49.7973 693.233 50.416V56H691.729V50.896C691.729 50.416 691.643 50.0107 691.473 49.68C691.302 49.3493 691.057 49.0933 690.737 48.912C690.427 48.72 690.07 48.624 689.665 48.624C689.259 48.624 688.897 48.72 688.577 48.912C688.267 49.0933 688.022 49.3547 687.841 49.696C687.659 50.0267 687.569 50.4267 687.569 50.896V56H686.081ZM697.41 56.192C696.845 56.192 696.343 56.0907 695.906 55.888C695.479 55.6747 695.143 55.3867 694.898 55.024C694.653 54.6507 694.53 54.224 694.53 53.744C694.53 53.2853 694.626 52.8747 694.818 52.512C695.021 52.1387 695.33 51.824 695.746 51.568C696.173 51.312 696.706 51.1307 697.346 51.024L700.546 50.496V51.744L697.682 52.224C697.127 52.32 696.722 52.496 696.466 52.752C696.221 53.008 696.098 53.3227 696.098 53.696C696.098 54.048 696.237 54.3413 696.514 54.576C696.802 54.8107 697.159 54.928 697.586 54.928C698.13 54.928 698.599 54.816 698.994 54.592C699.399 54.3573 699.714 54.0427 699.938 53.648C700.173 53.2533 700.29 52.816 700.29 52.336V50.144C700.29 49.6747 700.114 49.296 699.762 49.008C699.421 48.7093 698.967 48.56 698.402 48.56C697.911 48.56 697.474 48.688 697.09 48.944C696.717 49.1893 696.439 49.52 696.258 49.936L694.962 49.264C695.122 48.8693 695.378 48.5173 695.73 48.208C696.082 47.888 696.493 47.6373 696.962 47.456C697.431 47.2747 697.922 47.184 698.434 47.184C699.095 47.184 699.677 47.312 700.178 47.568C700.679 47.8133 701.069 48.16 701.346 48.608C701.634 49.0453 701.778 49.5573 701.778 50.144V56H700.322V54.368L700.594 54.464C700.413 54.8053 700.167 55.104 699.858 55.36C699.549 55.616 699.186 55.8187 698.77 55.968C698.354 56.1173 697.901 56.192 697.41 56.192ZM707.717 59.52C707.109 59.52 706.544 59.424 706.021 59.232C705.509 59.04 705.066 58.7733 704.693 58.432C704.33 58.1013 704.053 57.712 703.861 57.264L705.253 56.624C705.402 57.0293 705.685 57.3707 706.101 57.648C706.528 57.936 707.061 58.08 707.701 58.08C708.192 58.08 708.634 57.984 709.029 57.792C709.434 57.6107 709.754 57.3333 709.989 56.96C710.224 56.5973 710.341 56.1547 710.341 55.632V53.696L710.613 53.984C710.314 54.5707 709.882 55.0187 709.317 55.328C708.762 55.6373 708.149 55.792 707.477 55.792C706.666 55.792 705.941 55.6053 705.301 55.232C704.661 54.848 704.16 54.3307 703.797 53.68C703.434 53.0187 703.253 52.288 703.253 51.488C703.253 50.6773 703.434 49.9467 703.797 49.296C704.16 48.6453 704.656 48.1333 705.285 47.76C705.925 47.376 706.65 47.184 707.461 47.184C708.133 47.184 708.741 47.3387 709.285 47.648C709.84 47.9467 710.282 48.3627 710.613 48.896L710.389 49.296V47.376H711.845V55.632C711.845 56.3787 711.669 57.0453 711.317 57.632C710.965 58.2187 710.474 58.6773 709.845 59.008C709.226 59.3493 708.517 59.52 707.717 59.52ZM707.605 54.352C708.117 54.352 708.576 54.224 708.981 53.968C709.397 53.712 709.728 53.3707 709.973 52.944C710.218 52.5067 710.341 52.0213 710.341 51.488C710.341 50.9653 710.218 50.4853 709.973 50.048C709.728 49.6107 709.397 49.264 708.981 49.008C708.576 48.752 708.117 48.624 707.605 48.624C707.082 48.624 706.608 48.752 706.181 49.008C705.754 49.264 705.418 49.6107 705.173 50.048C704.938 50.4747 704.821 50.9547 704.821 51.488C704.821 52.0213 704.938 52.5067 705.173 52.944C705.418 53.3707 705.749 53.712 706.165 53.968C706.592 54.224 707.072 54.352 707.605 54.352ZM717.64 56.192C716.808 56.192 716.067 55.9947 715.416 55.6C714.765 55.2053 714.253 54.6667 713.88 53.984C713.507 53.2907 713.32 52.5173 713.32 51.664C713.32 50.8 713.501 50.032 713.864 49.36C714.237 48.688 714.739 48.16 715.368 47.776C716.008 47.3813 716.723 47.184 717.512 47.184C718.152 47.184 718.717 47.3013 719.208 47.536C719.709 47.76 720.131 48.0693 720.472 48.464C720.824 48.848 721.091 49.2907 721.272 49.792C721.464 50.2827 721.56 50.7947 721.56 51.328C721.56 51.4453 721.549 51.5787 721.528 51.728C721.517 51.8667 721.501 52 721.48 52.128H714.408V50.848H720.616L719.912 51.424C720.008 50.8693 719.955 50.3733 719.752 49.936C719.549 49.4987 719.251 49.152 718.856 48.896C718.461 48.64 718.013 48.512 717.512 48.512C717.011 48.512 716.552 48.64 716.136 48.896C715.72 49.152 715.395 49.52 715.16 50C714.936 50.4693 714.845 51.0293 714.888 51.68C714.845 52.3093 714.941 52.864 715.176 53.344C715.421 53.8133 715.763 54.1813 716.2 54.448C716.648 54.704 717.133 54.832 717.656 54.832C718.232 54.832 718.717 54.6987 719.112 54.432C719.507 54.1653 719.827 53.824 720.072 53.408L721.32 54.048C721.149 54.4427 720.883 54.8053 720.52 55.136C720.168 55.456 719.747 55.712 719.256 55.904C718.776 56.096 718.237 56.192 717.64 56.192Z" fill="white"/>
<path opacity="0.9" d="M768.393 56V44.08H772.601C773.391 44.08 774.084 44.2293 774.681 44.528C775.279 44.8267 775.743 45.2533 776.073 45.808C776.415 46.3627 776.585 47.0133 776.585 47.76C776.585 48.5067 776.415 49.1573 776.073 49.712C775.743 50.256 775.279 50.6827 774.681 50.992C774.095 51.2907 773.401 51.44 772.601 51.44H769.961V56H768.393ZM769.961 50H772.649C773.129 50 773.545 49.9093 773.897 49.728C774.249 49.5467 774.521 49.2853 774.713 48.944C774.905 48.6027 775.001 48.208 775.001 47.76C775.001 47.3013 774.905 46.9067 774.713 46.576C774.521 46.2347 774.249 45.9733 773.897 45.792C773.545 45.6107 773.129 45.52 772.649 45.52H769.961V50ZM778.05 56V47.376H779.506V48.96L779.346 48.736C779.548 48.2453 779.858 47.8827 780.274 47.648C780.69 47.4027 781.196 47.28 781.794 47.28H782.322V48.688H781.57C780.962 48.688 780.471 48.88 780.098 49.264C779.724 49.6373 779.538 50.1707 779.538 50.864V56H778.05ZM787.259 56.192C786.427 56.192 785.675 56 785.003 55.616C784.331 55.2213 783.798 54.6827 783.403 54C783.009 53.3173 782.811 52.544 782.811 51.68C782.811 50.816 783.003 50.048 783.387 49.376C783.782 48.704 784.315 48.1707 784.987 47.776C785.659 47.3813 786.417 47.184 787.259 47.184C788.091 47.184 788.843 47.3813 789.515 47.776C790.187 48.16 790.715 48.688 791.099 49.36C791.494 50.032 791.691 50.8053 791.691 51.68C791.691 52.5547 791.489 53.3333 791.083 54.016C790.678 54.688 790.139 55.2213 789.467 55.616C788.806 56 788.07 56.192 787.259 56.192ZM787.259 54.752C787.793 54.752 788.273 54.6187 788.699 54.352C789.137 54.0853 789.478 53.7173 789.723 53.248C789.979 52.7787 790.107 52.256 790.107 51.68C790.107 51.0933 789.979 50.576 789.723 50.128C789.478 49.6693 789.137 49.3067 788.699 49.04C788.273 48.7627 787.793 48.624 787.259 48.624C786.715 48.624 786.225 48.7627 785.787 49.04C785.361 49.3067 785.019 49.6693 784.763 50.128C784.507 50.576 784.379 51.0933 784.379 51.68C784.379 52.256 784.507 52.7787 784.763 53.248C785.019 53.7173 785.361 54.0853 785.787 54.352C786.225 54.6187 786.715 54.752 787.259 54.752ZM793.799 56V48.8H792.151V47.376H793.799V46.768C793.799 46.1493 793.932 45.6267 794.199 45.2C794.476 44.7733 794.839 44.448 795.287 44.224C795.745 44 796.252 43.888 796.807 43.888C796.924 43.888 797.052 43.8987 797.191 43.92C797.34 43.9307 797.463 43.9467 797.559 43.968V45.296C797.473 45.2747 797.372 45.264 797.255 45.264C797.137 45.2533 797.047 45.248 796.983 45.248C796.492 45.248 796.087 45.3653 795.767 45.6C795.457 45.8347 795.303 46.224 795.303 46.768V47.376H799.783V48.8H795.303V56H793.799ZM798.855 56V47.376H800.359V56H798.855ZM801.938 56V43.888H803.426V56H801.938ZM809.223 56.192C808.391 56.192 807.649 55.9947 806.999 55.6C806.348 55.2053 805.836 54.6667 805.463 53.984C805.089 53.2907 804.903 52.5173 804.903 51.664C804.903 50.8 805.084 50.032 805.447 49.36C805.82 48.688 806.321 48.16 806.951 47.776C807.591 47.3813 808.305 47.184 809.095 47.184C809.735 47.184 810.3 47.3013 810.791 47.536C811.292 47.76 811.713 48.0693 812.055 48.464C812.407 48.848 812.673 49.2907 812.855 49.792C813.047 50.2827 813.143 50.7947 813.143 51.328C813.143 51.4453 813.132 51.5787 813.111 51.728C813.1 51.8667 813.084 52 813.063 52.128H805.991V50.848H812.199L811.495 51.424C811.591 50.8693 811.537 50.3733 811.335 49.936C811.132 49.4987 810.833 49.152 810.439 48.896C810.044 48.64 809.596 48.512 809.095 48.512C808.593 48.512 808.135 48.64 807.719 48.896C807.303 49.152 806.977 49.52 806.743 50C806.519 50.4693 806.428 51.0293 806.471 51.68C806.428 52.3093 806.524 52.864 806.759 53.344C807.004 53.8133 807.345 54.1813 807.783 54.448C808.231 54.704 808.716 54.832 809.239 54.832C809.815 54.832 810.3 54.6987 810.695 54.432C811.089 54.1653 811.409 53.824 811.655 53.408L812.903 54.048C812.732 54.4427 812.465 54.8053 812.103 55.136C811.751 55.456 811.329 55.712 810.839 55.904C810.359 56.096 809.82 56.192 809.223 56.192Z" fill="white"/>
<path d="M834.269 47.8003L829.719 52.2497L825.27 47.6997" stroke="white" stroke-width="1.2" stroke-linecap="round" stroke-linejoin="round"/>
<path d="M891.935 56.192C891.092 56.192 890.314 56.0427 889.599 55.744C888.895 55.4347 888.276 55.0027 887.743 54.448C887.22 53.8933 886.815 53.2427 886.527 52.496C886.239 51.7493 886.095 50.9333 886.095 50.048C886.095 49.152 886.239 48.3307 886.527 47.584C886.815 46.8373 887.22 46.1867 887.743 45.632C888.266 45.0773 888.884 44.6507 889.599 44.352C890.314 44.0427 891.092 43.888 891.935 43.888C892.756 43.888 893.492 44.032 894.143 44.32C894.804 44.608 895.359 44.9813 895.807 45.44C896.266 45.8987 896.591 46.3893 896.783 46.912L895.343 47.568C895.066 46.9067 894.634 46.3733 894.047 45.968C893.46 45.552 892.756 45.344 891.935 45.344C891.103 45.344 890.362 45.5413 889.711 45.936C889.071 46.3307 888.57 46.88 888.207 47.584C887.844 48.288 887.663 49.1093 887.663 50.048C887.663 50.976 887.844 51.792 888.207 52.496C888.57 53.2 889.071 53.7493 889.711 54.144C890.362 54.5387 891.103 54.736 891.935 54.736C892.756 54.736 893.46 54.5333 894.047 54.128C894.634 53.712 895.066 53.1733 895.343 52.512L896.783 53.168C896.591 53.6907 896.266 54.1813 895.807 54.64C895.359 55.0987 894.804 55.472 894.143 55.76C893.492 56.048 892.756 56.192 891.935 56.192ZM902.2 56.192C901.368 56.192 900.616 56 899.944 55.616C899.272 55.2213 898.738 54.6827 898.344 54C897.949 53.3173 897.752 52.544 897.752 51.68C897.752 50.816 897.944 50.048 898.328 49.376C898.722 48.704 899.256 48.1707 899.928 47.776C900.6 47.3813 901.357 47.184 902.2 47.184C903.032 47.184 903.784 47.3813 904.456 47.776C905.128 48.16 905.656 48.688 906.04 49.36C906.434 50.032 906.632 50.8053 906.632 51.68C906.632 52.5547 906.429 53.3333 906.024 54.016C905.618 54.688 905.08 55.2213 904.408 55.616C903.746 56 903.01 56.192 902.2 56.192ZM902.2 54.752C902.733 54.752 903.213 54.6187 903.64 54.352C904.077 54.0853 904.418 53.7173 904.664 53.248C904.92 52.7787 905.048 52.256 905.048 51.68C905.048 51.0933 904.92 50.576 904.664 50.128C904.418 49.6693 904.077 49.3067 903.64 49.04C903.213 48.7627 902.733 48.624 902.2 48.624C901.656 48.624 901.165 48.7627 900.728 49.04C900.301 49.3067 899.96 49.6693 899.704 50.128C899.448 50.576 899.32 51.0933 899.32 51.68C899.32 52.256 899.448 52.7787 899.704 53.248C899.96 53.7173 900.301 54.0853 900.728 54.352C901.165 54.6187 901.656 54.752 902.2 54.752ZM908.092 56V47.376H909.548V49.056L909.308 48.912C909.522 48.368 909.863 47.9467 910.332 47.648C910.812 47.3387 911.372 47.184 912.012 47.184C912.631 47.184 913.18 47.3227 913.66 47.6C914.151 47.8773 914.535 48.2613 914.812 48.752C915.1 49.2427 915.244 49.7973 915.244 50.416V56H913.74V50.896C913.74 50.416 913.655 50.0107 913.484 49.68C913.314 49.3493 913.068 49.0933 912.748 48.912C912.439 48.72 912.082 48.624 911.676 48.624C911.271 48.624 910.908 48.72 910.588 48.912C910.279 49.0933 910.034 49.3547 909.852 49.696C909.671 50.0267 909.58 50.4267 909.58 50.896V56H908.092ZM920.398 56.096C919.555 56.096 918.904 55.856 918.446 55.376C917.998 54.896 917.774 54.2187 917.774 53.344V48.8H916.206V47.376H916.526C916.91 47.376 917.214 47.2587 917.438 47.024C917.662 46.7893 917.774 46.48 917.774 46.096V45.392H919.262V47.376H921.198V48.8H919.262V53.296C919.262 53.584 919.304 53.8347 919.39 54.048C919.486 54.2613 919.64 54.432 919.854 54.56C920.067 54.6773 920.35 54.736 920.702 54.736C920.776 54.736 920.867 54.7307 920.974 54.72C921.091 54.7093 921.198 54.6987 921.294 54.688V56C921.155 56.032 921 56.0533 920.83 56.064C920.659 56.0853 920.515 56.096 920.398 56.096ZM925.176 56.192C924.611 56.192 924.109 56.0907 923.672 55.888C923.245 55.6747 922.909 55.3867 922.664 55.024C922.419 54.6507 922.296 54.224 922.296 53.744C922.296 53.2853 922.392 52.8747 922.584 52.512C922.787 52.1387 923.096 51.824 923.512 51.568C923.939 51.312 924.472 51.1307 925.112 51.024L928.312 50.496V51.744L925.448 52.224C924.893 52.32 924.488 52.496 924.232 52.752C923.987 53.008 923.864 53.3227 923.864 53.696C923.864 54.048 924.003 54.3413 924.28 54.576C924.568 54.8107 924.925 54.928 925.352 54.928C925.896 54.928 926.365 54.816 926.76 54.592C927.165 54.3573 927.48 54.0427 927.704 53.648C927.939 53.2533 928.056 52.816 928.056 52.336V50.144C928.056 49.6747 927.88 49.296 927.528 49.008C927.187 48.7093 926.733 48.56 926.168 48.56C925.677 48.56 925.24 48.688 924.856 48.944C924.483 49.1893 924.205 49.52 924.024 49.936L922.728 49.264C922.888 48.8693 923.144 48.5173 923.496 48.208C923.848 47.888 924.259 47.6373 924.728 47.456C925.197 47.2747 925.688 47.184 926.2 47.184C926.861 47.184 927.443 47.312 927.944 47.568C928.445 47.8133 928.835 48.16 929.112 48.608C929.4 49.0453 929.544 49.5573 929.544 50.144V56H928.088V54.368L928.36 54.464C928.179 54.8053 927.933 55.104 927.624 55.36C927.315 55.616 926.952 55.8187 926.536 55.968C926.12 56.1173 925.667 56.192 925.176 56.192ZM935.371 56.192C934.528 56.192 933.776 55.9947 933.115 55.6C932.464 55.2053 931.952 54.6667 931.579 53.984C931.206 53.3013 931.019 52.5333 931.019 51.68C931.019 50.816 931.206 50.048 931.579 49.376C931.952 48.704 932.464 48.1707 933.115 47.776C933.776 47.3813 934.528 47.184 935.371 47.184C935.936 47.184 936.464 47.2853 936.955 47.488C937.446 47.6907 937.878 47.9627 938.251 48.304C938.624 48.6453 938.896 49.0453 939.067 49.504L937.739 50.144C937.536 49.696 937.227 49.3333 936.811 49.056C936.395 48.768 935.915 48.624 935.371 48.624C934.848 48.624 934.374 48.7573 933.947 49.024C933.531 49.2907 933.2 49.6533 932.955 50.112C932.71 50.5707 932.587 51.0987 932.587 51.696C932.587 52.272 932.71 52.7947 932.955 53.264C933.2 53.7227 933.531 54.0853 933.947 54.352C934.374 54.6187 934.848 54.752 935.371 54.752C935.915 54.752 936.395 54.6133 936.811 54.336C937.227 54.048 937.536 53.6693 937.739 53.2L939.067 53.872C938.896 54.32 938.624 54.72 938.251 55.072C937.878 55.4133 937.446 55.6853 936.955 55.888C936.464 56.0907 935.936 56.192 935.371 56.192ZM944.036 56.096C943.193 56.096 942.542 55.856 942.084 55.376C941.636 54.896 941.412 54.2187 941.412 53.344V48.8H939.844V47.376H940.164C940.548 47.376 940.852 47.2587 941.076 47.024C941.3 46.7893 941.412 46.48 941.412 46.096V45.392H942.9V47.376H944.836V48.8H942.9V53.296C942.9 53.584 942.942 53.8347 943.028 54.048C943.124 54.2613 943.278 54.432 943.492 54.56C943.705 54.6773 943.988 54.736 944.34 54.736C944.414 54.736 944.505 54.7307 944.612 54.72C944.729 54.7093 944.836 54.6987 944.932 54.688V56C944.793 56.032 944.638 56.0533 944.468 56.064C944.297 56.0853 944.153 56.096 944.036 56.096ZM953.177 56.192C952.313 56.192 951.545 56.0107 950.873 55.648C950.212 55.2853 949.694 54.7893 949.321 54.16C948.958 53.52 948.777 52.7947 948.777 51.984V44.08H950.361V51.952C950.361 52.496 950.478 52.9813 950.713 53.408C950.958 53.824 951.289 54.1493 951.705 54.384C952.132 54.6187 952.622 54.736 953.177 54.736C953.732 54.736 954.217 54.6187 954.633 54.384C955.06 54.1493 955.39 53.824 955.625 53.408C955.87 52.9813 955.993 52.496 955.993 51.952V44.08H957.577V51.984C957.577 52.7947 957.39 53.52 957.017 54.16C956.654 54.7893 956.142 55.2853 955.481 55.648C954.82 56.0107 954.052 56.192 953.177 56.192ZM962.586 56.192C961.722 56.192 960.97 55.9787 960.33 55.552C959.69 55.1253 959.237 54.5493 958.97 53.824L960.154 53.248C960.399 53.76 960.735 54.1653 961.162 54.464C961.589 54.7627 962.063 54.912 962.586 54.912C963.055 54.912 963.445 54.8 963.754 54.576C964.063 54.352 964.218 54.0587 964.218 53.696C964.218 53.44 964.143 53.2373 963.994 53.088C963.855 52.928 963.685 52.8053 963.482 52.72C963.279 52.624 963.093 52.5547 962.922 52.512L961.626 52.144C960.847 51.92 960.277 51.6 959.914 51.184C959.562 50.768 959.386 50.2827 959.386 49.728C959.386 49.216 959.514 48.7733 959.77 48.4C960.037 48.016 960.394 47.7173 960.842 47.504C961.301 47.2907 961.813 47.184 962.378 47.184C963.135 47.184 963.813 47.376 964.41 47.76C965.018 48.144 965.45 48.6827 965.706 49.376L964.49 49.936C964.298 49.488 964.01 49.136 963.626 48.88C963.242 48.6133 962.81 48.48 962.33 48.48C961.893 48.48 961.546 48.592 961.29 48.816C961.034 49.0293 960.906 49.3013 960.906 49.632C960.906 49.8773 960.97 50.08 961.098 50.24C961.226 50.3893 961.381 50.5067 961.562 50.592C961.743 50.6667 961.919 50.7307 962.09 50.784L963.498 51.2C964.202 51.4027 964.746 51.7173 965.13 52.144C965.525 52.5707 965.722 53.0827 965.722 53.68C965.722 54.16 965.589 54.592 965.322 54.976C965.055 55.36 964.687 55.6587 964.218 55.872C963.749 56.0853 963.205 56.192 962.586 56.192Z" fill="white"/>
<path d="M147.492 63.3794V48.4794H153.792C154.819 48.4794 155.699 48.6527 156.432 48.9994C157.166 49.3461 157.726 49.8461 158.112 50.4994C158.499 51.1394 158.692 51.9194 158.692 52.8394C158.692 53.4927 158.512 54.1194 158.152 54.7194C157.792 55.3061 157.199 55.7994 156.372 56.1994V54.6794C157.159 54.9861 157.766 55.3527 158.192 55.7794C158.619 56.2061 158.912 56.6727 159.072 57.1794C159.232 57.6727 159.312 58.1927 159.312 58.7394C159.312 60.2061 158.826 61.3461 157.852 62.1594C156.879 62.9727 155.526 63.3794 153.792 63.3794H147.492ZM150.592 60.6794H154.152C154.779 60.6794 155.279 60.4994 155.652 60.1394C156.026 59.7794 156.212 59.3127 156.212 58.7394C156.212 58.1527 156.026 57.6794 155.652 57.3194C155.279 56.9594 154.779 56.7794 154.152 56.7794H150.592V60.6794ZM150.592 54.0794H154.012C154.492 54.0794 154.872 53.9461 155.152 53.6794C155.446 53.3994 155.592 53.0327 155.592 52.5794C155.592 52.1261 155.446 51.7661 155.152 51.4994C154.872 51.2194 154.492 51.0794 154.012 51.0794H150.592V54.0794ZM166.501 63.6194C165.421 63.6194 164.434 63.3727 163.541 62.8794C162.661 62.3861 161.954 61.7127 161.421 60.8594C160.901 59.9927 160.641 59.0127 160.641 57.9194C160.641 56.8127 160.901 55.8327 161.421 54.9794C161.954 54.1261 162.661 53.4527 163.541 52.9594C164.434 52.4661 165.421 52.2194 166.501 52.2194C167.581 52.2194 168.561 52.4661 169.441 52.9594C170.321 53.4527 171.021 54.1261 171.541 54.9794C172.074 55.8327 172.341 56.8127 172.341 57.9194C172.341 59.0127 172.074 59.9927 171.541 60.8594C171.021 61.7127 170.321 62.3861 169.441 62.8794C168.561 63.3727 167.581 63.6194 166.501 63.6194ZM166.501 60.9194C167.048 60.9194 167.521 60.7927 167.921 60.5394C168.334 60.2861 168.654 59.9327 168.881 59.4794C169.121 59.0261 169.241 58.5061 169.241 57.9194C169.241 57.3327 169.121 56.8194 168.881 56.3794C168.654 55.9261 168.334 55.5727 167.921 55.3194C167.521 55.0527 167.048 54.9194 166.501 54.9194C165.954 54.9194 165.474 55.0527 165.061 55.3194C164.648 55.5727 164.321 55.9261 164.081 56.3794C163.854 56.8194 163.741 57.3327 163.741 57.9194C163.741 58.5061 163.854 59.0261 164.081 59.4794C164.321 59.9327 164.648 60.2861 165.061 60.5394C165.474 60.7927 165.954 60.9194 166.501 60.9194ZM178.028 63.6194C177.148 63.6194 176.395 63.4327 175.768 63.0594C175.155 62.6727 174.688 62.1394 174.368 61.4594C174.048 60.7794 173.888 59.9861 173.888 59.0794V52.4594H176.888V58.8394C176.888 59.2527 176.968 59.6194 177.128 59.9394C177.302 60.2461 177.542 60.4861 177.848 60.6594C178.155 60.8327 178.502 60.9194 178.888 60.9194C179.288 60.9194 179.635 60.8327 179.928 60.6594C180.235 60.4861 180.468 60.2461 180.628 59.9394C180.802 59.6194 180.888 59.2527 180.888 58.8394V52.4594H183.888V63.3794H181.088V61.2194L181.248 61.6994C180.995 62.3527 180.582 62.8394 180.008 63.1594C179.448 63.4661 178.788 63.6194 178.028 63.6194ZM186.081 63.3794V52.4594H188.881V54.6194L188.721 54.1394C188.974 53.4861 189.381 53.0061 189.941 52.6994C190.514 52.3794 191.181 52.2194 191.941 52.2194C192.768 52.2194 193.488 52.3927 194.101 52.7394C194.728 53.0861 195.214 53.5727 195.561 54.1994C195.908 54.8127 196.081 55.5327 196.081 56.3594V63.3794H193.081V56.9994C193.081 56.5727 192.994 56.2061 192.821 55.8994C192.661 55.5927 192.428 55.3527 192.121 55.1794C191.828 55.0061 191.481 54.9194 191.081 54.9194C190.694 54.9194 190.348 55.0061 190.041 55.1794C189.734 55.3527 189.494 55.5927 189.321 55.8994C189.161 56.2061 189.081 56.5727 189.081 56.9994V63.3794H186.081ZM203.194 63.6194C202.127 63.6194 201.174 63.3661 200.334 62.8594C199.494 62.3527 198.827 61.6661 198.334 60.7994C197.854 59.9327 197.614 58.9727 197.614 57.9194C197.614 56.8527 197.86 55.8927 198.354 55.0394C198.847 54.1727 199.514 53.4861 200.354 52.9794C201.194 52.4727 202.134 52.2194 203.174 52.2194C203.974 52.2194 204.68 52.3727 205.294 52.6794C205.92 52.9727 206.414 53.3927 206.774 53.9394L206.314 54.5394V48.2394H209.314V63.3794H206.514V61.3794L206.794 61.9994C206.42 62.5327 205.914 62.9394 205.274 63.2194C204.634 63.4861 203.94 63.6194 203.194 63.6194ZM203.554 60.9194C204.1 60.9194 204.58 60.7927 204.994 60.5394C205.407 60.2861 205.727 59.9327 205.954 59.4794C206.194 59.0261 206.314 58.5061 206.314 57.9194C206.314 57.3327 206.194 56.8127 205.954 56.3594C205.727 55.9061 205.407 55.5527 204.994 55.2994C204.58 55.0461 204.1 54.9194 203.554 54.9194C203.007 54.9194 202.514 55.0527 202.074 55.3194C201.647 55.5727 201.314 55.9261 201.074 56.3794C200.834 56.8194 200.714 57.3327 200.714 57.9194C200.714 58.5061 200.834 59.0261 201.074 59.4794C201.314 59.9327 201.647 60.2861 202.074 60.5394C202.514 60.7927 203.007 60.9194 203.554 60.9194ZM211.511 63.3794V48.2394H214.511V63.3794H211.511ZM221.966 63.6194C220.806 63.6194 219.799 63.3661 218.946 62.8594C218.093 62.3394 217.433 61.6461 216.966 60.7794C216.499 59.9127 216.266 58.9527 216.266 57.8994C216.266 56.8061 216.506 55.8327 216.986 54.9794C217.479 54.1261 218.139 53.4527 218.966 52.9594C219.793 52.4661 220.726 52.2194 221.766 52.2194C222.633 52.2194 223.399 52.3594 224.066 52.6394C224.733 52.9061 225.293 53.2861 225.746 53.7794C226.213 54.2727 226.566 54.8461 226.806 55.4994C227.046 56.1394 227.166 56.8394 227.166 57.5994C227.166 57.8127 227.153 58.0261 227.126 58.2394C227.113 58.4394 227.079 58.6127 227.026 58.7594H218.846V56.5594H225.326L223.906 57.5994C224.039 57.0261 224.033 56.5194 223.886 56.0794C223.739 55.6261 223.479 55.2727 223.106 55.0194C222.746 54.7527 222.299 54.6194 221.766 54.6194C221.246 54.6194 220.799 54.7461 220.426 54.9994C220.053 55.2527 219.773 55.6261 219.586 56.1194C219.399 56.6127 219.326 57.2127 219.366 57.9194C219.313 58.5327 219.386 59.0727 219.586 59.5394C219.786 60.0061 220.093 60.3727 220.506 60.6394C220.919 60.8927 221.419 61.0194 222.006 61.0194C222.539 61.0194 222.993 60.9127 223.366 60.6994C223.753 60.4861 224.053 60.1927 224.266 59.8194L226.666 60.9594C226.453 61.4927 226.113 61.9594 225.646 62.3594C225.193 62.7594 224.653 63.0727 224.026 63.2994C223.399 63.5127 222.713 63.6194 221.966 63.6194ZM233.213 63.6194C232.013 63.6194 230.966 63.3394 230.073 62.7794C229.193 62.2061 228.593 61.4394 228.273 60.4794L230.473 59.4394C230.753 60.0261 231.133 60.4861 231.613 60.8194C232.093 61.1527 232.626 61.3194 233.213 61.3194C233.639 61.3194 233.966 61.2327 234.193 61.0594C234.419 60.8861 234.533 60.6461 234.533 60.3394C234.533 60.1794 234.493 60.0461 234.413 59.9394C234.333 59.8194 234.213 59.7127 234.053 59.6194C233.893 59.5261 233.693 59.4461 233.453 59.3794L231.593 58.8594C230.699 58.6061 230.013 58.1994 229.533 57.6394C229.053 57.0661 228.813 56.3927 228.813 55.6194C228.813 54.9394 228.986 54.3461 229.333 53.8394C229.679 53.3327 230.166 52.9394 230.793 52.6594C231.419 52.3661 232.139 52.2194 232.953 52.2194C234.019 52.2194 234.953 52.4727 235.753 52.9794C236.566 53.4727 237.139 54.1727 237.473 55.0794L235.253 56.1194C235.093 55.6661 234.799 55.3061 234.373 55.0394C233.959 54.7594 233.486 54.6194 232.953 54.6194C232.566 54.6194 232.259 54.6994 232.033 54.8594C231.819 55.0194 231.713 55.2394 231.713 55.5194C231.713 55.6661 231.753 55.7994 231.833 55.9194C231.913 56.0394 232.039 56.1461 232.213 56.2394C232.399 56.3327 232.626 56.4194 232.893 56.4994L234.633 57.0194C235.539 57.2861 236.233 57.6927 236.713 58.2394C237.193 58.7727 237.433 59.4327 237.433 60.2194C237.433 60.8994 237.253 61.4927 236.893 61.9994C236.546 62.5061 236.059 62.9061 235.433 63.1994C234.806 63.4794 234.066 63.6194 233.213 63.6194ZM243.506 63.6194C242.306 63.6194 241.259 63.3394 240.366 62.7794C239.486 62.2061 238.886 61.4394 238.566 60.4794L240.766 59.4394C241.046 60.0261 241.426 60.4861 241.906 60.8194C242.386 61.1527 242.919 61.3194 243.506 61.3194C243.932 61.3194 244.259 61.2327 244.486 61.0594C244.712 60.8861 244.826 60.6461 244.826 60.3394C244.826 60.1794 244.786 60.0461 244.706 59.9394C244.626 59.8194 244.506 59.7127 244.346 59.6194C244.186 59.5261 243.986 59.4461 243.746 59.3794L241.886 58.8594C240.992 58.6061 240.306 58.1994 239.826 57.6394C239.346 57.0661 239.106 56.3927 239.106 55.6194C239.106 54.9394 239.279 54.3461 239.626 53.8394C239.972 53.3327 240.459 52.9394 241.086 52.6594C241.712 52.3661 242.432 52.2194 243.246 52.2194C244.312 52.2194 245.246 52.4727 246.046 52.9794C246.859 53.4727 247.432 54.1727 247.766 55.0794L245.546 56.1194C245.386 55.6661 245.092 55.3061 244.666 55.0394C244.252 54.7594 243.779 54.6194 243.246 54.6194C242.859 54.6194 242.552 54.6994 242.326 54.8594C242.112 55.0194 242.006 55.2394 242.006 55.5194C242.006 55.6661 242.046 55.7994 242.126 55.9194C242.206 56.0394 242.332 56.1461 242.506 56.2394C242.692 56.3327 242.919 56.4194 243.186 56.4994L244.926 57.0194C245.832 57.2861 246.526 57.6927 247.006 58.2394C247.486 58.7727 247.726 59.4327 247.726 60.2194C247.726 60.8994 247.546 61.4927 247.186 61.9994C246.839 62.5061 246.352 62.9061 245.726 63.1994C245.099 63.4794 244.359 63.6194 243.506 63.6194Z" fill="#B3FF4A"/>
<g filter="url(#filter0_i_217_83885)">
<circle cx="104" cy="50" r="38" fill="#02160F"/>
</g>
<g filter="url(#filter1_f_217_83885)">
<circle cx="103.739" cy="52.1133" r="25.113" fill="#B3FFCC" fill-opacity="0.2"/>
</g>
<path d="M104.675 48.5599C104.732 49.2485 104.761 49.765 104.761 50.1094C104.761 51.6876 104.547 53.2227 104.119 54.7148C103.606 56.4365 102.836 58.029 101.809 59.4925C100.383 61.5011 98.6002 63.0793 96.461 64.227C94.2363 65.4035 91.8832 65.9918 89.4018 65.9918C86.6067 65.9918 84.0255 65.2887 81.6581 63.8827C79.2908 62.448 77.4226 60.5111 76.0536 58.0721C74.6845 55.6331 74 52.9788 74 50.1094C74 47.986 74.3993 45.9487 75.1979 43.9974C76.0251 42.0175 77.1232 40.3246 78.4922 38.9185C79.8613 37.4838 81.5013 36.3504 83.4122 35.5182C85.3232 34.6861 87.3197 34.27 89.4018 34.27C91.8832 34.27 94.2363 34.8583 96.461 36.0347C98.3149 37.039 99.9122 38.3733 101.253 40.0376C101.481 40.3246 101.452 40.5685 101.167 40.7693L96.2471 44.4709C96.0474 44.6144 95.8763 44.6 95.7337 44.4279C94.9351 43.4809 93.9796 42.7492 92.8672 42.2327C91.7549 41.7162 90.5998 41.458 89.4018 41.458C87.063 41.458 85.0665 42.3045 83.4122 43.9974C81.7865 45.6904 80.9736 47.7277 80.9736 50.1094C80.9736 52.491 81.7865 54.5283 83.4122 56.2213C85.0665 57.9143 87.063 58.7608 89.4018 58.7608C90.7138 58.7608 91.9545 58.4738 93.1239 57.8999C94.2933 57.2973 95.2916 56.4508 96.1187 55.3605C96.2043 55.217 96.2043 55.0879 96.1187 54.9731C96.0617 54.8296 95.9619 54.7579 95.8193 54.7579H88.6317C88.375 54.7579 88.2467 54.6287 88.2467 54.3705V48.6029C88.2467 48.3447 88.375 48.2155 88.6317 48.2155H104.29C104.518 48.2155 104.647 48.3303 104.675 48.5599Z" fill="#B3FF4A"/>
<path d="M118.109 41.9745C119.763 41.9745 121.332 42.2901 122.815 42.9214C124.298 43.5527 125.568 44.3992 126.623 45.4609C127.707 46.5226 128.562 47.7995 129.19 49.2916C129.846 50.755 130.174 52.2901 130.174 53.897C130.174 57.1969 128.99 60.0233 126.623 62.3763C124.284 64.7005 121.446 65.8626 118.109 65.8626C114.801 65.8626 111.963 64.7005 109.595 62.3763C107.257 60.0233 106.087 57.1969 106.087 53.897C106.087 50.5972 107.257 47.7851 109.595 45.4609C111.963 43.1366 114.801 41.9745 118.109 41.9745ZM118.109 59.1051C119.564 59.1051 120.804 58.6029 121.831 57.5986C122.858 56.5656 123.371 55.3318 123.371 53.897C123.371 52.4623 122.858 51.2428 121.831 50.2385C120.804 49.2055 119.564 48.689 118.109 48.689C116.683 48.689 115.457 49.2055 114.43 50.2385C113.403 51.2428 112.89 52.4623 112.89 53.897C112.89 54.844 113.118 55.7191 113.574 56.5226C114.059 57.326 114.701 57.9573 115.499 58.4164C116.298 58.8755 117.168 59.1051 118.109 59.1051Z" fill="#B3FF4A"/>
<path d="M131.479 48.1406C131.84 47.9775 132.003 47.5513 131.823 47.1978C130.411 44.4261 128.183 42.1537 125.439 40.6885C125.089 40.5016 124.66 40.6557 124.49 41.014C124.32 41.3723 124.473 41.799 124.822 41.9875C127.259 43.3046 129.243 45.327 130.512 47.7892C130.694 48.1418 131.117 48.3037 131.479 48.1406Z" fill="#B3FF4A"/>
<path d="M132.805 44.8776C133.149 44.6795 133.268 44.2392 133.054 43.9054C131.963 42.2053 130.545 40.7396 128.881 39.5941C128.554 39.3691 128.11 39.4741 127.901 39.811C127.692 40.1479 127.797 40.5892 128.122 40.8157C129.586 41.8343 130.838 43.1278 131.808 44.624C132.024 44.9568 132.462 45.0758 132.805 44.8776Z" fill="#B3FF4A"/>
<path d="M133.78 41.3774C134.096 41.1377 134.159 40.686 133.905 40.3817C133.428 39.8115 132.911 39.2771 132.356 38.7827C132.06 38.5188 131.606 38.5677 131.357 38.8759C131.107 39.1842 131.156 39.635 131.451 39.9003C131.917 40.3202 132.355 40.7714 132.759 41.251C133.015 41.554 133.464 41.6172 133.78 41.3774Z" fill="#B3FF4A"/>
<path d="M130.104 55.3127C125.333 55.1588 125.148 57.6261 127.461 61.2606" stroke="url(#paint0_linear_217_83885)" stroke-width="0.5" stroke-linecap="round"/>
<path d="M106.313 56.3041C110.554 55.6932 112.032 55.9451 111.6 60.2696C111.27 63.5737 114.027 65.2566 118.539 63.9041C120.191 63.4088 120.356 63.9367 120.191 65.5562" stroke="url(#paint1_linear_217_83885)" stroke-width="0.5" stroke-linecap="round"/>
<path d="M112.591 42.7566C112.223 45.446 114.243 47.3827 117.878 45.7305C119.632 44.933 121.77 44.2796 123.165 46.7218C124.487 49.0349 124.817 51.6783 128.783 48.0435" stroke="url(#paint2_linear_217_83885)" stroke-width="0.5" stroke-linecap="round"/>
<circle cx="1354.5" cy="49.5" r="18.5" fill="white" fill-opacity="0.2"/>
<path d="M1345 41L1345.26 41.0883C1346.58 41.5283 1347.24 41.7483 1347.62 42.2721C1348 42.7959 1348 43.4916 1348 44.883V47.5C1348 50.3284 1348 51.7426 1348.88 52.6213C1349.76 53.5 1351.17 53.5 1354 53.5H1356M1362 53.5H1360" stroke="#B3FF4A" stroke-width="1.5" stroke-linecap="round"/>
<path d="M1350.5 56C1351.33 56 1352 56.6716 1352 57.5C1352 58.3284 1351.33 59 1350.5 59C1349.67 59 1349 58.3284 1349 57.5C1349 56.6716 1349.67 56 1350.5 56Z" stroke="#B3FF4A" stroke-width="1.5"/>
<path d="M1359.5 56.0001C1360.33 56.0001 1361 56.6716 1361 57.5001C1361 58.3285 1360.33 59.0001 1359.5 59.0001C1358.67 59.0001 1358 58.3285 1358 57.5001C1358 56.6716 1358.67 56.0001 1359.5 56.0001Z" stroke="#B3FF4A" stroke-width="1.5"/>
<path d="M1348 44H1351M1348.5 51H1359.02C1359.98 51 1360.46 51 1360.84 50.7523C1361.21 50.5045 1361.4 50.0636 1361.78 49.1818L1362.21 48.1818C1363.02 46.2929 1363.42 45.3485 1362.98 44.6743C1362.53 44 1361.51 44 1359.45 44H1355" stroke="#B3FF4A" stroke-width="1.5" stroke-linecap="round"/>
</g>
<defs>
<filter id="filter0_i_217_83885" x="66" y="12" width="77" height="77" filterUnits="userSpaceOnUse" color-interpolation-filters="sRGB">
<feFlood flood-opacity="0" result="BackgroundImageFix"/>
<feBlend mode="normal" in="SourceGraphic" in2="BackgroundImageFix" result="shape"/>
<feColorMatrix in="SourceAlpha" type="matrix" values="0 0 0 0 0 0 0 0 0 0 0 0 0 0 0 0 0 0 127 0" result="hardAlpha"/>
<feOffset dx="1" dy="1"/>
<feGaussianBlur stdDeviation="5"/>
<feComposite in2="hardAlpha" operator="arithmetic" k2="-1" k3="1"/>
<feColorMatrix type="matrix" values="0 0 0 0 0 0 0 0 0 0 0 0 0 0 0 0 0 0 0.25 0"/>
<feBlend mode="normal" in2="shape" result="effect1_innerShadow_217_83885"/>
</filter>
<filter id="filter1_f_217_83885" x="48.6261" y="-2.99976" width="110.226" height="110.226" filterUnits="userSpaceOnUse" color-interpolation-filters="sRGB">
<feFlood flood-opacity="0" result="BackgroundImageFix"/>
<feBlend mode="normal" in="SourceGraphic" in2="BackgroundImageFix" result="shape"/>
<feGaussianBlur stdDeviation="15" result="effect1_foregroundBlur_217_83885"/>
</filter>
<linearGradient id="paint0_linear_217_83885" x1="126.278" y1="55.6291" x2="130.101" y2="58.8521" gradientUnits="userSpaceOnUse">
<stop stop-color="#0E261C"/>
<stop offset="0.834738" stop-color="#0F271D"/>
</linearGradient>
<linearGradient id="paint1_linear_217_83885" x1="107.2" y1="56.647" x2="120.983" y2="65.8769" gradientUnits="userSpaceOnUse">
<stop stop-color="#264536"/>
<stop offset="1" stop-color="#163025"/>
</linearGradient>
<linearGradient id="paint2_linear_217_83885" x1="112.922" y1="42.7566" x2="125.121" y2="54.98" gradientUnits="userSpaceOnUse">
<stop stop-color="#234132"/>
<stop offset="1" stop-color="#0E261C"/>
</linearGradient>
<clipPath id="clip0_217_83885">
<rect width="1440" height="100" fill="white"/>
</clipPath>
<clipPath id="clip1_217_83885">
<rect width="24" height="25" fill="white" transform="translate(1127.44 40)"/>
</clipPath>
</defs>
</svg>
