<svg width="41" height="40" viewBox="0 0 41 40" fill="none" xmlns="http://www.w3.org/2000/svg">
<ellipse cx="20.1869" cy="20" rx="20.1869" ry="20" fill="#B3FF4A" fill-opacity="0.2"/>
<ellipse cx="20.1871" cy="20" rx="12.1122" ry="12" fill="white"/>
<mask id="path-3-inside-1_2007_10023" fill="white">
<path d="M27.9989 17.2429C27.4252 15.5366 26.3691 14.0598 24.9748 13.0141C23.5806 11.9684 21.9161 11.4047 20.2087 11.3999C18.5012 11.3952 16.834 11.9497 15.4346 12.9877C14.0352 14.0257 12.9719 15.4966 12.3898 17.1996L13.3266 17.5601C13.8388 16.0617 14.7744 14.7675 16.0056 13.8542C17.2369 12.9409 18.7038 12.453 20.2061 12.4572C21.7084 12.4614 23.1729 12.9573 24.3996 13.8774C25.6263 14.7975 26.5555 16.0969 27.0604 17.5981L27.9989 17.2429Z"/>
</mask>
<path d="M27.9989 17.2429C27.4252 15.5366 26.3691 14.0598 24.9748 13.0141C23.5806 11.9684 21.9161 11.4047 20.2087 11.3999C18.5012 11.3952 16.834 11.9497 15.4346 12.9877C14.0352 14.0257 12.9719 15.4966 12.3898 17.1996L13.3266 17.5601C13.8388 16.0617 14.7744 14.7675 16.0056 13.8542C17.2369 12.9409 18.7038 12.453 20.2061 12.4572C21.7084 12.4614 23.1729 12.9573 24.3996 13.8774C25.6263 14.7975 26.5555 16.0969 27.0604 17.5981L27.9989 17.2429Z" stroke="#02160F" stroke-width="6" mask="url(#path-3-inside-1_2007_10023)"/>
<mask id="path-4-inside-2_2007_10023" fill="white">
<path d="M24.7796 26.8311C25.7822 26.0306 26.6005 24.9991 27.1729 23.8144C27.7453 22.6297 28.0569 21.3227 28.0842 19.9917L27.1091 19.9692C27.085 21.1436 26.81 22.297 26.3049 23.3424C25.7998 24.3877 25.0778 25.2979 24.1931 26.0043L24.7796 26.8311Z"/>
</mask>
<path d="M24.7796 26.8311C25.7822 26.0306 26.6005 24.9991 27.1729 23.8144C27.7453 22.6297 28.0569 21.3227 28.0842 19.9917L27.1091 19.9692C27.085 21.1436 26.81 22.297 26.3049 23.3424C25.7998 24.3877 25.0778 25.2979 24.1931 26.0043L24.7796 26.8311Z" stroke="#02160F" stroke-width="2" mask="url(#path-4-inside-2_2007_10023)"/>
<rect x="11.6028" y="17.5" width="2.15969" height="3" rx="0.5" stroke="#02160F"/>
<rect x="26.6113" y="17.5" width="2.15969" height="3" rx="0.5" stroke="#02160F"/>
<ellipse cx="23.3467" cy="26.9999" rx="1.57985" ry="1.6" fill="#02160F"/>
<path d="M25.2164 19.3998C25.2164 22.2225 22.9587 24.4998 20.1869 24.4998C17.4152 24.4998 15.1575 22.2225 15.1575 19.3998C15.1575 16.5772 17.4152 14.2998 20.1869 14.2998C22.9587 14.2998 25.2164 16.5772 25.2164 19.3998Z" stroke="#02160F"/>
<ellipse cx="17.9079" cy="19.4591" rx="0.453299" ry="0.459082" fill="#02160F"/>
<ellipse cx="20.1745" cy="19.4591" rx="0.453299" ry="0.459082" fill="#02160F"/>
<ellipse cx="22.4408" cy="19.4591" rx="0.453299" ry="0.459082" fill="#02160F"/>
</svg>
