<svg width="202" height="100" viewBox="0 0 202 100" fill="none" xmlns="http://www.w3.org/2000/svg">
<path d="M99.4924 63.3794V48.4794H105.792C106.819 48.4794 107.699 48.6527 108.432 48.9994C109.166 49.3461 109.726 49.8461 110.112 50.4994C110.499 51.1394 110.692 51.9194 110.692 52.8394C110.692 53.4927 110.512 54.1194 110.152 54.7194C109.792 55.3061 109.199 55.7994 108.372 56.1994V54.6794C109.159 54.9861 109.766 55.3527 110.192 55.7794C110.619 56.2061 110.912 56.6727 111.072 57.1794C111.232 57.6727 111.312 58.1927 111.312 58.7394C111.312 60.2061 110.826 61.3461 109.852 62.1594C108.879 62.9727 107.526 63.3794 105.792 63.3794H99.4924ZM102.592 60.6794H106.152C106.779 60.6794 107.279 60.4994 107.652 60.1394C108.026 59.7794 108.212 59.3127 108.212 58.7394C108.212 58.1527 108.026 57.6794 107.652 57.3194C107.279 56.9594 106.779 56.7794 106.152 56.7794H102.592V60.6794ZM102.592 54.0794H106.012C106.492 54.0794 106.872 53.9461 107.152 53.6794C107.446 53.3994 107.592 53.0327 107.592 52.5794C107.592 52.1261 107.446 51.7661 107.152 51.4994C106.872 51.2194 106.492 51.0794 106.012 51.0794H102.592V54.0794ZM118.501 63.6194C117.421 63.6194 116.434 63.3727 115.541 62.8794C114.661 62.3861 113.954 61.7127 113.421 60.8594C112.901 59.9927 112.641 59.0127 112.641 57.9194C112.641 56.8127 112.901 55.8327 113.421 54.9794C113.954 54.1261 114.661 53.4527 115.541 52.9594C116.434 52.4661 117.421 52.2194 118.501 52.2194C119.581 52.2194 120.561 52.4661 121.441 52.9594C122.321 53.4527 123.021 54.1261 123.541 54.9794C124.074 55.8327 124.341 56.8127 124.341 57.9194C124.341 59.0127 124.074 59.9927 123.541 60.8594C123.021 61.7127 122.321 62.3861 121.441 62.8794C120.561 63.3727 119.581 63.6194 118.501 63.6194ZM118.501 60.9194C119.048 60.9194 119.521 60.7927 119.921 60.5394C120.334 60.2861 120.654 59.9327 120.881 59.4794C121.121 59.0261 121.241 58.5061 121.241 57.9194C121.241 57.3327 121.121 56.8194 120.881 56.3794C120.654 55.9261 120.334 55.5727 119.921 55.3194C119.521 55.0527 119.048 54.9194 118.501 54.9194C117.954 54.9194 117.474 55.0527 117.061 55.3194C116.648 55.5727 116.321 55.9261 116.081 56.3794C115.854 56.8194 115.741 57.3327 115.741 57.9194C115.741 58.5061 115.854 59.0261 116.081 59.4794C116.321 59.9327 116.648 60.2861 117.061 60.5394C117.474 60.7927 117.954 60.9194 118.501 60.9194ZM130.028 63.6194C129.148 63.6194 128.395 63.4327 127.768 63.0594C127.155 62.6727 126.688 62.1394 126.368 61.4594C126.048 60.7794 125.888 59.9861 125.888 59.0794V52.4594H128.888V58.8394C128.888 59.2527 128.968 59.6194 129.128 59.9394C129.302 60.2461 129.542 60.4861 129.848 60.6594C130.155 60.8327 130.502 60.9194 130.888 60.9194C131.288 60.9194 131.635 60.8327 131.928 60.6594C132.235 60.4861 132.468 60.2461 132.628 59.9394C132.802 59.6194 132.888 59.2527 132.888 58.8394V52.4594H135.888V63.3794H133.088V61.2194L133.248 61.6994C132.995 62.3527 132.582 62.8394 132.008 63.1594C131.448 63.4661 130.788 63.6194 130.028 63.6194ZM138.081 63.3794V52.4594H140.881V54.6194L140.721 54.1394C140.974 53.4861 141.381 53.0061 141.941 52.6994C142.514 52.3794 143.181 52.2194 143.941 52.2194C144.768 52.2194 145.488 52.3927 146.101 52.7394C146.728 53.0861 147.214 53.5727 147.561 54.1994C147.908 54.8127 148.081 55.5327 148.081 56.3594V63.3794H145.081V56.9994C145.081 56.5727 144.994 56.2061 144.821 55.8994C144.661 55.5927 144.428 55.3527 144.121 55.1794C143.828 55.0061 143.481 54.9194 143.081 54.9194C142.694 54.9194 142.348 55.0061 142.041 55.1794C141.734 55.3527 141.494 55.5927 141.321 55.8994C141.161 56.2061 141.081 56.5727 141.081 56.9994V63.3794H138.081ZM155.194 63.6194C154.127 63.6194 153.174 63.3661 152.334 62.8594C151.494 62.3527 150.827 61.6661 150.334 60.7994C149.854 59.9327 149.614 58.9727 149.614 57.9194C149.614 56.8527 149.86 55.8927 150.354 55.0394C150.847 54.1727 151.514 53.4861 152.354 52.9794C153.194 52.4727 154.134 52.2194 155.174 52.2194C155.974 52.2194 156.68 52.3727 157.294 52.6794C157.92 52.9727 158.414 53.3927 158.774 53.9394L158.314 54.5394V48.2394H161.314V63.3794H158.514V61.3794L158.794 61.9994C158.42 62.5327 157.914 62.9394 157.274 63.2194C156.634 63.4861 155.94 63.6194 155.194 63.6194ZM155.554 60.9194C156.1 60.9194 156.58 60.7927 156.994 60.5394C157.407 60.2861 157.727 59.9327 157.954 59.4794C158.194 59.0261 158.314 58.5061 158.314 57.9194C158.314 57.3327 158.194 56.8127 157.954 56.3594C157.727 55.9061 157.407 55.5527 156.994 55.2994C156.58 55.0461 156.1 54.9194 155.554 54.9194C155.007 54.9194 154.514 55.0527 154.074 55.3194C153.647 55.5727 153.314 55.9261 153.074 56.3794C152.834 56.8194 152.714 57.3327 152.714 57.9194C152.714 58.5061 152.834 59.0261 153.074 59.4794C153.314 59.9327 153.647 60.2861 154.074 60.5394C154.514 60.7927 155.007 60.9194 155.554 60.9194ZM163.511 63.3794V48.2394H166.511V63.3794H163.511ZM173.966 63.6194C172.806 63.6194 171.799 63.3661 170.946 62.8594C170.093 62.3394 169.433 61.6461 168.966 60.7794C168.499 59.9127 168.266 58.9527 168.266 57.8994C168.266 56.8061 168.506 55.8327 168.986 54.9794C169.479 54.1261 170.139 53.4527 170.966 52.9594C171.793 52.4661 172.726 52.2194 173.766 52.2194C174.633 52.2194 175.399 52.3594 176.066 52.6394C176.733 52.9061 177.293 53.2861 177.746 53.7794C178.213 54.2727 178.566 54.8461 178.806 55.4994C179.046 56.1394 179.166 56.8394 179.166 57.5994C179.166 57.8127 179.153 58.0261 179.126 58.2394C179.113 58.4394 179.079 58.6127 179.026 58.7594H170.846V56.5594H177.326L175.906 57.5994C176.039 57.0261 176.033 56.5194 175.886 56.0794C175.739 55.6261 175.479 55.2727 175.106 55.0194C174.746 54.7527 174.299 54.6194 173.766 54.6194C173.246 54.6194 172.799 54.7461 172.426 54.9994C172.053 55.2527 171.773 55.6261 171.586 56.1194C171.399 56.6127 171.326 57.2127 171.366 57.9194C171.313 58.5327 171.386 59.0727 171.586 59.5394C171.786 60.0061 172.093 60.3727 172.506 60.6394C172.919 60.8927 173.419 61.0194 174.006 61.0194C174.539 61.0194 174.993 60.9127 175.366 60.6994C175.753 60.4861 176.053 60.1927 176.266 59.8194L178.666 60.9594C178.453 61.4927 178.113 61.9594 177.646 62.3594C177.193 62.7594 176.653 63.0727 176.026 63.2994C175.399 63.5127 174.713 63.6194 173.966 63.6194ZM185.213 63.6194C184.013 63.6194 182.966 63.3394 182.073 62.7794C181.193 62.2061 180.593 61.4394 180.273 60.4794L182.473 59.4394C182.753 60.0261 183.133 60.4861 183.613 60.8194C184.093 61.1527 184.626 61.3194 185.213 61.3194C185.639 61.3194 185.966 61.2327 186.193 61.0594C186.419 60.8861 186.533 60.6461 186.533 60.3394C186.533 60.1794 186.493 60.0461 186.413 59.9394C186.333 59.8194 186.213 59.7127 186.053 59.6194C185.893 59.5261 185.693 59.4461 185.453 59.3794L183.593 58.8594C182.699 58.6061 182.013 58.1994 181.533 57.6394C181.053 57.0661 180.813 56.3927 180.813 55.6194C180.813 54.9394 180.986 54.3461 181.333 53.8394C181.679 53.3327 182.166 52.9394 182.793 52.6594C183.419 52.3661 184.139 52.2194 184.953 52.2194C186.019 52.2194 186.953 52.4727 187.753 52.9794C188.566 53.4727 189.139 54.1727 189.473 55.0794L187.253 56.1194C187.093 55.6661 186.799 55.3061 186.373 55.0394C185.959 54.7594 185.486 54.6194 184.953 54.6194C184.566 54.6194 184.259 54.6994 184.033 54.8594C183.819 55.0194 183.713 55.2394 183.713 55.5194C183.713 55.6661 183.753 55.7994 183.833 55.9194C183.913 56.0394 184.039 56.1461 184.213 56.2394C184.399 56.3327 184.626 56.4194 184.893 56.4994L186.633 57.0194C187.539 57.2861 188.233 57.6927 188.713 58.2394C189.193 58.7727 189.433 59.4327 189.433 60.2194C189.433 60.8994 189.253 61.4927 188.893 61.9994C188.546 62.5061 188.059 62.9061 187.433 63.1994C186.806 63.4794 186.066 63.6194 185.213 63.6194ZM195.505 63.6194C194.305 63.6194 193.259 63.3394 192.365 62.7794C191.485 62.2061 190.885 61.4394 190.565 60.4794L192.765 59.4394C193.045 60.0261 193.425 60.4861 193.905 60.8194C194.385 61.1527 194.919 61.3194 195.505 61.3194C195.932 61.3194 196.259 61.2327 196.485 61.0594C196.712 60.8861 196.825 60.6461 196.825 60.3394C196.825 60.1794 196.785 60.0461 196.705 59.9394C196.625 59.8194 196.505 59.7127 196.345 59.6194C196.185 59.5261 195.985 59.4461 195.745 59.3794L193.885 58.8594C192.992 58.6061 192.305 58.1994 191.825 57.6394C191.345 57.0661 191.105 56.3927 191.105 55.6194C191.105 54.9394 191.279 54.3461 191.625 53.8394C191.972 53.3327 192.459 52.9394 193.085 52.6594C193.712 52.3661 194.432 52.2194 195.245 52.2194C196.312 52.2194 197.245 52.4727 198.045 52.9794C198.859 53.4727 199.432 54.1727 199.765 55.0794L197.545 56.1194C197.385 55.6661 197.092 55.3061 196.665 55.0394C196.252 54.7594 195.779 54.6194 195.245 54.6194C194.859 54.6194 194.552 54.6994 194.325 54.8594C194.112 55.0194 194.005 55.2394 194.005 55.5194C194.005 55.6661 194.045 55.7994 194.125 55.9194C194.205 56.0394 194.332 56.1461 194.505 56.2394C194.692 56.3327 194.919 56.4194 195.185 56.4994L196.925 57.0194C197.832 57.2861 198.525 57.6927 199.005 58.2394C199.485 58.7727 199.725 59.4327 199.725 60.2194C199.725 60.8994 199.545 61.4927 199.185 61.9994C198.839 62.5061 198.352 62.9061 197.725 63.1994C197.099 63.4794 196.359 63.6194 195.505 63.6194Z" fill="#B3FF4A"/>
<g filter="url(#filter0_i_2007_9890)">
<circle cx="56" cy="50" r="38" fill="#02160F"/>
</g>
<g filter="url(#filter1_f_2007_9890)">
<circle cx="55.7391" cy="52.1133" r="25.113" fill="#B3FFCC" fill-opacity="0.2"/>
</g>
<path d="M56.6753 48.5599C56.7324 49.2485 56.7609 49.765 56.7609 50.1094C56.7609 51.6876 56.547 53.2227 56.1191 54.7148C55.6058 56.4365 54.8357 58.029 53.8089 59.4925C52.3828 61.5011 50.6002 63.0793 48.461 64.227C46.2363 65.4035 43.8832 65.9918 41.4018 65.9918C38.6067 65.9918 36.0255 65.2887 33.6581 63.8827C31.2908 62.448 29.4226 60.5111 28.0536 58.0721C26.6845 55.6331 26 52.9788 26 50.1094C26 47.986 26.3993 45.9487 27.1979 43.9974C28.0251 42.0175 29.1232 40.3246 30.4922 38.9185C31.8613 37.4838 33.5013 36.3504 35.4122 35.5182C37.3232 34.6861 39.3197 34.27 41.4018 34.27C43.8832 34.27 46.2363 34.8583 48.461 36.0347C50.3149 37.039 51.9122 38.3733 53.2527 40.0376C53.4809 40.3246 53.4523 40.5685 53.1671 40.7693L48.2471 44.4709C48.0474 44.6144 47.8763 44.6 47.7337 44.4279C46.9351 43.4809 45.9796 42.7492 44.8672 42.2327C43.7549 41.7162 42.5998 41.458 41.4018 41.458C39.063 41.458 37.0665 42.3045 35.4122 43.9974C33.7865 45.6904 32.9736 47.7277 32.9736 50.1094C32.9736 52.491 33.7865 54.5283 35.4122 56.2213C37.0665 57.9143 39.063 58.7608 41.4018 58.7608C42.7138 58.7608 43.9545 58.4738 45.1239 57.8999C46.2933 57.2973 47.2916 56.4508 48.1187 55.3605C48.2043 55.217 48.2043 55.0879 48.1187 54.9731C48.0617 54.8296 47.9619 54.7579 47.8193 54.7579H40.6317C40.375 54.7579 40.2467 54.6287 40.2467 54.3705V48.6029C40.2467 48.3447 40.375 48.2155 40.6317 48.2155H56.2903C56.5185 48.2155 56.6468 48.3303 56.6753 48.5599Z" fill="#B3FF4A"/>
<path d="M70.1091 41.9745C71.7634 41.9745 73.3321 42.2901 74.8153 42.9214C76.2984 43.5527 77.5676 44.3992 78.6229 45.4609C79.7068 46.5226 80.5624 47.7995 81.1899 49.2916C81.8459 50.755 82.1739 52.2901 82.1739 53.897C82.1739 57.1969 80.9903 60.0233 78.6229 62.3763C76.2841 64.7005 73.4462 65.8626 70.1091 65.8626C66.8006 65.8626 63.9627 64.7005 61.5954 62.3763C59.2566 60.0233 58.0872 57.1969 58.0872 53.897C58.0872 50.5972 59.2566 47.7851 61.5954 45.4609C63.9627 43.1366 66.8006 41.9745 70.1091 41.9745ZM70.1091 59.1051C71.5638 59.1051 72.8045 58.6029 73.8313 57.5986C74.858 56.5656 75.3714 55.3318 75.3714 53.897C75.3714 52.4623 74.858 51.2428 73.8313 50.2385C72.8045 49.2055 71.5638 48.689 70.1091 48.689C68.6831 48.689 67.4566 49.2055 66.4298 50.2385C65.403 51.2428 64.8896 52.4623 64.8896 53.897C64.8896 54.844 65.1178 55.7191 65.5742 56.5226C66.059 57.326 66.7008 57.9573 67.4994 58.4164C68.298 58.8755 69.1679 59.1051 70.1091 59.1051Z" fill="#B3FF4A"/>
<path d="M83.4789 48.1406C83.8404 47.9775 84.0028 47.5513 83.8228 47.1978C82.4112 44.4261 80.1826 42.1537 77.439 40.6885C77.0891 40.5016 76.6598 40.6557 76.4897 41.014C76.3196 41.3723 76.4732 41.799 76.8221 41.9875C79.2592 43.3046 81.2426 45.327 82.5119 47.7892C82.6937 48.1418 83.1173 48.3037 83.4789 48.1406Z" fill="#B3FF4A"/>
<path d="M84.8054 44.8776C85.149 44.6795 85.2683 44.2392 85.0541 43.9054C83.9634 42.2053 82.5446 40.7396 80.8809 39.5941C80.5542 39.3691 80.1103 39.4741 79.9011 39.811C79.6918 40.1479 79.7966 40.5892 80.1221 40.8157C81.586 41.8343 82.838 43.1278 83.8085 44.624C84.0243 44.9568 84.4619 45.0758 84.8054 44.8776Z" fill="#B3FF4A"/>
<path d="M85.7804 41.3774C86.0964 41.1377 86.1595 40.686 85.9051 40.3817C85.4284 39.8115 84.9106 39.2771 84.3558 38.7827C84.0597 38.5188 83.6062 38.5677 83.3566 38.8759C83.107 39.1842 83.156 39.635 83.4508 39.9003C83.9173 40.3202 84.3546 40.7714 84.7595 41.251C85.0154 41.554 85.4644 41.6172 85.7804 41.3774Z" fill="#B3FF4A"/>
<path d="M82.1043 55.3127C77.3324 55.1588 77.1478 57.6261 79.4608 61.2606" stroke="url(#paint0_linear_2007_9890)" stroke-width="0.5" stroke-linecap="round"/>
<path d="M58.313 56.3041C62.5541 55.6932 64.0324 55.9451 63.5999 60.2696C63.2695 63.5737 66.0271 65.2566 70.5391 63.9041C72.1912 63.4088 72.356 63.9367 72.1912 65.5562" stroke="url(#paint1_linear_2007_9890)" stroke-width="0.5" stroke-linecap="round"/>
<path d="M64.5909 42.7566C64.2225 45.446 66.2434 47.3827 69.8778 45.7305C71.6322 44.933 73.7696 44.2796 75.1652 46.7218C76.4869 49.0349 76.8173 51.6783 80.7826 48.0435" stroke="url(#paint2_linear_2007_9890)" stroke-width="0.5" stroke-linecap="round"/>
<defs>
<filter id="filter0_i_2007_9890" x="18" y="12" width="77" height="77" filterUnits="userSpaceOnUse" color-interpolation-filters="sRGB">
<feFlood flood-opacity="0" result="BackgroundImageFix"/>
<feBlend mode="normal" in="SourceGraphic" in2="BackgroundImageFix" result="shape"/>
<feColorMatrix in="SourceAlpha" type="matrix" values="0 0 0 0 0 0 0 0 0 0 0 0 0 0 0 0 0 0 127 0" result="hardAlpha"/>
<feOffset dx="1" dy="1"/>
<feGaussianBlur stdDeviation="5"/>
<feComposite in2="hardAlpha" operator="arithmetic" k2="-1" k3="1"/>
<feColorMatrix type="matrix" values="0 0 0 0 0 0 0 0 0 0 0 0 0 0 0 0 0 0 0.25 0"/>
<feBlend mode="normal" in2="shape" result="effect1_innerShadow_2007_9890"/>
</filter>
<filter id="filter1_f_2007_9890" x="0.626099" y="-2.99976" width="110.226" height="110.226" filterUnits="userSpaceOnUse" color-interpolation-filters="sRGB">
<feFlood flood-opacity="0" result="BackgroundImageFix"/>
<feBlend mode="normal" in="SourceGraphic" in2="BackgroundImageFix" result="shape"/>
<feGaussianBlur stdDeviation="15" result="effect1_foregroundBlur_2007_9890"/>
</filter>
<linearGradient id="paint0_linear_2007_9890" x1="78.2781" y1="55.6291" x2="82.1007" y2="58.8521" gradientUnits="userSpaceOnUse">
<stop stop-color="#0E261C"/>
<stop offset="0.834738" stop-color="#0F271D"/>
</linearGradient>
<linearGradient id="paint1_linear_2007_9890" x1="59.1997" y1="56.647" x2="72.9833" y2="65.8769" gradientUnits="userSpaceOnUse">
<stop stop-color="#264536"/>
<stop offset="1" stop-color="#163025"/>
</linearGradient>
<linearGradient id="paint2_linear_2007_9890" x1="64.9217" y1="42.7566" x2="77.1209" y2="54.98" gradientUnits="userSpaceOnUse">
<stop stop-color="#234132"/>
<stop offset="1" stop-color="#0E261C"/>
</linearGradient>
</defs>
</svg>
