<svg width="138" height="138" viewBox="0 0 138 138" fill="none" xmlns="http://www.w3.org/2000/svg">
<path d="M64.0012 59C61.9119 57.4302 59.3146 56.5 56.5 56.5C49.5964 56.5 44 62.0964 44 69C44 73.089 45.9634 76.7194 48.9988 79M74 79C76.0892 80.5694 78.6858 81.5 81.5 81.5C88.4036 81.5 94 75.9036 94 69C94 64.911 92.0366 61.2806 89.0012 59" stroke="#02160F" stroke-width="3" stroke-linecap="round"/>
<path d="M56.5 81.5C63.4036 81.5 65.25 76.5 69 69C72.75 61.5 74.5964 56.5 81.5 56.5" stroke="#02160F" stroke-width="3" stroke-linecap="round"/>
<circle cx="68.5" cy="69.5" r="42.5" fill="#B3FF4A"/>
<circle cx="69" cy="69" r="69" fill="#B3FF4A" fill-opacity="0.2"/>
<path d="M48.0961 56.2911C46.6731 58.4614 45.5664 60.892 44.8581 63.5357C41.2845 76.8724 49.1991 90.5808 62.5357 94.1543C75.8724 97.7279 89.5808 89.8133 93.1544 76.4767C96.7279 63.14 88.8133 49.4316 75.4767 45.8581C68.8952 44.0946 62.2232 45.1288 56.7234 48.2316" stroke="#02160F" stroke-width="3" stroke-linecap="round"/>
<path d="M68.5062 82.5063V83.7563V85.0063" stroke="#02160F" stroke-width="1.5" stroke-linecap="round"/>
<path d="M68.5062 55.0063V56.2563V57.5063" stroke="#02160F" stroke-width="1.5" stroke-linecap="round"/>
<path d="M76.0062 63.7563C76.0062 60.3046 72.6484 57.5063 68.5062 57.5063C64.3641 57.5063 61.0062 60.3046 61.0062 63.7563C61.0062 67.2081 64.3641 70.0063 68.5062 70.0063C72.6484 70.0063 76.0062 72.8046 76.0062 76.2563C76.0062 79.7081 72.6484 82.5063 68.5062 82.5063C64.3641 82.5063 61.0062 79.7081 61.0062 76.2563" stroke="#02160F" stroke-width="3" stroke-linecap="round"/>
<path d="M54.0062 90.0063L81.0062 49.0063" stroke="#02160F" stroke-width="3"/>
</svg>
