<svg width="40" height="40" viewBox="0 0 40 40" fill="none" xmlns="http://www.w3.org/2000/svg">
<circle cx="20" cy="20" r="20" fill="#B3FF4A" fill-opacity="0.2"/>
<circle cx="20" cy="20" r="12" fill="white"/>
<path d="M13.3104 15.6122C12.8552 16.3066 12.5011 17.0842 12.2745 17.93C11.1313 22.1966 13.6633 26.5822 17.93 27.7255C22.1966 28.8687 26.5822 26.3367 27.7255 22.07C28.8687 17.8034 26.3367 13.4178 22.07 12.2745C19.9645 11.7103 17.83 12.0412 16.0705 13.0339" stroke="#02160F" stroke-width="1.5" stroke-linecap="round"/>
<path d="M19.8403 23.9991V24.399V24.7989" stroke="#02160F" stroke-width="1.5" stroke-linecap="round"/>
<path d="M19.8403 15.2012V15.6011V16.001" stroke="#02160F" stroke-width="1.5" stroke-linecap="round"/>
<path d="M22.2392 18.0004C22.2392 16.8961 21.165 16.0009 19.8398 16.0009C18.5147 16.0009 17.4404 16.8961 17.4404 18.0004C17.4404 19.1047 18.5147 19.9999 19.8398 19.9999C21.165 19.9999 22.2392 20.8951 22.2392 21.9994C22.2392 23.1037 21.165 23.9989 19.8398 23.9989C18.5147 23.9989 17.4404 23.1037 17.4404 21.9994" stroke="#02160F" stroke-width="1.5" stroke-linecap="round"/>
<path d="M15.2012 26.3984L23.839 13.2817" stroke="#02160F" stroke-width="1.5"/>
</svg>
