<svg width="41" height="40" viewBox="0 0 41 40" fill="none" xmlns="http://www.w3.org/2000/svg">
<ellipse cx="20.1869" cy="20" rx="20.1869" ry="20" fill="#B3FF4A" fill-opacity="0.2"/>
<ellipse cx="20.1871" cy="20.5" rx="12.1122" ry="12" fill="white"/>
<path d="M21 18.3335V21.0002L22.6667 22.6668" stroke="#02160F" stroke-linecap="round" stroke-linejoin="round"/>
<path d="M16.7362 16.7362L16.3826 16.3826H16.3826L16.7362 16.7362ZM15.8919 17.5804L15.3919 17.5829C15.3933 17.8571 15.6152 18.079 15.8894 18.0804L15.8919 17.5804ZM17.5864 18.0889C17.8626 18.0903 18.0875 17.8676 18.0889 17.5914C18.0903 17.3153 17.8676 17.0903 17.5914 17.0889L17.5864 18.0889ZM16.3834 15.8809C16.382 15.6047 16.157 15.382 15.8809 15.3834C15.6047 15.3848 15.382 15.6097 15.3834 15.8859L16.3834 15.8809ZM15.5 21C15.5 20.7239 15.2761 20.5 15 20.5C14.7239 20.5 14.5 20.7239 14.5 21H15.5ZM24.2504 26.6301C24.4894 26.4918 24.5711 26.186 24.4328 25.9469C24.2945 25.7079 23.9887 25.6262 23.7496 25.7645L24.2504 26.6301ZM25.7645 23.7496C25.6262 23.9887 25.7079 24.2945 25.9469 24.4328C26.186 24.5711 26.4918 24.4894 26.6301 24.2504L25.7645 23.7496ZM16.4269 16.3808C16.2307 16.5751 16.2291 16.8917 16.4234 17.0879C16.6177 17.2842 16.9342 17.2857 17.1305 17.0915L16.4269 16.3808ZM25.5749 16.4252C23.0281 13.8784 18.9125 13.8527 16.3826 16.3826L17.0897 17.0897C19.2224 14.957 22.7048 14.9694 24.8678 17.1323L25.5749 16.4252ZM16.3826 16.3826L15.5383 17.2269L16.2455 17.934L17.0897 17.0897L16.3826 16.3826ZM15.8894 18.0804L17.5864 18.0889L17.5914 17.0889L15.8944 17.0804L15.8894 18.0804ZM16.3919 17.5779L16.3834 15.8809L15.3834 15.8859L15.3919 17.5829L16.3919 17.5779ZM21 15.5C24.0376 15.5 26.5 17.9624 26.5 21H27.5C27.5 17.4101 24.5899 14.5 21 14.5V15.5ZM21 26.5C17.9624 26.5 15.5 24.0376 15.5 21H14.5C14.5 24.5899 17.4101 27.5 21 27.5V26.5ZM23.7496 25.7645C22.9412 26.2322 22.0026 26.5 21 26.5V27.5C22.1831 27.5 23.2938 27.1835 24.2504 26.6301L23.7496 25.7645ZM26.5 21C26.5 22.0026 26.2322 22.9412 25.7645 23.7496L26.6301 24.2504C27.1835 23.2938 27.5 22.1831 27.5 21H26.5ZM17.1305 17.0915C18.1247 16.1071 19.491 15.5 21 15.5V14.5C19.2169 14.5 17.6008 15.2186 16.4269 16.3808L17.1305 17.0915Z" fill="#02160F"/>
</svg>
