<svg width="493" height="638" viewBox="0 0 493 638" fill="none" xmlns="http://www.w3.org/2000/svg">
<path d="M415.903 34.0176C420.573 20.0084 422.908 13.0038 419.21 9.30635C415.513 5.60888 408.508 7.94375 394.498 12.6135L377.045 18.4309M359.592 24.2484C351.805 26.8441 347.911 28.142 346.729 30.9974C346.451 31.6685 346.283 32.38 346.231 33.1044C346.012 36.1869 348.914 39.0891 354.718 44.8934L355.776 45.9506C356.728 46.9034 357.205 47.3797 357.565 47.91C358.275 48.9558 358.678 50.1797 358.729 51.4429C358.754 52.0833 358.654 52.7496 358.454 54.082C357.722 58.9591 357.356 61.3976 357.787 63.2741C358.647 67.0144 361.542 69.9505 365.27 70.8625C367.14 71.3201 369.584 70.9884 374.471 70.3252L374.738 70.2889C376.116 70.102 376.805 70.0085 377.466 70.0484C378.667 70.1209 379.826 70.5119 380.826 71.1813C381.376 71.5501 381.868 72.0416 382.851 73.0247L383.791 73.9645C389.44 79.6139 392.265 82.4386 395.262 82.2915C396.088 82.251 396.899 82.0594 397.656 81.7262C400.403 80.5177 401.666 76.728 404.192 69.1485L410.048 51.583" stroke="#B3FF4A" stroke-width="1.5" stroke-linecap="round"/>
<path d="M361.183 67.3339L375.211 53.306M417.295 11.2223L385.498 43.0189" stroke="#B3FF4A" stroke-width="1.5" stroke-linecap="round"/>
<path d="M358.393 68.4027C271.821 128.255 86.9203 29.9262 15.3112 175.282C-92.6369 431.792 446.035 111.154 430.003 307.812C413.143 514.62 476.673 537.246 505.887 637" stroke="#B3FF4A" stroke-dasharray="6 6"/>
</svg>
