<svg width="290" height="275" viewBox="0 0 290 275" fill="none" xmlns="http://www.w3.org/2000/svg">
<mask id="path-1-inside-1_243_64741" fill="white">
<path fill-rule="evenodd" clip-rule="evenodd" d="M253.988 49.5974C248.102 43.2878 247.772 33.2487 247.992 24.623C247.997 24.416 248 24.2083 248 24C248 10.7452 237.255 0 224 0C219.449 0 215.195 1.26651 211.569 3.46628C204.197 7.93867 195.314 12.607 186.925 10.6172C172.815 7.27062 158.185 6.22 143.605 7.57451C120.803 9.69277 98.9677 17.6145 80.157 30.529L80.157 30.529C78.3702 31.7558 77.4768 32.3691 76.927 33.2413C76.2198 34.3631 75.984 35.8645 76.3133 37.1491C76.5693 38.1478 77.2728 39.0588 78.68 40.8808L88.0724 53.0427C89.5087 54.9026 90.2269 55.8326 91.0404 56.3186C92.1788 56.9988 93.3536 57.1932 94.6504 56.9159C95.5771 56.7178 96.6358 56.0162 98.7532 54.613C112.978 45.1866 129.346 39.3964 146.414 37.8108C165.977 35.9934 185.654 39.7747 203.151 48.7139C220.647 57.653 235.242 71.3817 245.233 88.2992C253.95 103.059 258.85 119.715 259.547 136.765V136.766C259.651 139.303 259.703 140.572 260.085 141.439C260.62 142.653 261.466 143.491 262.685 144.015C263.555 144.389 264.73 144.426 267.078 144.5L282.437 144.984H282.437C284.738 145.056 285.889 145.093 286.848 144.715C288.082 144.229 289.16 143.158 289.655 141.928C290.04 140.971 290.013 139.888 289.96 137.721C289.402 114.91 283.025 92.5747 271.38 72.8569C266.419 64.4566 260.58 56.6643 253.988 49.5974Z"/>
</mask>
<path fill-rule="evenodd" clip-rule="evenodd" d="M253.988 49.5974C248.102 43.2878 247.772 33.2487 247.992 24.623C247.997 24.416 248 24.2083 248 24C248 10.7452 237.255 0 224 0C219.449 0 215.195 1.26651 211.569 3.46628C204.197 7.93867 195.314 12.607 186.925 10.6172C172.815 7.27062 158.185 6.22 143.605 7.57451C120.803 9.69277 98.9677 17.6145 80.157 30.529L80.157 30.529C78.3702 31.7558 77.4768 32.3691 76.927 33.2413C76.2198 34.3631 75.984 35.8645 76.3133 37.1491C76.5693 38.1478 77.2728 39.0588 78.68 40.8808L88.0724 53.0427C89.5087 54.9026 90.2269 55.8326 91.0404 56.3186C92.1788 56.9988 93.3536 57.1932 94.6504 56.9159C95.5771 56.7178 96.6358 56.0162 98.7532 54.613C112.978 45.1866 129.346 39.3964 146.414 37.8108C165.977 35.9934 185.654 39.7747 203.151 48.7139C220.647 57.653 235.242 71.3817 245.233 88.2992C253.95 103.059 258.85 119.715 259.547 136.765V136.766C259.651 139.303 259.703 140.572 260.085 141.439C260.62 142.653 261.466 143.491 262.685 144.015C263.555 144.389 264.73 144.426 267.078 144.5L282.437 144.984H282.437C284.738 145.056 285.889 145.093 286.848 144.715C288.082 144.229 289.16 143.158 289.655 141.928C290.04 140.971 290.013 139.888 289.96 137.721C289.402 114.91 283.025 92.5747 271.38 72.8569C266.419 64.4566 260.58 56.6643 253.988 49.5974Z" fill="#B3FF4A"/>
<path d="M143.605 7.57451L143.512 6.5788L143.605 7.57451ZM80.157 30.529L79.591 29.7046L79.5675 29.7208L79.5448 29.7383L80.157 30.529ZM80.157 30.529L80.723 31.3534L80.7466 31.3372L80.7692 31.3197L80.157 30.529ZM76.927 33.2413L77.7729 33.7746L77.7729 33.7746L76.927 33.2413ZM76.3133 37.1491L75.3446 37.3974H75.3446L76.3133 37.1491ZM78.68 40.8808L77.8885 41.4921H77.8885L78.68 40.8808ZM88.0724 53.0427L88.8638 52.4315L88.0724 53.0427ZM91.0404 56.3186L91.5533 55.4602H91.5533L91.0404 56.3186ZM94.6504 56.9159L94.8595 57.8938L94.6504 56.9159ZM98.7532 54.613L98.2008 53.7794H98.2008L98.7532 54.613ZM146.414 37.8108L146.321 36.8151L146.414 37.8108ZM203.151 48.7139L202.696 49.6044V49.6044L203.151 48.7139ZM245.233 88.2992L244.372 88.8077L245.233 88.2992ZM259.547 136.765H260.547V136.745L260.546 136.724L259.547 136.765ZM259.547 136.766H258.547V136.786L258.548 136.806L259.547 136.766ZM260.085 141.439L261 141.036L261 141.036L260.085 141.439ZM262.685 144.015L262.29 144.933L262.685 144.015ZM267.078 144.5L267.11 143.5L267.078 144.5ZM282.437 144.984L282.406 145.983L282.422 145.984H282.437V144.984ZM282.437 144.984L282.469 143.984L282.453 143.984H282.437V144.984ZM286.848 144.715L286.482 143.784L286.848 144.715ZM289.655 141.928L290.583 142.301L289.655 141.928ZM289.96 137.721L288.96 137.745L289.96 137.721ZM271.38 72.8569L272.241 72.3483L271.38 72.8569ZM211.569 3.46628L211.05 2.61133L211.569 3.46628ZM247.992 24.623L246.992 24.5976L247.992 24.623ZM247 24C247 24.1998 246.998 24.399 246.992 24.5976L248.992 24.6485C248.997 24.433 249 24.2168 249 24H247ZM224 1C236.703 1 247 11.2975 247 24H249C249 10.1929 237.807 -1 224 -1V1ZM212.088 4.32123C215.561 2.21366 219.637 1 224 1V-1C219.261 -1 214.828 0.319365 211.05 2.61133L212.088 4.32123ZM187.155 9.64418C172.94 6.27264 158.202 5.21418 143.512 6.5788L143.697 8.57022C158.169 7.22582 172.689 8.26859 186.694 11.5902L187.155 9.64418ZM143.512 6.5788C120.541 8.71287 98.5421 16.6937 79.591 29.7046L80.723 31.3534C99.3933 18.5353 121.066 10.6727 143.697 8.57022L143.512 6.5788ZM79.5448 29.7383L79.5448 29.7383L80.7692 31.3197L80.7692 31.3197L79.5448 29.7383ZM79.591 29.7046C77.8767 30.8815 76.7668 31.6202 76.081 32.708L77.7729 33.7746C78.1868 33.1181 78.8636 32.63 80.723 31.3534L79.591 29.7046ZM76.081 32.708C75.2273 34.0624 74.9471 35.8465 75.3446 37.3974L77.282 36.9008C77.021 35.8826 77.2124 34.6638 77.7729 33.7746L76.081 32.708ZM75.3446 37.3974C75.511 38.0466 75.8152 38.6293 76.2308 39.2578C76.6395 39.8759 77.1938 40.5926 77.8885 41.4921L79.4714 40.2696C78.759 39.3471 78.2579 38.6973 77.8991 38.1546C77.5471 37.6224 77.3716 37.2503 77.282 36.9008L75.3446 37.3974ZM77.8885 41.4921L87.2809 53.654L88.8638 52.4315L79.4714 40.2696L77.8885 41.4921ZM87.2809 53.654C87.9914 54.5739 88.5519 55.3005 89.0379 55.855C89.5272 56.4132 89.9905 56.8562 90.5275 57.1771L91.5533 55.4602C91.2768 55.295 90.9743 55.03 90.542 54.5368C90.1065 54.0398 89.5897 53.3715 88.8638 52.4315L87.2809 53.654ZM90.5275 57.1771C91.8828 57.9869 93.3156 58.2239 94.8595 57.8938L94.4413 55.938C93.3916 56.1625 92.4747 56.0108 91.5533 55.4602L90.5275 57.1771ZM94.8595 57.8938C95.4778 57.7616 96.0826 57.474 96.7583 57.0806C97.4346 56.687 98.2569 56.1415 99.3056 55.4466L98.2008 53.7794C97.132 54.4877 96.3663 54.9947 95.7522 55.3521C95.1376 55.7099 94.7497 55.8721 94.4413 55.938L94.8595 57.8938ZM99.3056 55.4466C113.393 46.1112 129.603 40.3768 146.506 38.8065L146.321 36.8151C129.089 38.416 112.563 44.2621 98.2008 53.7794L99.3056 55.4466ZM146.506 38.8065C165.881 37.0066 185.368 40.7514 202.696 49.6044L203.606 47.8233C185.94 38.7979 166.074 34.9801 146.321 36.8151L146.506 38.8065ZM202.696 49.6044C220.023 58.4573 234.477 72.0535 244.372 88.8077L246.094 87.7906C236.006 70.7099 221.271 56.8488 203.606 47.8233L202.696 49.6044ZM244.372 88.8077C253.005 103.425 257.857 119.921 258.548 136.806L260.546 136.724C259.842 119.51 254.895 102.693 246.094 87.7906L244.372 88.8077ZM258.547 136.765V136.766H260.547V136.765H258.547ZM258.548 136.806C258.599 138.063 258.639 139.049 258.717 139.828C258.794 140.606 258.915 141.265 259.17 141.843L261 141.036C260.873 140.747 260.777 140.338 260.707 139.63C260.637 138.923 260.599 138.006 260.546 136.725L258.548 136.806ZM259.17 141.843C259.808 143.287 260.839 144.31 262.29 144.933L263.08 143.096C262.094 142.672 261.433 142.018 261 141.036L259.17 141.843ZM262.29 144.933C262.864 145.18 263.495 145.296 264.234 145.366C264.968 145.434 265.885 145.463 267.047 145.499L267.11 143.5C265.923 143.463 265.079 143.436 264.421 143.374C263.768 143.313 263.376 143.223 263.08 143.096L262.29 144.933ZM267.047 145.499L282.406 145.983L282.469 143.984L267.11 143.5L267.047 145.499ZM282.437 145.984H282.437V143.984H282.437V145.984ZM282.406 145.983C283.542 146.019 284.447 146.048 285.188 146.017C285.94 145.986 286.591 145.891 287.215 145.645L286.482 143.784C286.146 143.917 285.742 143.992 285.104 144.019C284.454 144.046 283.634 144.021 282.469 143.984L282.406 145.983ZM287.215 145.645C288.704 145.059 289.986 143.786 290.583 142.301L288.727 141.555C288.335 142.53 287.46 143.399 286.482 143.784L287.215 145.645ZM290.583 142.301C291.062 141.107 291.011 139.775 290.96 137.696L288.96 137.745C289.015 140 289.017 140.835 288.727 141.555L290.583 142.301ZM290.96 137.696C290.397 114.716 283.973 92.2134 272.241 72.3483L270.519 73.3654C282.077 92.9361 288.406 115.105 288.96 137.745L290.96 137.696ZM272.241 72.3483C267.243 63.8854 261.36 56.035 254.719 48.9153L253.256 50.2795C259.799 57.2937 265.595 65.0278 270.519 73.3654L272.241 72.3483ZM211.05 2.61133C207.376 4.84072 203.385 7.08055 199.296 8.52194C195.209 9.96255 191.098 10.5792 187.155 9.64418L186.694 11.5902C191.141 12.645 195.666 11.9224 199.961 10.4082C204.254 8.89476 208.391 6.56423 212.088 4.32123L211.05 2.61133ZM246.992 24.5976C246.882 28.9221 246.907 33.6738 247.716 38.1565C248.527 42.6417 250.136 46.9346 253.256 50.2795L254.719 48.9153C251.953 45.9506 250.456 42.0692 249.684 37.801C248.913 33.5303 248.882 28.9496 248.992 24.6485L246.992 24.5976Z" fill="#02160F" mask="url(#path-1-inside-1_243_64741)"/>
<mask id="path-3-inside-2_243_64741" fill="white">
<path fill-rule="evenodd" clip-rule="evenodd" d="M125.91 268.396C125.734 267.38 126.002 266.26 126.538 264.022L130.225 248.627C130.772 246.342 131.046 245.199 131.589 244.422C132.348 243.335 133.339 242.676 134.635 242.397C135.561 242.198 136.815 242.403 139.323 242.814C151.712 244.843 164.39 244.598 176.729 242.067C191.522 239.033 205.469 232.788 217.584 223.774C229.7 214.76 239.689 203.196 246.846 189.899C252.816 178.808 256.695 166.735 258.312 154.285C258.639 151.765 258.802 150.505 259.26 149.676C259.9 148.514 260.815 147.754 262.075 147.34C262.975 147.043 264.148 147.11 266.494 147.242L282.299 148.135C284.597 148.265 285.746 148.33 286.669 148.79C287.855 149.383 288.835 150.544 289.22 151.813C289.519 152.8 289.398 153.877 289.155 156.03V156.03C287.241 172.987 282.103 189.445 273.993 204.511C271.547 209.055 268.847 213.444 265.908 217.657C260.869 224.881 262.112 235.142 263.637 243.817C263.876 245.176 264 246.573 264 248C264 261.255 253.255 272 240 272C236.555 272 233.279 271.274 230.318 269.967C222.263 266.411 212.589 262.784 204.378 265.962C197.434 268.651 190.259 270.763 182.924 272.268C166.163 275.705 148.922 275.897 132.131 272.857C129.998 272.471 128.932 272.278 128.073 271.708C126.968 270.975 126.137 269.702 125.91 268.396Z"/>
</mask>
<path fill-rule="evenodd" clip-rule="evenodd" d="M125.91 268.396C125.734 267.38 126.002 266.26 126.538 264.022L130.225 248.627C130.772 246.342 131.046 245.199 131.589 244.422C132.348 243.335 133.339 242.676 134.635 242.397C135.561 242.198 136.815 242.403 139.323 242.814C151.712 244.843 164.39 244.598 176.729 242.067C191.522 239.033 205.469 232.788 217.584 223.774C229.7 214.76 239.689 203.196 246.846 189.899C252.816 178.808 256.695 166.735 258.312 154.285C258.639 151.765 258.802 150.505 259.26 149.676C259.9 148.514 260.815 147.754 262.075 147.34C262.975 147.043 264.148 147.11 266.494 147.242L282.299 148.135C284.597 148.265 285.746 148.33 286.669 148.79C287.855 149.383 288.835 150.544 289.22 151.813C289.519 152.8 289.398 153.877 289.155 156.03V156.03C287.241 172.987 282.103 189.445 273.993 204.511C271.547 209.055 268.847 213.444 265.908 217.657C260.869 224.881 262.112 235.142 263.637 243.817C263.876 245.176 264 246.573 264 248C264 261.255 253.255 272 240 272C236.555 272 233.279 271.274 230.318 269.967C222.263 266.411 212.589 262.784 204.378 265.962C197.434 268.651 190.259 270.763 182.924 272.268C166.163 275.705 148.922 275.897 132.131 272.857C129.998 272.471 128.932 272.278 128.073 271.708C126.968 270.975 126.137 269.702 125.91 268.396Z" fill="#DEE5ED"/>
<path d="M126.538 264.022L127.511 264.255H127.511L126.538 264.022ZM125.91 268.396L126.896 268.225H126.896L125.91 268.396ZM130.225 248.627L129.253 248.394L130.225 248.627ZM131.589 244.422L130.769 243.85H130.769L131.589 244.422ZM134.635 242.397L134.425 241.419H134.425L134.635 242.397ZM139.323 242.814L139.161 243.801H139.161L139.323 242.814ZM176.729 242.067L176.93 243.046L176.729 242.067ZM217.584 223.774L216.987 222.972L217.584 223.774ZM246.846 189.899L245.966 189.425L246.846 189.899ZM258.312 154.285L259.303 154.414V154.414L258.312 154.285ZM259.26 149.676L260.135 150.158V150.158L259.26 149.676ZM262.075 147.34L262.388 148.289V148.289L262.075 147.34ZM266.494 147.242L266.551 146.244V146.244L266.494 147.242ZM282.299 148.135L282.242 149.133L282.299 148.135ZM286.669 148.79L286.222 149.685V149.685L286.669 148.79ZM289.22 151.813L288.263 152.103L288.263 152.103L289.22 151.813ZM289.155 156.03L288.161 155.918L288.155 155.974V156.03H289.155ZM289.155 156.03L290.148 156.143L290.155 156.087V156.03H289.155ZM273.993 204.511L274.874 204.985L273.993 204.511ZM182.924 272.268L183.124 273.247L182.924 272.268ZM132.131 272.857L132.309 271.873H132.309L132.131 272.857ZM128.073 271.708L128.625 270.875H128.625L128.073 271.708ZM230.318 269.967L229.914 270.882L230.318 269.967ZM263.637 243.817L262.652 243.99L263.637 243.817ZM125.566 263.789C125.301 264.894 125.09 265.775 124.97 266.506C124.849 267.25 124.81 267.906 124.925 268.566L126.896 268.225C126.834 267.869 126.841 267.458 126.944 266.828C127.049 266.186 127.239 265.388 127.511 264.255L125.566 263.789ZM129.253 248.394L125.566 263.789L127.511 264.255L131.198 248.86L129.253 248.394ZM130.769 243.85C130.411 244.363 130.17 244.957 129.952 245.666C129.737 246.371 129.523 247.264 129.253 248.394L131.198 248.86C131.474 247.705 131.671 246.884 131.865 246.252C132.057 245.625 132.224 245.259 132.408 244.995L130.769 243.85ZM134.425 241.419C132.881 241.752 131.673 242.555 130.769 243.85L132.408 244.995C133.023 244.115 133.796 243.601 134.846 243.375L134.425 241.419ZM139.484 241.827C138.243 241.623 137.268 241.463 136.49 241.382C135.712 241.301 135.043 241.286 134.425 241.419L134.846 243.375C135.154 243.308 135.574 243.297 136.282 243.371C136.989 243.445 137.895 243.593 139.161 243.801L139.484 241.827ZM176.528 241.087C164.308 243.593 151.754 243.837 139.484 241.827L139.161 243.801C151.671 245.85 164.471 245.602 176.93 243.046L176.528 241.087ZM216.987 222.972C204.989 231.898 191.178 238.082 176.528 241.087L176.93 243.046C191.867 239.983 205.948 233.678 218.181 224.576L216.987 222.972ZM245.966 189.425C238.878 202.593 228.985 214.045 216.987 222.972L218.181 224.576C230.414 215.475 240.5 203.799 247.727 190.373L245.966 189.425ZM257.32 154.157C255.719 166.486 251.878 178.441 245.966 189.425L247.727 190.373C253.755 179.174 257.671 166.985 259.303 154.414L257.32 154.157ZM258.384 149.193C258.079 149.747 257.9 150.392 257.754 151.161C257.609 151.93 257.482 152.909 257.32 154.157L259.303 154.414C259.468 153.142 259.587 152.231 259.719 151.533C259.852 150.834 259.983 150.434 260.135 150.158L258.384 149.193ZM261.762 146.39C260.263 146.884 259.146 147.81 258.384 149.193L260.135 150.158C260.653 149.218 261.368 148.625 262.388 148.289L261.762 146.39ZM266.551 146.244C265.39 146.178 264.474 146.126 263.737 146.13C262.994 146.134 262.356 146.194 261.762 146.39L262.388 148.289C262.693 148.189 263.092 148.134 263.748 148.13C264.409 148.126 265.252 148.174 266.438 148.241L266.551 146.244ZM282.355 147.137L266.551 146.244L266.438 148.241L282.242 149.133L282.355 147.137ZM287.116 147.896C286.516 147.596 285.876 147.445 285.129 147.347C284.395 147.251 283.49 147.201 282.355 147.137L282.242 149.133C283.406 149.199 284.225 149.246 284.87 149.33C285.503 149.413 285.899 149.524 286.222 149.685L287.116 147.896ZM290.177 151.523C289.713 149.991 288.548 148.611 287.116 147.896L286.222 149.685C287.163 150.155 287.958 151.097 288.263 152.103L290.177 151.523ZM290.148 156.142C290.381 154.076 290.55 152.754 290.177 151.523L288.263 152.103C288.488 152.846 288.414 153.677 288.161 155.918L290.148 156.142ZM290.155 156.03V156.03H288.155V156.03H290.155ZM274.874 204.985C283.044 189.807 288.22 173.225 290.148 156.143L288.161 155.918C286.261 172.748 281.161 189.084 273.113 204.037L274.874 204.985ZM266.728 218.229C269.689 213.984 272.409 209.563 274.874 204.985L273.113 204.037C270.685 208.548 268.004 212.903 265.088 217.085L266.728 218.229ZM262.652 243.99C262.881 245.292 263 246.632 263 248H265C265 246.515 264.871 245.06 264.622 243.644L262.652 243.99ZM263 248C263 260.703 252.703 271 240 271V273C253.807 273 265 261.807 265 248H263ZM240 271C236.697 271 233.558 270.304 230.721 269.052L229.914 270.882C233 272.244 236.413 273 240 273V271ZM183.124 273.247C190.515 271.731 197.744 269.603 204.739 266.895L204.017 265.03C197.125 267.698 190.003 269.795 182.723 271.288L183.124 273.247ZM131.952 273.841C148.869 276.903 166.238 276.711 183.124 273.247L182.723 271.288C166.087 274.7 148.974 274.89 132.309 271.873L131.952 273.841ZM127.52 272.541C128.591 273.252 129.906 273.471 131.952 273.841L132.309 271.873C130.089 271.471 129.272 271.304 128.625 270.875L127.52 272.541ZM124.925 268.566C125.198 270.144 126.186 271.656 127.52 272.541L128.625 270.875C127.749 270.294 127.075 269.261 126.896 268.225L124.925 268.566ZM230.721 269.052C226.684 267.27 222.173 265.438 217.616 264.462C213.056 263.484 208.37 263.345 204.017 265.03L204.739 266.895C208.597 265.401 212.853 265.486 217.197 266.417C221.543 267.349 225.897 269.109 229.914 270.882L230.721 269.052ZM265.088 217.085C262.417 220.915 261.443 225.502 261.312 230.165C261.18 234.825 261.888 239.643 262.652 243.99L264.622 243.644C263.861 239.316 263.185 234.666 263.311 230.221C263.436 225.778 264.361 221.623 266.728 218.229L265.088 217.085Z" fill="#02160F" mask="url(#path-3-inside-2_243_64741)"/>
<mask id="path-5-inside-3_243_64741" fill="white">
<path fill-rule="evenodd" clip-rule="evenodd" d="M73.4008 39.4505C74.3132 39.9306 75.0367 40.8258 76.4838 42.6163L86.4509 54.9484C87.9281 56.7761 88.6667 57.6899 88.9514 58.5936C89.3499 59.8583 89.2674 61.0454 88.698 62.243C88.2912 63.0987 87.3636 63.967 85.5085 65.7037C73.4755 76.9687 64.2894 90.9815 58.7659 106.589C52.4064 124.558 51.1509 143.939 55.1387 162.579C59.1265 181.219 68.2018 198.389 81.3569 212.183C92.7827 224.165 106.898 233.192 122.487 238.548C124.89 239.373 126.092 239.786 126.813 240.401C127.823 241.26 128.384 242.31 128.538 243.627C128.647 244.568 128.347 245.704 127.747 247.976L127.747 247.976L123.698 263.307C123.111 265.533 122.817 266.645 122.181 267.457C121.362 268.5 120.028 269.228 118.708 269.351C117.681 269.446 116.65 269.111 114.589 268.441C93.4934 261.586 74.3889 249.587 59.0268 233.478C51.7517 225.85 45.4371 217.426 40.1839 208.399C37.0664 203.042 30.198 201 24 201C10.7452 201 0 190.255 0 177C0 170.049 2.95574 163.787 7.67907 159.404C14.295 153.265 21.7749 145.592 22.0732 136.571C22.5255 122.899 25.0707 109.311 29.6776 96.2942C37.104 75.31 49.6266 56.5446 66.0711 41.6585C67.6779 40.204 68.4814 39.4767 69.457 39.1436C70.712 38.7151 72.2273 38.833 73.4008 39.4505Z"/>
</mask>
<path fill-rule="evenodd" clip-rule="evenodd" d="M73.4008 39.4505C74.3132 39.9306 75.0367 40.8258 76.4838 42.6163L86.4509 54.9484C87.9281 56.7761 88.6667 57.6899 88.9514 58.5936C89.3499 59.8583 89.2674 61.0454 88.698 62.243C88.2912 63.0987 87.3636 63.967 85.5085 65.7037C73.4755 76.9687 64.2894 90.9815 58.7659 106.589C52.4064 124.558 51.1509 143.939 55.1387 162.579C59.1265 181.219 68.2018 198.389 81.3569 212.183C92.7827 224.165 106.898 233.192 122.487 238.548C124.89 239.373 126.092 239.786 126.813 240.401C127.823 241.26 128.384 242.31 128.538 243.627C128.647 244.568 128.347 245.704 127.747 247.976L127.747 247.976L123.698 263.307C123.111 265.533 122.817 266.645 122.181 267.457C121.362 268.5 120.028 269.228 118.708 269.351C117.681 269.446 116.65 269.111 114.589 268.441C93.4934 261.586 74.3889 249.587 59.0268 233.478C51.7517 225.85 45.4371 217.426 40.1839 208.399C37.0664 203.042 30.198 201 24 201C10.7452 201 0 190.255 0 177C0 170.049 2.95574 163.787 7.67907 159.404C14.295 153.265 21.7749 145.592 22.0732 136.571C22.5255 122.899 25.0707 109.311 29.6776 96.2942C37.104 75.31 49.6266 56.5446 66.0711 41.6585C67.6779 40.204 68.4814 39.4767 69.457 39.1436C70.712 38.7151 72.2273 38.833 73.4008 39.4505Z" fill="white"/>
<path d="M76.4838 42.6163L77.2616 41.9877V41.9877L76.4838 42.6163ZM73.4008 39.4505L73.8665 38.5656V38.5656L73.4008 39.4505ZM86.4509 54.9484L85.6731 55.5769V55.5769L86.4509 54.9484ZM88.9514 58.5936L87.9976 58.894V58.8941L88.9514 58.5936ZM88.698 62.243L87.7949 61.8136L88.698 62.243ZM85.5085 65.7037L86.1919 66.4338L85.5085 65.7037ZM58.7659 106.589L57.8232 106.255L58.7659 106.589ZM81.3569 212.183L80.6332 212.874L81.3569 212.183ZM122.487 238.548L122.162 239.494L122.487 238.548ZM126.813 240.401L127.462 239.639L127.462 239.639L126.813 240.401ZM128.538 243.627L127.544 243.743V243.743L128.538 243.627ZM127.747 247.976L126.78 247.72L126.777 247.733L127.747 247.976ZM127.747 247.976L128.714 248.232L128.717 248.219L127.747 247.976ZM123.698 263.307L122.732 263.051L123.698 263.307ZM122.181 267.457L121.394 266.84H121.394L122.181 267.457ZM118.708 269.351L118.8 270.346L118.708 269.351ZM114.589 268.441L114.28 269.392L114.589 268.441ZM59.0268 233.478L59.7505 232.788H59.7505L59.0268 233.478ZM29.6776 96.2942L28.7348 95.9606L29.6776 96.2942ZM66.0711 41.6585L65.4 40.9172V40.9172L66.0711 41.6585ZM69.457 39.1436L69.1339 38.1972V38.1972L69.457 39.1436ZM7.67907 159.404L6.99887 158.671L7.67907 159.404ZM22.0732 136.571L21.0738 136.538L22.0732 136.571ZM40.1839 208.399L39.3196 208.902L40.1839 208.399ZM77.2616 41.9877C76.5472 41.1038 75.9781 40.3987 75.4714 39.8581C74.9561 39.3084 74.4596 38.8776 73.8665 38.5656L72.9352 40.3355C73.2544 40.5035 73.5759 40.7604 74.0122 41.2259C74.4571 41.7005 74.9734 42.3383 75.7061 43.2449L77.2616 41.9877ZM87.2286 54.3198L77.2616 41.9877L75.7061 43.2449L85.6731 55.5769L87.2286 54.3198ZM89.9052 58.2931C89.7172 57.6965 89.3934 57.1434 88.9635 56.5383C88.5365 55.9372 87.9593 55.2238 87.2286 54.3198L85.6731 55.5769C86.4197 56.5006 86.9504 57.158 87.3331 57.6967C87.713 58.2314 87.9008 58.587 87.9976 58.894L89.9052 58.2931ZM89.6011 62.6724C90.279 61.2467 90.3796 59.7988 89.9052 58.2931L87.9976 58.8941C88.3202 59.9179 88.2559 60.8442 87.7949 61.8136L89.6011 62.6724ZM86.1919 66.4338C87.1107 65.5736 87.8316 64.8993 88.371 64.3321C88.91 63.7654 89.3297 63.2434 89.6011 62.6724L87.7949 61.8136C87.6596 62.0983 87.4121 62.4383 86.9218 62.9538C86.4319 63.469 85.7615 64.0971 84.8251 64.9737L86.1919 66.4338ZM59.7086 106.922C65.1786 91.4664 74.2756 77.5895 86.1919 66.4338L84.8251 64.9737C72.6754 76.3479 63.4003 90.4965 57.8232 106.255L59.7086 106.922ZM56.1166 162.369C52.1674 143.91 53.4108 124.718 59.7086 106.922L57.8232 106.255C51.402 124.399 50.1343 143.967 54.1608 162.788L56.1166 162.369ZM82.0806 211.493C69.053 197.832 60.0658 180.829 56.1166 162.369L54.1608 162.788C58.1873 181.609 67.3505 198.945 80.6332 212.874L82.0806 211.493ZM122.812 237.602C107.374 232.298 93.3956 223.358 82.0806 211.493L80.6332 212.874C92.1698 224.971 106.422 234.086 122.162 239.494L122.812 237.602ZM127.462 239.639C126.98 239.229 126.384 238.925 125.66 238.628C124.936 238.331 124.002 238.011 122.812 237.602L122.162 239.494C123.375 239.91 124.244 240.209 124.902 240.479C125.56 240.749 125.925 240.958 126.165 241.162L127.462 239.639ZM129.531 243.511C129.348 241.943 128.663 240.663 127.462 239.639L126.165 241.162C126.982 241.858 127.42 242.677 127.544 243.743L129.531 243.511ZM128.714 248.231C129.011 247.107 129.246 246.22 129.39 245.497C129.534 244.769 129.603 244.132 129.531 243.511L127.544 243.743C127.582 244.063 127.556 244.464 127.428 245.107C127.299 245.755 127.084 246.572 126.781 247.721L128.714 248.231ZM128.717 248.219L128.718 248.218L126.777 247.733L126.777 247.734L128.717 248.219ZM124.665 263.562L128.714 248.231L126.78 247.721L122.732 263.051L124.665 263.562ZM122.968 268.074C123.381 267.546 123.658 266.95 123.903 266.238C124.144 265.537 124.375 264.661 124.665 263.562L122.732 263.051C122.434 264.178 122.224 264.972 122.012 265.587C121.804 266.19 121.616 266.556 121.394 266.84L122.968 268.074ZM118.8 270.346C120.394 270.198 121.98 269.334 122.968 268.074L121.394 266.84C120.745 267.667 119.662 268.258 118.615 268.355L118.8 270.346ZM114.28 269.392C116.258 270.035 117.52 270.465 118.8 270.346L118.615 268.355C117.843 268.427 117.043 268.187 114.898 267.49L114.28 269.392ZM58.3031 234.169C73.7799 250.398 93.0269 262.486 114.28 269.392L114.898 267.49C93.9599 260.686 74.9979 248.777 59.7505 232.788L58.3031 234.169ZM39.3196 208.902C44.612 217.997 50.9738 226.483 58.3031 234.169L59.7505 232.788C52.5297 225.217 46.2622 216.856 41.0482 207.896L39.3196 208.902ZM24 200C11.2975 200 1 189.703 1 177H-1C-1 190.807 10.1929 202 24 202V200ZM1 177C1 170.338 3.83131 164.339 8.35928 160.137L6.99887 158.671C2.08017 163.235 -1 169.759 -1 177H1ZM28.7348 95.9606C24.0936 109.075 21.5294 122.763 21.0738 136.538L23.0727 136.604C23.5215 123.034 26.0478 109.548 30.6203 96.6278L28.7348 95.9606ZM65.4 40.9172C48.8328 55.9144 36.2167 74.8198 28.7348 95.9606L30.6203 96.6278C37.9912 75.8003 50.4205 57.1749 66.7422 42.3999L65.4 40.9172ZM69.1339 38.1972C67.917 38.6127 66.9416 39.5217 65.4 40.9172L66.7422 42.3999C68.4143 40.8863 69.0457 40.3407 69.7801 40.0899L69.1339 38.1972ZM73.8665 38.5656C72.4496 37.82 70.6491 37.6799 69.1339 38.1972L69.7801 40.0899C70.7749 39.7503 72.0049 39.846 72.9352 40.3355L73.8665 38.5656ZM8.35928 160.137C11.6733 157.062 15.2611 153.551 18.0579 149.651C20.8555 145.749 22.9145 141.385 23.0727 136.604L21.0738 136.538C20.9335 140.777 19.1034 144.76 16.4326 148.485C13.7609 152.211 10.3008 155.607 6.99887 158.671L8.35928 160.137ZM41.0482 207.896C37.6609 202.076 30.3261 200 24 200V202C30.0699 202 36.472 204.009 39.3196 208.902L41.0482 207.896Z" fill="#02160F" mask="url(#path-5-inside-3_243_64741)"/>
</svg>
