<svg width="130" height="130" viewBox="0 0 130 130" fill="none" xmlns="http://www.w3.org/2000/svg">
<circle cx="64.5289" cy="65.4708" r="40.0362" fill="#B3FF4A"/>
<circle cx="65" cy="65" r="65" fill="#B3FF4A" fill-opacity="0.2"/>
<path d="M84.6724 65.5996H45.3391" stroke="#02160F" stroke-width="3" stroke-linecap="round"/>
<path d="M65.0059 45.9336V85.2669" stroke="#02160F" stroke-width="3" stroke-linecap="round"/>
<path d="M66.9724 65.5996C66.9724 69.9442 70.4944 73.4663 74.8391 73.4663" stroke="#02160F" stroke-width="3" stroke-linecap="round"/>
<path d="M63.039 65.5996C63.039 69.9442 59.517 73.4663 55.1724 73.4663" stroke="#02160F" stroke-width="3" stroke-linecap="round"/>
<path d="M65.0059 61.7356C65.0059 58.8055 67 56.2514 69.8427 55.5407C72.9967 54.7522 75.8536 57.6091 75.0651 60.7631C74.3544 63.6057 71.8003 65.5999 68.8702 65.5999H65.0059V61.7356Z" stroke="#02160F" stroke-width="3"/>
<path d="M65.0057 61.7356C65.0057 58.8055 63.0115 56.2514 60.1689 55.5407C57.0149 54.7522 54.158 57.6091 54.9465 60.7631C55.6571 63.6057 58.2112 65.5999 61.1413 65.5999H65.0057V61.7356Z" stroke="#02160F" stroke-width="3"/>
<path d="M84.6724 65.6003C84.6724 74.8712 84.6724 79.5067 81.7923 82.3868C78.9122 85.2669 74.2767 85.2669 65.0058 85.2669C55.7348 85.2669 51.0993 85.2669 48.2192 82.3868C45.3391 79.5067 45.3391 74.8712 45.3391 65.6003C45.3391 56.3293 45.3391 51.6938 48.2192 48.8137C51.0993 45.9336 55.7348 45.9336 65.0058 45.9336C74.2767 45.9336 78.9122 45.9336 81.7923 48.8137C83.7074 50.7287 84.3491 53.4198 84.5641 57.7336" stroke="#02160F" stroke-width="3" stroke-linecap="round"/>
</svg>
