<svg width="30" height="30" viewBox="0 0 30 30" fill="none" xmlns="http://www.w3.org/2000/svg">
<circle cx="15" cy="15" r="15" fill="white"/>
<circle cx="15.0001" cy="10.0003" r="3.33333" stroke="#02160F"/>
<path d="M20 12.4997C21.3807 12.4997 22.5 11.5669 22.5 10.4163C22.5 9.26575 21.3807 8.33301 20 8.33301" stroke="#02160F" stroke-linecap="round"/>
<path d="M10 12.4997C8.61929 12.4997 7.5 11.5669 7.5 10.4163C7.5 9.26575 8.61929 8.33301 10 8.33301" stroke="#02160F" stroke-linecap="round"/>
<path d="M19.3311 17.4997C19.7565 17.99 20 18.5592 20 19.1663C20 21.0073 17.7614 22.4997 15 22.4997C12.2386 22.4997 10 21.0073 10 19.1663C10 17.3254 12.2386 15.833 15 15.833C15.2839 15.833 15.5623 15.8488 15.8333 15.8791" stroke="#02160F" stroke-linecap="round"/>
<path d="M21.6667 20.8337C23.1286 20.5131 24.1667 19.7012 24.1667 18.7503C24.1667 17.7994 23.1286 16.9876 21.6667 16.667" stroke="#02160F" stroke-linecap="round"/>
<path d="M8.33325 20.8337C6.87138 20.5131 5.83325 19.7012 5.83325 18.7503C5.83325 17.7994 6.87138 16.9876 8.33325 16.667" stroke="#02160F" stroke-linecap="round"/>
</svg>
