<svg width="138" height="138" viewBox="0 0 138 138" fill="none" xmlns="http://www.w3.org/2000/svg">
<path d="M64.0012 59C61.9119 57.4302 59.3146 56.5 56.5 56.5C49.5964 56.5 44 62.0964 44 69C44 73.089 45.9634 76.7194 48.9988 79M74 79C76.0892 80.5694 78.6858 81.5 81.5 81.5C88.4036 81.5 94 75.9036 94 69C94 64.911 92.0366 61.2806 89.0012 59" stroke="#02160F" stroke-width="3" stroke-linecap="round"/>
<path d="M56.5 81.5C63.4036 81.5 65.25 76.5 69 69C72.75 61.5 74.5964 56.5 81.5 56.5" stroke="#02160F" stroke-width="3" stroke-linecap="round"/>
<circle cx="68.5" cy="69.5" r="42.5" fill="#B3FF4A"/>
<circle cx="69" cy="69" r="69" fill="#B3FF4A" fill-opacity="0.2"/>
<path d="M69.05 57.5249C62.1326 57.5249 56.525 63.1325 56.525 70.0499C56.525 73.5086 57.9269 76.6398 60.1935 78.9064M77.9065 78.9064C80.1731 76.6398 81.575 73.5086 81.575 70.0499C81.575 67.4891 80.8065 65.1078 79.4875 63.124" stroke="#02160F" stroke-width="3" stroke-linecap="round"/>
<path d="M69.05 49.175C80.5789 49.175 89.925 58.5211 89.925 70.05C89.925 75.8145 87.5885 81.0333 83.8108 84.8109M54.2891 84.8109C50.5115 81.0333 48.175 75.8145 48.175 70.05C48.175 62.3234 52.3729 55.5771 58.6125 51.9678" stroke="#02160F" stroke-width="3" stroke-linecap="round"/>
<circle cx="69.05" cy="70.05" r="4.175" stroke="#02160F" stroke-width="3"/>
<path d="M64.6398 81.2057C66.6426 79.3775 67.6439 78.4634 68.8803 78.404C68.9933 78.3985 69.1066 78.3985 69.2197 78.404C70.4561 78.4634 71.4574 79.3775 73.4601 81.2057C77.8178 85.1836 79.9966 87.1726 79.3866 88.8886C79.3342 89.0361 79.2691 89.1796 79.1919 89.3177C78.2939 90.9249 75.2126 90.9249 69.05 90.9249C62.8874 90.9249 59.806 90.9249 58.9081 89.3177C58.8309 89.1796 58.7658 89.0361 58.7134 88.8886C58.1034 87.1726 60.2822 85.1836 64.6398 81.2057Z" stroke="#02160F" stroke-width="3"/>
</svg>
